<?xml version="1.0" encoding="UTF-8"?>
<svg version="1.1" xmlns="http://www.w3.org/2000/svg" width="726" height="120">
<path d="M0 0 C239.58 0 479.16 0 726 0 C726 39.6 726 79.2 726 120 C486.42 120 246.84 120 0 120 C0 80.4 0 40.8 0 0 Z " fill="#000000" transform="translate(0,0)"/>
<path d="M0 0 C3.23300967 1.67613001 5.31008993 3.99649444 7.375 7 C8.12860024 9.41152078 8.13952346 11.48857781 8 14 C9.7325 13.814375 9.7325 13.814375 11.5 13.625 C16.87691674 13.58666191 20.24343756 16.38395735 24 20 C25.49498913 22.98997825 25.11577446 25.70042775 25 29 C24.505 30.485 24.505 30.485 24 32 C23.34 32 22.68 32 22 32 C21.7215625 32.8971875 21.7215625 32.8971875 21.4375 33.8125 C19.35970778 36.97435773 16.50285314 37.93456654 13 39 C10.13698602 39.40786232 7.32250426 39.44483585 4.43359375 39.43359375 C3.63647476 39.4388356 2.83935577 39.44407745 2.01808167 39.44947815 C0.3432023 39.45586554 -1.33172212 39.45460418 -3.0065918 39.44604492 C-5.55924515 39.43751088 -8.10967512 39.46637774 -10.66210938 39.49804688 C-12.29687434 39.49965866 -13.93164323 39.49908178 -15.56640625 39.49609375 C-16.32280899 39.50732773 -17.07921173 39.51856171 -17.85853577 39.53013611 C-24.35495409 39.44522484 -27.83744987 37.10564092 -32.375 32.6875 C-34.50118108 29.1711236 -34.50625344 27.05002755 -34 23 C-32.18590802 18.89442341 -29.77744692 16.40382986 -26 14 C-22.1875 13.25 -22.1875 13.25 -19 13 C-18.85304688 12.39671875 -18.70609375 11.7934375 -18.5546875 11.171875 C-17.40351013 7.06997862 -16.4958761 4.4958761 -13.4375 1.4375 C-8.82647373 -0.49074735 -4.92431509 -0.93530011 0 0 Z " fill="#338BB4" transform="translate(96,30)"/>
<path d="M0 0 C3.91671001 1.95061447 6.43925232 4.93643172 8 9 C8.30078125 12.2421875 8.30078125 12.2421875 8.3125 15.875 C8.32925781 17.06867187 8.34601563 18.26234375 8.36328125 19.4921875 C7.82682162 24.67219553 6.22454358 27.89207962 2.375 31.375 C-1.92717577 33.44641796 -5.30588887 33.72884535 -10 33 C-13.2105943 31.53429391 -15.78722954 29.76596308 -18 27 C-19.20784213 23.41841258 -19.20154265 19.88044464 -19.25 16.125 C-19.27578125 14.93132813 -19.3015625 13.73765625 -19.328125 12.5078125 C-18.88578346 7.77897084 -17.48165076 4.38904759 -14 1.125 C-9.3331919 -0.62505304 -4.91301464 -0.77801405 0 0 Z " fill="#D7D8DA" transform="translate(361,34)"/>
<path d="M0 0 C2.375 1.5 2.375 1.5 4 3 C4.53625 2.505 5.0725 2.01 5.625 1.5 C8.74008151 -0.4674199 10.37170989 -0.5923739 14 0 C16.93015518 2.0691008 18.76381186 3.652533 19.40063477 7.28564453 C19.49216823 9.97759515 19.43609353 12.62196398 19.3125 15.3125 C19.28994141 16.24384766 19.26738281 17.17519531 19.24414062 18.13476562 C19.18542078 20.4248396 19.10336858 22.71157875 19 25 C16.69 25 14.38 25 12 25 C11.67 19.39 11.34 13.78 11 8 C9.68 7.67 8.36 7.34 7 7 C4.88074396 9.11925604 5.58168983 13.6196093 5.4375 16.5625 C5.39431641 17.36880859 5.35113281 18.17511719 5.30664062 19.00585938 C5.20024738 21.00368805 5.09959112 23.0018207 5 25 C2.36 25 -0.28 25 -3 25 C-3 19.06 -3 13.12 -3 7 C-4.98 7.33 -6.96 7.66 -9 8 C-9.33 13.61 -9.66 19.22 -10 25 C-12.31 25 -14.62 25 -17 25 C-17 17.08 -17 9.16 -17 1 C-14 1 -11 1 -8 1 C-5.19084526 -0.40457737 -3.11189466 -0.24895157 0 0 Z " fill="#D7D6DA" transform="translate(538,41)"/>
<path d="M0 0 C2.31 0 4.62 0 7 0 C7 10.89 7 21.78 7 33 C4 33 1 33 -2 33 C-3.093125 33.226875 -4.18625 33.45375 -5.3125 33.6875 C-9.49020164 34.04154251 -10.81707692 33.63727913 -14 31 C-17.10365192 26.13216699 -16.5857302 20.55331543 -16 15 C-15.06976181 12.03103621 -14.35405448 11.23333374 -12 9 C-7.14578473 7.61308135 -5.58672835 7.70663582 -1 10 C-0.67 6.7 -0.34 3.4 0 0 Z " fill="#DEDFE1" transform="translate(331,33)"/>
<path d="M0 0 C3.47451265 0.41694152 5.33350785 1.30132012 8.125 3.375 C9.61852829 6.36205657 9.39067862 9.4131251 9.4375 12.6875 C9.47488281 14.00363281 9.51226562 15.31976563 9.55078125 16.67578125 C9.06480507 20.89797795 8.1820742 22.48082496 5.125 25.375 C1.625 26.375 1.625 26.375 -1.875 26.375 C-3.195 25.385 -4.515 24.395 -5.875 23.375 C-6.205 26.675 -6.535 29.975 -6.875 33.375 C-9.185 33.375 -11.495 33.375 -13.875 33.375 C-13.875 22.815 -13.875 12.255 -13.875 1.375 C-11.565 1.375 -9.255 1.375 -6.875 1.375 C-6.545 2.035 -6.215 2.695 -5.875 3.375 C-5.50375 2.88 -5.1325 2.385 -4.75 1.875 C-2.875 0.375 -2.875 0.375 0 0 Z " fill="#DDDDE1" transform="translate(385.875,40.625)"/>
<path d="M0 0 C2.375 1.5 2.375 1.5 4 3 C4.53625 2.505 5.0725 2.01 5.625 1.5 C8.68245535 -0.43102443 10.438173 -0.44522837 14 0 C17.1359157 1.77984405 17.84102736 2.52308207 19 6 C19.0806622 7.48123547 19.10761193 8.96582204 19.09765625 10.44921875 C19.09443359 11.29677734 19.09121094 12.14433594 19.08789062 13.01757812 C19.07532227 14.33918945 19.07532227 14.33918945 19.0625 15.6875 C19.05798828 16.58017578 19.05347656 17.47285156 19.04882812 18.39257812 C19.03704983 20.59511987 19.02060164 22.79752599 19 25 C16.69 25 14.38 25 12 25 C11.67 19.39 11.34 13.78 11 8 C7.36380344 6.91915479 7.36380344 6.91915479 5 7 C4.67 12.94 4.34 18.88 4 25 C1.69 25 -0.62 25 -3 25 C-3.33 19.39 -3.66 13.78 -4 8 C-5.32 7.67 -6.64 7.34 -8 7 C-10.11925604 9.11925604 -9.41831017 13.6196093 -9.5625 16.5625 C-9.60568359 17.36880859 -9.64886719 18.17511719 -9.69335938 19.00585938 C-9.79975262 21.00368805 -9.90040888 23.0018207 -10 25 C-12.31 25 -14.62 25 -17 25 C-17 17.08 -17 9.16 -17 1 C-14 1 -11 1 -8 1 C-5.19084526 -0.40457737 -3.11189466 -0.24895157 0 0 Z " fill="#E1E2E5" transform="translate(498,41)"/>
<path d="M0 0 C0.391875 1.258125 0.78375 2.51625 1.1875 3.8125 C2.24712416 6.56363429 2.87988967 7.88716908 5.0625 9.9375 C9.30093736 11.47055181 13.52123094 11.74779747 18 12 C18.390625 13.953125 18.78125 15.90625 19.171875 17.859375 C20.22601618 20.5842305 21.90983966 21.99784642 24 24 C19.55266701 24.12415248 15.1062674 24.21459457 10.65771484 24.2746582 C9.14646826 24.29971095 7.63534176 24.33376377 6.12451172 24.37719727 C3.94468499 24.4382669 1.76646738 24.46629916 -0.4140625 24.48828125 C-2.37786865 24.52755737 -2.37786865 24.52755737 -4.38134766 24.56762695 C-9.13819857 23.82146055 -10.62973703 22.37802283 -14 19 C-16.48386059 15.27420911 -16.3804212 13.41288598 -16 9 C-12.5799698 1.25993165 -7.94110877 -0.53838026 0 0 Z " fill="#5ED6FB" transform="translate(78,44)"/>
<path d="M0 0 C3.07061968 1.71368609 5.40450726 3.80901452 7 7 C7.45817575 13.02021629 7.68776082 18.67739996 3.7265625 23.57421875 C0.42217928 26.3029515 -3.85982256 26.10946037 -8 26 C-11.2912588 24.88332291 -13.22414822 24.18910616 -15.13671875 21.2578125 C-16.2190061 18.42721482 -16.30104813 16.08961168 -16.3125 13.0625 C-16.32925781 12.04285156 -16.34601563 11.02320313 -16.36328125 9.97265625 C-15.9440555 6.54221755 -15.10215753 4.72853404 -13 2 C-8.99663535 -0.68797341 -4.65990055 -0.81427328 0 0 Z " fill="#E0E1E5" transform="translate(470,41)"/>
<path d="M0 0 C3.83710223 1.32822769 5.54519837 2.34811766 7.875 5.6875 C9.67419333 10.98512479 9.67419333 15.01487521 7.875 20.3125 C5.50037925 23.71612307 3.9653041 24.75166353 0 26 C-4.61625023 26.26867065 -8.00938078 25.54585141 -12.0625 23.3125 C-15.25278477 17.85814217 -14.93991122 12.14613821 -14 6 C-10.94697397 0.28680055 -5.99607802 -0.39973853 0 0 Z " fill="#DBDCE0" transform="translate(277,41)"/>
<path d="M0 0 C3.06881816 1.71904752 5.40357084 3.80714167 7 7 C7.13559318 10.00474497 7.04299016 12.99068847 7 16 C2.05 16 -2.9 16 -8 16 C-5.38861342 19.29879068 -5.38861342 19.29879068 -2.30078125 19.07421875 C-1.31464844 18.94660156 -0.32851562 18.81898437 0.6875 18.6875 C1.68136719 18.56761719 2.67523438 18.44773437 3.69921875 18.32421875 C4.45847656 18.21722656 5.21773437 18.11023438 6 18 C6 19.98 6 21.96 6 24 C0.49774274 26.75112863 -4.58472388 26.77471121 -10.3125 24.9375 C-13.89169278 22.35715172 -14.7403734 20.19875533 -16 16 C-16.55213102 10.75475534 -15.8349159 7.45486785 -13 3 C-9.58076666 -0.94526924 -4.86543062 -0.925947 0 0 Z " fill="#D5D6D9" transform="translate(217,41)"/>
<path d="M0 0 C0 1.32 0 2.64 0 4 C1.32 4.33 2.64 4.66 4 5 C4.875 8.0625 4.875 8.0625 5 12 C3.66419697 14.03752235 2.18818119 15.62593508 0.4453125 17.32421875 C-1.17725809 19.20552357 -1.58830575 20.57733766 -2 23 C-6.89340646 23.3481475 -10.85791961 23.47759725 -15.4375 21.5625 C-18.87046744 18.12953256 -20.52586294 14.85990487 -21 10 C-19.14163454 5.60749983 -15.99180623 2.51059838 -12.08203125 -0.1640625 C-8.11059758 -1.75859684 -4.08877051 -0.83091715 0 0 Z " fill="#058ACD" transform="translate(98,33)"/>
<path d="M0 0 C2.31 0 4.62 0 7 0 C7.33 2.97 7.66 5.94 8 9 C9.32 8.34 10.64 7.68 12 7 C18.2459586 7.21915644 18.2459586 7.21915644 20.6965332 9.75683594 C22.20301886 12.34937953 22.35017885 13.79069998 22.29296875 16.765625 C22.28330078 17.65507813 22.27363281 18.54453125 22.26367188 19.4609375 C22.23853516 20.38132812 22.21339844 21.30171875 22.1875 22.25 C22.16719727 23.65378906 22.16719727 23.65378906 22.14648438 25.0859375 C22.11119954 27.39121327 22.06190281 29.6953106 22 32 C19.69 32 17.38 32 15 32 C14.67 26.39 14.34 20.78 14 15 C10.25308553 13.60229416 10.25308553 13.60229416 8 15 C7.67 20.61 7.34 26.22 7 32 C4.69 32 2.38 32 0 32 C0 21.44 0 10.88 0 0 Z " fill="#E4E4E7" transform="translate(176,34)"/>
<path d="M0 0 C1.2684375 -0.00773437 1.2684375 -0.00773437 2.5625 -0.015625 C5.13478811 0.26468845 6.7803108 0.9551813 9 2.25 C9 4.23 9 6.21 9 8.25 C5.04 8.25 1.08 8.25 -3 8.25 C-5.43250745 14.33126863 -5.53168983 18.93177944 -4 25.25 C-2.58344207 25.2772415 -1.16672955 25.29650467 0.25 25.3125 C1.03890625 25.32410156 1.8278125 25.33570312 2.640625 25.34765625 C4.90691002 25.25385306 6.8288895 24.88241063 9 24.25 C9 26.56 9 28.87 9 31.25 C3.26860238 33.48664297 -1.33397785 34.12158416 -7.25 32.1875 C-10.82532842 29.66851861 -12.15947957 27.43870923 -13 23.25 C-13.74993965 15.37100441 -14.17003962 8.56893732 -9 2.25 C-5.95480377 0.32397845 -3.57521292 -0.02180008 0 0 Z " fill="#DDDEE0" transform="translate(443,33.75)"/>
<path d="M0 0 C0.76183594 -0.01417969 1.52367187 -0.02835938 2.30859375 -0.04296875 C4.79597315 0.21137334 6.41058106 0.94732804 8.5625 2.1875 C8.5625 4.1675 8.5625 6.1475 8.5625 8.1875 C7.79164063 8.16429687 7.02078125 8.14109375 6.2265625 8.1171875 C4.72222656 8.09011719 4.72222656 8.09011719 3.1875 8.0625 C2.18976563 8.03929687 1.19203125 8.01609375 0.1640625 7.9921875 C-2.60012173 7.91533152 -2.60012173 7.91533152 -4.4375 10.1875 C-4.75763184 12.98227762 -4.75763184 12.98227762 -4.6875 16.125 C-4.69265625 17.18589844 -4.6978125 18.24679688 -4.703125 19.33984375 C-4.64609765 22.38921473 -4.64609765 22.38921473 -2.4375 25.1875 C1.73910573 25.45268132 4.60590734 25.50636422 8.5625 24.1875 C8.5625 26.4975 8.5625 28.8075 8.5625 31.1875 C4.330491 33.3035045 0.22548921 33.93576833 -4.4375 33.1875 C-8.46151047 31.10097605 -10.90856806 29.46297484 -12.4375 25.1875 C-12.8019706 22.22636538 -12.8533283 19.29356221 -12.875 16.3125 C-12.90787109 15.52230469 -12.94074219 14.73210938 -12.97460938 13.91796875 C-13.01278554 9.74635482 -12.74426428 7.00656814 -10.09765625 3.6796875 C-6.7424949 0.53637922 -4.43888115 0.03742733 0 0 Z " fill="#E3E4E7" transform="translate(239.4375,33.8125)"/>
<path d="M0 0 C2.64 0 5.28 0 8 0 C9.32 4.95 10.64 9.9 12 15 C13.65 10.05 15.3 5.1 17 0 C19.31 0 21.62 0 24 0 C22.56275269 6.99123315 20.62719696 13.70968202 18.4375 20.5 C18.12103516 21.5003125 17.80457031 22.500625 17.47851562 23.53125 C15.13046329 30.86953671 15.13046329 30.86953671 14 32 C12.00041636 32.04080783 9.99954746 32.04254356 8 32 C8.33 29.36 8.66 26.72 9 24 C8.01 23.34 7.02 22.68 6 22 C5.10864258 19.96875 5.10864258 19.96875 4.39453125 17.5 C4.13349609 16.613125 3.87246094 15.72625 3.60351562 14.8125 C3.34248047 13.884375 3.08144531 12.95625 2.8125 12 C2.40354492 10.6078125 2.40354492 10.6078125 1.98632812 9.1875 C0 2.33740602 0 2.33740602 0 0 Z " fill="#E0E1E3" transform="translate(643,42)"/>
<path d="M0 0 C2.31 0 4.62 0 7 0 C7.33 5.61 7.66 11.22 8 17 C9.98 17 11.96 17 14 17 C14.33 11.39 14.66 5.78 15 0 C17.31 0 19.62 0 22 0 C22 7.92 22 15.84 22 24 C19 24 16 24 13 24 C11.72125 24.226875 10.4425 24.45375 9.125 24.6875 C6.18077724 25.06688261 5.27999917 25.14358932 2.5625 23.75 C-0.00393309 20.87559494 -0.12239253 18.23648679 -0.09765625 14.55078125 C-0.09443359 13.70322266 -0.09121094 12.85566406 -0.08789062 11.98242188 C-0.07951172 11.10134766 -0.07113281 10.22027344 -0.0625 9.3125 C-0.05798828 8.41982422 -0.05347656 7.52714844 -0.04882812 6.60742188 C-0.03704983 4.40488013 -0.02060164 2.20247401 0 0 Z " fill="#DBDBDF" transform="translate(561,42)"/>
<path d="M0 0 C2.31 0 4.62 0 7 0 C7.33 5.61 7.66 11.22 8 17 C9.98 17 11.96 17 14 17 C14.33 11.39 14.66 5.78 15 0 C17.31 0 19.62 0 22 0 C22 7.92 22 15.84 22 24 C19 24 16 24 13 24 C11.72125 24.226875 10.4425 24.45375 9.125 24.6875 C6.18077724 25.06688261 5.27999917 25.14358932 2.5625 23.75 C-0.00393309 20.87559494 -0.12239253 18.23648679 -0.09765625 14.55078125 C-0.09443359 13.70322266 -0.09121094 12.85566406 -0.08789062 11.98242188 C-0.07951172 11.10134766 -0.07113281 10.22027344 -0.0625 9.3125 C-0.05798828 8.41982422 -0.05347656 7.52714844 -0.04882812 6.60742188 C-0.03704983 4.40488013 -0.02060164 2.20247401 0 0 Z " fill="#DBDBDF" transform="translate(289,42)"/>
<path d="M0 0 C2.6796875 1.34765625 2.6796875 1.34765625 5 4 C5.62671466 7.59854283 5.46996479 11.11135219 5.3125 14.75 C5.28994141 15.73355469 5.26738281 16.71710937 5.24414062 17.73046875 C5.18528805 20.1551947 5.10313431 22.57681983 5 25 C2.69 25 0.38 25 -2 25 C-2.33 19.39 -2.66 13.78 -3 8 C-6.74691447 6.60229416 -6.74691447 6.60229416 -9 8 C-9.33 13.61 -9.66 19.22 -10 25 C-12.31 25 -14.62 25 -17 25 C-17 17.08 -17 9.16 -17 1 C-14 1 -11 1 -8 1 C-5.14675563 -0.42662219 -3.16545451 -0.31033868 0 0 Z " fill="#E3E2E7" transform="translate(605,41)"/>
<path d="M0 0 C3.0625 1 3.0625 1 5 2 C5 3.98 5 5.96 5 8 C1.37 7.67 -2.26 7.34 -6 7 C-6.33 7.66 -6.66 8.32 -7 9 C-5.783125 9.268125 -4.56625 9.53625 -3.3125 9.8125 C3.26006006 11.51692943 3.26006006 11.51692943 6 14 C6.5625 17.4375 6.5625 17.4375 6 21 C3.78136971 23.90717073 2.48055071 24.83981643 -1 26 C-5.83105392 26.27345588 -9.49302254 25.75882047 -14 24 C-14 22.02 -14 20.04 -14 18 C-10.04 18.33 -6.08 18.66 -2 19 C-2 18.34 -2 17.68 -2 17 C-2.69867188 16.73445313 -3.39734375 16.46890625 -4.1171875 16.1953125 C-5.02726562 15.84210937 -5.93734375 15.48890625 -6.875 15.125 C-7.77992188 14.77695312 -8.68484375 14.42890625 -9.6171875 14.0703125 C-12 13 -12 13 -14 11 C-14.4375 7.625 -14.4375 7.625 -14 4 C-10.18590312 -0.79837995 -5.68164943 -0.71919613 0 0 Z " fill="#DBDBDE" transform="translate(412,41)"/>
<path d="M0 0 C2.31 0 4.62 0 7 0 C7 1.98 7 3.96 7 6 C9.64 6 12.28 6 15 6 C15 7.98 15 9.96 15 12 C12.36 12 9.72 12 7 12 C7.33 15.63 7.66 19.26 8 23 C10.31 23.33 12.62 23.66 15 24 C15 25.98 15 27.96 15 30 C7.01475446 31.44395508 7.01475446 31.44395508 3 29.6875 C1 28 1 28 0 26 C-0.07116382 23.62597499 -0.08409085 21.24999323 -0.0625 18.875 C-0.05347656 17.59367187 -0.04445313 16.31234375 -0.03515625 14.9921875 C-0.02355469 14.00476562 -0.01195312 13.01734375 0 12 C-0.99 12 -1.98 12 -3 12 C-3 10.02 -3 8.04 -3 6 C-2.01 6 -1.02 6 0 6 C0 4.02 0 2.04 0 0 Z " fill="#DEDFE2" transform="translate(627,36)"/>
<path d="M0 0 C8.25 0 16.5 0 25 0 C25 1.65 25 3.3 25 5 C24.67 5.33 24.34 5.66 24 6 C21.36 6 18.72 6 16 6 C16 14.25 16 22.5 16 31 C13.69 31 11.38 31 9 31 C9 22.75 9 14.5 9 6 C6.03 6 3.06 6 0 6 C0 4.02 0 2.04 0 0 Z " fill="#DCDBDF" transform="translate(148,35)"/>
<path d="M0 0 C3.3125 -0.5625 3.3125 -0.5625 7 0 C9.65843325 2.21197882 11.45322157 4.90644314 13 8 C13.14977039 10.24655587 13.22150174 12.49863768 13.25 14.75 C13.28867187 16.56757812 13.28867187 16.56757812 13.328125 18.421875 C12.89528265 23.14191782 11.48747873 26.51252127 8.125 29.875 C5.5785352 31.22312842 3.84172382 31.23681032 1 31 C1.309375 30.236875 1.61875 29.47375 1.9375 28.6875 C4.61575665 21.91308613 4.8730898 15.18136027 4 8 C2.22535516 5.22162019 0.9806779 4.55243641 -2 3 C-1.34 2.01 -0.68 1.02 0 0 Z " fill="#D5D6D9" transform="translate(356,35)"/>
<path d="M0 0 C2.31 0 4.62 0 7 0 C7.33 0.66 7.66 1.32 8 2 C8.66 1.67 9.32 1.34 10 1 C9.67 2.32 9.34 3.64 9 5 C7.68 5.33 6.36 5.66 5 6 C5.99 7.485 5.99 7.485 7 9 C7.5807525 11.07296379 8.0050213 13.14947884 8.4375 15.2578125 C8.623125 15.83273438 8.80875 16.40765625 9 17 C9.66 17.33 10.32 17.66 11 18 C10.67 19.65 10.34 21.3 10 23 C9.34 22.67 8.68 22.34 8 22 C7.67 25.3 7.34 28.6 7 32 C4.69 32 2.38 32 0 32 C0 21.44 0 10.88 0 0 Z " fill="#CBCBCF" transform="translate(372,42)"/>
<path d="M0 0 C2.31 0 4.62 0 7 0 C7 10.56 7 21.12 7 32 C4.69 32 2.38 32 0 32 C0 21.44 0 10.88 0 0 Z " fill="#E4E4E7" transform="translate(252,34)"/>
<path d="M0 0 C1.98 0 3.96 0 6 0 C6 10.56 6 21.12 6 32 C4.02 32 2.04 32 0 32 C-0.66 30.35 -1.32 28.7 -2 27 C-1.34 27 -0.68 27 0 27 C-0.33 26.34 -0.66 25.68 -1 25 C-1.07030823 23.54321351 -1.08430211 22.08331917 -1.0625 20.625 C-1.05347656 19.85414062 -1.04445313 19.08328125 -1.03515625 18.2890625 C-1.02355469 17.53367187 -1.01195312 16.77828125 -1 16 C-1 14.68 -1 13.36 -1 12 C-0.84879185 9.91548767 -0.68105498 7.83213224 -0.5 5.75 C-0.4071875 4.67234375 -0.314375 3.5946875 -0.21875 2.484375 C-0.1465625 1.66453125 -0.074375 0.8446875 0 0 Z " fill="#E6E7E9" transform="translate(332,34)"/>
<path d="M0 0 C3.25 0.375 3.25 0.375 5.93359375 2.25390625 C9.23851089 6.70690591 8.80994049 10.30091089 8.5625 15.6875 C8.52866211 17.08452148 8.52866211 17.08452148 8.49414062 18.50976562 C8.43542078 20.7998396 8.35336858 23.08657875 8.25 25.375 C5.94 25.375 3.63 25.375 1.25 25.375 C0.92 19.765 0.59 14.155 0.25 8.375 C-1.73 7.715 -3.71 7.055 -5.75 6.375 C-3.48062731 0.474631 -3.48062731 0.474631 0 0 Z " fill="#E4E4E8" transform="translate(548.75,40.625)"/>
<path d="M0 0 C2.9375 0.8125 2.9375 0.8125 4.9375 2.8125 C5.13599071 5.35785141 5.21601775 7.76966759 5.1875 10.3125 C5.19523437 11.00214844 5.20296875 11.69179688 5.2109375 12.40234375 C5.19083293 17.55916707 5.19083293 17.55916707 2.9375 19.8125 C-0.5625 20.0625 -0.5625 20.0625 -4.0625 19.8125 C-6.53635671 17.33864329 -6.34821102 15.83745772 -6.38476562 12.45117188 C-6.38154297 11.76603516 -6.37832031 11.08089844 -6.375 10.375 C-6.39111328 9.69373047 -6.40722656 9.01246094 -6.42382812 8.31054688 C-6.42670646 5.37176551 -6.39444703 3.30846791 -4.734375 0.828125 C-3.0625 -0.1875 -3.0625 -0.1875 0 0 Z " fill="#020303" transform="translate(356.0625,40.1875)"/>
<path d="M0 0 C1.33804688 0.17982422 1.33804688 0.17982422 2.703125 0.36328125 C3.37859375 0.47027344 4.0540625 0.57726563 4.75 0.6875 C4.75 2.0075 4.75 3.3275 4.75 4.6875 C6.07 5.0175 7.39 5.3475 8.75 5.6875 C9.08 7.6675 9.41 9.6475 9.75 11.6875 C-1.635 11.1925 -1.635 11.1925 -13.25 10.6875 C-13.58 9.6975 -13.91 8.7075 -14.25 7.6875 C-5.93453865 -0.85894638 -5.93453865 -0.85894638 0 0 Z " fill="#179CD3" transform="translate(93.25,32.3125)"/>
<path d="M0 0 C2.31 0 4.62 0 7 0 C7 7.92 7 15.84 7 24 C4.69 24 2.38 24 0 24 C0 16.08 0 8.16 0 0 Z " fill="#D9DADD" transform="translate(615,42)"/>
<path d="M0 0 C2.31 0 4.62 0 7 0 C7.97758625 5.45275886 7.97344509 10.42516763 7.5625 15.9375 C7.48418945 17.10635742 7.48418945 17.10635742 7.40429688 18.29882812 C7.27601936 20.19966772 7.13892679 22.09990904 7 24 C4.69 24 2.38 24 0 24 C0 16.08 0 8.16 0 0 Z " fill="#E4E5E9" transform="translate(521,42)"/>
<path d="M0 0 C1.65 0 3.3 0 5 0 C5.144375 0.78375 5.28875 1.5675 5.4375 2.375 C5.87798925 4.96421018 5.87798925 4.96421018 7 7 C7.07194869 9.88370333 7.09291708 12.74239664 7.0625 15.625 C7.05798828 16.42679688 7.05347656 17.22859375 7.04882812 18.0546875 C7.03703168 20.03649006 7.01909605 22.01825433 7 24 C4.69 24 2.38 24 0 24 C0 16.08 0 8.16 0 0 Z " fill="#E4E4E9" transform="translate(588,42)"/>
<path d="M0 0 C-0.66 1.32 -1.32 2.64 -2 4 C-4.97 3.505 -4.97 3.505 -8 3 C-9.00217064 6.58327753 -9.00217064 6.58327753 -8 10 C-8.66 10 -9.32 10 -10 10 C-9.34 11.65 -8.68 13.3 -8 15 C-8.99 15 -9.98 15 -11 15 C-10.34 15.33 -9.68 15.66 -9 16 C-9 17.32 -9 18.64 -9 20 C-8.34 20 -7.68 20 -7 20 C-6.67 19.34 -6.34 18.68 -6 18 C-5.67 19.32 -5.34 20.64 -5 22 C-4.16227051 21.98952637 -3.32454102 21.97905273 -2.46142578 21.96826172 C0.64338164 21.93419981 3.74809392 21.90911089 6.85302734 21.89013672 C8.8591136 21.87511893 10.86511324 21.84971019 12.87109375 21.82421875 C14.12792969 21.81777344 15.38476562 21.81132813 16.6796875 21.8046875 C17.84226074 21.79421387 19.00483398 21.78374023 20.20263672 21.77294922 C23 22 23 22 25 24 C20.55266701 24.12415248 16.1062674 24.21459457 11.65771484 24.2746582 C10.14646826 24.29971095 8.63534176 24.33376377 7.12451172 24.37719727 C4.94468499 24.4382669 2.76646738 24.46629916 0.5859375 24.48828125 C-1.37786865 24.52755737 -1.37786865 24.52755737 -3.38134766 24.56762695 C-8.13819857 23.82146055 -9.62973703 22.37802283 -13 19 C-15.48386059 15.27420911 -15.3804212 13.41288598 -15 9 C-11.88509346 1.95047467 -7.61072217 -0.59691939 0 0 Z M-7 11 C-6.67 11.66 -6.34 12.32 -6 13 C-6.66 12.67 -7.32 12.34 -8 12 C-7.67 11.67 -7.34 11.34 -7 11 Z " fill="#66C6E4" transform="translate(77,44)"/>
<path d="M0 0 C2.64 0 5.28 0 8 0 C9.32 4.95 10.64 9.9 12 15 C12.66 14.01 13.32 13.02 14 12 C14.33 13.65 14.66 15.3 15 17 C14.236875 17.268125 13.47375 17.53625 12.6875 17.8125 C10.12619116 18.94424112 8.80307062 19.91223401 7 22 C5.29649696 19.44474544 4.53986042 17.90679974 3.7109375 15.05859375 C3.49179687 14.31029297 3.27265625 13.56199219 3.046875 12.79101562 C2.82515625 12.01435547 2.6034375 11.23769531 2.375 10.4375 C2.14554688 9.65697266 1.91609375 8.87644531 1.6796875 8.07226562 C0 2.27834356 0 2.27834356 0 0 Z " fill="#D7D8DC" transform="translate(643,42)"/>
<path d="M0 0 C0.33 0.66 0.66 1.32 1 2 C1.66 2 2.32 2 3 2 C4.72206188 4.99126319 5.24179923 7.10685713 5.1953125 10.546875 C5.18886719 11.39121094 5.18242187 12.23554687 5.17578125 13.10546875 C5.15902344 13.97816406 5.14226562 14.85085937 5.125 15.75 C5.11597656 16.63816406 5.10695312 17.52632812 5.09765625 18.44140625 C5.07414577 20.62788058 5.04128499 22.81380094 5 25 C3.02 25 1.04 25 -1 25 C-1.0289337 21.20834926 -1.04677601 17.41672673 -1.0625 13.625 C-1.07087891 12.54476562 -1.07925781 11.46453125 -1.08789062 10.3515625 C-1.09111328 9.3203125 -1.09433594 8.2890625 -1.09765625 7.2265625 C-1.10289307 6.27346191 -1.10812988 5.32036133 -1.11352539 4.33837891 C-1 2 -1 2 0 0 Z " fill="#E7E6EA" transform="translate(158,41)"/>
<path d="M0 0 C0.99 0 1.98 0 3 0 C4.17426264 2.34852528 4.11508173 3.73774065 4.09765625 6.3515625 C4.09443359 7.20234375 4.09121094 8.053125 4.08789062 8.9296875 C4.07951172 9.81914063 4.07113281 10.70859375 4.0625 11.625 C4.05798828 12.5221875 4.05347656 13.419375 4.04882812 14.34375 C4.03702591 16.56256648 4.02056155 18.78125018 4 21 C1.69 21 -0.62 21 -3 21 C-3.08139142 18.60347472 -3.14067009 16.20974564 -3.1875 13.8125 C-3.22520508 12.80219727 -3.22520508 12.80219727 -3.26367188 11.77148438 C-3.32959985 7.26640594 -2.61842805 4.64930523 0 1 C0 0.67 0 0.34 0 0 Z " fill="#E0E0E4" transform="translate(513,45)"/>
<path d="M0 0 C2.5625 0.4375 2.5625 0.4375 4.875 1.8125 C7.45755264 5.82980411 6.88186644 9.78894409 6.5625 14.4375 C5.9025 14.4375 5.2425 14.4375 4.5625 14.4375 C4.5625 13.4475 4.5625 12.4575 4.5625 11.4375 C3.9025 11.4375 3.2425 11.4375 2.5625 11.4375 C2.8925 12.4275 3.2225 13.4175 3.5625 14.4375 C0.2625 14.4375 -3.0375 14.4375 -6.4375 14.4375 C-6.7675 13.4475 -7.0975 12.4575 -7.4375 11.4375 C-6.4375 10.4375 -6.4375 10.4375 -2.875 10.375 C-1.740625 10.395625 -0.60625 10.41625 0.5625 10.4375 C-1.24162643 7.17289027 -2.27144693 5.54820205 -5.4375 3.4375 C-3.69857595 1.24096435 -2.79998966 0.50256225 0 0 Z " fill="#E4E4E8" transform="translate(216.4375,41.5625)"/>
<path d="M0 0 C3.0625 1 3.0625 1 5 2 C5 3.98 5 5.96 5 8 C1.37 7.67 -2.26 7.34 -6 7 C-6.33 7.66 -6.66 8.32 -7 9 C-7.66 8.67 -8.32 8.34 -9 8 C-8.67 7.01 -8.34 6.02 -8 5 C-10.16666667 5.83333333 -10.16666667 5.83333333 -11 8 C-12 10 -12 10 -14 11 C-14.60044272 4.75539568 -14.60044272 4.75539568 -12.0625 1.5625 C-7.92957721 -0.54613408 -4.55496488 -0.57657783 0 0 Z " fill="#E5E4E9" transform="translate(412,41)"/>
<path d="M0 0 C0.99 0.33 1.98 0.66 3 1 C3.10854617 3.39706123 3.18753157 5.78915838 3.25 8.1875 C3.30027344 9.19780273 3.30027344 9.19780273 3.3515625 10.22851562 C3.42169733 13.82292583 3.07571524 15.87185363 1.234375 18.98828125 C-1 21 -1 21 -5 21 C-4.67 19.02 -4.34 17.04 -4 15 C-3.34 15 -2.68 15 -2 15 C-2.33 14.34 -2.66 13.68 -3 13 C-3.14679934 11.17065435 -3.22102635 9.33499757 -3.25 7.5 C-3.27578125 6.5203125 -3.3015625 5.540625 -3.328125 4.53125 C-3.16570312 3.27828125 -3.16570312 3.27828125 -3 2 C-2.01 1.34 -1.02 0.68 0 0 Z " fill="#E4E5E7" transform="translate(392,45)"/>
<path d="M0 0 C3.91657947 1.99013185 6.33143282 4.97448816 8 9 C8.65393374 12.78593219 8.84305395 16.43710768 6.984375 19.8828125 C4.8456937 22.54972231 3.26074852 23.91308383 0 25 C0.31445113 21.33140346 0.79634013 20.18875792 3.5625 17.625 C6.38504666 15.12784408 6.38504666 15.12784408 6.3125 11.1875 C6.209375 10.135625 6.10625 9.08375 6 8 C4.68 7.67 3.36 7.34 2 7 C2 5.68 2 4.36 2 3 C-4.29579501 2.4299582 -8.60983338 2.49525712 -13.59375 6.62109375 C-15.28981747 8.28418213 -16.73345742 9.98843238 -18 12 C-17.71998862 7.98650355 -17.24236211 6.27964858 -14.5625 3.1875 C-10.01677825 -0.69299417 -5.82917583 -0.80464084 0 0 Z " fill="#2A83AA" transform="translate(96,30)"/>
<path d="M0 0 C1.98 0 3.96 0 6 0 C6.33 0.66 6.66 1.32 7 2 C7.66 1.67 8.32 1.34 9 1 C8.67 2.32 8.34 3.64 8 5 C6.68 5.33 5.36 5.66 4 6 C4.99 7.485 4.99 7.485 6 9 C6.5807525 11.07296379 7.0050213 13.14947884 7.4375 15.2578125 C7.623125 15.83273438 7.80875 16.40765625 8 17 C8.66 17.33 9.32 17.66 10 18 C9.67 19.65 9.34 21.3 9 23 C7 21.8125 7 21.8125 5 20 C4.75 17.3125 4.75 17.3125 5 15 C3.35 15.33 1.7 15.66 0 16 C0 10.72 0 5.44 0 0 Z " fill="#E6E6EB" transform="translate(373,42)"/>
<path d="M0 0 C1.2375 0.1546875 1.2375 0.1546875 2.5 0.3125 C4.95410358 3.99365537 4.73287843 5.96543598 4.5 10.3125 C4.17 11.3025 3.84 12.2925 3.5 13.3125 C0.625 13.9375 0.625 13.9375 -2.5 14.3125 C-4.5 12.3125 -4.5 12.3125 -4.765625 10 C-4.76046875 9.113125 -4.7553125 8.22625 -4.75 7.3125 C-4.75515625 6.425625 -4.7603125 5.53875 -4.765625 4.625 C-4.37679717 1.23991063 -3.34120123 0.41765015 0 0 Z " fill="#08090A" transform="translate(465.5,46.6875)"/>
<path d="M0 0 C1.66684015 1.66684015 1.21072764 3.65643069 1.25 5.9375 C1.28867187 7.28134766 1.28867187 7.28134766 1.328125 8.65234375 C1.21984375 9.42707031 1.1115625 10.20179687 1 11 C-2 13 -2 13 -4.0625 12.75 C-6 12 -6 12 -8 10 C-8.55800294 2.969163 -8.55800294 2.969163 -6.8125 -0.0625 C-4.23719907 -1.3945522 -2.70282604 -0.85352401 0 0 Z " fill="#0D0E10" transform="translate(330,48)"/>
<path d="M0 0 C3.0625 0.25 3.0625 0.25 6 1 C7.52846661 4.05693322 7.23242445 6.62984547 7 10 C5.5 12.4375 5.5 12.4375 4 14 C-0.875 13.125 -0.875 13.125 -2 12 C-2.1245486 10.35769636 -2.17568524 8.70947724 -2.1875 7.0625 C-2.20167969 6.16660156 -2.21585937 5.27070312 -2.23046875 4.34765625 C-2 2 -2 2 0 0 Z " fill="#0C0D0E" transform="translate(272,47)"/>
<path d="M0 0 C0.99 0.33 1.98 0.66 3 1 C3 1.66 3 2.32 3 3 C3.99 3.33 4.98 3.66 6 4 C5.01 4 4.02 4 3 4 C2.34 8.29 1.68 12.58 1 17 C-0.65 17.33 -2.3 17.66 -4 18 C-5.44466845 13.66599466 -5.67713611 9.52384552 -5 5 C-3.55087014 2.7097668 -2.20589365 1.65442024 0 0 Z " fill="#E4E4E9" transform="translate(268,42)"/>
<path d="M0 0 C1.65 0 3.3 0 5 0 C5 6.27 5 12.54 5 19 C3.02 19 1.04 19 -1 19 C-1.05383848 16.54137599 -1.09359038 14.0839245 -1.125 11.625 C-1.14175781 10.92632812 -1.15851562 10.22765625 -1.17578125 9.5078125 C-1.19344267 7.67102514 -1.10303261 5.83398037 -1 4 C-0.34 3.34 0.32 2.68 1 2 C0.67 1.34 0.34 0.68 0 0 Z " fill="#E6E6EA" transform="translate(605,47)"/>
<path d="M0 0 C0.33 0 0.66 0 1 0 C1.33 2.64 1.66 5.28 2 8 C4.34533951 8.76956136 4.34533951 8.76956136 7 9 C8.8354799 7.66621425 8.8354799 7.66621425 10 6 C10.66 6.33 11.32 6.66 12 7 C12 7.66 12 8.32 12 9 C11.01 9.66 10.02 10.32 9 11 C8.67 11.99 8.34 12.98 8 14 C8.66 14 9.32 14 10 14 C10.33 13.34 10.66 12.68 11 12 C11 12.99 11 13.98 11 15 C5.12514042 16.08358521 1.17897518 16.5368611 -4 13 C-6 10 -6 10 -5.625 7.8125 C-5.41875 7.214375 -5.2125 6.61625 -5 6 C-4.34 6.66 -3.68 7.32 -3 8 C-2.34 7.67 -1.68 7.34 -1 7 C-0.59270772 4.67843403 -0.25561323 2.3431213 0 0 Z " fill="#DADADC" transform="translate(269,51)"/>
<path d="M0 0 C4.55555556 0.55555556 4.55555556 0.55555556 6 2 C6.1245486 3.64230364 6.17568524 5.29052276 6.1875 6.9375 C6.20167969 7.83339844 6.21585937 8.72929688 6.23046875 9.65234375 C6 12 6 12 4 14 C1.5 13.875 1.5 13.875 -1 13 C-3.23503918 10.35859006 -2.99036332 8.86026815 -2.75 5.375 C-2 2 -2 2 0 0 Z " fill="#0C0D0D" transform="translate(382,47)"/>
<path d="M0 0 C0.66 0.66 1.32 1.32 2 2 C1.34 2.66 0.68 3.32 0 4 C0.33 4.99 0.66 5.98 1 7 C0.34 7.66 -0.32 8.32 -1 9 C-1.33 8.34 -1.66 7.68 -2 7 C-6.44870215 6.60746746 -9.14243493 7.84694043 -13 10 C-13 9.34 -13 8.68 -13 8 C-13.99 8.33 -14.98 8.66 -16 9 C-15.17209495 5.6131157 -14.54949495 3.49954087 -11.9375 1.125 C-7.98391715 -0.38913811 -4.19232705 -0.63420272 0 0 Z " fill="#D7D8DA" transform="translate(470,41)"/>
<path d="M0 0 C3.9041005 0.52936956 4.29208498 0.67384009 6.625 3.5 C7.305625 4.49 7.98625 5.48 8.6875 6.5 C7.375 9.9375 7.375 9.9375 5.6875 13.5 C4.6975 13.83 3.7075 14.16 2.6875 14.5 C2.0996875 12.9221875 2.0996875 12.9221875 1.5 11.3125 C-0.07652557 7.58341068 -2.28145425 5.20336513 -5.3125 2.5 C-3.3125 0.5 -3.3125 0.5 0 0 Z " fill="#D9DADB" transform="translate(359.3125,34.5)"/>
<path d="M0 0 C2.31 0 4.62 0 7 0 C7 0.33 7 0.66 7 1 C5.02 1 3.04 1 1 1 C0.97303635 2.79158489 0.95362083 4.58328473 0.9375 6.375 C0.92589844 7.37273438 0.91429687 8.37046875 0.90234375 9.3984375 C0.81993398 11.98432453 0.81993398 11.98432453 2 14 C1.01 15.485 1.01 15.485 0 17 C-0.66 16.34 -1.32 15.68 -2 15 C-4.33294775 14.95758277 -6.66702567 14.95907063 -9 15 C-9.99 14.67 -10.98 14.34 -12 14 C-12 13.34 -12 12.68 -12 12 C-12.66 11.67 -13.32 11.34 -14 11 C-12.5 9.4375 -12.5 9.4375 -10 8 C-7.18545988 7.98360462 -4.79150637 8.45085121 -2 9 C-1.67 9.33 -1.34 9.66 -1 10 C-0.67 6.7 -0.34 3.4 0 0 Z " fill="#D0D1D4" transform="translate(331,33)"/>
<path d="M0 0 C0.06058594 0.67546875 0.12117188 1.3509375 0.18359375 2.046875 C0.26738281 2.93890625 0.35117187 3.8309375 0.4375 4.75 C0.55931641 6.07257812 0.55931641 6.07257812 0.68359375 7.421875 C0.96238465 9.69350452 1.38790577 11.79851823 2 14 C-4.15234375 13.4140625 -4.15234375 13.4140625 -6 13 C-7.26237731 10.47524538 -7.09856404 8.68799534 -7.0625 5.875 C-7.05347656 4.96492188 -7.04445313 4.05484375 -7.03515625 3.1171875 C-7.02355469 2.41851562 -7.01195312 1.71984375 -7 1 C-3.375 -1.125 -3.375 -1.125 0 0 Z " fill="#E2E3E5" transform="translate(461,49)"/>
<path d="M0 0 C0.66 0.99 1.32 1.98 2 3 C2.99 3 3.98 3 5 3 C6.91931539 3.77772548 8.81371059 4.61821675 10.6875 5.5 C11.68136719 5.9640625 12.67523438 6.428125 13.69921875 6.90625 C14.45847656 7.2671875 15.21773438 7.628125 16 8 C15.67 8.99 15.34 9.98 15 11 C13.56208484 10.85831863 12.1246763 10.71148957 10.6875 10.5625 C9.88699219 10.48128906 9.08648437 10.40007813 8.26171875 10.31640625 C6 10 6 10 3 9 C3 9.99 3 10.98 3 12 C1.68 12.33 0.36 12.66 -1 13 C-0.67 8.71 -0.34 4.42 0 0 Z " fill="#111215" transform="translate(395,50)"/>
<path d="M0 0 C2.31 0 4.62 0 7 0 C6.91299202 2.43922361 6.80613998 4.87478414 6.6875 7.3125 C6.66494141 8.00279297 6.64238281 8.69308594 6.61914062 9.40429688 C6.34758213 14.51453405 6.34758213 14.51453405 4.58203125 16.98046875 C3 18 3 18 1 18 C0.67 12.06 0.34 6.12 0 0 Z " fill="#E6E6E8" transform="translate(561,42)"/>
<path d="M0 0 C2.31 0 4.62 0 7 0 C6.91299202 2.43922361 6.80613998 4.87478414 6.6875 7.3125 C6.66494141 8.00279297 6.64238281 8.69308594 6.61914062 9.40429688 C6.34758213 14.51453405 6.34758213 14.51453405 4.58203125 16.98046875 C3 18 3 18 1 18 C0.67 12.06 0.34 6.12 0 0 Z " fill="#E6E6E8" transform="translate(289,42)"/>
<path d="M0 0 C0.99 0 1.98 0 3 0 C3.33 0.66 3.66 1.32 4 2 C6.32156597 2.40729228 8.6568787 2.74438677 11 3 C11 4.98 11 6.96 11 9 C9.58566794 9.2236337 8.16832382 9.42826476 6.75 9.625 C5.96109375 9.74101563 5.1721875 9.85703125 4.359375 9.9765625 C1.67847541 10.00319395 0.27305911 9.36592084 -2 8 C-1.33333333 5.33333333 -0.66666667 2.66666667 0 0 Z " fill="#E5E5E8" transform="translate(631,57)"/>
<path d="M0 0 C1.41623216 -0.05447047 2.83308191 -0.09300508 4.25 -0.125 C5.03890625 -0.14820313 5.8278125 -0.17140625 6.640625 -0.1953125 C9.20731941 0.0171622 10.7916067 0.71345895 13 2 C13 3.98 13 5.96 13 8 C12.22914063 7.98839844 11.45828125 7.97679687 10.6640625 7.96484375 C9.66117188 7.95582031 8.65828125 7.94679688 7.625 7.9375 C6.12839844 7.92009766 6.12839844 7.92009766 4.6015625 7.90234375 C2.01567547 7.81993398 2.01567547 7.81993398 0 9 C0 7.68 0 6.36 0 5 C0.66 5 1.32 5 2 5 C1.34 3.35 0.68 1.7 0 0 Z " fill="#CCCDCF" transform="translate(235,34)"/>
<path d="M0 0 C1.19625 0.185625 2.3925 0.37125 3.625 0.5625 C7.28283707 1.0311197 10.37862166 0.81481013 14 0 C14 1.98 14 3.96 14 6 C9.50343896 8.24828052 5.92127034 8.16682272 1 8 C1 7.01 1 6.02 1 5 C1.66 5 2.32 5 3 5 C2.2575 4.319375 2.2575 4.319375 1.5 3.625 C0 2 0 2 0 0 Z " fill="#CDCED0" transform="translate(209,59)"/>
<path d="M0 0 C0 2.31 0 4.62 0 7 C-4.50353262 8.75747614 -8.17639811 9.19294408 -13 9 C-12.67 8.01 -12.34 7.02 -12 6 C-11.34 6.33 -10.68 6.66 -10 7 C-10.33 5.35 -10.66 3.7 -11 2 C-9.5422647 1.664061 -8.08378894 1.33133376 -6.625 1 C-5.40683594 0.7215625 -5.40683594 0.7215625 -4.1640625 0.4375 C-2 0 -2 0 0 0 Z " fill="#D5D6D7" transform="translate(452,58)"/>
<path d="M0 0 C0 2.31 0 4.62 0 7 C-4.50983576 9.25491788 -8.05423265 9.32431261 -13 9 C-13.66 8.34 -14.32 7.68 -15 7 C-14.195625 6.731875 -13.39125 6.46375 -12.5625 6.1875 C-11.716875 5.795625 -10.87125 5.40375 -10 5 C-9.67 4.01 -9.34 3.02 -9 2 C-7.1875 1.26953125 -7.1875 1.26953125 -5 0.8125 C-4.278125 0.65394531 -3.55625 0.49539062 -2.8125 0.33203125 C-1 0 -1 0 0 0 Z " fill="#DADADB" transform="translate(248,58)"/>
<path d="M0 0 C0.495 1.485 0.495 1.485 1 3 C-8.41190818 8.30308421 -19.94601111 7.07535478 -30.5 7.125 C-31.33611816 7.12975342 -32.17223633 7.13450684 -33.03369141 7.1394043 C-45.34086755 7.1060883 -45.34086755 7.1060883 -50 4 C-49.67 3.34 -49.34 2.68 -49 2 C-48.50918945 2.32307129 -48.01837891 2.64614258 -47.51269531 2.97900391 C-43.98073954 4.41416122 -40.55232535 4.32499141 -36.796875 4.3359375 C-36.00025452 4.3425943 -35.20363403 4.3492511 -34.38287354 4.35610962 C-32.69846906 4.36622091 -31.01402464 4.37092711 -29.32958984 4.37060547 C-26.772426 4.3749618 -24.217013 4.41124807 -21.66015625 4.44921875 C-20.01823502 4.45509091 -18.37630565 4.45905763 -16.734375 4.4609375 C-15.97888367 4.47530853 -15.22339233 4.48967957 -14.44500732 4.50448608 C-8.68918956 4.45578632 -4.99398852 2.8499762 0 0 Z " fill="#010A15" transform="translate(117,64)"/>
<path d="M0 0 C1.58294782 -0.05437607 3.16644256 -0.09296271 4.75 -0.125 C5.63171875 -0.14820313 6.5134375 -0.17140625 7.421875 -0.1953125 C10.1135858 0.00860498 11.69904974 0.63448279 14 2 C14 3.98 14 5.96 14 8 C10.7 7.67 7.4 7.34 4 7 C4.33 6.01 4.66 5.02 5 4 C4.34 4 3.68 4 3 4 C3 3.34 3 2.68 3 2 C2.01 1.34 1.02 0.68 0 0 Z M5 2 C6 4 6 4 6 4 Z " fill="#DCDCDF" transform="translate(438,34)"/>
<path d="M0 0 C0.66 1.32 1.32 2.64 2 4 C1.01 4.33 0.02 4.66 -1 5 C-1.33 5.66 -1.66 6.32 -2 7 C-1.01 7.33 -0.02 7.66 1 8 C-0.43739513 8.02712066 -1.87493863 8.04645067 -3.3125 8.0625 C-4.51326172 8.07990234 -4.51326172 8.07990234 -5.73828125 8.09765625 C-8 8 -8 8 -11 7 C-9.84826645 4.53199953 -8.95216435 2.95216435 -7 1 C-4.67724823 0.59952556 -2.34260643 0.2602896 0 0 Z " fill="#D7D8D8" transform="translate(359,59)"/>
<path d="M0 0 C0.99 0 1.98 0 3 0 C3 0.99 3 1.98 3 3 C6.465 4.98 6.465 4.98 10 7 C8.9375 8.5625 8.9375 8.5625 7 10 C0.66666667 9.66666667 0.66666667 9.66666667 -2 7 C-1.67 6.01 -1.34 5.02 -1 4 C-0.65772583 2.66893378 -0.32248257 1.33599921 0 0 Z " fill="#E3E4E8" transform="translate(401,46)"/>
<path d="M0 0 C0.5534764 2.07553648 1 3.84365964 1 6 C-0.32 6 -1.64 6 -3 6 C-2.34 7.32 -1.68 8.64 -1 10 C-2.43836751 9.88541307 -3.87570966 9.75790884 -5.3125 9.625 C-6.51326172 9.52058594 -6.51326172 9.52058594 -7.73828125 9.4140625 C-10 9 -10 9 -13 7 C-12.67 6.01 -12.34 5.02 -12 4 C-10.02 4.66 -8.04 5.32 -6 6 C-6 5.34 -6 4.68 -6 4 C-4.02 3.67 -2.04 3.34 0 3 C0 2.01 0 1.02 0 0 Z " fill="#D1D1D2" transform="translate(469,57)"/>
<path d="M0 0 C1.9375 2.0625 1.9375 2.0625 3 4 C2.67 4.66 2.34 5.32 2 6 C1.05125 5.67 0.1025 5.34 -0.875 5 C-4.6180516 3.75037987 -4.6180516 3.75037987 -8.125 5 C-8.74375 5.33 -9.3625 5.66 -10 6 C-10.33 4.35 -10.66 2.7 -11 1 C-7.22804193 -1.56493149 -4.30808167 -1.09660261 0 0 Z " fill="#E0DFE4" transform="translate(195,42)"/>
<path d="M0 0 C-0.495 0.45375 -0.99 0.9075 -1.5 1.375 C-3.22609337 2.87635519 -3.22609337 2.87635519 -3 5 C-2.34 5.33 -1.68 5.66 -1 6 C-1.66 6 -2.32 6 -3 6 C-3.33 6.66 -3.66 7.32 -4 8 C-4.598125 7.835 -5.19625 7.67 -5.8125 7.5 C-8.11344336 6.8885876 -8.11344336 6.8885876 -11 7 C-11.625 5.125 -11.625 5.125 -12 3 C-11.34 2.34 -10.68 1.68 -10 1 C-9.34 1 -8.68 1 -8 1 C-5.29120665 -0.35439668 -2.99066732 -0.06501451 0 0 Z " fill="#D2D2D6" transform="translate(498,41)"/>
<path d="M0 0 C-3.42346555 3.14958831 -6.44262737 3.56179109 -11 4 C-10.773125 4.598125 -10.54625 5.19625 -10.3125 5.8125 C-10.209375 6.534375 -10.10625 7.25625 -10 8 C-11.375 9.75 -11.375 9.75 -13 11 C-13.33 11 -13.66 11 -14 11 C-14.60044272 4.75539568 -14.60044272 4.75539568 -12.0625 1.5625 C-7.94900079 -0.53622409 -4.52819552 -0.35515259 0 0 Z " fill="#D1D0D4" transform="translate(412,41)"/>
<path d="M0 0 C0.66 1.32 1.32 2.64 2 4 C2.99 3.67 3.98 3.34 5 3 C4.67 6.63 4.34 10.26 4 14 C2.68 14.33 1.36 14.66 0 15 C0 10.05 0 5.1 0 0 Z " fill="#D7D8DC" transform="translate(495,51)"/>
<path d="M0 0 C1.4540625 0.0309375 1.4540625 0.0309375 2.9375 0.0625 C3.5625 2.4375 3.5625 2.4375 3.9375 5.0625 C3.2775 5.7225 2.6175 6.3825 1.9375 7.0625 C-0.6875 6.6875 -0.6875 6.6875 -3.0625 6.0625 C-3.44468767 4.40635343 -3.77645102 2.73792976 -4.0625 1.0625 C-3.0625 0.0625 -3.0625 0.0625 0 0 Z " fill="#D6D6D8" transform="translate(618.0625,32.9375)"/>
<path d="M0 0 C2 1 2 1 2 1 Z M-15 1 C-10.05 1 -5.1 1 0 1 C-3.07988772 4.07988772 -3.49154811 4.41833556 -7.5 4.8125 C-8.66015625 4.94591797 -8.66015625 4.94591797 -9.84375 5.08203125 C-12 5 -12 5 -15 3 C-15 2.34 -15 1.68 -15 1 Z " fill="#020206" transform="translate(224,56)"/>
<path d="M0 0 C0 0.66 0 1.32 0 2 C-1.5778125 2.37125 -1.5778125 2.37125 -3.1875 2.75 C-8.53976082 4.28539603 -11.90314274 7.43621035 -15 12 C-14.71998862 7.98650355 -14.24236211 6.27964858 -11.5625 3.1875 C-7.53383515 -0.25160414 -5.24780668 -0.09718161 0 0 Z " fill="#2A84AA" transform="translate(93,30)"/>
<path d="M0 0 C2.31 0 4.62 0 7 0 C7.33 3.63 7.66 7.26 8 11 C7.01 11.495 7.01 11.495 6 12 C6 9.36 6 6.72 6 4 C5.34 4 4.68 4 4 4 C3.67 4.99 3.34 5.98 3 7 C2.01 6.67 1.02 6.34 0 6 C0 4.02 0 2.04 0 0 Z " fill="#D8D9DA" transform="translate(176,34)"/>
<path d="M0 0 C2.32528287 2.32528287 2.29511025 2.84665898 2.3125 6 C2.32925781 6.70125 2.34601563 7.4025 2.36328125 8.125 C2.18345703 9.053125 2.18345703 9.053125 2 10 C1.01 10.66 0.02 11.32 -1 12 C-1 11.34 -1 10.68 -1 10 C-2.98 10.99 -2.98 10.99 -5 12 C-5 10.35 -5 8.7 -5 7 C-4.01 7 -3.02 7 -2 7 C-2 6.01 -2 5.02 -2 4 C-1.34 4 -0.68 4 0 4 C0 2.68 0 1.36 0 0 Z " fill="#DFE0E2" transform="translate(336,45)"/>
<path d="M0 0 C0.66 0 1.32 0 2 0 C1.125 6.875 1.125 6.875 0 8 C-1.47081904 8.36842434 -2.95207147 8.69578424 -4.4375 9 C-6.84329145 9.49428781 -8.80084246 9.90042123 -11 11 C-11 9.35 -11 7.7 -11 6 C-7.94152152 5.45627049 -5.11227195 5 -2 5 C-1.34 3.35 -0.68 1.7 0 0 Z " fill="#051322" transform="translate(77,36)"/>
<path d="M0 0 C2.475 0.99 2.475 0.99 5 2 C5 3.32 5 4.64 5 6 C3 7.75 3 7.75 1 9 C-0.37562854 7.71034824 -1.70766393 6.37310707 -3 5 C-3 4.34 -3 3.68 -3 3 C-2.01 2.34 -1.02 1.68 0 1 C0 0.67 0 0.34 0 0 Z " fill="#E1E2E4" transform="translate(346,56)"/>
<path d="M0 0 C1.45947705 0.06006078 2.91779272 0.1488689 4.375 0.25 C5.59316406 0.31960937 5.59316406 0.31960937 6.8359375 0.390625 C9 1 9 1 10.2890625 3.046875 C10.64097656 4.01367188 10.64097656 4.01367188 11 5 C7.69564916 6.12377697 5.9493138 5.89554742 2.75 4.5625 C2.04359375 4.27503906 1.3371875 3.98757812 0.609375 3.69140625 C0.07828125 3.46324219 -0.4528125 3.23507813 -1 3 C-0.67 2.01 -0.34 1.02 0 0 Z " fill="#0B0B0F" transform="translate(406,47)"/>
<path d="M0 0 C3 2 3 2 4 3 C4.66 2.34 5.32 1.68 6 1 C7 4 7 4 6.0625 6.1875 C5.5365625 7.0846875 5.5365625 7.0846875 5 8 C3.02 8 1.04 8 -1 8 C-0.67 5.36 -0.34 2.72 0 0 Z " fill="#DEDEDE" transform="translate(652,66)"/>
<path d="M0 0 C0.33 0 0.66 0 1 0 C1.33 2.97 1.66 5.94 2 9 C1.34 9 0.68 9 0 9 C-0.33 10.98 -0.66 12.96 -1 15 C-0.34 15.33 0.32 15.66 1 16 C-1.31 15.67 -3.62 15.34 -6 15 C-5.75 12.625 -5.75 12.625 -5 10 C-4.01 9.5978125 -4.01 9.5978125 -3 9.1875 C-0.81578805 8.20919068 -0.81578805 8.20919068 -0.515625 6.10546875 C-0.27410349 4.0773984 -0.13149443 2.03816368 0 0 Z " fill="#CCCDCE" transform="translate(388,51)"/>
<path d="M0 0 C0.88099735 2.97818634 1.06705164 5.45292865 0.87890625 8.546875 C0.83056641 9.39121094 0.78222656 10.23554687 0.73242188 11.10546875 C0.67634766 11.97816406 0.62027344 12.85085937 0.5625 13.75 C0.51029297 14.63816406 0.45808594 15.52632812 0.40429688 16.44140625 C0.27498267 18.62799196 0.14003358 20.81407894 0 23 C-0.33 23 -0.66 23 -1 23 C-1.03738281 22.04738281 -1.07476563 21.09476563 -1.11328125 20.11328125 C-1.17902344 18.85902344 -1.24476563 17.60476562 -1.3125 16.3125 C-1.37050781 15.07113281 -1.42851563 13.82976563 -1.48828125 12.55078125 C-2.00910976 8.93678801 -2.90154617 6.94233607 -5 4 C-3.35 2.68 -1.7 1.36 0 0 Z " fill="#BAB9BE" transform="translate(543,43)"/>
<path d="M0 0 C2.64 0 5.28 0 8 0 C8 1.65 8 3.3 8 5 C5.03 5 2.06 5 -1 5 C-1.33 4.34 -1.66 3.68 -2 3 C-1.34 3 -0.68 3 0 3 C0 2.01 0 1.02 0 0 Z " fill="#E5E5E9" transform="translate(634,42)"/>
<path d="M0 0 C0.33 0 0.66 0 1 0 C1.33 2.97 1.66 5.94 2 9 C1.01 9.66 0.02 10.32 -1 11 C-0.01 11.99 0.98 12.98 2 14 C1.01 14.33 0.02 14.66 -1 15 C-3.5625 12.75 -3.5625 12.75 -6 10 C-5.8125 7.6875 -5.8125 7.6875 -5 6 C-4.34 6.66 -3.68 7.32 -3 8 C-2.34 7.67 -1.68 7.34 -1 7 C-0.59270772 4.67843403 -0.25561323 2.3431213 0 0 Z " fill="#D3D4D7" transform="translate(269,51)"/>
<path d="M0 0 C0.99 0.33 1.98 0.66 3 1 C2.6875 3.375 2.6875 3.375 2 6 C-1.22791555 8.1519437 -2.28400809 8.20086443 -6 8 C-4.6178686 4.24850048 -3.71673111 1.85836556 0 0 Z " fill="#E8E8EB" transform="translate(363,58)"/>
<path d="M0 0 C0 1.98 0 3.96 0 6 C-0.99 6 -1.98 6 -3 6 C-3 5.01 -3 4.02 -3 3 C-5.31 3.33 -7.62 3.66 -10 4 C-7.53453745 -1.4592385 -5.69047474 -1.11335375 0 0 Z " fill="#E6E7E9" transform="translate(248,36)"/>
<path d="M0 0 C2.64 0.33 5.28 0.66 8 1 C8 2.98 8 4.96 8 7 C3.545 7.495 3.545 7.495 -1 8 C0.32 7.34 1.64 6.68 3 6 C3 5.34 3 4.68 3 4 C2.34 4 1.68 4 1 4 C0.67 2.68 0.34 1.36 0 0 Z " fill="#CDCECE" transform="translate(634,59)"/>
<path d="M0 0 C2.64 0 5.28 0 8 0 C7.67 1.32 7.34 2.64 7 4 C6.34 4 5.68 4 5 4 C5 4.99 5 5.98 5 7 C4.68911632 8.67099977 4.35919668 10.33871537 4 12 C2.09681116 9.14521674 1.5380901 7.58058692 0.875 4.3125 C0.70742188 3.50425781 0.53984375 2.69601563 0.3671875 1.86328125 C0.24601563 1.24839844 0.12484375 0.63351563 0 0 Z " fill="#D6D5D9" transform="translate(643,42)"/>
<path d="M0 0 C2.5625 0.1875 2.5625 0.1875 4.5625 2.1875 C4.5625 3.1775 4.5625 4.1675 4.5625 5.1875 C1.5925 5.1875 -1.3775 5.1875 -4.4375 5.1875 C-3.20220588 0.24632353 -3.20220588 0.24632353 0 0 Z " fill="#202125" transform="translate(212.4375,46.8125)"/>
<path d="M0 0 C1.4540625 0.0309375 1.4540625 0.0309375 2.9375 0.0625 C1.9475 0.7225 0.9575 1.3825 -0.0625 2.0625 C0.5975 3.7125 1.2575 5.3625 1.9375 7.0625 C-0.90217231 7.0625 -3.29985711 6.65982819 -6.0625 6.0625 C-3.76028481 0.07674051 -3.76028481 0.07674051 0 0 Z " fill="#D8D7DC" transform="translate(549.0625,40.9375)"/>
<path d="M0 0 C6.625 -0.25 6.625 -0.25 10 2 C9.01 2.33 8.02 2.66 7 3 C6.34 2.67 5.68 2.34 5 2 C5.66 3.65 6.32 5.3 7 7 C5.02 7 3.04 7 1 7 C0.67 4.69 0.34 2.38 0 0 Z " fill="#D4D4D8" transform="translate(270,41)"/>
<path d="M0 0 C1.45792884 -0.05399736 2.91642712 -0.09279177 4.375 -0.125 C5.18710937 -0.14820313 5.99921875 -0.17140625 6.8359375 -0.1953125 C9 0 9 0 11 2 C10.34 2.66 9.68 3.32 9 4 C9.33 4.99 9.66 5.98 10 7 C9.34 7.66 8.68 8.32 8 9 C7.67 8.34 7.34 7.68 7 7 C4.98330173 5.86649466 4.98330173 5.86649466 3 5 C3.99 4.01 4.98 3.02 6 2 C3.03 1.505 3.03 1.505 0 1 C0 0.67 0 0.34 0 0 Z " fill="#CBCACE" transform="translate(461,41)"/>
<path d="M0 0 C0.94875 0.04125 1.8975 0.0825 2.875 0.125 C3.535 2.105 4.195 4.085 4.875 6.125 C2.956875 5.9703125 2.956875 5.9703125 1 5.8125 C-0.07894531 5.72548828 -0.07894531 5.72548828 -1.1796875 5.63671875 C-3.125 5.125 -3.125 5.125 -5.125 2.125 C-3.125 0.125 -3.125 0.125 0 0 Z " fill="#E7E8EA" transform="translate(359.125,34.875)"/>
<path d="M0 0 C0.33 0.99 0.66 1.98 1 3 C-3.6289961 5.68943231 -7.60393217 6.50873316 -12.875 6.6875 C-13.56335938 6.72166016 -14.25171875 6.75582031 -14.9609375 6.79101562 C-16.64008613 6.87264091 -18.32001168 6.9380157 -20 7 C-20.33 6.34 -20.66 5.68 -21 5 C-20.154375 4.97421875 -19.30875 4.9484375 -18.4375 4.921875 C-11.23942167 4.56197108 -6.17634722 3.75425027 0 0 Z " fill="#061623" transform="translate(117,64)"/>
<path d="M0 0 C2 2 2 2 2.125 4.625 C2.08375 5.40875 2.0425 6.1925 2 7 C1.34 7 0.68 7 0 7 C-0.33 7.99 -0.66 8.98 -1 10 C-1.33 8.68 -1.66 7.36 -2 6 C-2.66 6 -3.32 6 -4 6 C-3.67 4.68 -3.34 3.36 -3 2 C-2.01 2 -1.02 2 0 2 C0 1.34 0 0.68 0 0 Z " fill="#E7E8EB" transform="translate(662,46)"/>
<path d="M0 0 C1.65 0 3.3 0 5 0 C5 0.99 5 1.98 5 3 C4.34 3.66 3.68 4.32 3 5 C2.69400937 7.56916657 2.48912913 10.04758384 2.375 12.625 C2.33632813 13.33140625 2.29765625 14.0378125 2.2578125 14.765625 C2.16352276 16.50998524 2.08067109 18.25495691 2 20 C1.67 20 1.34 20 1 20 C0.83225597 17.22922802 0.66576064 14.45839073 0.5 11.6875 C0.45230469 10.90181641 0.40460937 10.11613281 0.35546875 9.30664062 C0.31035156 8.54931641 0.26523437 7.79199219 0.21875 7.01171875 C0.17685547 6.31522217 0.13496094 5.61872559 0.09179688 4.90112305 C0.01299029 3.26903034 0 1.63399421 0 0 Z " fill="#C5C5C7" transform="translate(602,46)"/>
<path d="M0 0 C1.32 0.33 2.64 0.66 4 1 C3.67 1.66 3.34 2.32 3 3 C3.66 3 4.32 3 5 3 C3.76210371 6.71368887 2.14775123 7.77354181 -1 10 C-1.66 10 -2.32 10 -3 10 C-2 7 -2 7 0 4 C0 2.68 0 1.36 0 0 Z " fill="#E7E8EA" transform="translate(438,35)"/>
<path d="M0 0 C0.99 0.33 1.98 0.66 3 1 C3 2.65 3 4.3 3 6 C0.35261084 7.4606285 -0.89448334 8 -4 8 C-3.67 6.35 -3.34 4.7 -3 3 C-2.01 3 -1.02 3 0 3 C0 2.01 0 1.02 0 0 Z " fill="#E4E5E8" transform="translate(281,57)"/>
<path d="M0 0 C0.640625 1.80078125 0.640625 1.80078125 1 4 C-3 9.66666667 -3 9.66666667 -7 11 C-6.68232368 5.59950264 -3.80003673 3.47662935 0 0 Z " fill="#036DA6" transform="translate(103,44)"/>
<path d="M0 0 C2.31 0 4.62 0 7 0 C7.33 0.66 7.66 1.32 8 2 C5.64031256 4.09749995 4.45383006 4.96905704 1.25 5.1875 C0.13625 5.0946875 0.13625 5.0946875 -1 5 C-1.33 4.01 -1.66 3.02 -2 2 C-1.34 2 -0.68 2 0 2 C0 1.34 0 0.68 0 0 Z " fill="#E7E7EA" transform="translate(460,42)"/>
<path d="M0 0 C0.99 0 1.98 0 3 0 C3.433125 1.2065625 3.433125 1.2065625 3.875 2.4375 C4.73262568 5.1326468 4.73262568 5.1326468 7 6 C6.67 7.65 6.34 9.3 6 11 C4 9.8125 4 9.8125 2 8 C1.75 5.3125 1.75 5.3125 2 3 C1.34 2.67 0.68 2.34 0 2 C0 1.34 0 0.68 0 0 Z " fill="#E0E1E3" transform="translate(376,54)"/>
<path d="M0 0 C3.42247116 2.82353871 4.89510789 4.13089392 5.4375 8.625 C5 12 5 12 3 15 C2.93941406 14.37351562 2.87882812 13.74703125 2.81640625 13.1015625 C2.73261719 12.28429688 2.64882812 11.46703125 2.5625 10.625 C2.44068359 9.40683594 2.44068359 9.40683594 2.31640625 8.1640625 C2.10909886 5.95727195 2.10909886 5.95727195 1 4 C0.34 4 -0.32 4 -1 4 C-0.67 2.68 -0.34 1.36 0 0 Z " fill="#2F708B" transform="translate(116,47)"/>
<path d="M0 0 C2.29013653 3.4352048 2.17842973 4.985331 2 9 C0.02 9.99 0.02 9.99 -2 11 C-3.35384615 4.6 -3.35384615 4.6 -1.5625 1.5625 C-1.046875 1.046875 -0.53125 0.53125 0 0 Z " fill="#E8E9EC" transform="translate(649,43)"/>
<path d="M0 0 C1.65 0.99 3.3 1.98 5 3 C4.625 4.9375 4.625 4.9375 4 7 C3.01 7.495 3.01 7.495 2 8 C1.34 8.99 0.68 9.98 0 11 C0 7.37 0 3.74 0 0 Z " fill="#343436" transform="translate(379,63)"/>
<path d="M0 0 C2.97 0.495 2.97 0.495 6 1 C6 1.99 6 2.98 6 4 C5.01 4 4.02 4 3 4 C3.33 4.99 3.66 5.98 4 7 C2.68 6.67 1.36 6.34 0 6 C0 4.02 0 2.04 0 0 Z " fill="#CECFD2" transform="translate(398,59)"/>
<path d="M0 0 C4.29 0 8.58 0 13 0 C13.66 1.98 14.32 3.96 15 6 C14.01 5.360625 13.02 4.72125 12 4.0625 C7.99717514 1.74593674 4.58078998 1.32145895 0 1 C0 0.67 0 0.34 0 0 Z " fill="#062232" transform="translate(104,43)"/>
<path d="M0 0 C2.97 0 5.94 0 9 0 C7.68 1.32 6.36 2.64 5 4 C5.33 4.66 5.66 5.32 6 6 C4.02 6.66 2.04 7.32 0 8 C0.61277612 5.03824877 1.25372522 3.61941217 3 1 C2.01 0.67 1.02 0.34 0 0 Z " fill="#CAC9CD" transform="translate(208,41)"/>
<path d="M0 0 C1.65 0 3.3 0 5 0 C5 1.65 5 3.3 5 5 C3.02 5.99 3.02 5.99 1 7 C0.67 4.69 0.34 2.38 0 0 Z " fill="#E4E5E8" transform="translate(361,42)"/>
<path d="M0 0 C0.66 0.99 1.32 1.98 2 3 C-2.05431692 4.15837626 -4.21812119 3.83691257 -8 2 C-8 1.34 -8 0.68 -8 0 C-5.06791253 -1.46604374 -3.11702298 -0.77925574 0 0 Z " fill="#0E1010" transform="translate(359,41)"/>
<path d="M0 0 C-1.23599052 3.70797156 -2.80995784 4.38797832 -6.1875 6.125 C-6.785625 6.41375 -7.38375 6.7025 -8 7 C-8.33 5.35 -8.66 3.7 -9 2 C-5.86501708 0.14223235 -3.62528568 -0.20140476 0 0 Z " fill="#D1D2D5" transform="translate(193,41)"/>
<path d="M0 0 C1.65 0 3.3 0 5 0 C5 1.98 5 3.96 5 6 C2.69 5.34 0.38 4.68 -2 4 C-1.34 2.68 -0.68 1.36 0 0 Z " fill="#E7E8EB" transform="translate(411,58)"/>
<path d="M0 0 C-0.66 1.32 -1.32 2.64 -2 4 C-4.64 3.67 -7.28 3.34 -10 3 C-7.29536552 -0.8183075 -4.37912428 -0.24787496 0 0 Z " fill="#68C2DB" transform="translate(77,44)"/>
<path d="M0 0 C1.98 0 3.96 0 6 0 C5.67 1.32 5.34 2.64 5 4 C3.68 4 2.36 4 1 4 C0.67 4.66 0.34 5.32 0 6 C0 4.02 0 2.04 0 0 Z " fill="#E8E7EC" transform="translate(577,42)"/>
<path d="M0 0 C1.98 0 3.96 0 6 0 C5.67 1.32 5.34 2.64 5 4 C3.68 4 2.36 4 1 4 C0.67 4.66 0.34 5.32 0 6 C0 4.02 0 2.04 0 0 Z " fill="#E8E7EC" transform="translate(305,42)"/>
<path d="M0 0 C0.598125 0.350625 1.19625 0.70125 1.8125 1.0625 C0.8225 1.5575 0.8225 1.5575 -0.1875 2.0625 C-0.5175 3.0525 -0.8475 4.0425 -1.1875 5.0625 C-2.5075 4.4025 -3.8275 3.7425 -5.1875 3.0625 C-5.1875 2.0725 -5.1875 1.0825 -5.1875 0.0625 C-2.1875 -0.9375 -2.1875 -0.9375 0 0 Z " fill="#D7D8DC" transform="translate(438.1875,60.9375)"/>
<path d="M0 0 C1.98 0 3.96 0 6 0 C6.33 1.32 6.66 2.64 7 4 C6.01 4 5.02 4 4 4 C4.33 4.99 4.66 5.98 5 7 C4.34 7 3.68 7 3 7 C0 2.61538462 0 2.61538462 0 0 Z " fill="#E8E7EC" transform="translate(275,43)"/>
<path d="M0 0 C0.721875 0.103125 1.44375 0.20625 2.1875 0.3125 C1.8575 1.6325 1.5275 2.9525 1.1875 4.3125 C0.5275 4.3125 -0.1325 4.3125 -0.8125 4.3125 C-3.14741639 4.63455743 -5.48092508 4.96708149 -7.8125 5.3125 C-3.50480769 0.38942308 -3.50480769 0.38942308 0 0 Z " fill="#CDCECE" transform="translate(329.8125,61.6875)"/>
<path d="M0 0 C0 1.32 0 2.64 0 4 C-1.65 4.33 -3.3 4.66 -5 5 C-5.33 3.68 -5.66 2.36 -6 1 C-4 0 -4 0 0 0 Z " fill="#E0E1E3" transform="translate(223,61)"/>
<path d="M0 0 C0.33 0.99 0.66 1.98 1 3 C1.66 3 2.32 3 3 3 C3.33 3.99 3.66 4.98 4 6 C2.35 6 0.7 6 -1 6 C-1.66 4.68 -2.32 3.36 -3 2 C-2.01 1.34 -1.02 0.68 0 0 Z " fill="#CCCCD0" transform="translate(530,42)"/>
<path d="M0 0 C0.66 0.66 1.32 1.32 2 2 C1.195625 2.12375 0.39125 2.2475 -0.4375 2.375 C-1.7059375 2.684375 -1.7059375 2.684375 -3 3 C-3.33 3.66 -3.66 4.32 -4 5 C-4.66 4.67 -5.32 4.34 -6 4 C-5.67 3.01 -5.34 2.02 -5 1 C-5.99 0.67 -6.98 0.34 -8 0 C-4.67679974 -1.10773342 -3.30835256 -0.93312508 0 0 Z " fill="#DEDEE2" transform="translate(409,45)"/>
<path d="M0 0 C1.65 0.33 3.3 0.66 5 1 C5 1.99 5 2.98 5 4 C2.36 4 -0.28 4 -3 4 C-2.01 2.68 -1.02 1.36 0 0 Z " fill="#E0E1E3" transform="translate(232,35)"/>
<path d="M0 0 C-0.33 1.32 -0.66 2.64 -1 4 C-2.32 4 -3.64 4 -5 4 C-5 3.34 -5 2.68 -5 2 C-5.66 2 -6.32 2 -7 2 C-7 1.34 -7 0.68 -7 0 C-2.25 -1.125 -2.25 -1.125 0 0 Z " fill="#E8E9E9" transform="translate(576,61)"/>
<path d="M0 0 C0.33 0.66 0.66 1.32 1 2 C-1.31 2 -3.62 2 -6 2 C-6 2.66 -6 3.32 -6 4 C-6.66 4 -7.32 4 -8 4 C-8 4.99 -8 5.98 -8 7 C-8.99 7 -9.98 7 -11 7 C-9.84826645 4.53199953 -8.95216435 2.95216435 -7 1 C-4.67724823 0.59952556 -2.34260643 0.2602896 0 0 Z " fill="#C6C7C7" transform="translate(359,59)"/>
<path d="M0 0 C-0.33 1.32 -0.66 2.64 -1 4 C-2.32 4 -3.64 4 -5 4 C-5 3.34 -5 2.68 -5 2 C-5.66 2 -6.32 2 -7 2 C-7 1.34 -7 0.68 -7 0 C-2.25 -1.125 -2.25 -1.125 0 0 Z " fill="#E8E9E9" transform="translate(304,61)"/>
<path d="M0 0 C-2.57784846 2.64752004 -4.91648098 4.94432065 -8 7 C-7.67 5.68 -7.34 4.36 -7 3 C-7.66 2.67 -8.32 2.34 -9 2 C-5.5647952 -0.29013653 -4.014669 -0.17842973 0 0 Z " fill="#C5C4C8" transform="translate(605,41)"/>
<path d="M0 0 C4.67461851 -0.32613618 7.16674383 0.29417212 11 3 C10.34 3.66 9.68 4.32 9 5 C8.01 5 7.02 5 6 5 C5.67 3.68 5.34 2.36 5 1 C3.35 1 1.7 1 0 1 C0 0.67 0 0.34 0 0 Z " fill="#C8C7CC" transform="translate(383,41)"/>
<path d="M0 0 C2 1 2 1 3 3 C3.039992 4.99960012 3.04346799 7.00047242 3 9 C2.814375 8.360625 2.62875 7.72125 2.4375 7.0625 C1.05753944 4.57873787 1.05753944 4.57873787 -2.625 4.25 C-3.73875 4.1675 -4.8525 4.085 -6 4 C-6 3.67 -6 3.34 -6 3 C-4.35 3 -2.7 3 -1 3 C-0.67 2.01 -0.34 1.02 0 0 Z " fill="#262628" transform="translate(621,38)"/>
<path d="M0 0 C1.0625 1.8125 1.0625 1.8125 2 4 C1.67 4.99 1.34 5.98 1 7 C0.01 7 -0.98 7 -2 7 C-2.125 4.625 -2.125 4.625 -2 2 C-1.34 1.34 -0.68 0.68 0 0 Z " fill="#E7E8EB" transform="translate(579,59)"/>
<path d="M0 0 C1.0625 1.8125 1.0625 1.8125 2 4 C1.67 4.99 1.34 5.98 1 7 C0.01 7 -0.98 7 -2 7 C-2.125 4.625 -2.125 4.625 -2 2 C-1.34 1.34 -0.68 0.68 0 0 Z " fill="#E7E8EB" transform="translate(307,59)"/>
<path d="M0 0 C1.98 0 3.96 0 6 0 C6 0.66 6 1.32 6 2 C6.66 2.66 7.32 3.32 8 4 C5.69 3.67 3.38 3.34 1 3 C0.67 2.01 0.34 1.02 0 0 Z " fill="#0B0C10" transform="translate(209,57)"/>
<path d="M0 0 C0.33 0 0.66 0 1 0 C1 1.98 1 3.96 1 6 C-2.3 5.67 -5.6 5.34 -9 5 C-9 4.67 -9 4.34 -9 4 C-4.545 3.505 -4.545 3.505 0 3 C0 2.01 0 1.02 0 0 Z " fill="#B2B2B4" transform="translate(451,36)"/>
<path d="M0 0 C0.33 0.66 0.66 1.32 1 2 C-0.125 4.5625 -0.125 4.5625 -2 7 C-4.6875 7.8125 -4.6875 7.8125 -7 8 C-6.02133662 6.85373678 -5.04205413 5.70800212 -4.0625 4.5625 C-3.51722656 3.92441406 -2.97195312 3.28632812 -2.41015625 2.62890625 C-1.63204305 1.73008851 -0.84063472 0.84063472 0 0 Z " fill="#2183B4" transform="translate(103,48)"/>
<path d="M0 0 C2.31 0.33 4.62 0.66 7 1 C6.01 1.495 6.01 1.495 5 2 C4.67 2.66 4.34 3.32 4 4 C3.67 3.67 3.34 3.34 3 3 C2.67 3.66 2.34 4.32 2 5 C1.34 5 0.68 5 0 5 C0 3.35 0 1.7 0 0 Z " fill="#E8E9ED" transform="translate(624,42)"/>
<path d="M0 0 C2.31 0.33 4.62 0.66 7 1 C7 1.66 7 2.32 7 3 C4.36 3.33 1.72 3.66 -1 4 C-0.67 2.68 -0.34 1.36 0 0 Z " fill="#CACACA" transform="translate(567,63)"/>
<path d="M0 0 C2.31 0.33 4.62 0.66 7 1 C7 1.66 7 2.32 7 3 C4.36 3.33 1.72 3.66 -1 4 C-0.67 2.68 -0.34 1.36 0 0 Z " fill="#CACACA" transform="translate(295,63)"/>
<path d="M0 0 C1.875 0.8125 1.875 0.8125 2.875 2.8125 C0.5625 3.9375 0.5625 3.9375 -2.125 4.8125 C-3.115 4.1525 -4.105 3.4925 -5.125 2.8125 C-2.68543956 -0.23695055 -2.68543956 -0.23695055 0 0 Z " fill="#EBEAEF" transform="translate(216.125,42.1875)"/>
<path d="M0 0 C0.99 0 1.98 0 3 0 C3 1.98 3 3.96 3 6 C2.01 6 1.02 6 0 6 C-1.125 2.25 -1.125 2.25 0 0 Z " fill="#DDDEE0" transform="translate(245,36)"/>
<path d="M0 0 C-1.32 1.32 -2.64 2.64 -4 4 C-5.32 3.34 -6.64 2.68 -8 2 C-5.44123378 -0.55876622 -3.37797483 -1.68898741 0 0 Z " fill="#EAE9EE" transform="translate(541,45)"/>
<path d="M0 0 C0.99 0 1.98 0 3 0 C3 0.66 3 1.32 3 2 C3.66 2.33 4.32 2.66 5 3 C4.67 3.66 4.34 4.32 4 5 C1.4375 5.625 1.4375 5.625 -1 6 C-0.649375 5.38125 -0.29875 4.7625 0.0625 4.125 C0.371875 3.42375 0.68125 2.7225 1 2 C0.67 1.34 0.34 0.68 0 0 Z " fill="#EBEBEE" transform="translate(438,60)"/>
<path d="M0 0 C0.66 0 1.32 0 2 0 C2 1.98 2 3.96 2 6 C0.35 5.67 -1.3 5.34 -3 5 C-2.67 4.34 -2.34 3.68 -2 3 C-1.34 3 -0.68 3 0 3 C0 2.01 0 1.02 0 0 Z " fill="#C4C4C7" transform="translate(415,43)"/>
<path d="M0 0 C1.67542976 0.28604898 3.34385343 0.61781233 5 1 C4.01 1.495 4.01 1.495 3 2 C3.33 2.99 3.66 3.98 4 5 C3.01 5.495 3.01 5.495 2 6 C1.01 4.35 0.02 2.7 -1 1 C-0.67 0.67 -0.34 0.34 0 0 Z " fill="#DADADE" transform="translate(386,45)"/>
<path d="M0 0 C1.98 0 3.96 0 6 0 C6.33 0.99 6.66 1.98 7 3 C5.02 3.33 3.04 3.66 1 4 C0.67 2.68 0.34 1.36 0 0 Z " fill="#EAE9EE" transform="translate(382,42)"/>
</svg>
