<?xml version="1.0" encoding="UTF-8"?>
<svg version="1.1" xmlns="http://www.w3.org/2000/svg" width="1500" height="500">
<path d="M0 0 C495 0 990 0 1500 0 C1500 165 1500 330 1500 500 C1005 500 510 500 0 500 C0 335 0 170 0 0 Z " fill="#FEFEFE" transform="translate(0,0)"/>
<path d="M0 0 C1.65395164 1.07088375 1.65395164 1.07088375 3 3 C3.30317532 5.49530105 3.42207744 7.74393076 3.40786743 10.24085999 C3.41912078 11.35505653 3.41912078 11.35505653 3.43060148 12.4917621 C3.45198382 14.9882071 3.45181778 17.484183 3.45166016 19.98071289 C3.46227083 21.76787041 3.47410041 23.55502106 3.48706055 25.34216309 C3.5178925 30.20409189 3.5289886 35.0658735 3.53470278 39.92789006 C3.53905411 42.96679502 3.54742701 46.00566171 3.55720139 49.04455376 C3.59097335 59.65073475 3.60808499 70.2568043 3.61083984 80.86303711 C3.6138707 90.74077007 3.65426091 100.61787539 3.71198809 110.49542624 C3.75982125 118.97967347 3.78057197 127.46371406 3.78063047 135.94809526 C3.78116791 141.01349457 3.79269645 146.07828032 3.83180618 151.14354134 C3.86775983 155.91349838 3.86989901 160.6823149 3.84663391 165.45233917 C3.8437816 167.19778893 3.85276674 168.94330676 3.87481308 170.68861961 C3.98177047 179.72028559 3.85926905 186.82269402 -2.13710976 194.15216732 C-5.07297008 197.06429737 -8.1264506 199.29353555 -11.6875 201.375 C-12.4079248 201.81924316 -13.12834961 202.26348633 -13.87060547 202.72119141 C-16.23404769 204.17030559 -18.61494569 205.58677406 -21 207 C-22.77002128 208.06168346 -24.53954175 209.12420224 -26.30859375 210.1875 C-28.91238438 211.75181211 -31.51788822 213.31193915 -34.13549805 214.85302734 C-37.80516781 217.02165494 -41.38893163 219.21907112 -44.84375 221.71875 C-47.18339618 223.4097814 -49.32513009 224.82270593 -51.875 226.125 C-56.54598605 228.64445309 -60.94186957 231.52810675 -65.375 234.4375 C-70.89829566 238.05784676 -76.41811049 241.4913028 -82.3125 244.48828125 C-84.7060806 245.83467034 -86.93955016 247.27452624 -89.21484375 248.80859375 C-93.89854263 251.96542034 -98.70311429 254.87350843 -103.5625 257.75 C-109.85453756 261.49813741 -116.11336379 265.28759565 -122.3125 269.1875 C-123.5988841 269.99100427 -124.88534168 270.79439092 -126.171875 271.59765625 C-128.81993344 273.25303297 -131.45110884 274.93256597 -134.078125 276.62109375 C-135.40584276 277.45637685 -136.73395371 278.29103534 -138.0625 279.125 C-138.65780518 279.51582764 -139.25311035 279.90665527 -139.86645508 280.30932617 C-144.05193017 282.90466308 -147.12271078 283.38521265 -152 283 C-153.98948356 279.66765767 -154.2732162 277.09399229 -154.3347168 273.23901367 C-154.3577034 272.05186768 -154.38069 270.86472168 -154.40437317 269.64160156 C-154.41917221 268.33030273 -154.43397125 267.01900391 -154.44921875 265.66796875 C-154.47160519 264.25072317 -154.49458793 262.83348691 -154.51811218 261.41625977 C-154.59184907 256.67349274 -154.64182798 251.93061037 -154.6875 247.1875 C-154.69553902 246.3723505 -154.70357803 245.557201 -154.71186066 244.71735001 C-154.81824019 233.69829019 -154.8843887 222.67919043 -154.93963242 211.65977192 C-154.98311725 203.64132758 -155.06326598 195.62354887 -155.14990234 187.60546875 C-155.2706636 176.23625323 -155.33550925 164.86788015 -155.34676647 153.49802113 C-155.35417932 147.21732142 -155.38363445 140.93849772 -155.46591187 134.65829468 C-155.54293199 128.67829816 -155.55724474 122.70129147 -155.52521706 116.72091675 C-155.52404258 114.49977306 -155.54519659 112.2784911 -155.5900631 110.05780029 C-155.9047438 93.50503175 -155.9047438 93.50503175 -152.73036957 89.33024025 C-149.2537228 86.24380679 -145.32404279 84.65601123 -141 83 C-139.34424999 82.05157397 -137.70338755 81.07551878 -136.09375 80.05078125 C-134.56271183 79.13766556 -133.03145881 78.22491002 -131.5 77.3125 C-123.45130103 72.50186347 -115.46629334 67.59511905 -107.50366211 62.64355469 C-102.55117839 59.5673403 -97.57736726 56.53571941 -92.5625 53.5625 C-85.25052132 49.22126911 -78.09302387 44.64090656 -70.93774414 40.04711914 C-65.85690424 36.79076477 -60.74114175 33.61335595 -55.55639648 30.52514648 C-50.91477289 27.75595323 -46.30344932 24.93670849 -41.6875 22.125 C-40.6778418 21.51003662 -39.66818359 20.89507324 -38.62792969 20.26147461 C-33.33179827 17.03417112 -28.03653591 13.80550102 -22.75 10.5625 C-21.77417969 9.96566406 -20.79835938 9.36882812 -19.79296875 8.75390625 C-17.8361707 7.52509181 -15.90278734 6.25856317 -13.98828125 4.96484375 C-13.02277344 4.31644531 -12.05726563 3.66804687 -11.0625 3 C-10.22847656 2.4225 -9.39445313 1.845 -8.53515625 1.25 C-5.42310296 -0.28444846 -3.42888927 -0.44785492 0 0 Z " fill="#020202" transform="translate(418,164)"/>
<path d="M0 0 C1.093125 0.0825 2.18625 0.165 3.3125 0.25 C3.3125 0.91 3.3125 1.57 3.3125 2.25 C4.26769531 2.57871094 4.26769531 2.57871094 5.2421875 2.9140625 C9.53728823 4.78292312 13.43815117 7.19648067 17.4375 9.625 C18.31623779 10.15520752 19.19497559 10.68541504 20.1003418 11.23168945 C26.95832838 15.3866891 33.74380502 19.65097566 40.50952148 23.95410156 C45.90325445 27.3793722 51.34772819 30.7029334 56.83911133 33.96875 C61.85788006 36.95951006 66.81015735 40.048394 71.75488281 43.15966797 C78.8393376 47.6049163 85.99437379 51.93353994 93.15625 56.25268555 C98.30289165 59.36867643 103.36635826 62.56292151 108.3359375 65.95507812 C110.30290153 67.24371167 112.30457674 68.3867189 114.375 69.5 C119.50736846 72.28228395 124.41440386 75.40299029 129.35302734 78.51098633 C138.36569645 84.42837496 138.36569645 84.42837496 147.90573883 89.35863495 C150.3125 91.25 150.3125 91.25 150.93611908 94.56244659 C150.96108243 95.96332453 150.95816095 97.36485575 150.93395996 98.76574707 C150.94034878 99.53798504 150.9467376 100.31022302 150.95332003 101.10586214 C150.9686205 103.70195623 150.94807668 106.29653642 150.92773438 108.89257812 C150.93123407 110.75020352 150.93689094 112.60782593 150.94454956 114.46543884 C150.95882899 119.51715244 150.94170516 124.56832378 150.91826439 129.61998558 C150.89819886 134.89969078 150.9040327 140.17937251 150.90637207 145.45910645 C150.90631845 154.32650732 150.88653366 163.19369543 150.85449219 172.06103516 C150.81759738 182.3215683 150.80881614 192.58182262 150.8157897 202.84241343 C150.82208895 212.70157555 150.81135112 222.56064177 150.79182434 232.41978455 C150.78363692 236.62069563 150.78094326 240.82155779 150.78251648 245.0224762 C150.78339366 249.96699099 150.7692243 254.91123967 150.74328995 259.85568428 C150.73611091 261.67337822 150.73405284 263.49110044 150.73740768 265.30880547 C150.74110584 267.78424598 150.72643375 270.25890269 150.70690918 272.73425293 C150.71223711 273.45885727 150.71756503 274.18346162 150.72305441 274.93002367 C150.68382884 277.79933789 150.63085164 279.78133237 148.99292755 282.19263458 C146.06065888 284.03768853 143.67846251 283.64245991 140.3125 283.25 C137.09375 281.59765625 137.09375 281.59765625 133.8125 279.3125 C132.58487687 278.47819302 131.35565526 277.64623414 130.125 276.81640625 C129.18333984 276.17469482 129.18333984 276.17469482 128.22265625 275.52001953 C125.15478124 273.48025907 121.98631465 271.61886823 118.8125 269.75 C113.91441784 266.84413314 109.08744301 263.85398257 104.3125 260.75 C97.72816814 256.4727986 91.01992815 252.42399929 84.27026367 248.41430664 C76.1358465 243.5766666 68.05688531 238.65311298 60 233.6875 C58.8549898 232.98224396 57.70997012 232.27700332 56.56494141 231.57177734 C46.13722295 225.14771468 35.71806512 218.70988848 25.3125 212.25 C24.17119629 211.54206299 24.17119629 211.54206299 23.00683594 210.81982422 C18.97828258 208.3193732 14.95779888 205.80696714 10.94873047 203.27539062 C9.47560275 202.352213 7.99044054 201.44830609 6.50390625 200.546875 C-0.63660894 196.09138112 -4.36549415 191.38852601 -6.6875 183.25 C-6.8675037 180.75826722 -6.94427936 178.25808019 -6.94819641 175.75985718 C-6.95202196 175.02659702 -6.95584751 174.29333686 -6.95978898 173.5378567 C-6.97007026 171.09205844 -6.96613623 168.64649708 -6.9621582 166.20068359 C-6.96650725 164.44276208 -6.97169104 162.68484247 -6.97764587 160.92692566 C-6.991023 156.16061406 -6.99161622 151.39438181 -6.98908257 146.6280551 C-6.9880125 142.64911404 -6.99289692 138.67018902 -6.997688 134.6912514 C-7.00877764 125.30750173 -7.00922292 115.92379211 -7.00317383 106.54003906 C-6.99712664 96.85490207 -7.00946518 87.16991009 -7.0307439 77.48479784 C-7.04834199 69.16959944 -7.05436429 60.85444728 -7.05110615 52.53923094 C-7.04929109 47.57264678 -7.05195218 42.60616617 -7.06582069 37.63959885 C-7.07836611 32.97249866 -7.07648624 28.30562539 -7.06340981 23.63852882 C-7.0610377 21.92444216 -7.06380133 20.21033967 -7.07203293 18.49627113 C-7.08244826 16.15930693 -7.07444256 13.82311162 -7.0617218 11.48617554 C-7.06188954 10.17764807 -7.06205729 8.8691206 -7.06223011 7.52094078 C-6.46171245 2.27914771 -5.36281636 0.36358077 0 0 Z " fill="#010101" transform="translate(94.6875,163.75)"/>
<path d="M0 0 C7.17517573 3.38097286 13.97768326 7.4869633 20.5546875 11.91015625 C23.27917888 13.64033968 26.09091895 15.0245264 28.984375 16.453125 C38.96634594 21.99997852 48.82678009 27.75968097 58.421875 33.953125 C62.86771757 36.79871331 67.40026448 39.37371893 72.05078125 41.8671875 C81.22534041 46.82706902 90.20773121 52.12230727 99.09863281 57.5715332 C101.71320339 59.16087219 104.06982011 60.4816067 106.984375 61.453125 C106.984375 62.113125 106.984375 62.773125 106.984375 63.453125 C107.83644531 63.69546875 108.68851562 63.9378125 109.56640625 64.1875 C113.30752854 65.57278414 116.39382575 67.48311914 119.671875 69.703125 C124.00166754 72.5685894 128.32938534 75.26732938 132.921875 77.703125 C144.51521141 83.96284067 144.51521141 83.96284067 146.046875 88.828125 C144.12002112 95.40209705 137.96119045 97.78559658 132.2578125 100.98046875 C130.42728249 101.9748633 128.59115647 102.95901512 126.75 103.93359375 C124.01330809 105.43722815 121.4130117 107.06200305 118.796875 108.765625 C114.36532764 111.63383844 109.84513837 114.26426279 105.234375 116.828125 C99.55642121 119.98888357 93.94598822 123.23466948 88.38354492 126.59643555 C67.67546076 139.10543318 46.807461 151.37022892 25.828125 163.41796875 C17.46990678 168.22159968 9.19071671 173.10563349 1.05664062 178.28222656 C-0.62649112 179.35129071 -2.32050287 180.40317663 -4.015625 181.453125 C-4.69753906 181.89527344 -5.37945312 182.33742187 -6.08203125 182.79296875 C-9.07866791 183.81606288 -10.98059 183.30278639 -14.015625 182.453125 C-16.49433447 181.08783122 -18.7928593 179.70024412 -21.140625 178.140625 C-22.55477492 177.22858262 -23.97020171 176.31851784 -25.38671875 175.41015625 C-26.13421387 174.92885254 -26.88170898 174.44754883 -27.65185547 173.95166016 C-31.78713776 171.3300569 -35.99691144 168.83372599 -40.203125 166.328125 C-46.60703725 162.50162387 -52.98870222 158.64517993 -59.33203125 154.71875 C-62.41323745 152.8168372 -65.50859014 150.93877474 -68.60546875 149.0625 C-69.61762451 148.44874512 -70.62978027 147.83499023 -71.67260742 147.20263672 C-73.68352734 145.98392624 -75.69536006 144.76672022 -77.70825195 143.55126953 C-82.95249349 140.37090237 -88.10377905 137.10979305 -93.14941406 133.62158203 C-95.11419679 132.28948031 -95.11419679 132.28948031 -98.015625 131.453125 C-98.015625 130.793125 -98.015625 130.133125 -98.015625 129.453125 C-98.83933594 129.22238281 -99.66304687 128.99164063 -100.51171875 128.75390625 C-104.7390105 127.18457721 -108.2743306 125.03481019 -112.078125 122.640625 C-112.85325439 122.15996582 -113.62838379 121.67930664 -114.42700195 121.18408203 C-116.09196778 120.1509061 -117.75524816 119.11501004 -119.41699219 118.07666016 C-122.94618727 115.87174214 -126.48358871 113.68018011 -130.02148438 111.48925781 C-131.80489841 110.38452829 -133.58745579 109.27841461 -135.36914062 108.17089844 C-139.40454289 105.66642503 -143.44784267 103.18195271 -147.5390625 100.76953125 C-148.22653564 100.3636377 -148.91400879 99.95774414 -149.62231445 99.53955078 C-150.87801827 98.80189728 -152.13673865 98.06934164 -153.39916992 97.34326172 C-156.72946063 95.38847335 -159.52454414 93.42211106 -162.015625 90.453125 C-162.515625 87.453125 -162.515625 87.453125 -162.015625 84.453125 C-159.24477446 81.20014326 -156.20323301 79.21657565 -152.5 77.1328125 C-151.42186035 76.52018555 -150.3437207 75.90755859 -149.23291016 75.27636719 C-148.08870605 74.63344727 -146.94450195 73.99052734 -145.765625 73.328125 C-143.39076249 71.98087154 -141.0190945 70.62807529 -138.6484375 69.2734375 C-138.06681854 68.94150391 -137.48519958 68.60957031 -136.88595581 68.26757812 C-132.39377628 65.69398779 -127.99730478 62.99821511 -123.640625 60.203125 C-117.0780443 56.00724835 -110.32084691 52.23200376 -103.45361328 48.55761719 C-97.64691768 45.43102752 -92.04329902 42.03702535 -86.44067383 38.55908203 C-81.27761865 35.36751618 -76.02670726 32.32430229 -70.78240967 29.26895142 C-61.44720636 23.82982734 -52.13832552 18.35264655 -42.890625 12.765625 C-37.03367263 9.23193628 -31.17315234 5.73866013 -25.109375 2.56640625 C-22.84156536 1.40045103 -22.84156536 1.40045103 -20.140625 -0.421875 C-13.38377821 -2.85433984 -6.63792342 -2.81203096 0 0 Z " fill="#010101" transform="translate(263.015625,54.546875)"/>
<path d="M0 0 C74.44444444 0 74.44444444 0 85 10 C85.55300781 10.51304687 86.10601563 11.02609375 86.67578125 11.5546875 C91.25124582 16.30045472 93.07251537 21.79251103 95 28 C95.495 29.485 95.495 29.485 96 31 C96.29111201 35.47429119 96.27800018 39.95482343 96.3125 44.4375 C96.35600586 46.26958008 96.35600586 46.26958008 96.40039062 48.13867188 C96.4826312 60.02559869 93.87422427 70.81036008 86 80 C76.65503428 89.18065863 64.24266679 91.17491144 51.6640625 91.09765625 C50.88377686 91.09664917 50.10349121 91.09564209 49.29956055 91.09460449 C46.40802524 91.08940541 43.51651101 91.07544433 40.625 91.0625 C34.14875 91.041875 27.6725 91.02125 21 91 C21 105.19 21 119.38 21 134 C14.07 134 7.14 134 0 134 C0 89.78 0 45.56 0 0 Z " fill="#030303" transform="translate(494,189)"/>
<path d="M0 0 C4.71986395 3.82833409 7.29916635 7.97664941 9.609375 13.5234375 C10.26762523 14.86094595 10.93212903 16.19544649 11.609375 17.5234375 C11.86589844 16.894375 12.12242187 16.2653125 12.38671875 15.6171875 C16.06099144 7.40265192 21.10870857 2.3707979 28.671875 -2.4140625 C32.32335145 -3.7348093 35.76130889 -4.26349844 39.609375 -4.4765625 C40.54265625 -4.52941406 41.4759375 -4.58226562 42.4375 -4.63671875 C51.74623631 -4.91120713 59.13261425 -3.87209088 66.484375 2.1484375 C70.61795642 6.12163304 72.88353876 10.0955484 74.609375 15.5234375 C75.12067459 17.08319054 75.12067459 17.08319054 75.64230347 18.67445374 C76.65213519 22.69362479 76.8783772 26.36985304 76.83642578 30.47827148 C76.83671783 31.24007217 76.83700989 32.00187286 76.83731079 32.78675842 C76.83592794 35.28113574 76.82041655 37.77520672 76.8046875 40.26953125 C76.80095365 42.00830421 76.79810843 43.74707928 76.79611206 45.4858551 C76.78850492 50.04460541 76.76888172 54.60322667 76.7467041 59.16192627 C76.72618256 63.82082372 76.71709689 68.47974218 76.70703125 73.13867188 C76.68563288 82.26699267 76.65047475 91.39518412 76.609375 100.5234375 C69.679375 100.5234375 62.749375 100.5234375 55.609375 100.5234375 C55.6000293 98.32365234 55.59068359 96.12386719 55.58105469 93.85742188 C55.54720615 86.56902234 55.49161364 79.28090359 55.42547226 71.99272919 C55.38605334 67.57619291 55.35383763 63.15985435 55.33837891 58.74316406 C55.32317529 54.47648852 55.28866474 50.21035672 55.24106598 45.94392395 C55.22629021 44.32058961 55.21833618 42.69717761 55.21749115 41.07377625 C55.40010558 28.02341163 55.40010558 28.02341163 49.12738037 16.90222168 C44.61770702 12.80614508 38.32815119 13.09386548 32.578125 13.21484375 C25.5352885 13.94692807 21.2603044 17.31798898 16.8359375 22.64453125 C13.85046242 27.21782269 13.34820741 31.19632936 13.29052734 36.60864258 C13.28048172 37.30187622 13.2704361 37.99510986 13.26008606 38.70935059 C13.22934137 40.98721533 13.21224355 43.26496301 13.1953125 45.54296875 C13.1765938 47.1276703 13.15701986 48.71236196 13.1366272 50.29704285 C13.085374 54.45785684 13.04571195 58.61870312 13.00848389 62.77966309 C12.96840142 67.02962182 12.91732846 71.27944702 12.8671875 75.52929688 C12.77050883 83.86059245 12.68709475 92.19194347 12.609375 100.5234375 C6.009375 100.5234375 -0.590625 100.5234375 -7.390625 100.5234375 C-7.40520752 98.41976807 -7.41979004 96.31609863 -7.43481445 94.14868164 C-7.48531699 87.17164114 -7.55193903 80.19482015 -7.62633991 73.21799564 C-7.67092792 68.99097185 -7.71020897 64.76404186 -7.73706055 60.53686523 C-7.76320972 56.4517987 -7.80369263 52.36709544 -7.85381126 48.28225517 C-7.87040191 46.72952252 -7.88196451 45.17672714 -7.88823891 43.62391853 C-7.92475407 35.41229746 -8.18612258 28.19042296 -11.390625 20.5234375 C-11.885625 19.0384375 -11.885625 19.0384375 -12.390625 17.5234375 C-14.17291436 16.38133933 -14.17291436 16.38133933 -16.390625 15.5234375 C-17.14472656 15.183125 -17.89882813 14.8428125 -18.67578125 14.4921875 C-25.40406853 12.09130226 -32.48129831 12.69143248 -38.890625 15.7109375 C-44.8207989 19.08876455 -47.69553731 23.32054969 -50.390625 29.5234375 C-50.85730827 32.99313569 -50.85730827 32.99313569 -50.82299805 36.72216797 C-50.8331897 37.41554764 -50.84338135 38.10892731 -50.85388184 38.82331848 C-50.88387176 41.09583767 -50.89325584 43.3679344 -50.90234375 45.640625 C-50.91920091 47.22390122 -50.93735255 48.80716414 -50.95674133 50.39041138 C-51.00413519 54.54300785 -51.03401294 58.69555039 -51.06018066 62.84832764 C-51.09003998 67.09170174 -51.13655179 71.33489023 -51.18164062 75.578125 C-51.26755303 83.89315314 -51.33341125 92.20816232 -51.390625 100.5234375 C-57.990625 100.5234375 -64.590625 100.5234375 -71.390625 100.5234375 C-71.390625 66.5334375 -71.390625 32.5434375 -71.390625 -2.4765625 C-64.790625 -2.4765625 -58.190625 -2.4765625 -51.390625 -2.4765625 C-51.060625 3.7934375 -50.730625 10.0634375 -50.390625 16.5234375 C-49.730625 15.0178125 -49.070625 13.5121875 -48.390625 11.9609375 C-44.69712245 4.5739324 -39.08505695 -0.39878972 -31.390625 -3.4765625 C-21.32700971 -5.8742695 -8.98157456 -5.54744311 0 0 Z " fill="#020202" transform="translate(902.390625,222.4765625)"/>
<path d="M0 0 C6.93 0 13.86 0 21 0 C21 25.41 21 50.82 21 77 C27.89950809 76.73249894 27.89950809 76.73249894 32.16015625 73.33984375 C32.63984863 72.79763184 33.11954102 72.25541992 33.61376953 71.69677734 C34.09185059 71.11621582 34.56993164 70.5356543 35.0625 69.9375 C35.57925293 69.34404785 36.09600586 68.7505957 36.62841797 68.13916016 C38.10321534 66.44024915 39.55267389 64.72230221 41 63 C42.20555524 61.62256361 43.41333974 60.24706919 44.625 58.875 C45.15351562 58.26398438 45.68203125 57.65296875 46.2265625 57.0234375 C49.22373486 53.60375626 52.3042648 50.25981607 55.375 46.90625 C57.91759201 44.22438278 57.91759201 44.22438278 59.43383789 41.89257812 C61.90194749 38.49389449 63.60731994 36.31674935 67.80810547 35.36132812 C71.05341433 35.21328404 74.19537131 35.29989235 77.4375 35.5 C78.55060547 35.53609375 79.66371094 35.5721875 80.81054688 35.609375 C83.54396097 35.70322613 86.27015413 35.83434241 89 36 C85.90359893 40.24443249 82.88927802 44.37548298 79.0625 48 C75.83747692 51.13967275 72.84868064 54.39046017 69.9140625 57.80078125 C67.64845431 60.40391882 65.32696448 62.95158724 63 65.5 C56.90849163 72.16927719 56.90849163 72.16927719 51 79 C50.42121094 79.65097656 49.84242187 80.30195313 49.24609375 80.97265625 C47.81244365 82.88185766 47.81244365 82.88185766 48.08203125 84.95703125 C49.26772869 87.59583875 50.81189068 89.47906536 52.6875 91.6875 C53.49574219 92.65042969 54.30398438 93.61335938 55.13671875 94.60546875 C55.58966309 95.14091309 56.04260742 95.67635742 56.50927734 96.22802734 C59.36914138 99.62745302 62.17958205 103.06784757 65 106.5 C66.21210115 107.97146821 67.42433839 109.44282433 68.63671875 110.9140625 C72.06461087 115.07657134 75.48473158 119.24523914 78.890625 123.42578125 C80.43208456 125.30693283 81.9859199 127.17796258 83.546875 129.04296875 C84.37703125 130.03941406 85.2071875 131.03585937 86.0625 132.0625 C86.81660156 132.96097656 87.57070312 133.85945312 88.34765625 134.78515625 C90 137 90 137 90 139 C70.18773436 141.51922683 70.18773436 141.51922683 63.76464844 137.65527344 C59.87545333 134.0591417 57.11103664 129.69723183 54.375 125.19384766 C52.23418429 121.77812145 49.71703225 118.69465355 47.1875 115.5625 C46.29370315 114.4197146 45.40045473 113.27650001 44.5078125 112.1328125 C41.69360965 108.57791663 38.70240504 105.19677907 35.66015625 101.8359375 C30 95.57647059 30 95.57647059 30 93 C27.03 93 24.06 93 21 93 C21 108.18 21 123.36 21 139 C14.07 139 7.14 139 0 139 C0 93.13 0 47.26 0 0 Z " fill="#050505" transform="translate(1267,184)"/>
<path d="M0 0 C6.73187278 5.52393593 10.07120683 12.87102357 11.6875 21.3125 C12.08750234 27.3293213 12.03802349 33.32439976 11.98046875 39.3515625 C11.97486373 41.08604564 11.97059792 42.82053358 11.96760559 44.55502319 C11.95622805 49.08914629 11.92682311 53.62297465 11.89349365 58.15698242 C11.86263869 62.79602066 11.84906749 67.43510717 11.83398438 72.07421875 C11.80194556 81.15379523 11.74923678 90.23307684 11.6875 99.3125 C5.0875 99.3125 -1.5125 99.3125 -8.3125 99.3125 C-8.32708252 97.23912354 -8.34166504 95.16574707 -8.35668945 93.02954102 C-8.40719635 86.15228332 -8.47381909 79.27524822 -8.54821491 72.39820957 C-8.59279928 68.23172023 -8.63208108 64.06532597 -8.65893555 59.89868164 C-8.68508841 55.87196707 -8.72557379 51.8456208 -8.77568626 47.81913567 C-8.79227445 46.28873235 -8.80383856 44.75826546 -8.81011391 43.22778511 C-8.73002923 29.49111358 -8.73002923 29.49111358 -14.5625 17.4375 C-21.24267524 12.2755464 -27.02891576 11.48297323 -35.3125 12.3125 C-42.32290196 13.56556702 -47.67529273 16.90941913 -52.3125 22.3125 C-55.00619993 26.87186111 -55.69797225 30.23958122 -55.74487305 35.51123047 C-55.7550647 36.20461014 -55.76525635 36.89798981 -55.77575684 37.61238098 C-55.80574676 39.88490017 -55.81513084 42.1569969 -55.82421875 44.4296875 C-55.84107591 46.01296372 -55.85922755 47.59622664 -55.87861633 49.17947388 C-55.92601019 53.33207035 -55.95588794 57.48461289 -55.98205566 61.63739014 C-56.01191498 65.88076424 -56.05842679 70.12395273 -56.10351562 74.3671875 C-56.18942803 82.68221564 -56.25528625 90.99722482 -56.3125 99.3125 C-62.9125 99.3125 -69.5125 99.3125 -76.3125 99.3125 C-76.3125 65.3225 -76.3125 31.3325 -76.3125 -3.6875 C-69.7125 -3.6875 -63.1125 -3.6875 -56.3125 -3.6875 C-55.9825 2.2525 -55.6525 8.1925 -55.3125 14.3125 C-54.013125 11.9921875 -54.013125 11.9921875 -52.6875 9.625 C-48.07790757 1.98901627 -42.02143229 -2.3907484 -33.578125 -5.28125 C-22.26419373 -7.30995492 -9.64573412 -6.55552671 0 0 Z " fill="#020202" transform="translate(1230.3125,223.6875)"/>
<path d="M0 0 C1.40765625 -0.01836914 1.40765625 -0.01836914 2.84375 -0.03710938 C11.51896234 -0.05508288 19.41631065 1.37057711 27.625 4.1875 C29.09066406 4.6825 29.09066406 4.6825 30.5859375 5.1875 C31.46507812 5.5175 32.34421875 5.8475 33.25 6.1875 C34.00539063 6.455625 34.76078125 6.72375 35.5390625 7 C37.25 8.1875 37.25 8.1875 37.99609375 10.41796875 C38.2753773 13.46430776 38.34611644 16.44090376 38.3125 19.5 C38.30347656 20.56863281 38.29445313 21.63726562 38.28515625 22.73828125 C38.27355469 23.54652344 38.26195312 24.35476562 38.25 25.1875 C37.27160156 24.84976563 36.29320312 24.51203125 35.28515625 24.1640625 C33.96102199 23.71329339 32.63679837 23.26278674 31.3125 22.8125 C30.67248047 22.59078125 30.03246094 22.3690625 29.37304688 22.140625 C20.5302178 19.14902113 12.41345135 17.84317239 3.0625 17.875 C2.10408203 17.85888672 1.14566406 17.84277344 0.15820312 17.82617188 C-6.16868418 17.82179946 -10.74462283 18.48266055 -15.625 22.875 C-17.29240417 26.30244191 -17.38306233 29.49954385 -16.75 33.1875 C-13.94628717 38.55112455 -9.16683522 40.16909603 -3.75 42.1875 C1.85471451 43.80774716 7.5351444 45.11821267 13.21289062 46.45507812 C21.84784729 48.57858745 31.37294347 50.9402984 37.25 58.125 C37.78625 58.75277344 38.3225 59.38054687 38.875 60.02734375 C43.71515252 67.63133336 43.22682229 77.50819376 42.25 86.1875 C39.95415886 94.55092129 35.00446204 99.43414795 27.70703125 103.66015625 C19.1796764 107.54015675 10.87447835 107.65131908 1.625 107.6875 C0.3982959 107.69378418 -0.8284082 107.70006836 -2.09228516 107.70654297 C-12.29399505 107.56536655 -21.47288703 105.63534574 -31 102 C-32.36898437 101.48373047 -32.36898437 101.48373047 -33.765625 100.95703125 C-34.42046875 100.70308594 -35.0753125 100.44914062 -35.75 100.1875 C-36.08910994 98.14678485 -36.42102704 96.10487379 -36.75 94.0625 C-36.935625 92.92554688 -37.12125 91.78859375 -37.3125 90.6171875 C-37.71956049 87.42612398 -37.82809902 84.39932209 -37.75 81.1875 C-36.41598223 81.62290858 -35.08283226 82.06097586 -33.75 82.5 C-32.91984375 82.77328125 -32.0896875 83.0465625 -31.234375 83.328125 C-29.11212079 84.06223809 -27.06963835 84.88322838 -25 85.75 C-12.67536321 90.36870018 2.77733548 91.16085645 15.296875 87.13671875 C18.20157098 85.7250365 19.81284243 84.06181515 21.25 81.1875 C21.76603047 76.88160642 21.79703263 73.30643037 19.875 69.375 C13.4655742 64.03381183 5.30696819 62.65837715 -2.625 60.75 C-15.49424556 57.61970697 -28.61771662 54.15945018 -36.03515625 42.09765625 C-39.12556342 34.37882533 -39.2369646 24.06635569 -36.3125 16.3125 C-32.9590104 9.9610144 -27.22769316 4.89816696 -20.5625 2.25 C-13.63022865 0.31805552 -7.1533754 0.00483336 0 0 Z " fill="#040404" transform="translate(768.75,217.8125)"/>
<path d="M0 0 C6.93 0 13.86 0 21 0 C21 38.28 21 76.56 21 116 C41.13 116 61.26 116 82 116 C82 121.94 82 127.88 82 134 C54.94 134 27.88 134 0 134 C0 89.78 0 45.56 0 0 Z " fill="#040404" transform="translate(1006,189)"/>
<path d="M0 0 C0 6.6 0 13.2 0 20 C-3.2175 19.87625 -6.435 19.7525 -9.75 19.625 C-19.89941656 19.48191832 -27.23860412 20.71587952 -34.98046875 27.81640625 C-39.49322403 32.77936515 -41.24123336 36.73438047 -41.31884766 43.51269531 C-41.32889328 44.15701508 -41.3389389 44.80133484 -41.34928894 45.46517944 C-41.38007823 47.58615256 -41.39714378 49.7069997 -41.4140625 51.828125 C-41.43277762 53.30215536 -41.4523513 54.77617505 -41.4727478 56.25018311 C-41.52403885 60.12330834 -41.56368062 63.99646829 -41.60089111 67.86975098 C-41.64094983 71.82471281 -41.69203363 75.77953058 -41.7421875 79.734375 C-41.83891099 87.48949192 -41.92230769 95.24466479 -42 103 C-48.93 103 -55.86 103 -63 103 C-63 69.01 -63 35.02 -63 0 C-56.4 0 -49.8 0 -43 0 C-42.67 7.26 -42.34 14.52 -42 22 C-41.154375 20.164375 -40.30875 18.32875 -39.4375 16.4375 C-35.56843936 8.76265774 -31.0079389 2.95244393 -22.875 -0.3515625 C-15.88831843 -1.92736296 -6.79065164 -2.26355055 0 0 Z " fill="#050505" transform="translate(674,220)"/>
<path d="M0 0 C5.919375 -0.0825 11.83875 -0.165 17.9375 -0.25 C19.78722412 -0.28641602 21.63694824 -0.32283203 23.54272461 -0.36035156 C33.47546629 -0.47443445 40.73680434 -0.0046054 48.875 6.1875 C53.74661197 12.63522173 54.53335104 19.9931538 54.4375 27.875 C54.42992676 28.74906494 54.42235352 29.62312988 54.41455078 30.52368164 C54.22755508 37.87179387 53.47127657 44.87250951 48.57421875 50.6953125 C42.858913 55.86419367 37.28396989 56.28683597 29.98046875 56.1953125 C29.21883423 56.19329834 28.45719971 56.19128418 27.67248535 56.18920898 C24.8440951 56.17879341 22.01579111 56.15087096 19.1875 56.125 C12.855625 56.08375 6.52375 56.0425 0 56 C0 37.52 0 19.04 0 0 Z " fill="#FDFDFD" transform="translate(515,206)"/>
<path d="M0 0 C6.6 0 13.2 0 20 0 C20 33.99 20 67.98 20 103 C13.4 103 6.8 103 0 103 C0 69.01 0 35.02 0 0 Z " fill="#000000" transform="translate(1107,220)"/>
<path d="M0 0 C6.6 0 13.2 0 20 0 C20 33.99 20 67.98 20 103 C13.4 103 6.8 103 0 103 C0 69.01 0 35.02 0 0 Z " fill="#010101" transform="translate(691,220)"/>
<path d="M0 0 C2 2 2 2 2.74609375 4.72265625 C1.84774297 8.66881493 1.13476239 8.97242584 -2.15234375 11.12109375 C-4.06783767 12.24875262 -5.99744828 13.35263559 -7.9375 14.4375 C-10.04047283 15.66257461 -12.14333335 16.88784205 -14.24609375 18.11328125 C-15.34937012 18.74572754 -16.45264648 19.37817383 -17.58935547 20.02978516 C-23.27472903 23.31403459 -28.88094613 26.72899711 -34.5 30.125 C-37.48326227 31.91892183 -40.46872379 33.70875351 -43.46044922 35.48852539 C-45.03440595 36.42530352 -46.6045458 37.36856738 -48.16845703 38.32202148 C-52.67865272 41.02095743 -52.67865272 41.02095743 -55.875 40.8125 C-58 40 -58 40 -59 39 C-59.31958008 36.14697266 -59.31958008 36.14697266 -59 33 C-57.3112793 31.17724609 -57.3112793 31.17724609 -54.88671875 29.6484375 C-53.97067871 29.0615918 -53.05463867 28.47474609 -52.11083984 27.87011719 C-51.0842627 27.25297852 -50.05768555 26.63583984 -49 26 C-47.91025879 25.3390332 -46.82051758 24.67806641 -45.69775391 23.99707031 C-42.09165839 21.83419801 -38.45394015 19.72763234 -34.8125 17.625 C-32.23468877 16.13060549 -29.65819699 14.63394777 -27.08203125 13.13671875 C-26.46039093 12.77596756 -25.83875061 12.41521637 -25.19827271 12.04353333 C-21.75272232 10.03897362 -18.33487834 7.99859343 -14.94921875 5.89453125 C-14.26045654 5.46769043 -13.57169434 5.04084961 -12.86206055 4.60107422 C-11.15269686 3.53291802 -9.45095479 2.45259025 -7.75 1.37109375 C-4.8347085 -0.08241096 -3.20557396 -0.48417523 0 0 Z " fill="#F5F5F5" transform="translate(357,336)"/>
<path d="M0 0 C2 2 2 2 2.32080078 4.44995117 C2 7 2 7 0.73779297 8.51293945 C-5.92008337 13.09663793 -12.87299614 17.15809156 -19.875 21.1875 C-22.46781861 22.68592696 -25.05872611 24.187616 -27.6484375 25.69140625 C-28.28299866 26.0595343 -28.91755981 26.42766235 -29.5713501 26.8069458 C-33.33506357 28.99995165 -37.04836317 31.25491165 -40.7265625 33.58984375 C-41.54785645 34.10973877 -42.36915039 34.62963379 -43.21533203 35.1652832 C-44.69564153 36.11108044 -46.16855959 37.0685886 -47.63232422 38.03979492 C-50.56039193 39.90473424 -52.37930002 41.03503951 -55.90625 40.8359375 C-58 40 -58 40 -59 39 C-59.375 36.1875 -59.375 36.1875 -59 33 C-55.41184698 29.67541679 -51.28218498 27.25664104 -47.07421875 24.8046875 C-46.41358932 24.41510361 -45.7529599 24.02551971 -45.0723114 23.62413025 C-42.94612408 22.37084063 -40.81697749 21.12268972 -38.6875 19.875 C-35.78615363 18.17068685 -32.88646271 16.46359567 -29.98828125 14.75390625 C-29.28481567 14.33902451 -28.5813501 13.92414276 -27.85656738 13.49668884 C-21.99719659 10.02724481 -16.21142662 6.44088049 -10.5925293 2.59130859 C-6.94510125 0.19534733 -4.35257169 -0.57992717 0 0 Z " fill="#F5F5F5" transform="translate(357,295)"/>
<path d="M0 0 C1.79296875 0.8046875 1.79296875 0.8046875 3.79296875 2.8046875 C4.23046875 5.1796875 4.23046875 5.1796875 3.79296875 7.8046875 C0.37284516 10.88875659 -3.36116103 13.18968321 -7.3359375 15.4921875 C-7.91895126 15.83182022 -8.50196503 16.17145294 -9.10264587 16.52137756 C-10.98940367 17.61965962 -12.87929923 18.71239745 -14.76953125 19.8046875 C-17.3865918 21.32220094 -20.00222649 22.84215311 -22.6171875 24.36328125 C-23.26551544 24.74004501 -23.91384338 25.11680878 -24.58181763 25.50498962 C-28.54945224 27.81738264 -32.48200518 30.17841748 -36.390625 32.58984375 C-37.2993335 33.14865234 -38.20804199 33.70746094 -39.14428711 34.28320312 C-40.81084855 35.31327368 -42.4721594 36.35190502 -44.12719727 37.40039062 C-51.0526705 41.66501221 -51.0526705 41.66501221 -55.20703125 40.8046875 C-57.20703125 38.8046875 -57.20703125 38.8046875 -57.68188477 35.92895508 C-57.20703125 32.8046875 -57.20703125 32.8046875 -54.87475586 30.70581055 C-53.79718018 30.08230713 -52.71960449 29.45880371 -51.609375 28.81640625 C-51.02817398 28.47171799 -50.44697296 28.12702972 -49.84815979 27.77189636 C-47.95843624 26.65754466 -46.05239057 25.57514104 -44.14453125 24.4921875 C-42.84511794 23.7333956 -41.54693917 22.97248568 -40.25 22.20947266 C-37.71053073 20.71918337 -35.16507674 19.24020459 -32.61279297 17.77197266 C-29.20988797 15.80633764 -25.83813381 13.79730281 -22.47998047 11.7565918 C-20.77421451 10.72049518 -19.05914634 9.69976059 -17.34375 8.6796875 C-15.14441175 7.36501458 -12.96305491 6.03464666 -10.7890625 4.6796875 C-9.71011719 4.0196875 -8.63117188 3.3596875 -7.51953125 2.6796875 C-6.58753906 2.09960938 -5.65554688 1.51953125 -4.6953125 0.921875 C-2.20703125 -0.1953125 -2.20703125 -0.1953125 0 0 Z " fill="#F5F5F5" transform="translate(355.20703125,253.1953125)"/>
<path d="M0 0 C3.04484009 1.68951493 4.44605925 3.8921185 6 7 C7.0337258 16.86469767 7.0337258 16.86469767 4.98828125 21.08984375 C2.29520766 24.39755275 -0.07101075 25.80056213 -4.3046875 26.23828125 C-11.25813221 26.43906461 -11.25813221 26.43906461 -15.0625 24.1875 C-18.92012604 19.83211576 -18.40935039 14.73936317 -18.31640625 9.1875 C-18.0337154 6.33965142 -17.82463976 4.57932563 -16.3125 2.1875 C-11.1336755 -1.23247844 -6.01663805 -1.05676848 0 0 Z " fill="#050505" transform="translate(1389,299)"/>
<path d="M0 0 C3.07365786 1.80803404 4.43019732 2.86039464 6 6 C6.59266465 11.6986986 6.22769466 16.09868589 3 21 C-1.66165932 24.10777288 -6.54471087 23.73620636 -12 23 C-15.48242391 20.47353559 -16.65226822 19.04319535 -18 15 C-18.53094699 10.35203781 -18.64784823 7.03655716 -16.125 3 C-11.56777344 -1.28915441 -5.96181902 -0.5961819 0 0 Z " fill="#060606" transform="translate(1123,182)"/>
<path d="M0 0 C2.97361086 2.21563162 4.36959793 3.73919585 6 7 C6.44782308 16.10573601 6.44782308 16.10573601 4 20 C-0.73048399 23.34595209 -5.39178798 23.76569684 -11 23 C-14.89424671 21.34287374 -16.42820585 19.86427994 -18 16 C-18.68575947 11.09602241 -18.74079295 7.20996181 -16.125 2.9375 C-11.53910515 -1.24375707 -5.92666339 -0.72700404 0 0 Z " fill="#050505" transform="translate(707,182)"/>
<path d="M0 0 C2.9375 0.8125 2.9375 0.8125 4.9375 2.8125 C4.72763448 5.54075177 4.2526619 7.33146341 2.75 9.625 C0.0593647 11.38783002 -1.92774983 11.21268087 -5.0625 10.8125 C-7.0625 7.8125 -7.0625 7.8125 -6.875 5.3125 C-5.51469029 1.12693167 -4.56367367 -0.27940859 0 0 Z " fill="#EEEEEE" transform="translate(374.0625,243.1875)"/>
<path d="M0 0 C1.875 1.1875 1.875 1.1875 3 3 C2.92074721 6.17011158 2.41911696 7.55094611 0.25 9.875 C-2 11 -2 11 -4.625 10.8125 C-7 10 -7 10 -9 8 C-8.8125 5 -8.8125 5 -8 2 C-4.76746204 -0.15502531 -3.74849077 -0.46856135 0 0 Z " fill="#EFEFEF" transform="translate(376,326)"/>
<path d="M0 0 C1.875 1.1875 1.875 1.1875 3 3 C2.875 5.5625 2.875 5.5625 2 8 C-1.45029042 10.30019361 -2.94554358 10.43132515 -7 10 C-9 7 -9 7 -8.8125 4.4375 C-7.3222327 -0.03330191 -4.26655819 -0.53331977 0 0 Z " fill="#F4F4F4" transform="translate(376,285)"/>
<path d="M0 0 C0.66 0.33 1.32 0.66 2 1 C1.34 2.32 0.68 3.64 0 5 C-0.66 5 -1.32 5 -2 5 C-2.66 5.66 -3.32 6.32 -4 7 C-4 6.34 -4 5.68 -4 5 C-5.32 5.33 -6.64 5.66 -8 6 C-6.32169152 2.64338305 -3.29210653 1.67493139 0 0 Z " fill="#DBDBDB" transform="translate(374,384)"/>
<path d="M0 0 C0.66 0.33 1.32 0.66 2 1 C0.02 3.31 -1.96 5.62 -4 8 C-4.99 7.01 -5.98 6.02 -7 5 C-4.69 3.35 -2.38 1.7 0 0 Z " fill="#262626" transform="translate(148,109)"/>
<path d="M0 0 C0.66 0.33 1.32 0.66 2 1 C0.35 2.98 -1.3 4.96 -3 7 C-4.32 6.34 -5.64 5.68 -7 5 C-4.69 3.35 -2.38 1.7 0 0 Z " fill="#2F2F2F" transform="translate(353,200)"/>
</svg>
