<?xml version="1.0" encoding="UTF-8"?>
<svg version="1.1" xmlns="http://www.w3.org/2000/svg" width="2560" height="578">
<path d="M0 0 C1.40807648 1.17295677 2.80370863 2.36098912 4.1875 3.5625 C4.99574219 4.22765625 5.80398438 4.8928125 6.63671875 5.578125 C28.17477636 23.91680805 36.54241734 49.26045287 39.1875 76.5625 C39.64108404 83.83827255 39.57033549 91.12114812 39.52807617 98.4074707 C39.52722717 100.4992115 39.52771036 102.59095319 39.52940369 104.68269348 C39.5302544 110.28879016 39.51278067 115.89468905 39.49168181 121.50074029 C39.47275862 127.38632179 39.47115238 133.27190925 39.46760559 139.15751648 C39.45833062 150.27039076 39.43377926 161.38317509 39.40355712 172.49601001 C39.36987042 185.16129773 39.35349143 197.82659006 39.33847082 210.49191153 C39.30722498 236.51550217 39.25227068 262.53896972 39.1875 288.5625 C9.8175 288.5625 -19.5525 288.5625 -49.8125 288.5625 C-49.84988281 275.59839844 -49.88726563 262.63429688 -49.92578125 249.27734375 C-49.95606652 241.05142171 -49.98709735 232.8255136 -50.02148438 224.59960938 C-50.07589502 211.55071291 -50.12731132 198.50185511 -50.15893555 185.45288086 C-50.18198517 175.94780123 -50.21546046 166.44282376 -50.26120156 156.93782526 C-50.28504017 151.90990462 -50.30383008 146.88208458 -50.31011391 141.85410881 C-50.31620738 137.11068096 -50.33635916 132.36751018 -50.36677551 127.62417793 C-50.37548797 125.89377256 -50.37929261 124.16333349 -50.37750816 122.4329071 C-50.3658787 105.93522308 -51.38300639 89.68539651 -62.9375 76.75 C-72.05245741 68.43285068 -84.80267877 64.79172346 -96.9375 64.1875 C-111.24439728 65.57203845 -123.10184835 70.85630255 -132.8125 81.5625 C-143.23838264 95.27761904 -144.41352031 111.26801801 -144.35839844 127.81054688 C-144.36715751 129.57644042 -144.37765131 131.34232607 -144.38972473 133.10820007 C-144.41731985 137.84890148 -144.42099534 142.58934055 -144.42000484 147.33011055 C-144.42315698 152.30423829 -144.44882254 157.27825179 -144.47198486 162.25231934 C-144.51237349 171.64764119 -144.53284506 181.04289395 -144.54595876 190.43828917 C-144.56487219 203.1510731 -144.6149629 215.86373304 -144.66320229 228.57643318 C-144.7382632 248.57178228 -144.77202324 268.56698168 -144.8125 288.5625 C-174.5125 288.5625 -204.2125 288.5625 -234.8125 288.5625 C-234.84988281 275.98253906 -234.88726563 263.40257812 -234.92578125 250.44140625 C-234.95607159 242.45246311 -234.9871062 234.46353424 -235.02148438 226.47460938 C-235.07586452 213.80559613 -235.12728199 201.13662244 -235.15893555 188.4675293 C-235.182008 179.23856932 -235.21550817 170.00971416 -235.26120156 160.78083748 C-235.28500979 155.90040596 -235.3038194 151.02007745 -235.31011391 146.13958931 C-235.31622141 141.53240119 -235.33642196 136.9254762 -235.36677551 132.31838608 C-235.37546598 130.64042307 -235.37929734 128.96242555 -235.37750816 127.28444099 C-235.37135562 118.8408923 -235.730061 110.66593864 -237.17155457 102.33262634 C-237.29021482 101.64614755 -237.40887507 100.95966876 -237.53113109 100.25238758 C-239.50828896 89.91609002 -244.70233724 80.34696307 -252.8125 73.5625 C-265.15825483 65.34249487 -278.73090298 63.01483138 -293.35546875 65.60546875 C-306.32070022 69.19471362 -315.83457057 76.00681815 -323.13671875 87.1953125 C-328.7710366 98.51648263 -329.39766587 108.62937592 -329.35839844 120.99902344 C-329.36714801 122.83329133 -329.37763859 124.6675516 -329.38972473 126.50180054 C-329.41743581 131.44727469 -329.42099272 136.39249796 -329.42000484 141.33803844 C-329.42314681 146.51905538 -329.44879163 151.69996143 -329.47198486 156.88092041 C-329.51245036 166.67657591 -329.53286332 176.472165 -329.54595876 186.26789117 C-329.56483819 199.51559782 -329.61492342 212.76318482 -329.66320229 226.01081085 C-329.73837107 246.86136765 -329.77204459 267.71178001 -329.8125 288.5625 C-360.1725 288.5625 -390.5325 288.5625 -421.8125 288.5625 C-421.8125 189.8925 -421.8125 91.2225 -421.8125 -10.4375 C-393.4325 -10.4375 -365.0525 -10.4375 -335.8125 -10.4375 C-335.8125 -0.5375 -335.8125 9.3625 -335.8125 19.5625 C-335.1525 19.5625 -334.4925 19.5625 -333.8125 19.5625 C-333.56242187 18.99917969 -333.31234375 18.43585938 -333.0546875 17.85546875 C-324.1066958 1.33826394 -303.08141814 -9.86446578 -285.66967773 -15.09887695 C-254.06840587 -24.07577296 -222.5164023 -22.5415339 -192.9375 -7.6875 C-182.51144373 -1.59077036 -173.79923833 6.76046662 -166.8125 16.5625 C-166.36003906 17.18511719 -165.90757812 17.80773437 -165.44140625 18.44921875 C-162.8125 22.20609862 -162.8125 22.20609862 -162.8125 24.5625 C-162.1525 24.5625 -161.4925 24.5625 -160.8125 24.5625 C-160.59851562 23.86898437 -160.38453125 23.17546875 -160.1640625 22.4609375 C-158.44385219 18.77193157 -155.9636138 16.10084264 -153.1875 13.1875 C-152.64335449 12.6109668 -152.09920898 12.03443359 -151.53857422 11.44042969 C-113.3081532 -28.6816892 -44.36636148 -33.62503186 0 0 Z " fill="#000000" transform="translate(2184.8125,149.4375)"/>
<path d="M0 0 C1.98 1.98 3.96 3.96 6 6 C6.33 -1.92 6.66 -9.84 7 -18 C36.04 -18 65.08 -18 95 -18 C95.06624791 18.98603751 95.12159734 55.97201866 95.15319599 92.95809861 C95.1569477 97.33355673 95.16083071 101.70901472 95.16479492 106.08447266 C95.16558185 106.95547658 95.16636878 107.8264805 95.16717956 108.72387847 C95.18020153 122.79124821 95.20383751 136.85858084 95.23145839 150.92592862 C95.25960222 165.38114151 95.27619515 179.83633508 95.28226548 194.29157424 C95.28636339 203.19730687 95.29926352 212.10293455 95.3237494 221.00863484 C95.33971768 227.13167508 95.34437554 233.25466177 95.34050413 239.37772128 C95.33859965 242.90018424 95.34133032 246.42246499 95.35761642 249.94489479 C95.43344184 269.1994378 94.56288554 287.71883396 89.1875 306.3125 C88.79957275 307.68656006 88.79957275 307.68656006 88.40380859 309.08837891 C84.44919778 322.73909181 78.70220138 335.49603149 72 348 C71.66129883 348.63437988 71.32259766 349.26875977 70.97363281 349.92236328 C55.18586064 379.00155049 28.48710419 399.44372867 -3 409 C-49.67641725 422.65709724 -103.5416899 421.0412163 -147.07202148 397.88061523 C-155.32819702 393.33377864 -162.79903136 388.06710183 -170 382 C-170.51014648 381.57493164 -171.02029297 381.14986328 -171.54589844 380.71191406 C-188.96288443 366.03393411 -204.96205435 344.45817348 -210 322 C-210.10659328 319.54113901 -210.1393328 317.07806801 -210.1015625 314.6171875 C-210.08689941 313.37308105 -210.07223633 312.12897461 -210.05712891 310.84716797 C-210.03827637 309.90760254 -210.01942383 308.96803711 -210 308 C-209.34506058 307.81287445 -208.69012115 307.6257489 -208.01533508 307.43295288 C-207.0838414 307.16681183 -206.15234772 306.90067078 -205.19262695 306.62646484 C-199.85627651 305.10179329 -194.51992607 303.57712173 -189.18357563 302.05245018 C-188.21545838 301.77584525 -188.21545838 301.77584525 -187.2277832 301.49365234 C-183.40250651 300.40071615 -179.57722982 299.30777995 -175.75195312 298.21484375 C-173.9007637 297.68567352 -173.9007637 297.68567352 -172.01217651 297.14581299 C-169.54308264 296.44070564 -167.07362143 295.7368833 -164.60379028 295.03436279 C-158.93410078 293.42016112 -153.27078916 291.79043446 -147.62255859 290.10253906 C-146.65215134 289.81561188 -145.68174408 289.52868469 -144.68193054 289.23306274 C-142.89431929 288.70336872 -141.1089749 288.16593644 -139.32649231 287.61923218 C-138.5435228 287.38862091 -137.76055328 287.15800964 -136.95385742 286.92041016 C-136.28158615 286.7171109 -135.60931488 286.51381165 -134.91667175 286.30435181 C-132.60268664 285.93690989 -131.16981059 286.11734372 -129 287 C-128.03539931 289.33086476 -127.33664668 291.45705327 -126.6875 293.875 C-122.23659602 308.54366164 -112.95058926 320.27385196 -99.44140625 327.7578125 C-80.31239665 337.49065258 -59.59734182 338.03960528 -39.1875 331.875 C-21.42907212 325.43450972 -9.26910888 312.51971817 -1.3125 295.6875 C5.25242517 278.79694749 5.61176802 260.86833215 5 243 C4.32142944 243.69706055 4.32142944 243.69706055 3.62915039 244.40820312 C-9.04773681 257.28481885 -24.36321818 264.71593557 -42 268 C-42.9389209 268.17660156 -43.8778418 268.35320312 -44.84521484 268.53515625 C-53.40577772 270.00635932 -61.82527166 270.40181223 -70.5 270.375 C-71.19798706 270.37412384 -71.89597412 270.37324768 -72.6151123 270.37234497 C-112.19578878 270.20935244 -147.60910425 253.81207727 -175.43676758 226.00195312 C-181.93914822 219.28274339 -187.12428975 211.9536161 -192 204 C-192.3614209 203.42942871 -192.7228418 202.85885742 -193.09521484 202.27099609 C-213.98798283 168.86019834 -218.50103903 124.45948442 -209.875 86.625 C-201.01513162 50.07762327 -179.38438972 15.88005012 -147.3125 -4.4453125 C-104.03143134 -30.72599885 -39.84234679 -35.40806567 0 0 Z M-107 80 C-120.45547292 97.92190339 -122.70139068 119.96606338 -119.61767578 141.69384766 C-118.65518374 146.08900363 -117.0603092 150.01534109 -115 154 C-114.49210937 154.98226562 -113.98421875 155.96453125 -113.4609375 156.9765625 C-105.03186552 171.47776217 -91.90582603 181.39771967 -75.8828125 186.05859375 C-59.88177507 189.93812093 -41.7590675 188.48733571 -27 181 C-23.49919935 178.85822073 -20.22353622 176.5368322 -17 174 C-15.74703125 173.06220703 -15.74703125 173.06220703 -14.46875 172.10546875 C-2.5454095 161.93667044 3.20681468 146.1389274 5 131 C6.38322409 110.74836351 2.6439894 92.18630826 -10.8203125 76.30859375 C-23.02940017 63.37746326 -38.80623584 56.45491389 -56.5 55.625 C-76.22041375 56.47917988 -94.23209941 64.87369739 -107 80 Z " fill="#000000" transform="translate(2465,157)"/>
<path d="M0 0 C1.39177629 -0.00350385 2.78354856 -0.00916542 4.17530823 -0.01681519 C7.94403091 -0.03103399 11.71202142 -0.01403178 15.48067403 0.00946999 C19.4287989 0.02961178 23.37689436 0.02369777 27.32505798 0.0213623 C33.95348147 0.02141583 40.58161949 0.04114887 47.20996094 0.07324219 C54.86949945 0.11014848 62.52866434 0.11891524 70.18828017 0.11194468 C77.56305036 0.10563659 84.93769267 0.1163986 92.31243706 0.13591003 C95.44829572 0.14407731 98.58408895 0.14679483 101.71995735 0.1452179 C105.41287217 0.14433807 109.10543268 0.15858117 112.79825401 0.18444443 C114.79750207 0.19500627 116.79681067 0.19093747 118.79608154 0.18643188 C119.98909378 0.19778168 121.18210602 0.20913147 122.41127014 0.2208252 C123.96340257 0.22641827 123.96340257 0.22641827 125.54689121 0.23212433 C128.81246743 0.67637513 130.70184564 1.70492468 133.36303711 3.61523438 C134.60134888 5.33973694 134.60134888 5.33973694 135.45336914 7.23657227 C135.93631439 8.29873459 135.93631439 8.29873459 136.42901611 9.38235474 C137.99364607 13.12277425 139.48970642 16.87903013 140.91772461 20.67382812 C141.2513501 21.54964539 141.58497559 22.42546265 141.92871094 23.32781982 C142.65353052 25.23173623 143.37650791 27.13635477 144.09783936 29.04159546 C146.09435812 34.31418553 148.10502456 39.58138847 150.11303711 44.84960938 C150.53769257 45.96494553 150.96234802 47.08028168 151.39987183 48.22941589 C156.304097 61.10333622 161.2713292 73.95282274 166.23803711 86.80273438 C168.11080687 91.65024624 169.98311527 96.49793617 171.85522461 101.34570312 C172.31710175 102.54166611 172.77897888 103.73762909 173.25485229 104.96983337 C177.96939615 117.18042632 182.66719866 129.39743839 187.36303711 141.61523438 C194.34787133 159.7877714 201.34969789 177.95367961 208.36303711 196.11523438 C215.37637647 214.27678951 222.37800307 232.44277395 229.36303711 250.61523438 C236.38115866 268.87302048 243.41225232 287.12576492 250.45526123 305.3739624 C251.16294833 307.20761619 251.87053755 309.04130775 252.578125 310.875 C253.47675338 313.20362242 254.37566164 315.53213685 255.27487183 317.86053467 C256.12700392 320.06867734 256.9777309 322.27736286 257.82693481 324.4866333 C259.69669317 329.34391131 261.58532306 334.18984877 263.55200195 339.00878906 C263.88366867 339.83043549 264.21533539 340.65208191 264.55705261 341.49862671 C265.15890165 342.98459891 265.77006012 344.46685718 266.39326477 345.94400024 C268.1737259 350.36318312 268.46899584 353.89073207 268.36303711 358.61523438 C250.56958097 358.70864261 232.77618839 358.77919628 214.98254013 358.82248306 C206.72078001 358.84311539 198.45917216 358.87124864 190.19750977 358.91699219 C182.99730747 358.95683962 175.79721544 358.98266232 168.59690595 358.99158835 C164.78373139 358.99680671 160.9708723 359.00908521 157.15779877 359.0381546 C153.56923679 359.06529093 149.98112043 359.07368318 146.39246559 359.0676651 C144.44655808 359.06929143 142.50069917 359.09082365 140.55491638 359.11291504 C139.39667862 359.10741638 138.23844086 359.10191772 137.04510498 359.09625244 C136.03850704 359.09993961 135.0319091 359.10362679 133.9948082 359.10742569 C130.64813014 358.48153316 129.48772519 357.21321966 127.36303711 354.61523438 C126.4067688 352.78439331 126.4067688 352.78439331 125.75415039 350.88037109 C125.49876999 350.15366211 125.24338959 349.42695313 124.98027039 348.67822266 C124.71728653 347.8917334 124.45430267 347.10524414 124.18334961 346.29492188 C123.89430252 345.46089844 123.60525543 344.626875 123.30744934 343.76757812 C122.35610612 341.01227978 121.42192685 338.25149249 120.48803711 335.49023438 C119.82162191 333.54740695 119.1543725 331.60486549 118.48632812 329.66259766 C113.41779645 314.88508269 108.47355558 300.06488513 103.55810547 285.23583984 C99.61497808 273.34163743 95.60996308 261.47024112 91.55053711 249.61523438 C91.2678598 248.78969055 90.9851825 247.96414673 90.69393921 247.11358643 C89.52437374 243.69832434 88.35480628 240.28306295 87.1849823 236.8678894 C83.67882547 226.62639516 80.20077882 216.37535483 76.72009277 206.12518311 C70.31741963 187.27122042 63.88845295 168.42711115 57.36303711 149.61523438 C49.8870259 171.4842299 42.42530452 193.35803006 34.98803711 215.24023438 C34.45551331 216.80700424 34.45551331 216.80700424 33.91223145 218.40542603 C32.46856311 222.65295444 31.02490392 226.90048597 29.58126831 231.14802551 C21.92020597 253.68759067 14.24735929 276.22314823 6.56616211 298.75585938 C6.26017593 299.65351013 5.95418976 300.55116089 5.63893127 301.47601318 C4.15589526 305.82517206 2.67078249 310.17360274 1.18115234 314.52050781 C0.62067212 316.15624495 0.06020633 317.79198704 -0.50024414 319.42773438 C-0.76942154 320.21319641 -1.03859894 320.99865845 -1.31593323 321.80792236 C-2.80171328 326.15041536 -4.27067384 330.49795946 -5.71858215 334.85322571 C-6.34532306 336.73630776 -6.97749487 338.61757958 -7.60986328 340.4987793 C-8.34907772 342.69887823 -9.07952446 344.90195376 -9.79882812 347.10864258 C-10.11924072 348.05570068 -10.43965332 349.00275879 -10.76977539 349.97851562 C-11.03677246 350.78587158 -11.30376953 351.59322754 -11.57885742 352.42504883 C-12.9027598 355.16541066 -14.28977653 356.66989779 -16.63696289 358.61523438 C-19.23749924 359.10742569 -19.23749924 359.10742569 -22.24310303 359.09625244 C-23.95521721 359.10450043 -23.95521721 359.10450043 -25.70191956 359.11291504 C-27.57387245 359.09134338 -27.57387245 359.09134338 -29.48364258 359.06933594 C-30.80095871 359.06992004 -32.11827484 359.07050415 -33.47550964 359.07110596 C-37.08488023 359.07225363 -40.6937191 359.04873641 -44.30296612 359.02081013 C-48.07591239 358.99580499 -51.84887086 358.99345519 -55.62188721 358.9887085 C-62.76527216 358.97627606 -69.90841226 358.94345099 -77.05168939 358.90331054 C-85.18460368 358.85860103 -93.31752966 358.83660788 -101.45053625 358.8165288 C-118.17948848 358.77471846 -134.90819443 358.7043614 -151.63696289 358.61523438 C-151.01833662 356.57771614 -150.39746962 354.54087816 -149.7756958 352.50431824 C-149.25744925 350.80281003 -149.25744925 350.80281003 -148.72873306 349.06692791 C-147.00373167 343.61323783 -145.00856544 338.2690315 -142.99633789 332.91601562 C-142.55725098 331.73918213 -142.11816406 330.56234863 -141.66577148 329.34985352 C-140.48727844 326.19422611 -139.30539189 323.0399156 -138.12162781 319.8862648 C-137.12866956 317.23915467 -136.13855951 314.59098267 -135.14834976 311.94284344 C-128.64801416 294.56114492 -122.08142195 277.20518019 -115.45385742 259.87158203 C-110.67409483 247.36687141 -105.95504151 234.84021957 -101.26196289 222.30273438 C-93.91148096 202.66845225 -86.53185828 183.04532042 -79.13696289 163.42773438 C-78.58390183 161.96048018 -78.03084193 160.49322554 -77.4777832 159.02597046 C-75.23344048 153.07186047 -72.98898541 147.11779285 -70.74432373 141.1638031 C-67.91395525 133.65615395 -65.08398564 126.1483549 -62.25512695 118.64013672 C-61.97719048 117.90246032 -61.699254 117.16478392 -61.4128952 116.40475368 C-60.01615899 112.69752095 -58.61962451 108.99021236 -57.22338867 105.28279114 C-54.48954991 98.02414747 -51.75312154 90.76650018 -49.01098633 83.51098633 C-47.94587864 80.69169319 -46.88112699 77.87226585 -45.81665039 75.05273438 C-45.55658203 74.36395391 -45.29651367 73.67517345 -45.02856445 72.96552086 C-41.46780545 63.5299688 -37.9556902 54.07764619 -34.48031235 44.6103363 C-32.88636838 40.27494015 -31.280063 35.94410501 -29.67572021 31.61254883 C-28.82632584 29.30753828 -27.98343073 27.00012082 -27.14752197 24.69018555 C-26.0089907 21.54444728 -24.84893567 18.40746055 -23.68383789 15.27148438 C-23.35997101 14.35729736 -23.03610413 13.44311035 -22.7024231 12.5012207 C-22.22674393 11.23991333 -22.22674393 11.23991333 -21.74145508 9.953125 C-21.47790222 9.23080688 -21.21434937 8.50848877 -20.94281006 7.76428223 C-15.75628115 -0.77124864 -9.22330619 -0.0942183 0 0 Z " fill="#000000" transform="translate(1151.636962890625,108.384765625)"/>
<path d="M0 0 C4.01559171 4.59315226 5.87531881 10.31071663 7.9921875 15.95703125 C8.37020508 16.94665863 8.74822266 17.93628601 9.13769531 18.9559021 C10.3901699 22.23892386 11.63239981 25.52572959 12.875 28.8125 C13.76363887 31.14591186 14.65314172 33.47899485 15.54345703 35.81176758 C17.17838627 40.0963327 18.81159904 44.38153946 20.44225883 48.66773129 C24.75883887 60.01076802 29.13208155 71.33183644 33.50836182 82.65194702 C35.35214665 87.42189934 37.1938967 92.1926363 39.03567505 96.96336365 C40.42952268 100.57379182 41.82362369 104.18412207 43.21777344 107.79443359 C47.35546624 118.50997376 51.49116815 129.22628233 55.62701416 139.9425354 C57.91792731 145.87838863 60.20897024 151.81419177 62.5 157.75 C63.41666729 160.12499976 64.33333395 162.49999976 65.25 164.875 C65.70375 166.050625 66.1575 167.22625 66.625 168.4375 C75.33333333 191 84.04166667 213.5625 92.75 236.125 C93.43048904 237.8880825 93.43048904 237.8880825 94.12472534 239.68678284 C95.04231251 242.06417146 95.95989469 244.44156201 96.87747192 246.81895447 C99.15501438 252.71992418 101.43264052 258.62086157 103.71044922 264.52172852 C108.00397286 275.64475249 112.29662703 286.7681101 116.58648682 297.89254761 C118.36402232 302.50202159 120.14196029 307.11134029 121.91998672 311.72062492 C123.13221906 314.86326105 124.34414804 318.00601339 125.55566406 321.14892578 C126.89332082 324.61903113 128.23173919 328.08884187 129.5703125 331.55859375 C129.96098907 332.57267807 130.35166565 333.58676239 130.75418091 334.63157654 C131.12421234 335.59032181 131.49424377 336.54906708 131.87548828 337.53686523 C132.22661682 338.44757782 132.57774536 339.35829041 132.93951416 340.29660034 C134.3369214 343.85888295 135.80108496 347.39290523 137.2807312 350.92176819 C138 353 138 353 138 356 C120.74541032 356.17733434 103.49075339 356.34299917 86.23592091 356.49477577 C78.22419253 356.5655204 70.21253364 356.64008204 62.20092773 356.72363281 C55.21795085 356.79644662 48.23494964 356.86209534 41.25182551 356.91914403 C37.55437633 356.94960052 33.85703864 356.98364196 30.15970802 357.02626419 C26.03205459 357.07371286 21.9044278 357.10516395 17.77661133 357.13525391 C15.93810356 357.16006584 15.93810356 357.16006584 14.06245422 357.18537903 C12.93649841 357.19104385 11.8105426 357.19670868 10.65046692 357.20254517 C9.18619876 357.21637206 9.18619876 357.21637206 7.69234943 357.23047829 C4.06497598 356.91995737 1.20364619 355.92548571 -1.68759155 353.70240784 C-3.3852992 351.50020408 -4.11763988 349.40017698 -4.99853516 346.76147461 C-5.36453827 345.67984543 -5.73054138 344.59821625 -6.1076355 343.48381042 C-6.49750641 342.30192642 -6.88737732 341.12004242 -7.2890625 339.90234375 C-7.92632302 338.00738749 -8.56358392 336.11243136 -9.20086098 334.21748066 C-9.88010627 332.19196237 -10.55490631 330.16501292 -11.22839355 328.13757324 C-12.63602028 323.90028758 -14.05572103 319.66711181 -15.47753906 315.43457031 C-17.16867594 310.39802883 -18.85723661 305.36064065 -20.54214478 300.32201195 C-24.23164213 289.29027661 -27.96960416 278.27527485 -31.72250366 267.26495361 C-33.44082501 262.22293158 -35.15569288 257.17973496 -36.87109375 252.13671875 C-37.20822891 251.14591309 -37.54536407 250.15510742 -37.89271545 249.13427734 C-40.40071193 241.76343633 -42.90589674 234.39164265 -45.41015625 227.01953125 C-54.73529368 199.56847867 -54.73529368 199.56847867 -64.10263062 172.13180542 C-64.60855933 170.65351964 -65.11412711 169.17511028 -65.61929321 167.69656372 C-66.3048851 165.69052285 -66.99203757 163.68502368 -67.6796875 161.6796875 C-68.05851074 160.57351074 -68.43733398 159.46733398 -68.82763672 158.32763672 C-69.71691834 155.80349917 -70.63102588 153.2963705 -71.57327271 150.79202271 C-71.84113146 150.07954943 -72.10899021 149.36707615 -72.3849659 148.63301277 C-72.58792715 148.09411856 -72.7908884 147.55522434 -73 147 C-81.37226996 170.415495 -89.3970265 193.93232384 -97.22403264 217.53517318 C-98.72137168 222.0476286 -100.22285435 226.5587049 -101.72398376 231.06990051 C-105.50713934 242.44122164 -109.28506697 253.81427688 -113.0625 265.1875 C-117.17538428 277.57044514 -121.28928054 289.95304992 -125.408966 302.33373433 C-127.18545908 307.67312391 -128.95903302 313.01347111 -130.73030007 318.3545965 C-131.82768486 321.66168768 -132.92756535 324.96794489 -134.02811813 328.273983 C-134.53589047 329.80103413 -135.04262831 331.32842971 -135.54823494 332.85619926 C-136.24002072 334.94606397 -136.93554959 337.03464762 -137.63197327 339.12297058 C-138.01921098 340.28912494 -138.40644869 341.45527929 -138.80542088 342.65677166 C-142.82469846 353.90538839 -142.82469846 353.90538839 -147 356 C-149.60053635 356.36914349 -149.60053635 356.36914349 -152.60614014 356.36076355 C-154.31825432 356.36694954 -154.31825432 356.36694954 -156.06495667 356.3732605 C-157.31292526 356.36247467 -158.56089386 356.35168884 -159.84667969 356.34057617 C-161.82265388 356.34123329 -161.82265388 356.34123329 -163.83854675 356.34190369 C-167.44782178 356.34276442 -171.05679771 356.32512629 -174.66600323 356.30418181 C-178.4389615 356.2854279 -182.21192663 356.28366559 -185.98492432 356.28010559 C-193.12825784 356.27078133 -200.27145362 356.24616245 -207.4147265 356.21605712 C-215.54765595 356.18252493 -223.68059199 356.16603008 -231.81357336 356.15097082 C-248.54246287 356.11961318 -265.27121386 356.06684534 -282 356 C-281.52327344 354.40416805 -281.04601249 352.80849573 -280.56852722 351.21289062 C-280.30281009 350.32428345 -280.03709295 349.43567627 -279.76332378 348.5201416 C-273.79387754 328.81179485 -266.38919772 309.52718693 -259.00854492 290.31567383 C-252.5807593 273.57841637 -246.27841121 256.79556384 -239.99253464 240.00464249 C-237.35440709 232.95833315 -234.7142868 225.91276996 -232.07421875 218.8671875 C-231.77982218 218.08147432 -231.48542561 217.29576115 -231.18210793 216.48623848 C-224.78743203 199.42071083 -218.3663126 182.3651924 -211.9375 165.3125 C-211.40021463 163.88720819 -210.86293232 162.46191522 -210.32565308 161.03662109 C-207.36634058 153.1863591 -204.40636065 145.33634888 -201.44607449 137.48645401 C-197.01716591 125.7421303 -192.58902663 113.99751675 -188.16219521 102.25240993 C-186.5264641 97.91269445 -184.89010064 93.57321807 -183.25328255 89.23391247 C-178.00000921 75.30608213 -172.75882158 61.37399648 -167.56149101 47.42518044 C-166.81419603 45.42004447 -166.06628494 43.41513952 -165.31813049 41.4103241 C-165.07688415 40.76382684 -164.8356378 40.11732958 -164.58708096 39.45124149 C-164.10831257 38.1682501 -163.62952068 36.88526748 -163.15070438 35.60229397 C-161.56420322 31.34967868 -159.98499183 27.09439502 -158.40698242 22.83862305 C-157.59578337 20.66315807 -156.78435528 18.48777848 -155.97265625 16.3125 C-155.43081192 14.84276482 -155.43081192 14.84276482 -154.87802124 13.34333801 C-150.67371454 2.11580969 -150.67371454 2.11580969 -146 -1 C-143.47959518 -1.26729965 -143.47959518 -1.26729965 -140.40936279 -1.29193115 C-138.66399986 -1.31301186 -138.66399986 -1.31301186 -136.88337708 -1.33451843 C-135.60540756 -1.33982071 -134.32743805 -1.34512299 -133.01074219 -1.35058594 C-131.65220876 -1.36315802 -130.29368288 -1.37657081 -128.93516541 -1.39076233 C-125.24287379 -1.42666425 -121.55060037 -1.45000868 -117.8581953 -1.4705801 C-114.77437532 -1.48898559 -111.69062008 -1.51372843 -108.60684609 -1.53855062 C-101.32827337 -1.59713637 -94.04968134 -1.6458419 -86.77099609 -1.68798828 C-79.26887885 -1.73155866 -71.76697729 -1.78961816 -64.26502299 -1.85523582 C-57.82078993 -1.91120458 -51.37653282 -1.9591503 -44.93218923 -2.0004847 C-41.08495844 -2.02517761 -37.23780215 -2.05264144 -33.39064789 -2.08739471 C-29.76933683 -2.1196726 -26.14809858 -2.14185093 -22.52667427 -2.15640068 C-20.57064769 -2.16665758 -18.61468177 -2.18695746 -16.65873718 -2.20759583 C-5.44409574 -2.23408003 -5.44409574 -2.23408003 0 0 Z " fill="#000000" transform="translate(588,111)"/>
<path d="M0 0 C263.01 0 526.02 0 797 0 C797.61201757 6.12017571 798.12557004 11.70185647 798.12939453 17.76953125 C798.13114685 18.47669281 798.13289917 19.18385437 798.13470459 19.91244507 C798.13904766 22.21248956 798.13621209 24.51245495 798.1328125 26.8125 C798.13348771 28.43334976 798.13445954 30.05419941 798.13571167 31.67504883 C798.13717843 35.0571388 798.13506713 38.4392022 798.13037109 41.82128906 C798.12467444 46.13141496 798.12795894 50.44147856 798.13394356 54.75160217 C798.13757686 58.09412089 798.13639792 61.43662511 798.13381577 64.77914429 C798.13315414 66.36738086 798.13394782 67.95561879 798.13629532 69.54385376 C798.1388677 71.7727603 798.13491766 74.00156937 798.12939453 76.23046875 C798.12820114 78.12381958 798.12820114 78.12381958 798.12698364 80.05541992 C798.02708136 83.15875315 797.81125303 86.16308122 797.49206352 89.24653625 C797.40039685 90.13906758 797.30873018 91.03159891 797.21428573 91.95117664 C797.14357144 92.62728835 797.07285715 93.30340006 797 94 C733.01608792 94.70259812 669.03691093 95.1015762 605.04931641 95.12939453 C603.82220575 95.12994093 603.82220575 95.12994093 602.57030499 95.13049836 C580.99811642 95.1398497 559.42593118 95.13934057 537.85374144 95.13529945 C525.05364113 95.13294927 512.25354208 95.13271787 499.45344162 95.13381577 C498.06751216 95.13393034 498.06751216 95.13393034 496.65358413 95.13404724 C492.90005135 95.13435874 489.14651857 95.13467716 485.39298579 95.135007 C450.62064984 95.13802605 415.84831652 95.13535221 381.07598097 95.1299101 C350.2632177 95.12512461 319.45045856 95.1256303 288.63769531 95.13037109 C253.74491926 95.13572216 218.85214547 95.1378549 183.95936906 95.13475883 C180.24852077 95.1344382 176.53767248 95.13412536 172.82682419 95.13381577 C171.91357642 95.13373669 171.00032865 95.13365761 170.05940671 95.13357614 C156.30654746 95.13244153 142.55368986 95.13376263 128.80083084 95.13629532 C113.24028415 95.13914721 97.67974218 95.1384533 82.11919607 95.13301457 C73.42399891 95.13007542 64.728812 95.12989126 56.0336151 95.13366075 C50.23285284 95.1358986 44.43209882 95.13451591 38.63133779 95.13015598 C35.32600442 95.12777279 32.02069558 95.12752052 28.71536215 95.13056196 C25.15855749 95.13358534 21.60180937 95.13050138 18.04500771 95.12584114 C16.50317086 95.12935289 16.50317086 95.12935289 14.93018579 95.13293558 C13.97974331 95.13043207 13.02930083 95.12792855 12.05005705 95.12534916 C11.23752678 95.1252814 10.42499651 95.12521365 9.58784411 95.12514383 C6.37372114 94.9697142 3.18553762 94.4550768 0 94 C0 62.98 0 31.96 0 0 Z " fill="#000000" transform="translate(1762,4)"/>
<path d="M0 0 C112.86 0 225.72 0 342 0 C342 34.65 342 69.3 342 105 C309.66 105 277.32 105 244 105 C244 188.16 244 271.32 244 357 C196.48 357 148.96 357 100 357 C100 274.17 100 191.34 100 106 C67 106 34 106 0 106 C0 71.02 0 36.04 0 0 Z " fill="#000000" transform="translate(0,111)"/>
<path d="M0 0 C2.86462936 0.00085202 5.72925795 0.00016345 8.59388733 -0.0004425 C14.62531686 -0.00095408 20.65673515 0.00204425 26.68816185 0.00779533 C35.40740259 0.01610365 44.12663819 0.01854471 52.84588245 0.01978333 C67.00988822 0.02194446 81.17388806 0.02852248 95.33789062 0.03808594 C109.05501273 0.04733773 122.7721332 0.05437997 136.48925781 0.05859375 C137.34208763 0.05885647 138.19491745 0.0591192 139.0735906 0.05938988 C143.3541689 0.0606954 147.63474721 0.06195899 151.91532552 0.06320179 C187.13992607 0.07348237 222.36451558 0.09186922 257.58911133 0.11352539 C257.58911133 34.76352539 257.58911133 69.41352539 257.58911133 105.11352539 C225.57911133 105.11352539 193.56911133 105.11352539 160.58911133 105.11352539 C160.58911133 188.27352539 160.58911133 271.43352539 160.58911133 357.11352539 C113.39911133 357.11352539 66.20911133 357.11352539 17.58911133 357.11352539 C17.58911133 274.28352539 17.58911133 191.45352539 17.58911133 106.11352539 C-15.74088867 106.11352539 -49.07088867 106.11352539 -83.41088867 106.11352539 C-83.41088867 71.46352539 -83.41088867 36.81352539 -83.41088867 1.11352539 C-24.77716758 -0.03615542 -24.77716758 -0.03615542 0 0 Z " fill="#000000" transform="translate(778.410888671875,110.886474609375)"/>
<path d="M0 0 C196.02 0 392.04 0 594 0 C594 31.35 594 62.7 594 95 C397.98 95 201.96 95 0 95 C0 63.65 0 32.3 0 0 Z " fill="#000000" transform="translate(1630,477)"/>
<path d="M0 0 C27.06 0 54.12 0 82 0 C82.33 142.56 82.66 285.12 83 432 C51.65 432 20.3 432 -12 432 C-12 334.32 -12 236.64 -12 136 C-42.36 136 -72.72 136 -104 136 C-104 114.55 -104 93.1 -104 71 C-95.585 70.505 -95.585 70.505 -87 70 C-83.57087643 69.52271299 -80.30306446 69.02940142 -76.9375 68.3125 C-76.10444336 68.13807373 -75.27138672 67.96364746 -74.41308594 67.78393555 C-55.97948485 63.71045459 -39.25772791 55.40138721 -25 43 C-24.31808594 42.47277344 -23.63617187 41.94554687 -22.93359375 41.40234375 C-10.13323506 31.20714613 -3.12646129 15.63230646 0 0 Z " fill="#000000" transform="translate(1641,6)"/>
</svg>
