<?xml version="1.0" encoding="UTF-8"?>
<svg version="1.1" xmlns="http://www.w3.org/2000/svg" width="512" height="512">
<path d="M0 0 C8.60754466 7.00467344 16.9048827 14.99760382 22 25 C22 25.66 22 26.32 22 27 C22.66 27 23.32 27 24 27 C24.40412109 25.90558594 24.40412109 25.90558594 24.81640625 24.7890625 C31.76183912 8.42259693 47.25436443 -2.82135482 63 -9.8125 C82.74611267 -17.41308433 104.03944403 -17.34049484 123.70703125 -9.52734375 C142.80375455 -0.62115416 157.89201867 14.21867755 165.76318359 33.90917969 C167.06437468 37.55173849 168.10863677 41.23823494 169 45 C169.17635986 45.70423096 169.35271973 46.40846191 169.53442383 47.1340332 C170.15707322 50.9669022 170.11581037 54.7541252 170.10546875 58.625 C170.11891798 60.31772113 170.13393988 62.01043037 170.15039062 63.703125 C170.17325644 66.35654313 170.18745975 69.00860492 170.17504883 71.66210938 C170.16623101 74.23405295 170.19511586 76.80333257 170.23046875 79.375 C170.21212227 80.55956787 170.21212227 80.55956787 170.19340515 81.76806641 C170.2538947 86.00708646 170.2538947 86.00708646 172.32905579 89.56132507 C173.8228428 90.78877086 175.40935642 91.90096597 177 93 C181.99847446 100.27806376 183.73125101 107.36212948 182.375 116 C180.84575178 122.71629287 177.33826786 128.58212315 172 133 C171.34 133 170.68 133 170 133 C170.33 149.5 170.66 166 171 183 C178.66329892 178.49912956 185.59717675 174.02962605 192.4375 168.4375 C192.94766033 168.02047066 193.45782066 167.60344131 193.9834404 167.17377472 C208.19200512 155.25741019 214.75735412 142.18967765 216.41739941 123.7091608 C218.23195446 97.86470637 217.20643352 71.68524253 215.71865845 45.84397888 C215.65951798 44.77552262 215.60037752 43.70706636 215.53944492 42.60623264 C215.4265974 40.63214999 215.3029656 38.65863711 215.16568661 36.68610287 C214.56774673 26.33783141 216.76125679 18.35053019 223 10 C229.79379327 2.51840534 237.07997419 -0.41818395 247.0703125 -1.0546875 C256.62479732 -0.87633712 264.33082134 2.13272692 271 9 C277.4333478 17.07973143 279.31015025 23.45785504 279.30078125 33.6640625 C279.30720894 35.20759903 279.30720894 35.20759903 279.31376648 36.78231812 C279.31949884 38.95252752 279.32001811 41.12275613 279.31567383 43.29296875 C279.31250465 46.62012192 279.336019 49.9463936 279.36132812 53.2734375 C279.36360023 55.38281138 279.36430503 57.49218765 279.36328125 59.6015625 C279.372491 60.598461 279.38170074 61.5953595 279.39118958 62.62246704 C279.38184639 64.00938248 279.38184639 64.00938248 279.37231445 65.42431641 C279.37294388 66.2375235 279.3735733 67.05073059 279.3742218 67.88858032 C278.90549287 70.53322446 278.10990871 71.38163016 276 73 C274.515 73.495 274.515 73.495 273 74 C272.67 80.27 272.34 86.54 272 93 C273.65 93.33 275.3 93.66 277 94 C279.24534427 97.36801641 279.26007643 98.52996609 279.29052734 102.47436523 C279.3096669 104.15773232 279.3096669 104.15773232 279.32919312 105.87510681 C279.33253159 107.69843285 279.33253159 107.69843285 279.3359375 109.55859375 C279.3425943 110.81325943 279.3492511 112.06792511 279.35610962 113.36061096 C279.36624962 116.02302164 279.3717902 118.68502441 279.37060547 121.34741211 C279.37044371 124.05829785 279.38419586 126.76850228 279.41162109 129.47924805 C279.448533 133.40173767 279.45809182 137.32344696 279.4609375 141.24609375 C279.47530853 142.44342636 279.48967957 143.64075897 279.50448608 144.87437439 C279.44025099 156.88586458 276.24843043 166.45521071 269 176 C268.46181641 176.71736328 267.92363281 177.43472656 267.36914062 178.17382812 C265.6845038 180.38380305 263.97231848 182.56929164 262.25 184.75 C261.00492468 186.33831935 259.76013429 187.9268621 258.515625 189.515625 C257.91298828 190.28326172 257.31035156 191.05089844 256.68945312 191.84179688 C254.4411152 194.7139511 252.2189531 197.60507443 250 200.5 C243.10039094 209.4852752 236.12848881 218.41442988 229.16796875 227.35253906 C222.63829825 235.7383418 216.12128707 244.13274242 209.6484375 252.5625 C206.32209761 256.88648137 202.97356387 261.19322106 199.625 265.5 C199.02945312 266.26634766 198.43390625 267.03269531 197.8203125 267.82226562 C197.253125 268.55123047 196.6859375 269.28019531 196.1015625 270.03125 C195.59963379 270.67642578 195.09770508 271.32160156 194.58056641 271.98632812 C193 274 193 274 190.93136597 276.18699646 C188.50599085 279.7195164 188.50663112 281.76266981 188.51757812 286.02172852 C188.51170937 287.05194122 188.51170937 287.05194122 188.50572205 288.10296631 C188.49976538 289.58706816 188.502884 291.07122868 188.5141449 292.55529976 C188.53144466 294.90534973 188.52388079 297.25417377 188.5098877 299.60423279 C188.48457732 304.59040598 188.49005298 309.57628869 188.5 314.5625 C188.51152729 320.34531108 188.51039682 326.12752538 188.47593689 331.91026115 C188.46884219 334.22384439 188.48551774 336.53648224 188.50305176 338.84999084 C188.49734438 340.26922109 188.49052734 341.68844744 188.48242188 343.10766602 C188.48560425 344.34500992 188.48878662 345.58235382 188.49206543 346.85719299 C187.89245154 350.68690875 186.99846566 351.62177245 184 354 C181.44313526 354.50139666 181.44313526 354.50139666 178.4901886 354.50336456 C176.79946244 354.51901105 176.79946244 354.51901105 175.07458019 354.53497362 C173.83607469 354.52605073 172.59756918 354.51712785 171.3215332 354.50793457 C170.00603391 354.51417453 168.69053461 354.5204145 167.3351717 354.52684355 C163.68048648 354.54357418 160.02621792 354.53527388 156.37153101 354.52289867 C152.43144534 354.51386564 148.4914324 354.52780919 144.55136108 354.53881836 C136.83149157 354.55662692 129.1117774 354.55275324 121.39190173 354.5411678 C115.11913446 354.53214291 108.84641081 354.53090537 102.57363892 354.53526306 C101.23568471 354.53618246 101.23568471 354.53618246 99.87070113 354.53712043 C98.05881618 354.5383993 96.24693124 354.53969615 94.43504632 354.5410108 C77.43554597 354.55242344 60.43613183 354.53929218 43.43664563 354.51780933 C28.84281171 354.49993772 14.24910505 354.50304164 -0.34472656 354.52148438 C-17.28241097 354.54287902 -34.22001977 354.55132474 -51.1577158 354.53903532 C-52.96302349 354.53776109 -54.7683312 354.53650361 -56.57363892 354.53526306 C-57.46193962 354.53464596 -58.35024033 354.53402886 -59.26545924 354.53339306 C-65.53240914 354.52993593 -71.79931118 354.53577629 -78.06625366 354.54518127 C-85.70113694 354.55638704 -93.33585568 354.55339128 -100.97072005 354.5320583 C-104.86794834 354.5215286 -108.76490205 354.51745844 -112.66212845 354.53065491 C-116.88217024 354.5447286 -121.10151568 354.52795188 -125.3215332 354.50793457 C-126.56003871 354.51685746 -127.79854422 354.52578034 -129.07458019 354.53497362 C-130.20173097 354.52454263 -131.32888174 354.51411164 -132.4901886 354.50336456 C-133.464661 354.50271515 -134.4391334 354.50206574 -135.44313526 354.50139666 C-138.75431047 353.85208105 -139.94980752 352.63229253 -142 350 C-142.4315033 346.93121338 -142.4315033 346.93121338 -142.33959961 343.28222656 C-142.32905548 342.61483963 -142.31851135 341.9474527 -142.30764771 341.25984192 C-142.28352989 339.8121398 -142.25091171 338.36455982 -142.21076775 336.91721344 C-142.15156248 334.61018163 -142.12525376 332.30496647 -142.10902405 329.99725342 C-142.06086552 323.43745831 -141.98577711 316.879558 -141.81176758 310.32177734 C-140.35413232 288.36090559 -140.35413232 288.36090559 -149.1796875 269.24609375 C-150.83393907 267.61295399 -152.52613179 266.07872968 -154.29924011 264.57598877 C-157.3973696 261.70514421 -159.74086922 258.23682327 -162.1875 254.8125 C-165.04421951 250.92901072 -167.90798042 247.07447125 -170.97265625 243.3515625 C-171.44098877 242.7743042 -171.90932129 242.1970459 -172.3918457 241.60229492 C-173.6608665 240.04675783 -174.94700756 238.50523152 -176.234375 236.96484375 C-178.39805378 233.33158669 -178.40458261 231.16623755 -178 227 C-177.74347656 226.31164062 -177.48695313 225.62328125 -177.22265625 224.9140625 C-176.75459558 222.71735842 -176.75459558 222.71735842 -178.87109375 220.2734375 C-179.71800781 219.31695312 -180.56492188 218.36046875 -181.4375 217.375 C-186 212.17862595 -186 212.17862595 -186 210 C-187.5778125 210.3403125 -187.5778125 210.3403125 -189.1875 210.6875 C-193.58827276 211.04821908 -194.51394592 210.52010411 -198 208 C-200.10546875 205.7578125 -200.10546875 205.7578125 -202.1875 203.125 C-203.35732422 201.65160156 -203.35732422 201.65160156 -204.55078125 200.1484375 C-205.35902344 199.10945312 -206.16726562 198.07046875 -207 197 C-207.79792969 195.98164063 -208.59585938 194.96328125 -209.41796875 193.9140625 C-211.52173832 191.21497358 -213.59624953 188.4947945 -215.66015625 185.76513672 C-216.58490525 184.54685405 -217.51493222 183.33256595 -218.44921875 182.12158203 C-229.48200391 167.81298632 -229.48200391 167.81298632 -232 159 C-232.17377198 158.4093148 -232.34754396 157.81862961 -232.52658176 157.21004486 C-233.08115017 154.62116896 -233.14155619 152.23703634 -233.16062927 149.58850098 C-233.1706749 148.4896759 -233.18072052 147.39085083 -233.19107056 146.25872803 C-233.19690155 145.05766418 -233.20273254 143.85660034 -233.20874023 142.61914062 C-233.21852402 141.35036072 -233.2283078 140.08158081 -233.23838806 138.77435303 C-233.2697194 134.56834958 -233.29004053 130.36232673 -233.30859375 126.15625 C-233.31189107 125.43900694 -233.31518839 124.72176388 -233.31858563 123.98278618 C-233.34937502 117.20895292 -233.37606325 110.43511498 -233.39300442 103.66123199 C-233.41487154 95.02113153 -233.45676269 86.38165554 -233.52644199 77.7418046 C-233.57385516 71.65411708 -233.59796124 65.56659694 -233.6052013 59.47873068 C-233.6101334 55.8496386 -233.62497656 52.22125099 -233.6649456 48.59236145 C-233.70906375 44.53320284 -233.70487716 40.47540681 -233.69702148 36.41601562 C-233.71702209 35.23114563 -233.73702271 34.04627563 -233.75762939 32.82550049 C-233.67793528 23.60582243 -231.21848201 15.77562389 -225.02298641 8.76187897 C-218.50867634 2.50880849 -210.86867125 -0.5912159 -201.8984375 -1.09375 C-191.67716018 -0.76314265 -184.49366771 2.66901493 -177.28515625 9.6640625 C-171.76084308 15.58007514 -168.87490931 23.00665502 -169.04523468 31.16728401 C-169.21190786 33.79112075 -169.41852678 36.40940316 -169.63574219 39.02954102 C-176.97911595 104.419051 -176.97911595 104.419051 -154.38682556 163.03860474 C-139.43341992 179.93136972 -119.82195547 195.28239031 -96.61132812 196.84033203 C-88.87971284 196.97415242 -81.47384511 195.91606638 -74 194 C-73.98917693 187.44249455 -73.98917693 187.44249455 -76.85546875 181.88671875 C-77.62503906 181.49097656 -78.39460937 181.09523438 -79.1875 180.6875 C-91.42378169 174.07949098 -98.58189644 162.91700765 -103.13671875 150.03515625 C-104.29083226 145.97748116 -104.78599517 142.20876175 -105 138 C-106.258125 138.0825 -107.51625 138.165 -108.8125 138.25 C-116.33970546 138.2144384 -123.38955032 135.94155034 -128.9375 130.75 C-134.91910897 123.97944979 -137.30349315 117.06685787 -137 108 C-135.92536662 101.00455 -133.03761213 95.02449335 -128 90 C-127.01 89.67 -126.02 89.34 -125 89 C-125.01047363 88.1342334 -125.02094727 87.2684668 -125.03173828 86.37646484 C-125.06629797 83.09241958 -125.09112663 79.80857394 -125.10986328 76.52441406 C-125.11977813 75.11650499 -125.13331412 73.70861567 -125.15087891 72.30078125 C-125.45929532 46.90178267 -119.51013059 25.14921679 -101.53515625 6.43359375 C-73.99965509 -20.05062543 -30.79187905 -22.529542 0 0 Z M11 138 C10.78085938 139.01578125 10.56171875 140.0315625 10.3359375 141.078125 C7.10832205 155.37907843 2.21297418 166.98328907 -9 177 C-11.93238716 178.79427988 -14.83045389 180.42501795 -17.9453125 181.87890625 C-21.15962315 184.7049187 -21.15962315 184.7049187 -20 194 C-8.45 194 3.1 194 15 194 C15 175.52 15 157.04 15 138 C13.68 138 12.36 138 11 138 Z " fill="#010101" transform="translate(233,158)"/>
<path d="M0 0 C10.89 0 21.78 0 33 0 C32.99887207 2.44212891 32.99774414 4.88425781 32.99658203 7.40039062 C32.99721076 15.48707817 33.03074008 23.57339135 33.0802784 31.65991974 C33.10929821 36.56084336 33.12738144 41.46128988 33.12011719 46.36230469 C33.11350931 51.09593441 33.13609162 55.82862259 33.17855453 60.5620575 C33.18965985 62.36403551 33.19040918 64.1661093 33.18042374 65.96809387 C32.75197424 78.25356103 32.75197424 78.25356103 38.47164917 88.64562988 C38.97600494 89.09257202 39.48036072 89.53951416 40 90 C40.825 90.886875 41.65 91.77375 42.5 92.6875 C44.25671737 94.31246357 46.0766129 95.87045299 47.9375 97.375 C50.81432457 99.71608938 53.05913614 102.37041606 55.41015625 105.2265625 C57.61160307 107.68223045 60.09638468 109.69736019 62.6796875 111.73828125 C63.11539063 112.15464844 63.55109375 112.57101562 64 113 C64 113.66 64 114.32 64 115 C64.66 115 65.32 115 66 115 C67.2265625 116.28515625 67.2265625 116.28515625 68.625 118.0625 C71.55385728 121.62775097 74.7930222 124.51126381 78.36328125 127.421875 C80 129 80 129 81 132 C82.32218028 132.68852127 83.65690189 133.35323135 85 134 C86.4921875 135.55078125 86.4921875 135.55078125 87.875 137.3125 C88.39964844 137.92996094 88.92429687 138.54742187 89.46484375 139.18359375 C89.97144531 139.78300781 90.47804688 140.38242187 91 141 C94.27719579 144.86541042 95.63685366 145.80649342 100.71484375 146.52734375 C104.47548876 146.8314775 108.22812603 146.94721296 112 147 C112.14695312 147.79921875 112.29390625 148.5984375 112.4453125 149.421875 C115.69402462 165.32936193 123.22176377 178.27149121 136.21875 188.1796875 C146.69426051 195.03585028 157.25922198 198.38679372 169.6875 198.3125 C171.15678955 198.30404053 171.15678955 198.30404053 172.65576172 198.29541016 C189.21442094 198.01782931 202.60003725 192.42471119 214.37109375 180.79296875 C220.73142025 174.03571251 224.4109856 166.49611816 228 158 C241.75589137 158.34156841 253.28798662 163.82505556 262.6875 173.6875 C268.70999858 180.82629694 272.07785574 189.49043971 272.2109375 198.75 C272.23899458 200.09376242 272.26765896 201.43751228 272.296875 202.78125 C272.3381961 204.8945292 272.37509411 207.00757072 272.40136719 209.12109375 C272.42895576 211.16455073 272.47480693 213.20695002 272.5234375 215.25 C272.54325684 216.47203125 272.56307617 217.6940625 272.58349609 218.953125 C272.76035149 221.95898794 272.76035149 221.95898794 274.31103516 223.89453125 C277.20660184 225.78975038 279.6655917 225.41680104 283 225 C285.38587068 222.7132967 285.96103089 221.28950162 286.40405273 217.99829102 C286.44831745 213.2966815 286.44831745 213.2966815 286.44604492 208.5949707 C286.43765919 206.60036548 286.46748531 204.60571683 286.49804688 202.61132812 C286.49001263 186.48659724 281.47367481 172.68979569 270.5 160.75 C264.50961463 155.01925981 257.41262512 151.53829306 250 148 C250 147.67 250 147.34 250 147 C254.85590664 146.72672387 259.70729404 146.52793133 264.5690918 146.39575195 C266.21962443 146.34064262 267.8696249 146.26572062 269.51831055 146.17016602 C274.85924362 145.86851863 279.76706462 145.7817998 285 147 C287.73144376 149.59105492 289.07975951 151.83064003 290.58666992 155.26391602 C293.38488285 160.68101263 299.41095126 163.13698375 305 165 C314.41301249 165.94130125 321.3580392 164.04263833 328.8125 158.25 C331.39753943 156.13090595 332.65039097 153.83783446 334.1003418 150.87792969 C334.45710495 150.15305359 334.8138681 149.42817749 335.18144226 148.68133545 C335.45156631 148.12649475 335.72169037 147.57165405 336 147 C336.58358276 147.00079559 337.16716553 147.00159119 337.76843262 147.00241089 C343.86894112 147.00485774 349.96818472 146.96548529 356.06835938 146.90234375 C358.34173703 146.88422919 360.61522441 146.87660695 362.88867188 146.87988281 C366.16622047 146.88275282 369.44151476 146.84730145 372.71875 146.8046875 C373.72740112 146.81378143 374.73605225 146.82287537 375.77526855 146.83224487 C382.93945871 146.68627762 386.81883486 144.9027486 392 140 C393.2674707 138.84491943 393.2674707 138.84491943 394.56054688 137.66650391 C395.27275391 136.94382324 395.98496094 136.22114258 396.71875 135.4765625 C397.50507813 134.68378906 398.29140625 133.89101563 399.1015625 133.07421875 C399.89304687 132.26597656 400.68453125 131.45773437 401.5 130.625 C402.32242187 129.79355469 403.14484375 128.96210938 403.9921875 128.10546875 C405.99947551 126.07484018 408.00190534 124.03966833 410 122 C414.29945482 123.5849969 416.64269822 125.34358956 419.8125 128.6875 C422.86676118 131.84160329 425.917456 134.89079238 429.25 137.75 C436.18804348 143.75543478 436.18804348 143.75543478 439 147 C438.54110611 151.54344266 435.37425088 154.55624239 432.5625 157.9375 C431.45602412 159.29344962 430.35057012 160.6502337 429.24609375 162.0078125 C428.69421387 162.68360352 428.14233398 163.35939453 427.57373047 164.05566406 C425.37498834 166.7721987 423.24789033 169.53614094 421.125 172.3125 C416.56479159 178.27302964 411.96301438 184.20010704 407.34814453 190.1184082 C406.24334228 191.5365247 405.14793761 192.96201406 404.06219482 194.39477539 C402.60515108 196.23549683 401.07381068 198.01853977 399.49441528 199.75541687 C392.22108333 207.96534921 390.55654369 214.80064768 390.8046875 225.70703125 C390.7903064 227.6335553 390.7903064 227.6335553 390.77563477 229.59899902 C390.7546328 234.33690191 390.81970723 239.07487322 390.875 243.8125 C390.936875 259.7453125 390.936875 259.7453125 391 276 C356.68 276 322.36 276 287 276 C286.67 267.75 286.34 259.5 286 251 C283.288243 247.66049055 283.288243 247.66049055 279.5 247.625 C275.711757 247.66049055 275.711757 247.66049055 273 251 C272.67 259.25 272.34 267.5 272 276 C212.27 276 152.54 276 91 276 C90.67 254.22 90.34 232.44 90 210 C86.04 205.05 82.08 200.1 78 195 C75.7986896 192.15417245 73.60619349 189.30743009 71.4375 186.4375 C68.23996708 182.22241503 65.03229176 178.02009074 61.734375 173.8828125 C61.22076416 173.23771729 60.70715332 172.59262207 60.17797852 171.92797852 C59.2060916 170.71156772 58.23019677 169.49834514 57.24975586 168.28881836 C54 164.21915038 54 164.21915038 54 162 C53.39671875 161.93941406 52.7934375 161.87882813 52.171875 161.81640625 C51.37265625 161.73261719 50.5734375 161.64882813 49.75 161.5625 C48.56664063 161.44068359 48.56664063 161.44068359 47.359375 161.31640625 C46.58078125 161.21199219 45.8021875 161.10757813 45 161 C44.35289063 160.95230469 43.70578125 160.90460938 43.0390625 160.85546875 C39.66541755 159.44008897 37.79460042 156.57480738 35.625 153.75 C35.14933594 153.17636719 34.67367187 152.60273438 34.18359375 152.01171875 C32.8515625 150.296875 32.8515625 150.296875 31 147 C31.7734375 144.515625 31.7734375 144.515625 33 142 C32.97709933 135.45804074 30.2994304 132.23770854 26.1875 127.5625 C25.00134204 126.1597163 23.8178165 124.75470313 22.63671875 123.34765625 C22.03263184 122.6323877 21.42854492 121.91711914 20.80615234 121.18017578 C17.9258691 117.70343485 15.20454147 114.11420022 12.5 110.5 C12.02071045 109.86650635 11.5414209 109.2330127 11.04760742 108.58032227 C8.69931868 105.43841989 6.43679674 102.24618949 4.28125 98.96875 C3.89001953 98.37513672 3.49878906 97.78152344 3.09570312 97.16992188 C0.09910164 91.23547579 -0.28579802 85.64443797 -0.22705078 79.12719727 C-0.22734283 78.26786087 -0.22763489 77.40852448 -0.22793579 76.52314758 C-0.22655086 73.70412837 -0.21102931 70.88537886 -0.1953125 68.06640625 C-0.19157939 66.10343063 -0.18873383 64.14045313 -0.18673706 62.17747498 C-0.17912407 57.02689411 -0.15949569 51.87642717 -0.1373291 46.72589111 C-0.11682031 41.46376079 -0.1077246 36.20161195 -0.09765625 30.93945312 C-0.07624752 20.62624414 -0.04108447 10.3131494 0 0 Z " fill="#6BF4C1" transform="translate(15,221)"/>
<path d="M0 0 C4.29945482 1.5849969 6.64269822 3.34358956 9.8125 6.6875 C12.86676118 9.84160329 15.917456 12.89079238 19.25 15.75 C26.18804348 21.75543478 26.18804348 21.75543478 29 25 C28.54110611 29.54344266 25.37425088 32.55624239 22.5625 35.9375 C21.45602412 37.29344962 20.35057012 38.6502337 19.24609375 40.0078125 C18.69421387 40.68360352 18.14233398 41.35939453 17.57373047 42.05566406 C15.37498834 44.7721987 13.24789033 47.53614094 11.125 50.3125 C6.56479159 56.27302964 1.96301438 62.20010704 -2.65185547 68.1184082 C-3.75665772 69.5365247 -4.85206239 70.96201406 -5.93780518 72.39477539 C-7.39484892 74.23549683 -8.92618932 76.01853977 -10.50558472 77.75541687 C-17.77891667 85.96534921 -19.44345631 92.80064768 -19.1953125 103.70703125 C-19.2096936 105.6335553 -19.2096936 105.6335553 -19.22436523 107.59899902 C-19.2453672 112.33690191 -19.18029277 117.07487322 -19.125 121.8125 C-19.08375 132.434375 -19.0425 143.05625 -19 154 C-53.32 154 -87.64 154 -123 154 C-123.495 141.625 -123.495 141.625 -124 129 C-126.7018576 125.8509288 -126.7018576 125.8509288 -130 125 C-130.14505175 121.56294295 -130.23398014 118.12666967 -130.3125 114.6875 C-130.35439453 113.71103516 -130.39628906 112.73457031 -130.43945312 111.72851562 C-130.48523879 109.06379018 -130.48515217 106.62167652 -130 104 C-127.54296875 101.95703125 -127.54296875 101.95703125 -125 101 C-122.89991009 96.79982018 -123.73180333 91.36531281 -123.70483398 86.74584961 C-123.68788592 84.7333269 -123.64405937 82.72108753 -123.59960938 80.70898438 C-123.49542669 64.51258384 -128.47454642 50.74613304 -139.5 38.75 C-145.49038537 33.01925981 -152.58737488 29.53829306 -160 26 C-160 25.67 -160 25.34 -160 25 C-155.14409336 24.72672387 -150.29270596 24.52793133 -145.4309082 24.39575195 C-143.78037557 24.34064262 -142.1303751 24.26572062 -140.48168945 24.17016602 C-135.14075638 23.86851863 -130.23293538 23.7817998 -125 25 C-122.26855624 27.59105492 -120.92024049 29.83064003 -119.41333008 33.26391602 C-116.61511715 38.68101263 -110.58904874 41.13698375 -105 43 C-95.58698751 43.94130125 -88.6419608 42.04263833 -81.1875 36.25 C-78.60246057 34.13090595 -77.34960903 31.83783446 -75.8996582 28.87792969 C-75.36451347 27.79061554 -75.36451347 27.79061554 -74.81855774 26.68133545 C-74.54843369 26.12649475 -74.27830963 25.57165405 -74 25 C-73.12462585 25.00119339 -73.12462585 25.00119339 -72.23156738 25.00241089 C-66.13105888 25.00485774 -60.03181528 24.96548529 -53.93164062 24.90234375 C-51.65826297 24.88422919 -49.38477559 24.87660695 -47.11132812 24.87988281 C-43.83377953 24.88275282 -40.55848524 24.84730145 -37.28125 24.8046875 C-36.27259888 24.81378143 -35.26394775 24.82287537 -34.22473145 24.83224487 C-27.06054129 24.68627762 -23.18116514 22.9027486 -18 18 C-17.15501953 17.22994629 -16.31003906 16.45989258 -15.43945312 15.66650391 C-14.72724609 14.94382324 -14.01503906 14.22114258 -13.28125 13.4765625 C-12.49492187 12.68378906 -11.70859375 11.89101563 -10.8984375 11.07421875 C-10.10695313 10.26597656 -9.31546875 9.45773437 -8.5 8.625 C-7.67757812 7.79355469 -6.85515625 6.96210938 -6.0078125 6.10546875 C-4.00052449 4.07484018 -1.99809466 2.03966833 0 0 Z " fill="#FD92D2" transform="translate(425,343)"/>
<path d="M0 0 C1.26070312 0.41765625 1.26070312 0.41765625 2.546875 0.84375 C9.13431352 3.2168645 14.45153833 6.77813387 20 11 C21.010625 11.721875 22.02125 12.44375 23.0625 13.1875 C30.81700368 19.9066012 36.63436413 29.38214276 40 39 C40.26111572 39.7324292 40.52223145 40.4648584 40.79125977 41.21948242 C43.43446019 49.52857232 43.34554695 57.58437851 43.1875 66.1875 C43.17241277 67.63084527 43.15873157 69.07420596 43.14648438 70.51757812 C43.11382868 74.01204537 43.06227452 77.50592012 43 81 C41.08885829 81.05428095 39.17726825 81.09291968 37.265625 81.125 C36.20118164 81.14820313 35.13673828 81.17140625 34.04003906 81.1953125 C30.35388515 80.95848925 28.1089579 79.93185684 25.109375 77.875 C21.7642826 76.48740612 18.59844209 76.88054964 15 77 C14.94392578 75.31970703 14.94392578 75.31970703 14.88671875 73.60546875 C14.82105743 72.1327791 14.75461014 70.66012434 14.6875 69.1875 C14.66494141 68.44951172 14.64238281 67.71152344 14.61914062 66.95117188 C14.43155938 62.73946423 14.43155938 62.73946423 12.640625 59.015625 C9.98336214 57.37065275 8.04226091 57.5653913 5 58 C2.03058386 60.62042102 -0.29859661 63.60486094 -2.6875 66.75 C-9.92394982 75.81222076 -17.4104629 81.2696484 -28 86 C-28.268125 85.05125 -28.53625 84.1025 -28.8125 83.125 C-29.74986588 79.74732727 -29.74986588 79.74732727 -33 78 C-37.03333864 77.67074787 -40.58612154 78.07665281 -44.5 78.95703125 C-51.29454022 80.35643862 -58.13608013 80.71079888 -65.04882812 81.12304688 C-66.03173828 81.19458984 -67.01464844 81.26613281 -68.02734375 81.33984375 C-68.91156006 81.39519287 -69.79577637 81.45054199 -70.70678711 81.50756836 C-73.40618718 82.08722235 -74.3063255 82.86122457 -76 85 C-77.17574711 87.09989652 -77.17574711 87.09989652 -78 89 C-79.96679688 87.95019531 -79.96679688 87.95019531 -82 86 C-82.51757812 82.77636719 -82.51757812 82.77636719 -82.53125 78.796875 C-82.5350769 78.08202942 -82.53890381 77.36718384 -82.54284668 76.63067627 C-82.54557028 75.11086629 -82.53817755 73.5910098 -82.52148438 72.07128906 C-82.50045345 69.79899284 -82.521066 67.52999757 -82.546875 65.2578125 C-82.5853957 45.74887882 -76.73495186 28.73415532 -62.82421875 14.66015625 C-46.03307665 -1.1555668 -22.10257529 -7.86472004 0 0 Z " fill="#FDDF76" transform="translate(345,161)"/>
<path d="M0 0 C12.42328452 9.98909257 22.20768809 23.6593864 24.33789062 39.76757812 C24.57020207 45.29195164 24.5275695 50.80247512 24.46289062 56.33007812 C24.45283985 57.83072319 24.44371772 59.33137477 24.43554688 60.83203125 C24.41370153 64.47735094 24.37928752 68.12242189 24.33789062 71.76757812 C22.59477284 71.82363725 20.85112776 71.86343851 19.10742188 71.89648438 C18.13651611 71.9204126 17.16561035 71.94434082 16.1652832 71.96899414 C10.17678402 71.5423892 6.10822345 67.81917826 2.15039062 63.58007812 C-0.76402426 59.98272133 -2.68003802 56.00801559 -4.58398438 51.80664062 C-5.49246805 49.61003713 -5.49246805 49.61003713 -7.66210938 48.76757812 C-11.9385813 48.32022563 -11.9385813 48.32022563 -15.61914062 50.23632812 C-16.23144531 50.90664062 -16.84375 51.57695312 -17.47460938 52.26757812 C-38.21974247 71.89887857 -73.0257951 72.01833841 -99.66210938 71.76757812 C-99.76249295 67.44838192 -99.83427428 63.12983941 -99.88183594 58.80981445 C-99.90170386 57.34647771 -99.92880819 55.88321763 -99.96386719 54.42016602 C-100.36767774 37.10975778 -95.87906608 21.98224966 -84.53710938 8.51757812 C-62.12588907 -14.88293204 -26.76826501 -19.8481495 0 0 Z " fill="#9B9B9B" transform="translate(223.662109375,170.232421875)"/>
<path d="M0 0 C0.680625 0.680625 1.36125 1.36125 2.0625 2.0625 C2.52011719 2.51625 2.97773438 2.97 3.44921875 3.4375 C4.52993899 4.52638689 5.59393227 5.63202294 6.64453125 6.75 C7.21558594 7.348125 7.78664063 7.94625 8.375 8.5625 C9.16003906 9.39974609 9.16003906 9.39974609 9.9609375 10.25390625 C11.80956696 11.83692803 13.51614184 12.92540311 15.62744141 14.10913086 C17.29685791 15.04511108 17.29685791 15.04511108 19 16 C19.04972466 21.81663796 19.08587252 27.63315004 19.10986328 33.44995117 C19.1198729 35.42555906 19.13348469 37.40115231 19.15087891 39.37670898 C19.17535009 42.22904082 19.18653376 45.08117547 19.1953125 47.93359375 C19.20563507 48.80584091 19.21595764 49.67808807 19.22659302 50.57676697 C19.22893851 63.62218247 15.23825945 74.38161682 6.234375 83.9609375 C-2.44195005 91.87884253 -12.80811767 95.58670091 -24.4375 95.4375 C-25.68527222 95.42614014 -25.68527222 95.42614014 -26.95825195 95.41455078 C-37.18798655 95.14026296 -44.31442986 91.62659806 -52 85 C-52.60714844 84.49855469 -53.21429688 83.99710937 -53.83984375 83.48046875 C-61.08989104 76.96018552 -66.40172562 66.58941482 -67.17384338 56.79470825 C-67.23003009 54.30989246 -67.22511899 51.83292135 -67.1953125 49.34765625 C-67.1924826 48.44752304 -67.18965271 47.54738983 -67.18673706 46.61997986 C-67.17561278 43.7673468 -67.15052283 40.91503689 -67.125 38.0625 C-67.11496017 36.11914518 -67.10583608 34.17578541 -67.09765625 32.23242188 C-67.07569888 27.48815824 -67.04122301 22.74413376 -67 18 C-65.76403076 17.88172852 -64.52806152 17.76345703 -63.25463867 17.64160156 C-54.17617711 16.74725317 -45.22236326 15.77191039 -36.3125 13.75 C-35.35263184 13.53601563 -34.39276367 13.32203125 -33.40380859 13.1015625 C-21.61274543 10.360096 -10.30708088 6.47055633 0 0 Z " fill="#FCD0A2" transform="translate(210,238)"/>
<path d="M0 0 C3.61442798 3.79978326 5.10994405 6.82194136 5.15771484 12.04077148 C5.16797699 12.84848495 5.17823914 13.65619843 5.18881226 14.48838806 C5.19611359 15.35718094 5.20341492 16.22597382 5.2109375 17.12109375 C5.23899986 18.96159753 5.26766427 20.80209221 5.296875 22.64257812 C5.3381756 25.54369919 5.37506481 28.44464919 5.40136719 31.34594727 C5.42895504 34.14635227 5.47481813 36.94598554 5.5234375 39.74609375 C5.52669037 40.6128624 5.52994324 41.47963104 5.53329468 42.37266541 C5.60497198 45.88099697 5.67348746 48.35812443 7.27978516 51.51586914 C9.15294912 53.3570574 9.15294912 53.3570574 13 54 C13 60.6 13 67.2 13 74 C11.02 74.99 9.04 75.98 7 77 C5.7600614 79.47987719 5.86883233 81.14370733 5.8581543 83.91772461 C5.85111984 84.94316879 5.84408539 85.96861298 5.83683777 87.02513123 C5.83267349 88.13961136 5.82850922 89.25409149 5.82421875 90.40234375 C5.80100208 92.76107645 5.77688403 95.11980042 5.75195312 97.47851562 C5.71697465 101.19773031 5.68757578 104.91662792 5.67407227 108.63598633 C5.65848903 112.22516584 5.61819112 115.81341377 5.57421875 119.40234375 C5.57612717 120.4986058 5.57803558 121.59486786 5.58000183 122.72434998 C5.42357404 132.72049168 3.06423047 141.24971354 -3.375 149.0625 C-4.25052676 150.14671026 -5.12549187 151.23137421 -6 152.31640625 C-6.474375 152.89535645 -6.94875 153.47430664 -7.4375 154.07080078 C-10.4815961 157.82930818 -13.41627049 161.67421662 -16.375 165.5 C-19.88802237 170.02333753 -23.40697785 174.53969664 -27 179 C-31.336932 177.60571103 -33.6973368 175.59877071 -36.8125 172.3125 C-40.42997394 168.57121371 -44.09878941 165.07475059 -48.11328125 161.765625 C-50.6699072 159.37308891 -52.7723896 156.7022647 -55 154 C-54.31897217 153.3294458 -53.63794434 152.6588916 -52.9362793 151.96801758 C-50.39842784 149.46650821 -47.86731731 146.9582694 -45.33813477 144.44799805 C-44.24489606 143.36478461 -43.14986483 142.28337705 -42.05297852 141.20385742 C-40.47191335 139.64719362 -38.89751939 138.08403752 -37.32421875 136.51953125 C-36.83660568 136.04224075 -36.34899261 135.56495026 -35.84660339 135.07319641 C-30.24608505 129.47451625 -28.66093067 125.81156063 -28.61882019 117.97833252 C-28.6281105 116.90549011 -28.63740082 115.83264771 -28.64697266 114.72729492 C-28.64481247 113.5884938 -28.64265228 112.44969269 -28.64042664 111.27638245 C-28.6373403 108.80517228 -28.64094362 106.33394677 -28.65044022 103.86275291 C-28.66417218 99.94921109 -28.65774398 96.03617672 -28.64559937 92.12263489 C-28.61552311 81.69794222 -28.61691037 71.27330329 -28.63585222 60.84858924 C-28.64939634 53.33948229 -28.64020679 45.83086329 -28.60975266 38.32180214 C-28.60431493 35.72991485 -28.6083686 33.13798939 -28.62215042 30.54613304 C-28.64121948 26.91729667 -28.62978455 23.28970397 -28.61181641 19.66088867 C-28.62515518 18.59411896 -28.63849396 17.52734924 -28.65223694 16.42825317 C-28.57801213 9.67372695 -27.36201595 5.23739068 -23 0 C-16.22979055 -6.35989373 -7.22061518 -4.86606675 0 0 Z " fill="#FDD1A3" transform="translate(492,177)"/>
<path d="M0 0 C0.78375 0.639375 1.5675 1.27875 2.375 1.9375 C6.5613011 5.22673657 9.7870634 5.41703493 15 5 C16.175625 4.649375 17.35125 4.29875 18.5625 3.9375 C22.46328994 2.8736482 25.05592773 3.32936702 29 4 C29.09990454 9.74335834 29.17195122 15.48619565 29.21972656 21.23022461 C29.23967151 23.17855659 29.26683757 25.12683006 29.30175781 27.07495117 C29.56858981 42.35893082 29.06549993 55.58914086 19 68 C18.51015625 68.61359375 18.0203125 69.2271875 17.515625 69.859375 C11.53049953 76.55560449 2.05199831 82.32258285 -7.0078125 83.19287109 C-21.06484923 83.72779062 -31.79982137 82.30954747 -42.96875 72.94140625 C-50.37438632 65.86332692 -56.51041801 56.44980874 -57.12025452 45.92449951 C-57.11803391 45.18725647 -57.11581329 44.45001343 -57.11352539 43.69042969 C-57.11344986 42.84986023 -57.11337433 42.00929077 -57.11329651 41.14324951 C-57.10813522 40.24519592 -57.10297394 39.34714233 -57.09765625 38.421875 C-57.0962413 37.4953009 -57.09482635 36.56872681 -57.09336853 35.61407471 C-57.08777824 32.65935008 -57.0752275 29.70470167 -57.0625 26.75 C-57.05748375 24.74479276 -57.05292106 22.73958433 -57.04882812 20.734375 C-57.03781199 15.82288737 -57.020554 10.9114566 -57 6 C-54.24974483 5.66972918 -51.50702017 5.38501166 -48.75 5.125 C-47.58404297 4.97804687 -47.58404297 4.97804687 -46.39453125 4.828125 C-44.12370229 4.63403705 -42.23489694 4.54000844 -40 5 C-37.640625 7.8671875 -37.640625 7.8671875 -36 11 C-32.17582509 13.54944994 -29.41449632 13.66321072 -25 13 C-16.33361339 10.49513471 -6.49905421 6.49905421 0 0 Z " fill="#FCD0A3" transform="translate(340,250)"/>
<path d="M0 0 C3.99671295 2.17445685 5.49250174 3.69045971 7.14501953 7.95458984 C8.21283783 11.61824927 9.16176329 15.29174781 10.0625 19 C10.6834486 21.52476421 11.31964845 24.04583708 11.97265625 26.5625 C12.24343994 27.67753906 12.51422363 28.79257812 12.79321289 29.94140625 C14.77943363 34.97546925 17.71061292 37.42958637 22.59375 39.58984375 C24.54430661 40.28534525 26.50484125 40.93908659 28.47265625 41.58398438 C33.68189909 43.45194519 35.93204224 45.56405361 39 50 C40.18859223 54.16007281 40.30707191 56.20161305 38.75 60.25 C34.97466264 66.182673 30.38028194 67.48367153 23.89257812 69.57421875 C22.8494043 69.93580078 22.8494043 69.93580078 21.78515625 70.3046875 C20.83974976 70.6138208 20.83974976 70.6138208 19.87524414 70.92919922 C16.27793289 72.98333373 14.39291871 75.94760549 12.96679688 79.76733398 C12.71994141 80.75032471 12.47308594 81.73331543 12.21875 82.74609375 C11.79142578 84.37321289 11.79142578 84.37321289 11.35546875 86.03320312 C10.93201172 87.71833008 10.93201172 87.71833008 10.5 89.4375 C6.38901384 105.74065744 6.38901384 105.74065744 0 110 C-4.55979859 110.66464861 -8.66306252 110.61034102 -12.875 108.6875 C-17.06910892 103.38318578 -18.5224827 96.91552965 -20.18359375 90.453125 C-20.39177734 89.65729004 -20.59996094 88.86145508 -20.81445312 88.04150391 C-21.22231877 86.45958612 -21.61363627 84.87328677 -21.98632812 83.28271484 C-23.27289989 78.23851924 -24.72476704 75.2703451 -29 72 C-31.52035738 70.86036014 -33.89915385 69.88583275 -36.5 69 C-41.7025834 67.228031 -45.46985173 65.37316876 -49 61 C-50.45379371 56.91819458 -50.47952307 53.19880768 -48.875 49.1875 C-44.10385216 43.62116085 -38.84641748 41.66651974 -32.05859375 39.34375 C-27.340435 37.27089354 -25.54035424 35.38073075 -23.65625 30.56640625 C-23.2587124 29.23533091 -22.87384321 27.90042337 -22.5 26.5625 C-22.28915771 25.85891357 -22.07831543 25.15532715 -21.86108398 24.43041992 C-20.85047743 21.04505977 -19.90746737 17.65019039 -19.00390625 14.234375 C-16.38154272 4.70246441 -16.38154272 4.70246441 -13.375 1.6875 C-8.91720756 -0.54139622 -4.87668102 -1.26377404 0 0 Z " fill="#010100" transform="translate(261,0)"/>
<path d="M0 0 C4.85590664 -0.27327613 9.70729404 -0.47206867 14.5690918 -0.60424805 C16.21962443 -0.65935738 17.8696249 -0.73427938 19.51831055 -0.82983398 C24.85927429 -1.1314831 29.76708409 -1.218451 35 0 C37.7333483 2.59298501 39.0835711 4.83479296 40.59277344 8.27001953 C43.23178674 13.38963208 48.8706334 15.85580746 54.13671875 17.78125 C56.94528973 19.61830272 57.47875647 21.82785223 58.625 24.9375 C59.02976562 25.99839844 59.43453125 27.05929687 59.8515625 28.15234375 C63.48331625 39.6047469 63.26388159 51.01024574 63.1953125 62.88671875 C63.19157584 64.79913687 63.18873196 66.71155693 63.18673706 68.62397766 C63.17915201 73.62325456 63.15954835 78.62241265 63.1373291 83.62164307 C63.11675939 88.736678 63.1077117 93.85173238 63.09765625 98.96679688 C63.07629696 108.9779248 63.04115741 118.98893387 63 129 C54.42 129 45.84 129 37 129 C36.6875 116.6875 36.6875 116.6875 36.61206055 112.81518555 C36.57894775 111.8075415 36.54583496 110.79989746 36.51171875 109.76171875 C36.47244263 108.2142395 36.47244263 108.2142395 36.43237305 106.63549805 C35.94285094 103.65165212 35.41613421 102.75482392 33 101 C32.01 100.67 31.02 100.34 30 100 C29.85494825 96.56294295 29.76601986 93.12666967 29.6875 89.6875 C29.64560547 88.71103516 29.60371094 87.73457031 29.56054688 86.72851562 C29.51476121 84.06379018 29.51484783 81.62167652 30 79 C32.45703125 76.95703125 32.45703125 76.95703125 35 76 C37.10008991 71.79982018 36.26819667 66.36531281 36.29516602 61.74584961 C36.31211408 59.7333269 36.35594063 57.72108753 36.40039062 55.70898438 C36.50457331 39.51258384 31.52545358 25.74613304 20.5 13.75 C14.50961463 8.01925981 7.41262512 4.53829306 0 1 C0 0.67 0 0.34 0 0 Z " fill="#FC72C4" transform="translate(265,368)"/>
<path d="M0 0 C12.42981176 4.9719247 20.239419 10.81484579 26 23 C26.53753906 24.10601562 27.07507813 25.21203125 27.62890625 26.3515625 C30.1815496 33.32409842 29.47171469 41.06557528 29.51123047 48.39575195 C29.52689942 50.40588885 29.56006979 52.41586545 29.59375 54.42578125 C29.60083984 55.61598877 29.60792969 56.80619629 29.61523438 58.0324707 C29.76488543 60.96068307 29.76488543 60.96068307 31.27539062 62.84838867 C33.23617811 64.29778371 33.23617811 64.29778371 37 65 C37 71.93 37 78.86 37 86 C34.03 86.99 34.03 86.99 31 88 C29.68638302 90.62723396 29.78746091 92.72610561 29.68359375 95.6640625 C29.62643188 97.1792749 29.62643188 97.1792749 29.56811523 98.72509766 C29.50346069 100.65554932 29.50346069 100.65554932 29.4375 102.625 C29.293125 106.70875 29.14875 110.7925 29 115 C19.43 115 9.86 115 0 115 C0 77.05 0 39.1 0 0 Z " fill="#01F0A5" transform="translate(258,382)"/>
<path d="M0 0 C5.3949734 4.64567154 6.55937268 13.29741562 8.1796875 19.97265625 C9.39566795 24.51630754 9.39566795 24.51630754 12.62890625 27.83203125 C13.49386719 28.19683594 14.35882813 28.56164062 15.25 28.9375 C16.01441406 29.27652344 16.77882813 29.61554688 17.56640625 29.96484375 C18.30761719 30.26519531 19.04882812 30.56554687 19.8125 30.875 C23.33672712 32.43480768 26.01439495 33.67724263 28.25 36.9375 C29.15807553 40.50493957 29.46035917 43.03295559 28.625 46.625 C25.3360456 52.15642331 20.39992442 53.80492591 14.5546875 55.71484375 C10.19943235 58.02534351 9.17227762 61.96491239 7.78515625 66.44140625 C7.03520419 68.98169478 6.30506372 71.52643789 5.58789062 74.07617188 C3.21901309 82.04535093 3.21901309 82.04535093 -0.75 84.9375 C-4.92726757 86.11974554 -7.31097131 86.06189146 -11.5 84.875 C-17.08252514 81.54695617 -18.07821693 76.13423184 -19.59570312 70.15820312 C-19.99273081 68.5425756 -20.38328172 66.92534368 -20.76757812 65.30664062 C-21.89038111 60.77633384 -21.89038111 60.77633384 -24.53125 57.03515625 C-28.23999902 55.2003702 -32.08774205 53.82588546 -35.97265625 52.4140625 C-39.24042549 50.67676746 -40.23701731 49.2752625 -41.75 45.9375 C-42.2776199 41.79191511 -42.0890927 39.59075212 -40.15625 35.8671875 C-37.23041094 32.30488345 -35.18759451 31.77470736 -30.8125 30.5 C-26.55362831 28.99234305 -24.12899963 27.60768227 -21.828125 23.5390625 C-20.4674221 19.74798233 -19.5948283 15.87174942 -18.75 11.9375 C-16.63232382 3.75966537 -16.63232382 3.75966537 -13 0.375 C-8.27658545 -1.71420259 -4.82711253 -1.86502075 0 0 Z " fill="#000000" transform="translate(415.75,79.0625)"/>
<path d="M0 0 C4.93113498 2.91418955 6.21434244 6.44886515 7.625 11.75 C7.83970947 12.46720215 8.05441895 13.1844043 8.27563477 13.92333984 C9.14037816 16.81370603 9.93465187 19.64973405 10.48828125 22.6171875 C10.90262256 24.97571698 10.90262256 24.97571698 13 28 C16.52127624 29.77807018 19.91349202 31.11687112 23.65234375 32.3828125 C27.66967056 34.3235048 29.0066588 36.04811408 31 40 C31.51838561 43.22139632 31.05500141 45.92053642 30 49 C26.12330514 53.47310946 21.84395819 55.0314235 16.26953125 56.8125 C13.18719615 58.42528807 12.44825725 59.83404229 11 63 C9.87761606 66.75800229 9.00054178 70.5768728 8.15820312 74.40625 C6.7226558 80.16764394 5.06685177 82.79353366 0 86 C-2.37890625 86.62890625 -2.37890625 86.62890625 -4.5625 86.5625 C-5.28566406 86.56378906 -6.00882813 86.56507813 -6.75390625 86.56640625 C-10.04142312 85.73738026 -11.63032509 84.42775517 -14 82 C-15.10740647 79.35595974 -15.94712717 76.9875985 -16.6875 74.25 C-16.88666016 73.57195312 -17.08582031 72.89390625 -17.29101562 72.1953125 C-18.10222612 69.39730122 -18.87725989 66.62496425 -19.43896484 63.76489258 C-20.15252542 59.58909554 -20.15252542 59.58909554 -22.953125 56.66796875 C-24.09007813 56.43013672 -24.09007813 56.43013672 -25.25 56.1875 C-26.05179688 55.98382813 -26.85359375 55.78015625 -27.6796875 55.5703125 C-28.82824219 55.28800781 -28.82824219 55.28800781 -30 55 C-34.06715573 53.26769293 -36.9005039 51.9779926 -39 48 C-40.01188611 44.0970107 -40.20373222 41.69268953 -39.0625 37.8125 C-35.99947993 33.63565445 -31.92421396 31.96394979 -27.05883789 30.36010742 C-23.70069317 29.05897556 -21.54963496 28.07995102 -19.87475586 24.7890625 C-19.04257377 22.06210918 -18.39283537 19.353818 -17.8125 16.5625 C-15.27829356 5.09972721 -15.27829356 5.09972721 -10 1 C-6.85154494 -0.57422753 -3.40781928 -0.66928343 0 0 Z " fill="#000000" transform="translate(107,58)"/>
<path d="M0 0 C1.0209375 1.0209375 1.0209375 1.0209375 2.0625 2.0625 C2.74892578 2.743125 2.74892578 2.743125 3.44921875 3.4375 C4.52993899 4.52638689 5.59393227 5.63202294 6.64453125 6.75 C7.21558594 7.348125 7.78664062 7.94625 8.375 8.5625 C9.16003906 9.39974609 9.16003906 9.39974609 9.9609375 10.25390625 C11.80956696 11.83692803 13.51614184 12.92540311 15.62744141 14.10913086 C17.29685791 15.04511108 17.29685791 15.04511108 19 16 C19.04972466 21.81663796 19.08587252 27.63315004 19.10986328 33.44995117 C19.1198729 35.42555906 19.13348469 37.40115231 19.15087891 39.37670898 C19.17535009 42.22904082 19.18653376 45.08117547 19.1953125 47.93359375 C19.20563507 48.80584091 19.21595764 49.67808807 19.22659302 50.57676697 C19.22893851 63.62218247 15.23825945 74.38161682 6.234375 83.9609375 C-2.77149069 92.17957717 -13.06062645 95.55062883 -25.0625 95.1875 C-25.92810547 95.17396484 -26.79371094 95.16042969 -27.68554688 95.14648438 C-29.79064174 95.1115933 -31.89540974 95.05780665 -34 95 C-32.515 94.01 -32.515 94.01 -31 93 C-19.78893372 84.15544877 -11.82401479 72.44795906 -10 58 C-9.80690077 54.08720619 -9.7439479 50.17463148 -9.68359375 46.2578125 C-9.66281265 45.13430389 -9.64203156 44.01079529 -9.62062073 42.85324097 C-9.55542776 39.27722068 -9.49638116 35.70112923 -9.4375 32.125 C-9.394286 29.69530525 -9.3506708 27.2656176 -9.30664062 24.8359375 C-9.19977746 18.89069943 -9.09795573 12.94539114 -9 7 C-9.66 6.67 -10.32 6.34 -11 6 C-7.37 4.02 -3.74 2.04 0 0 Z " fill="#FDBB85" transform="translate(210,238)"/>
<path d="M0 0 C0.78375 0.639375 1.5675 1.27875 2.375 1.9375 C6.5613011 5.22673657 9.7870634 5.41703493 15 5 C16.175625 4.649375 17.35125 4.29875 18.5625 3.9375 C22.46328994 2.8736482 25.05592773 3.32936702 29 4 C29.09990454 9.74335834 29.17195122 15.48619565 29.21972656 21.23022461 C29.23967151 23.17855659 29.26683757 25.12683006 29.30175781 27.07495117 C29.56858981 42.35893082 29.06549993 55.58914086 19 68 C18.51015625 68.61359375 18.0203125 69.2271875 17.515625 69.859375 C11.89221895 76.1509085 3.30984738 81.33725671 -5 83 C-6.51395696 83.07818636 -8.03093507 83.10789909 -9.546875 83.09765625 C-10.39121094 83.09443359 -11.23554688 83.09121094 -12.10546875 83.08789062 C-13.41451172 83.07532227 -13.41451172 83.07532227 -14.75 83.0625 C-15.63816406 83.05798828 -16.52632813 83.05347656 -17.44140625 83.04882812 C-19.62767329 83.037074 -21.81380179 83.02064249 -24 83 C-23.41992188 82.56945312 -22.83984375 82.13890625 -22.2421875 81.6953125 C-11.34535019 73.45624039 -3.64271708 63.77594797 -1 50 C-0.22481427 41.59319444 -0.56959226 33.11607654 -0.75 24.6875 C-0.79996654 21.29674175 -0.84279041 17.9059936 -0.88165283 14.51509094 C-0.90808388 12.41828442 -0.94231236 10.32155898 -0.98504639 8.22502136 C-1.00126038 7.28926773 -1.01747437 6.3535141 -1.03417969 5.3894043 C-1.05148132 4.56337204 -1.06878296 3.73733978 -1.08660889 2.88627625 C-1 1 -1 1 0 0 Z " fill="#FCBB84" transform="translate(340,250)"/>
<path d="M0 0 C9.27026073 -0.33778278 17.1735831 -0.14068822 26 3 C27.26070313 3.41765625 27.26070313 3.41765625 28.546875 3.84375 C35.13431352 6.2168645 40.45153833 9.77813387 46 14 C47.010625 14.721875 48.02125 15.44375 49.0625 16.1875 C56.81700368 22.9066012 62.63436413 32.38214276 66 42 C66.26111572 42.7324292 66.52223145 43.4648584 66.79125977 44.21948242 C69.43446019 52.52857232 69.34554695 60.58437851 69.1875 69.1875 C69.17241277 70.63084527 69.15873157 72.07420596 69.14648438 73.51757812 C69.11382868 77.01204537 69.06227452 80.50592012 69 84 C67.09404917 84.05262869 65.18767434 84.09003564 63.28125 84.12109375 C62.21970703 84.14357178 61.15816406 84.1660498 60.06445312 84.18920898 C56.32577892 83.95837147 53.87098882 82.90132869 50.71875 80.97265625 C48.83336077 79.90569734 47.10078557 79.48752751 45 79 C44.9906543 78.33170166 44.98130859 77.66340332 44.97167969 76.97485352 C44.53776043 52.17977126 41.97584818 30.87701507 23.82421875 12.60546875 C18.15047105 7.37118145 12.21869614 2.22186961 4.375 1.4375 C3.55773437 1.35371094 2.74046875 1.26992187 1.8984375 1.18359375 C1.27195312 1.12300781 0.64546875 1.06242188 0 1 C0 0.67 0 0.34 0 0 Z " fill="#FBCE5A" transform="translate(319,158)"/>
<path d="M0 0 C17.77159823 -0.90748587 35.05070726 3.06705365 48.88964844 14.90991211 C59.69423137 24.70050027 68.05594282 37.29940451 70 52 C70.23231145 57.52437351 70.18967887 63.03489699 70.125 68.5625 C70.11494923 70.06314506 70.10582709 71.56379665 70.09765625 73.06445312 C70.07581091 76.70977281 70.0413969 80.35484376 70 84 C68.25688221 84.05605912 66.51323713 84.09586038 64.76953125 84.12890625 C63.79862549 84.15283447 62.82771973 84.1767627 61.82739258 84.20141602 C55.51998135 83.75209262 51.48948894 79.76285795 47.5 75.1875 C46.65536956 74.1339583 45.81760259 73.07465189 45 72 C45.33 71.34 45.66 70.68 46 70 C47.50280759 51.84312797 42.9884924 33.88191588 31.3515625 19.64453125 C24.35733372 11.55614357 15.91689242 2.25659677 4.75 1.375 C3.85796875 1.30023438 2.9659375 1.22546875 2.046875 1.1484375 C1.03367188 1.07496094 1.03367188 1.07496094 0 1 C0 0.67 0 0.34 0 0 Z " fill="#818181" transform="translate(178,158)"/>
<path d="M0 0 C6.27 0 12.54 0 19 0 C20.0209375 2.041875 20.0209375 2.041875 21.0625 4.125 C24.974305 11.1331915 30.22849205 15.66854761 38 18 C45.86920089 18.98213447 51.94686684 17.44484578 59 14 C60.10021484 13.49339844 60.10021484 13.49339844 61.22265625 12.9765625 C63.57716145 11.68287832 63.91516682 10.44087465 65 8 C66.31542376 5.98817543 67.6459068 3.98600337 69 2 C75.19240462 2.68804496 81.01955594 4.28048715 87 6 C85.65067689 14.81766964 79.8402234 22.48456295 73 28 C64.07271659 34.28765476 55.5058365 37.56993932 44.5625 37.375 C43.72847656 37.36412354 42.89445312 37.35324707 42.03515625 37.34204102 C30.13397307 37.03405141 20.94436884 33.1727723 11.9609375 25.1875 C5.17779737 18.0158981 1.38410535 9.68873742 0 0 Z " fill="#D8F8EA" transform="translate(142,368)"/>
<path d="M0 0 C0.08636719 0.99257813 0.17273438 1.98515625 0.26171875 3.0078125 C2.10916251 21.78240154 8.3162413 35.56838935 22.65625 48.16015625 C24.62803405 49.70800673 26.39740703 50.77696478 28.625 51.875 C29.40875 52.57625 30.1925 53.2775 31 54 C31 57.63 31 61.26 31 65 C19.12 65 7.24 65 -5 65 C-5.06289489 56.97507843 -5.1230004 48.95104828 -5.15525055 40.92609406 C-5.17109854 37.18914761 -5.19227935 33.45240497 -5.22631836 29.71557617 C-5.25889319 26.11700226 -5.27684894 22.51862611 -5.28463173 18.91991615 C-5.29017868 17.54635822 -5.30101052 16.17281122 -5.31719017 14.79933739 C-5.33893676 12.87699293 -5.34022517 10.95444985 -5.34057617 9.03198242 C-5.34723801 7.93722092 -5.35389984 6.84245941 -5.36076355 5.71452332 C-5 3 -5 3 -3.60371399 1.1230011 C-2 0 -2 0 0 0 Z " fill="#F3BA40" transform="translate(268,288)"/>
<path d="M0 0 C1.65 0 3.3 0 5 0 C5 19.14 5 38.28 5 58 C-6.88 58 -18.76 58 -31 58 C-31 47 -31 47 -28.76953125 44.3515625 C-27.79371094 43.78179687 -26.81789063 43.21203125 -25.8125 42.625 C-24.80445313 41.98949219 -23.79640625 41.35398437 -22.7578125 40.69921875 C-21.84773438 40.13847656 -20.93765625 39.57773437 -20 39 C-17.20754907 36.54182045 -17.20754907 36.54182045 -15 34 C-14.54496094 33.56042969 -14.08992188 33.12085938 -13.62109375 32.66796875 C-5.24831454 24.03285704 -1.07254182 11.75418286 0 0 Z " fill="#F8BD42" transform="translate(383,295)"/>
<path d="M0 0 C4.11558929 2.37437844 7.32477015 5.07948668 8.87670898 9.76855469 C9.29034113 12.1026411 9.362851 14.2702445 9.34765625 16.640625 C9.34515869 17.44274414 9.34266113 18.24486328 9.34008789 19.07128906 C9.33098389 20.07901367 9.32187988 21.08673828 9.3125 22.125 C9.291875 25.3425 9.27125 28.56 9.25 31.875 C-1.64 31.875 -12.53 31.875 -23.75 31.875 C-23.8325 28.554375 -23.915 25.23375 -24 21.8125 C-24.03641602 20.77988037 -24.07283203 19.74726074 -24.11035156 18.68334961 C-24.19513681 11.59489281 -22.9846834 7.45597554 -18.14453125 2.09765625 C-12.15337879 -2.29585555 -6.96066142 -2.08819843 0 0 Z " fill="#FCD0A2" transform="translate(38.75,174.125)"/>
<path d="M0 0 C2.375 0.9375 2.375 0.9375 4 3 C4.62606327 5.99237022 4.87206945 8.94885634 5 12 C5.763125 12.061875 6.52625 12.12375 7.3125 12.1875 C10 13 10 13 11.875 15.1875 C13.28003423 18.70008557 13.1453424 20.41126048 12 24 C10.125 26.375 10.125 26.375 8 28 C7.01 28 6.02 28 5 28 C5.061875 28.886875 5.12375 29.77375 5.1875 30.6875 C4.97858694 34.37829746 4.18129404 36.06364264 2 39 C-1.09173752 40.54586876 -3.59429552 40.29359521 -7 40 C-9.4375 38.5 -9.4375 38.5 -11 36 C-11.32111824 33.24154167 -11.18630402 30.79456032 -11 28 C-11.763125 27.896875 -12.52625 27.79375 -13.3125 27.6875 C-17.3772242 26.64768683 -17.3772242 26.64768683 -19 24 C-19.76712329 17.09589041 -19.76712329 17.09589041 -17.25 13.5 C-15 12 -15 12 -11 12 C-11.0825 10.7625 -11.165 9.525 -11.25 8.25 C-11.23373935 5.19299695 -11.10738813 4.171821 -9.4375 1.5 C-6.0761612 -0.56851618 -3.88040089 -0.48505011 0 0 Z " fill="#000000" transform="translate(178,77)"/>
<path d="M0 0 C2.67927341 4.01891012 2.15601248 6.24161923 2 11 C2.94875 11.103125 3.8975 11.20625 4.875 11.3125 C8 12 8 12 10 15 C10.33159028 18.6474931 10.47331403 21.10070334 8.75 24.375 C6.79512082 26.19024496 5.55849344 26.46081337 3 27 C2.91363281 27.61488281 2.82726562 28.22976562 2.73828125 28.86328125 C1.59535673 35.43771865 1.59535673 35.43771865 -1.25 38.125 C-4.72491434 39.23065456 -6.54329466 39.17675075 -10 38 C-13.28740903 35.05863402 -13.95892025 33.62646623 -14.25 29.1875 C-14.1675 28.135625 -14.085 27.08375 -14 26 C-14.763125 25.9175 -15.52625 25.835 -16.3125 25.75 C-19 25 -19 25 -20.875 23.375 C-22.51175762 19.9196228 -21.92777204 17.64481875 -21 14 C-19.6875 12.0625 -19.6875 12.0625 -18 11 C-16.68 11 -15.36 11 -14 11 C-13.96261719 10.38511719 -13.92523438 9.77023438 -13.88671875 9.13671875 C-13.82097656 8.32847656 -13.75523437 7.52023438 -13.6875 6.6875 C-13.62949219 5.88699219 -13.57148438 5.08648437 -13.51171875 4.26171875 C-12.90500435 1.58013375 -12.15637846 0.6646627 -10 -1 C-6.00471255 -2.33176248 -3.90144863 -1.41870859 0 0 Z " fill="#000000" transform="translate(343,38)"/>
<path d="M0 0 C0.66 0 1.32 0 2 0 C2.36351562 1.28583984 2.36351562 1.28583984 2.734375 2.59765625 C5.51609164 12.08758956 7.68684073 19.01452533 16 25 C17.96996343 26.05794332 19.96270075 27.07836462 22 28 C22 28.66 22 29.32 22 30 C20.824375 30.495 19.64875 30.99 18.4375 31.5 C10.28043437 35.6435006 6.51798918 41.98872859 3.7265625 50.484375 C3.10176006 52.64766948 2.52194703 54.80986933 2 57 C1.34 57 0.68 57 0 57 C-0.27972656 56.01 -0.55945313 55.02 -0.84765625 54 C-3.4610122 45.20830552 -5.963545 37.36000446 -14.44921875 32.63671875 C-16.60989736 31.64965835 -18.75528794 30.7736876 -21 30 C-21 29.34 -21 28.68 -21 28 C-20.33613281 27.70867188 -19.67226562 27.41734375 -18.98828125 27.1171875 C-10.2254094 23.04916816 -6.21913638 18.50293177 -2.84765625 9.48046875 C-1.7754754 6.34298101 -0.83691475 3.2081732 0 0 Z " fill="#F8DB73" transform="translate(255,26)"/>
<path d="M0 0 C7.92 0 15.84 0 24 0 C24.061875 2.536875 24.12375 5.07375 24.1875 7.6875 C24.21481201 8.47729248 24.24212402 9.26708496 24.27026367 10.08081055 C24.33633712 15.69989546 23.01646347 18.50580689 19.58203125 22.75390625 C16.50735753 25.17568629 12.79822076 25.21425861 9 25 C4.47506197 22.82132613 2.1179933 20.51224659 0 16 C-0.21118346 13.12508918 -0.28622356 10.54232902 -0.1875 7.6875 C-0.125625 5.150625 -0.06375 2.61375 0 0 Z " fill="#ECA267" transform="translate(174,347)"/>
<path d="M0 0 C7.59 0 15.18 0 23 0 C23.12375 4.0528125 23.12375 4.0528125 23.25 8.1875 C23.28641602 9.02949951 23.32283203 9.87149902 23.36035156 10.73901367 C23.41841372 14.67834344 23.282719 16.55879581 21.09765625 19.96875 C17.92738707 23.03865684 16.07017937 23.83846349 11.6875 24.5 C6.82243874 23.84033068 4.16847663 21.67865507 1 18 C-0.20693821 14.37918537 -0.10782079 11.0749281 -0.0625 7.3125 C-0.041875 4.899375 -0.02125 2.48625 0 0 Z " fill="#F1A66A" transform="translate(314,348)"/>
<path d="M0 0 C9 0 9 0 12.5 2.375 C16.13433025 6.19104676 16.40097885 8.56118913 16.3515625 13.67578125 C15.74999769 17.65279302 13.91523432 19.28353165 11 22 C7.18173872 24.80005827 5.35265319 24 0 24 C0 16.08 0 8.16 0 0 Z " fill="#EDA268" transform="translate(244,257)"/>
<path d="M0 0 C0 7.59 0 15.18 0 23 C-9 23 -9 23 -12.5 21.0625 C-15.74339255 17.08934413 -16.38422861 14.06645636 -16 9 C-14.79416827 5.38250482 -13.6930515 3.59404414 -10.8125 1.125 C-8 0 -8 0 0 0 Z " fill="#F2A66A" transform="translate(128,257)"/>
<path d="M0 0 C8.44827586 0 8.44827586 0 13 3 C15.15049186 5.35860398 15.95414331 6.94911742 16.09375 10.1484375 C15.75663618 15.22200049 14.75931826 18.35460048 11 22 C9 23 9 23 0 23 C0 15.41 0 7.82 0 0 Z " fill="#F3A76A" transform="translate(384,257)"/>
<path d="M0 0 C2 2 2 2 3.75 5.3125 C5.88684277 9.18148048 8.48360108 11.36270081 12 14 C10.71034824 15.37562854 9.37310707 16.70766393 8 18 C7.34 18 6.68 18 6 18 C4.13448574 21.58752742 2.57464072 25.27812193 1 29 C-1 28 -1 28 -2.1875 24.8125 C-3.97634959 20.30310833 -7.19357226 17.84699938 -11 15 C-9.88625 13.948125 -9.88625 13.948125 -8.75 12.875 C-5.05014272 9.00696739 -2.24234825 4.85842121 0 0 Z " fill="#F3D671" transform="translate(409,107)"/>
<path d="M0 0 C2.53986929 1.26993465 2.66204993 2.24054785 3.75 4.8125 C5.78522591 9.12193668 7.96092905 10.61327626 12 13 C12 13.66 12 14.32 12 15 C10.76889406 16.10828777 9.48896151 17.16274562 8.1875 18.1875 C4.24515416 21.50883915 2.58839485 24.13554076 1 29 C-0.07378227 27.3893266 -1.13554812 25.76837917 -2.11328125 24.09765625 C-4.60539162 19.86837449 -6.87417122 16.82913974 -11 14 C-10.31164062 13.48953125 -10.31164062 13.48953125 -9.609375 12.96875 C-4.76228486 9.13995611 -2.44205673 5.66557161 0 0 Z " fill="#F4D771" transform="translate(102,87)"/>
</svg>
