<?xml version="1.0" encoding="UTF-8"?>
<svg version="1.1" xmlns="http://www.w3.org/2000/svg" width="512" height="512">
<path d="M0 0 C2.39641009 1.02259232 4.80324823 2.01675672 7.21264648 3.00830078 C20.50728276 8.55627064 30.117186 13.90844692 35.95678711 27.87158203 C38.94463642 38.02609087 36.59064037 48.86652253 34.57788086 58.95751953 C34.22016602 60.81473633 34.22016602 60.81473633 33.85522461 62.70947266 C33.27181435 65.73153781 32.67922167 68.75148056 32.07788086 71.77001953 C33.27550049 72.69983643 33.27550049 72.69983643 34.49731445 73.6484375 C37.71026172 76.28992394 38.83378781 78.05001501 39.41381836 82.13720703 C39.50303129 87.86467686 39.08067262 91.33449353 35.07788086 95.77001953 C34.25545898 96.13224609 33.43303711 96.49447266 32.58569336 96.86767578 C28.77786227 99.7561707 28.57983348 103.23877288 27.64038086 107.77001953 C23.79865671 123.97558095 15.30296743 136.63293209 1.07788086 145.77001953 C-2.48461914 147.20751953 -2.48461914 147.20751953 -4.92211914 147.77001953 C-3.65595652 153.07056562 -1.92727509 155.13088135 2.63647461 158.05908203 C9.81004468 162.40583481 16.68008219 163.09711406 24.93798828 163.13037109 C27.17334033 163.14523875 29.39748227 163.23514101 31.63061523 163.33251953 C33.06216126 163.36555636 34.49381264 163.3943631 35.92553711 163.41845703 C37.20436768 163.44085449 38.48319824 163.46325195 39.80078125 163.48632812 C43.33876353 163.07351258 43.33876353 163.07351258 45.41577148 159.84375 C45.96426758 158.82941895 46.51276367 157.81508789 47.07788086 156.77001953 C48.82397461 154.94189453 48.82397461 154.94189453 50.51538086 153.52001953 C51.0709668 153.04048828 51.62655273 152.56095703 52.19897461 152.06689453 C56.18114198 149.31828836 59.80574102 148.52676045 64.59350586 148.49658203 C66.2057605 148.46902832 66.2057605 148.46902832 67.85058594 148.44091797 C68.99809326 148.42577148 70.14560059 148.410625 71.32788086 148.39501953 C82.12797201 148.16309097 92.44470171 147.04273618 103.0300293 144.87792969 C107.48623879 144.02824753 110.26822595 143.51163786 114.65209961 144.91064453 C117.1328199 146.81213062 118.18740178 147.80175594 119.07788086 150.77001953 C119.59592104 157.59752339 116.97583838 164.27267586 113.07788086 169.77001953 C108.35331795 174.71288983 103.06986782 177.5151988 96.82788086 180.14501953 C96.02608398 180.49951172 95.22428711 180.85400391 94.39819336 181.21923828 C88.50874476 183.77001953 88.50874476 183.77001953 85.07788086 183.77001953 C85.08787361 185.56287636 85.08787361 185.56287636 85.09806824 187.39195251 C85.15898152 198.67640325 85.20390257 209.96082045 85.23331738 221.24539852 C85.24894837 227.04640005 85.27013991 232.84726844 85.30419922 238.64819336 C85.33688396 244.25029871 85.35475317 249.85227631 85.36251259 255.45446968 C85.36803973 257.58781507 85.37883281 259.72115376 85.39507103 261.8544445 C85.41696628 264.85111271 85.41984271 267.84725834 85.41845703 270.84399414 C85.43463577 272.15599037 85.43463577 272.15599037 85.45114136 273.49449158 C85.4148076 280.79425016 84.16562529 288.19772801 79.07788086 293.77001953 C81.43542447 294.15155567 81.43542447 294.15155567 84.07788086 293.77001953 C85.9680962 291.82459308 85.9680962 291.82459308 87.45288086 289.20751953 C94.66604092 278.24104492 104.53453928 270.59057144 117.46069336 267.26611328 C132.58425521 264.39940827 147.7805178 265.88052304 160.80444336 274.59423828 C174.52095187 285.14061718 181.54074996 297.60210042 184.07788086 314.77001953 C185.73016548 327.52932852 180.62983466 341.511354 172.96850586 351.52783203 C168.49292688 356.69789741 163.69854674 360.90656397 158.07788086 364.77001953 C156.74090373 365.76514261 155.40662443 366.76392893 154.07788086 367.77001953 C155.14006836 368.27791016 156.20225586 368.78580078 157.29663086 369.30908203 C167.07401557 374.0469352 175.5916658 378.72233835 183.07788086 386.77001953 C183.67213867 387.34751953 184.26639648 387.92501953 184.87866211 388.52001953 C200.45077383 404.48521368 203.27633869 425.41418255 203.14038086 446.77001953 C203.13535573 448.13069497 203.13079462 449.4913722 203.12670898 450.85205078 C203.11498555 454.15805964 203.0970521 457.46404547 203.07788086 460.77001953 C208.02788086 460.77001953 212.97788086 460.77001953 218.07788086 460.77001953 C218.40788086 462.42001953 218.73788086 464.07001953 219.07788086 465.77001953 C215.37421519 468.23912998 212.56722569 468.0482725 208.2832489 468.02170181 C207.47702028 468.02460869 206.67079167 468.02751558 205.84013188 468.03051054 C203.11551485 468.03785886 200.39111962 468.03084481 197.66650391 468.02398682 C195.70264667 468.02628934 193.73879029 468.02946446 191.77493572 468.03344131 C186.36033324 468.04182658 180.94580083 468.03764717 175.53119802 468.03146887 C169.69882311 468.02696058 163.86646061 468.03392004 158.03408813 468.03942871 C146.60133167 468.04834177 135.1686014 468.04639221 123.7358439 468.04060343 C114.44770355 468.03609445 105.15957057 468.03547072 95.87142944 468.03765106 C94.55163013 468.03795753 93.23183082 468.03826399 91.87203759 468.03857975 C89.86329029 468.03905561 87.854543 468.03953803 85.8457957 468.04003353 C60.72878492 468.04615541 35.61178845 468.04059845 10.49477987 468.02983974 C-11.83397278 468.0203481 -34.16270263 468.02119733 -56.49145508 468.03076172 C-81.56169962 468.04146444 -106.6319315 468.0457213 -131.702178 468.03953719 C-134.37334124 468.03889573 -137.04450448 468.03827132 -139.71566772 468.03765106 C-141.03007711 468.03734251 -142.3444865 468.03703396 -143.69872648 468.03671606 C-152.98027592 468.03498613 -162.26181729 468.03791062 -171.54336548 468.04261017 C-182.84791239 468.04820797 -194.15243151 468.04672581 -205.45697522 468.03604868 C-211.22939284 468.0307771 -217.00176405 468.0287604 -222.77418137 468.03534698 C-228.05165737 468.04127793 -233.32904368 468.03807887 -238.60651147 468.02739188 C-240.52234316 468.02514566 -242.43818233 468.02632123 -244.35400927 468.03114346 C-246.94527845 468.03716876 -249.53623474 468.03104465 -252.12748718 468.02170181 C-252.88241703 468.02638415 -253.63734688 468.03106648 -254.41515338 468.0358907 C-258.13801835 468.00880793 -259.73995611 467.89146155 -262.92211914 465.77001953 C-262.59211914 464.12001953 -262.26211914 462.47001953 -261.92211914 460.77001953 C-256.97211914 460.77001953 -252.02211914 460.77001953 -246.92211914 460.77001953 C-246.94532227 458.82740234 -246.96852539 456.88478516 -246.99243164 454.88330078 C-247.00636495 452.95353717 -247.02021692 451.02377219 -247.03198242 449.09399414 C-247.04671424 447.13632535 -247.07215612 445.17874635 -247.09790039 443.22119141 C-247.21248371 420.70556859 -241.3204313 401.57823101 -225.92211914 384.77001953 C-219.46412463 378.55205667 -212.06512898 374.45899299 -204.14477539 370.43408203 C-200.89114027 368.82962027 -200.89114027 368.82962027 -197.92211914 366.77001953 C-198.53958008 366.44130859 -199.15704102 366.11259766 -199.79321289 365.77392578 C-212.51911464 358.62650151 -222.29718589 347.61666384 -226.42211914 333.35986328 C-229.46465371 317.60048499 -227.66627967 302.53539014 -218.92211914 288.77001953 C-209.9654786 276.81067383 -198.48165337 269.20973803 -183.79711914 266.45751953 C-178.58038685 265.77044971 -173.70976796 265.83174387 -168.49243164 266.22705078 C-167.76032471 266.2778479 -167.02821777 266.32864502 -166.27392578 266.38098145 C-164.48962387 266.50551844 -162.70581156 266.63703782 -160.92211914 266.77001953 C-160.58180664 265.98916992 -160.24149414 265.20832031 -159.89086914 264.40380859 C-152.22777331 246.83065866 -144.51543916 229.28050386 -136.70019531 211.77441406 C-133.64027943 204.91597069 -130.59849967 198.05218257 -127.64086914 191.14892578 C-127.14482178 189.9977124 -126.64877441 188.84649902 -126.13769531 187.66040039 C-125.23605541 185.56201277 -124.34230584 183.46020755 -123.45849609 181.35424805 C-120.01948575 173.37264873 -116.28145953 167.44867899 -108.17407227 163.68603516 C-100.17062267 161.43161001 -91.33276103 162.34114967 -83.09155273 162.6015625 C-71.77981457 162.91392244 -63.68469083 162.03471937 -54.38793945 155.20068359 C-51.76580966 152.61593862 -51.14502604 151.38624291 -50.92211914 147.77001953 C-51.72649414 147.58439453 -52.53086914 147.39876953 -53.35961914 147.20751953 C-66.53834215 141.88978919 -75.67737287 129.63276083 -81.10961914 116.95751953 C-82.65012232 112.98993787 -83.49023554 109.06935955 -84.29711914 104.89501953 C-85.3063743 99.85653133 -85.3063743 99.85653133 -88.92211914 96.27001953 C-89.91211914 95.77501953 -90.90211914 95.28001953 -91.92211914 94.77001953 C-95.34375691 90.8921634 -95.36636755 87.10369092 -95.21899414 82.13720703 C-94.8356898 79.08085923 -93.78204078 77.20222475 -91.92211914 74.77001953 C-90.53681053 73.0963349 -90.53681053 73.0963349 -89.92211914 70.77001953 C-90.60350978 68.2459116 -91.37040413 65.94989621 -92.29711914 63.52001953 C-96.19072601 52.20629928 -96.67160185 41.30897303 -92.09008789 30.00439453 C-90.92211914 27.77001953 -90.92211914 27.77001953 -89.39868164 25.78173828 C-87.74621641 23.53036369 -87.00014996 21.47158119 -86.10961914 18.83251953 C-83.2181588 11.54518589 -79.14810975 9.19057696 -72.23461914 6.08251953 C-69.47172416 4.95130208 -66.70526912 3.84921114 -63.92211914 2.77001953 C-62.35905029 2.1623877 -62.35905029 2.1623877 -60.7644043 1.54248047 C-57.19751671 0.16578701 -53.62386836 -1.19162686 -50.04711914 -2.54248047 C-48.88220947 -2.98744873 -47.7172998 -3.43241699 -46.51708984 -3.89086914 C-29.31830419 -10.289929 -16.42091677 -7.02378068 0 0 Z M-122.92211914 328.77001953 C-124.90211914 333.72001953 -126.88211914 338.67001953 -128.92211914 343.77001953 C-134.39010692 353.07723277 -140.34901657 359.2337524 -149.78540039 364.50830078 C-152.03559816 365.71727233 -152.03559816 365.71727233 -153.92211914 367.77001953 C-152.70588867 368.29789062 -152.70588867 368.29789062 -151.46508789 368.83642578 C-130.57500681 378.15062957 -116.8070367 390.56315295 -107.92211914 411.77001953 C-103.92829589 423.02158365 -103.6993646 434.46074479 -103.35961914 446.27001953 C-103.31634177 447.67888426 -103.27272483 449.0877386 -103.22875977 450.49658203 C-103.12321343 453.92097413 -103.02110116 457.34543245 -102.92211914 460.77001953 C-99.95211914 460.77001953 -96.98211914 460.77001953 -93.92211914 460.77001953 C-93.90753662 459.94501953 -93.8929541 459.12001953 -93.87792969 458.27001953 C-93.35503022 431.78137373 -92.42311879 407.54032684 -73.48461914 387.14501953 C-72.63899414 386.36126953 -71.79336914 385.57751953 -70.92211914 384.77001953 C-70.36137695 384.22732422 -69.80063477 383.68462891 -69.22290039 383.12548828 C-61.6000407 376.02834305 -52.44861132 371.76879403 -42.92211914 367.77001953 C-45.61498818 365.70325774 -48.36666182 363.83350587 -51.23461914 362.02001953 C-63.93376375 353.52616543 -68.39597133 343.13800385 -73.92211914 328.77001953 C-90.09211914 328.77001953 -106.26211914 328.77001953 -122.92211914 328.77001953 Z M30.07788086 328.77001953 C28.09788086 333.72001953 26.11788086 338.67001953 24.07788086 343.77001953 C18.60989308 353.07723277 12.65098343 359.2337524 3.21459961 364.50830078 C0.96440184 365.71727233 0.96440184 365.71727233 -0.92211914 367.77001953 C0.2006543 368.26630859 1.32342773 368.76259766 2.48022461 369.27392578 C13.14050308 374.07676451 22.03432843 379.0914498 30.07788086 387.77001953 C30.59737305 388.27275391 31.11686523 388.77548828 31.65209961 389.29345703 C46.86788177 404.95374519 49.01731175 426.10781109 49.64038086 446.83251953 C49.68367713 448.18864969 49.72729452 449.54476964 49.77124023 450.90087891 C49.87660196 454.19050624 49.97873038 457.48020012 50.07788086 460.77001953 C53.04788086 460.77001953 56.01788086 460.77001953 59.07788086 460.77001953 C59.09246338 459.94501953 59.1070459 459.12001953 59.12207031 458.27001953 C59.640248 432.02056617 60.54157375 407.19628628 79.23803711 386.51611328 C88.21276451 377.99869683 98.62553792 372.23871959 110.07788086 367.77001953 C107.38501182 365.70325774 104.63333818 363.83350587 101.76538086 362.02001953 C89.06623625 353.52616543 84.60402867 343.13800385 79.07788086 328.77001953 C62.90788086 328.77001953 46.73788086 328.77001953 30.07788086 328.77001953 Z " fill="#413879" transform="translate(277.922119140625,15.22998046875)"/>
<path d="M0 0 C2.24331234 1.69198981 4.37912832 3.44929999 6.4921875 5.30078125 C7.41451172 6.09935547 7.41451172 6.09935547 8.35546875 6.9140625 C19.31700881 17.09784362 23.9438128 30.10728244 27.4921875 44.30078125 C27.4921875 55.52078125 27.4921875 66.74078125 27.4921875 78.30078125 C-15.4078125 78.30078125 -58.3078125 78.30078125 -102.5078125 78.30078125 C-102.5078125 36.67539351 -102.5078125 36.67539351 -96.8203125 26.11328125 C-96.46654541 25.43402588 -96.11277832 24.75477051 -95.74829102 24.05493164 C-92.86914188 18.66803267 -89.60638261 13.8442308 -85.5078125 9.30078125 C-85.00121094 8.70265625 -84.49460937 8.10453125 -83.97265625 7.48828125 C-62.98657826 -15.61187339 -24.88936783 -16.86429128 0 0 Z " fill="#F36275" transform="translate(446.5078125,397.69921875)"/>
<path d="M0 0 C1.52620972 0.00845947 1.52620972 0.00845947 3.08325195 0.01708984 C19.21878813 0.27802798 32.51147852 5.64376164 44.6875 16.3125 C45.60982422 17.11107422 45.60982422 17.11107422 46.55078125 17.92578125 C57.9253029 28.4932415 63.1894982 42.32448918 65.6875 57.3125 C65.6875 67.8725 65.6875 78.4325 65.6875 89.3125 C22.7875 89.3125 -20.1125 89.3125 -64.3125 89.3125 C-64.3125 38.45721477 -64.3125 38.45721477 -45.859375 18.765625 C-32.47523622 5.87415391 -18.40197518 -0.10651933 0 0 Z " fill="#62BBE6" transform="translate(102.3125,386.6875)"/>
<path d="M0 0 C2.24331234 1.69198981 4.37912832 3.44929999 6.4921875 5.30078125 C7.41451172 6.09935547 7.41451172 6.09935547 8.35546875 6.9140625 C19.4000344 17.17497826 25.65357371 31.5918709 27.4921875 46.30078125 C27.4921875 56.86078125 27.4921875 67.42078125 27.4921875 78.30078125 C-15.4078125 78.30078125 -58.3078125 78.30078125 -102.5078125 78.30078125 C-102.5078125 26.45402644 -102.5078125 26.45402644 -83.55859375 7.1640625 C-61.10980477 -14.52941297 -25.85293151 -17.51717322 0 0 Z " fill="#F7AE23" transform="translate(293.5078125,397.69921875)"/>
<path d="M0 0 C0.79481277 0.00141495 1.58962555 0.0028299 2.40852356 0.00428772 C4.9455645 0.00988247 7.482517 0.02243397 10.01953125 0.03515625 C11.7402331 0.04017193 13.46093633 0.04473472 15.18164062 0.04882812 C19.39847155 0.05985018 23.61523641 0.07711119 27.83203125 0.09765625 C29.37277232 2.83695003 30.88595983 5.59053464 32.39453125 8.34765625 C33.05098633 9.51361328 33.05098633 9.51361328 33.72070312 10.703125 C34.12998047 11.45722656 34.53925781 12.21132812 34.9609375 12.98828125 C35.3432251 13.67954102 35.7255127 14.37080078 36.11938477 15.08300781 C36.99613132 17.5615664 36.82757329 18.68433474 35.83203125 21.09765625 C33.26953125 23.34765625 33.26953125 23.34765625 30.83203125 25.09765625 C31.35818567 29.78021406 32.59928762 32.87431247 35.0859375 36.859375 C36.10965454 38.51972778 36.10965454 38.51972778 37.15405273 40.21362305 C37.90076422 41.40420605 38.64759311 42.59471543 39.39453125 43.78515625 C40.94271033 46.28274653 42.48464083 48.78418096 44.02734375 51.28515625 C44.42277878 51.92398239 44.81821381 52.56280853 45.22563171 53.22099304 C48.02392484 57.75127772 50.75584629 62.31679858 53.44921875 66.91015625 C53.81564987 67.53436966 54.18208099 68.15858307 54.55961609 68.80171204 C55.9810694 71.22569477 57.40092174 73.65054032 58.81228638 76.08041382 C59.78189863 77.74889242 60.75797697 79.41360836 61.734375 81.078125 C62.28601318 82.02582764 62.83765137 82.97353027 63.40600586 83.94995117 C64.6538687 86.21597381 64.6538687 86.21597381 66.83203125 87.09765625 C66.83203125 90.72765625 66.83203125 94.35765625 66.83203125 98.09765625 C65.59839844 98.44376953 65.59839844 98.44376953 64.33984375 98.796875 C54.05762603 101.80080235 45.36329604 105.60647652 36.83203125 112.09765625 C36.66767578 111.01097656 36.66767578 111.01097656 36.5 109.90234375 C35.14178217 101.62052774 33.45565211 95.69093608 26.83203125 90.09765625 C19.39283054 85.60093858 12.559614 84.9236313 4.01953125 84.53515625 C3.13587891 84.49197266 2.25222656 84.44878906 1.34179688 84.40429688 C-0.82796498 84.29874089 -2.99794785 84.19774554 -5.16796875 84.09765625 C-4.55630274 80.51466613 -3.58862796 77.42653241 -2.14257812 74.09545898 C-1.72544556 73.12773056 -1.30831299 72.16000214 -0.87854004 71.16294861 C-0.42748901 70.12948807 0.02356201 69.09602753 0.48828125 68.03125 C0.95061157 66.96020523 1.41294189 65.88916046 1.88928223 64.78565979 C3.36561492 61.36682097 4.84830884 57.95079385 6.33203125 54.53515625 C7.81512347 51.11568463 9.2967785 47.69561616 10.77478027 44.27394104 C11.69426389 42.14574745 12.61677319 40.01885803 13.54260254 37.89341736 C14.16830139 36.44655296 14.16830139 36.44655296 14.80664062 34.97045898 C15.17446655 34.12394272 15.54229248 33.27742645 15.92126465 32.40525818 C16.74785856 30.3109239 17.3484475 28.29332645 17.83203125 26.09765625 C16.51203125 25.76765625 15.19203125 25.43765625 13.83203125 25.09765625 C6.85796213 40.14523597 0.25077629 55.3335758 -6.25219727 70.58911133 C-6.57051514 71.33568497 -6.88883301 72.08225861 -7.21679688 72.85145569 C-7.81966621 74.26629276 -8.42183108 75.68143028 -9.02319336 77.09690857 C-11.05944307 81.88060488 -11.05944307 81.88060488 -12.16796875 84.09765625 C-22.56296875 84.59265625 -22.56296875 84.59265625 -33.16796875 85.09765625 C-33.49796875 86.74765625 -33.82796875 88.39765625 -34.16796875 90.09765625 C-19.97796875 90.09765625 -5.78796875 90.09765625 8.83203125 90.09765625 C8.83203125 102.30765625 8.83203125 114.51765625 8.83203125 127.09765625 C3.008149 127.37461763 -2.7926725 127.61268233 -8.61791992 127.75683594 C-10.59429519 127.81691697 -12.57014284 127.89861835 -14.54467773 128.00292969 C-30.53790714 128.82619963 -30.53790714 128.82619963 -34.91021729 125.9526062 C-38.12527363 122.80812821 -40.04184559 119.00419916 -42.16796875 115.09765625 C-47.43881169 109.45285342 -53.30507414 105.5517488 -60.16796875 102.09765625 C-57.97924021 94.95950323 -55.10782998 88.28928349 -51.98660278 81.51168823 C-50.429729 78.12978935 -48.88820111 74.74092454 -47.34765625 71.3515625 C-47.0167952 70.62397232 -46.68593414 69.89638214 -46.345047 69.14674377 C-43.67840725 63.26434444 -41.07377074 57.35596297 -38.48828125 51.4375 C-37.89530998 50.08073654 -37.89530998 50.08073654 -37.2903595 48.69656372 C-35.72060084 45.10200559 -34.1521348 41.50691329 -32.59078979 37.90869141 C-18.86510416 6.27842047 -18.86510416 6.27842047 -11.16796875 1.09765625 C-7.40948701 -0.155171 -3.91305956 -0.0261621 0 0 Z " fill="#CCCCCD" transform="translate(183.16796875,183.90234375)"/>
<path d="M0 0 C9.73082958 6.95983158 18.03107148 16.87947915 26.45263672 25.32226562 C29.01806202 27.89310011 31.58885194 30.45848451 34.16015625 33.0234375 C35.794592 34.6585332 37.42871797 36.29393861 39.0625 37.9296875 C39.83013672 38.69529999 40.59777344 39.46091248 41.38867188 40.24972534 C42.45118164 41.31696335 42.45118164 41.31696335 43.53515625 42.40576172 C44.157854 43.02925507 44.78055176 43.65274841 45.42211914 44.2951355 C48.67544024 47.8102752 49.2604625 50.23545622 49.4609375 54.96484375 C48.74134716 58.14201803 47.65605388 59.07958714 45 61 C41.57256812 61.50110472 38.20444079 61.37579196 34.75 61.25 C33.34621094 61.22292969 33.34621094 61.22292969 31.9140625 61.1953125 C29.60832985 61.14825673 27.30469055 61.08253713 25 61 C25.00888245 61.91819519 25.01776489 62.83639038 25.0269165 63.78240967 C25.10705421 72.43420505 25.16796026 81.08587584 25.20724869 89.737957 C25.22812638 94.18614277 25.25644702 98.63402194 25.30175781 103.08203125 C25.34520957 107.37439234 25.36913574 111.66645848 25.37950897 115.95902252 C25.3869016 117.59692275 25.40133775 119.23480677 25.42292023 120.87258148 C25.45194647 123.16638609 25.45595651 125.45897106 25.45410156 127.75292969 C25.46298401 129.05864929 25.47186646 130.3643689 25.48101807 131.70965576 C25 135 25 135 23.28289795 137.41960144 C20.61247882 139.26827214 19.24262683 139.51041179 16.01953125 139.53344727 C14.53779419 139.55720177 14.53779419 139.55720177 13.02612305 139.58143616 C11.96562744 139.57647629 10.90513184 139.57151642 9.8125 139.56640625 C8.71784424 139.57260483 7.62318848 139.57880341 6.49536133 139.58518982 C4.18213796 139.59229034 1.8688635 139.58911001 -0.44433594 139.57641602 C-3.98728247 139.56254977 -7.52758906 139.59662155 -11.0703125 139.63476562 C-13.31770898 139.63571679 -15.56510877 139.63385814 -17.8125 139.62890625 C-18.87299561 139.64216446 -19.93349121 139.65542267 -21.02612305 139.66908264 C-22.01394775 139.65654953 -23.00177246 139.64401642 -24.01953125 139.63110352 C-24.88682861 139.63014175 -25.75412598 139.62917999 -26.64770508 139.62818909 C-30.16736355 138.68825123 -31.17435575 137.09911109 -33 134 C-33.48101807 130.62736511 -33.48101807 130.62736511 -33.45410156 126.73120117 C-33.45468567 126.01846039 -33.45526978 125.3057196 -33.45587158 124.57138062 C-33.4530967 122.22807194 -33.42203554 119.8860537 -33.390625 117.54296875 C-33.38316043 115.91344396 -33.37746851 114.28391016 -33.37347412 112.65437317 C-33.35823466 108.37487812 -33.31896791 104.09593002 -33.2746582 99.81665039 C-33.23366876 95.44620156 -33.2154553 91.07566396 -33.1953125 86.70507812 C-33.15247156 78.13646835 -33.08424127 69.5683023 -33 61 C-34.97033203 61.08701172 -34.97033203 61.08701172 -36.98046875 61.17578125 C-38.71611023 61.22269048 -40.45179023 61.26818939 -42.1875 61.3125 C-43.05181641 61.35439453 -43.91613281 61.39628906 -44.80664062 61.43945312 C-49.36033357 61.52668862 -51.34002599 61.50443874 -55.06640625 58.65625 C-57 56 -57 56 -57.75 53.1875 C-55.81875361 44.97970284 -46.21478239 38.06823652 -40.41796875 32.28515625 C-39.07488396 30.94063637 -39.07488396 30.94063637 -37.70466614 29.56895447 C-35.82589224 27.68950398 -33.94616009 25.81107813 -32.06469727 23.93432617 C-29.65258227 21.52795724 -27.24505193 19.11705876 -24.83878613 16.70484257 C-22.53426977 14.39585567 -20.2259604 12.09066856 -17.91796875 9.78515625 C-17.05342575 8.91858902 -16.18888275 8.05202179 -15.29814148 7.15919495 C-14.50003555 6.36424118 -13.70192963 5.56928741 -12.87963867 4.75024414 C-12.17683273 4.0482338 -11.47402679 3.34622345 -10.74992371 2.62294006 C-7.53294709 -0.36059586 -4.22703056 -1.14864961 0 0 Z " fill="#F5AE24" transform="translate(433,27)"/>
<path d="M0 0 C9.99071535 6.80859368 15.92830339 16.34488979 19.87109375 27.72265625 C22.1816212 42.52714697 19.04566876 56.12501638 10.3671875 68.3046875 C2.83190514 77.36533066 -8.11234296 83.71371546 -19.94238281 84.97753906 C-29.22213553 85.60835594 -37.54297323 85.40070047 -45.8125 80.75 C-46.63878906 80.3375 -47.46507812 79.925 -48.31640625 79.5 C-59.1485536 73.6787544 -65.48193625 65.07207631 -69.8125 53.75 C-70.17859375 52.9971875 -70.5446875 52.244375 -70.921875 51.46875 C-74.43192358 40.75386485 -72.13244832 27.62382253 -67.37109375 17.765625 C-60.94919955 5.78603582 -51.35700543 -1.97503456 -38.48828125 -6.390625 C-24.83538618 -9.58258772 -11.9511127 -7.08634498 0 0 Z " fill="#706F70" transform="translate(434.8125,295.25)"/>
<path d="M0 0 C9.79773341 6.74481648 16.67950526 16.69885853 19.8046875 28.265625 C21.68208444 42.82689883 19.28852338 56.34493648 10.33984375 68.09375 C2.30718468 77.67545068 -7.41987712 83.6595597 -20.05664062 84.97753906 C-29.32489493 85.60249769 -37.61452185 85.39561161 -45.875 80.75 C-46.70128906 80.3375 -47.52757812 79.925 -48.37890625 79.5 C-60.42331389 73.02728017 -66.75495408 63.11013776 -70.98046875 50.43359375 C-74.26030331 36.92755013 -71.61273993 24.80080564 -64.625 13 C-49.91896358 -8.90327034 -22.0757197 -13.12529185 0 0 Z " fill="#6F6F70" transform="translate(281.875,295.25)"/>
<path d="M0 0 C3.40591373 1.3590751 6.53906187 3.17416031 9.75 4.9375 C22.24461994 11.29521737 34.45365355 11.26116332 48.23291016 10.83984375 C51.11007703 11.00637114 52.62718236 11.39740597 55 13 C56.9451 15.91765 57.45276317 17.62537285 58 21 C60.64 21.33 63.28 21.66 66 22 C66.35952098 38.45807175 64.1971711 51.78287465 53.25 64.9375 C48.75350951 69.5986019 43.68841654 72.95037669 38 76 C37.21625 76.43570313 36.4325 76.87140625 35.625 77.3203125 C25.24982902 82.0755992 9.58067606 82.02689202 -1.1875 78.4375 C-3.62890625 77.31640625 -3.62890625 77.31640625 -6 76 C-6.91652344 75.51402344 -7.83304688 75.02804688 -8.77734375 74.52734375 C-19.26789267 68.44023512 -26.33731773 60.1417508 -31 49 C-31.52787109 47.80310547 -31.52787109 47.80310547 -32.06640625 46.58203125 C-34.09175248 40.98055067 -34.13152992 35.4978534 -34.0625 29.625 C-34.05798828 28.88894531 -34.05347656 28.15289062 -34.04882812 27.39453125 C-34.03715142 25.59631842 -34.01922011 23.79814803 -34 22 C-32.93136719 21.94199219 -31.86273438 21.88398437 -30.76171875 21.82421875 C-26.16906604 20.81793659 -25.33962542 19.67353079 -22.8125 15.8125 C-22.14089844 14.81734375 -21.46929687 13.8221875 -20.77734375 12.796875 C-19.78139436 11.22962278 -18.79015714 9.65926507 -17.81640625 8.078125 C-13.37865331 0.9335269 -8.07206984 -1.1854144 0 0 Z " fill="#F6AD23" transform="translate(234,81)"/>
<path d="M0 0 C1.01723145 0.3904248 2.03446289 0.78084961 3.08251953 1.18310547 C6.45615454 2.4813485 9.78959214 3.85672836 13.125 5.25 C14.25292969 5.70246094 15.38085938 6.15492187 16.54296875 6.62109375 C26.03772814 10.58557223 33.8671257 15.32512691 38.05322266 25.07910156 C41.15832589 34.6586413 38.48431535 45.64005548 36.625 55.25 C36.40328125 56.45140625 36.1815625 57.6528125 35.953125 58.890625 C34.76004077 65.29117096 33.45701458 71.65449723 32 78 C30.35 78 28.7 78 27 78 C26.5875 77.071875 26.175 76.14375 25.75 75.1875 C23.43895513 70.97809685 21.50298268 69.50099423 17 68 C15.01094904 67.95397713 13.02046948 67.96195157 11.03125 68 C-5.32535302 68.06135096 -16.91628141 66.34115452 -31 58 C-34.05416813 56.98194396 -36.17936961 56.86624485 -39.375 56.875 C-40.31085938 56.87242188 -41.24671875 56.86984375 -42.2109375 56.8671875 C-44.90729747 56.99558559 -47.37271509 57.39811291 -50 58 C-52.62720674 52.68983678 -53.51914944 48.52699303 -53.4375 42.625 C-53.43210205 41.87839111 -53.4267041 41.13178223 -53.42114258 40.36254883 C-53.23189082 33.49487929 -51.56597989 28.35551216 -47.375 22.875 C-45.7453113 20.92474589 -45.7453113 20.92474589 -45.3125 17.6875 C-43.15822659 11.63501757 -38.67346273 8.4127693 -33.06860352 5.45092773 C-29.78883174 3.98132657 -26.48119287 2.65994241 -23.125 1.375 C-21.44470703 0.66923828 -21.44470703 0.66923828 -19.73046875 -0.05078125 C-11.97110959 -3.06579478 -7.55919424 -3.35504355 0 0 Z " fill="#6F6F6F" transform="translate(269,19)"/>
<path d="M0 0 C4.41661151 -0.05804281 8.83312496 -0.09361104 13.25 -0.125 C14.50425781 -0.14175781 15.75851562 -0.15851563 17.05078125 -0.17578125 C18.25605469 -0.18222656 19.46132813 -0.18867188 20.703125 -0.1953125 C22.36843262 -0.21102295 22.36843262 -0.21102295 24.06738281 -0.22705078 C26.93950942 -0.00468334 28.57223735 0.50718425 31 2 C31 4.64 31 7.28 31 10 C29.68 10.66 28.36 11.32 27 12 C26.88393128 25.12634581 26.79519552 38.25256866 26.74093914 51.37932396 C26.71489311 57.47523557 26.67958552 63.57079497 26.62280273 69.66650391 C26.56830606 75.55392524 26.53854192 81.44100869 26.52561378 87.32866287 C26.51640566 89.57006775 26.49842438 91.81145503 26.47134972 94.0527153 C26.43482563 97.20269872 26.43006452 100.3513023 26.43237305 103.50146484 C26.40540848 104.8781987 26.40540848 104.8781987 26.37789917 106.28274536 C26.4325899 113.22113543 28.53870624 118.05003672 32 124 C32.33 124.66 32.66 125.32 33 126 C15.32574538 127.80529886 15.32574538 127.80529886 10.20703125 123.83203125 C8.28977048 120.96602288 6.65987587 118.02049528 5 115 C-5.59209209 102.81495656 -20.56783783 99.13121307 -36 98 C-37.02348847 87.01107379 -35.05864197 80.51045788 -29.0625 71.375 C-28.34513359 70.2290821 -27.6310892 69.0810787 -26.92016602 67.93115234 C-25.42286391 65.51966533 -23.90930806 63.11975811 -22.37988281 60.72851562 C-18.72533299 55.01363455 -15.14211586 49.25526804 -11.5866394 43.47833252 C-10.45386446 41.65139261 -9.30159041 39.83793679 -8.14672852 38.02490234 C-7.45764404 36.9158252 -6.76855957 35.80674805 -6.05859375 34.6640625 C-5.44298584 33.68904785 -4.82737793 32.7140332 -4.19311523 31.70947266 C-2.80082008 28.54767777 -2.80695642 27.20996124 -4 24 C-6.45633073 21.68392126 -6.45633073 21.68392126 -9 20 C-8.40440894 15.13127946 -6.27522585 11.40671159 -3.9375 7.1875 C-3.56044922 6.49462891 -3.18339844 5.80175781 -2.79492188 5.08789062 C-1.86916148 3.38871015 -0.93537688 1.69390575 0 0 Z " fill="#CDCDCD" transform="translate(289,184)"/>
<path d="M0 0 C0.98291016 0.00322266 1.96582031 0.00644531 2.97851562 0.00976562 C4.51475586 0.02233398 4.51475586 0.02233398 6.08203125 0.03515625 C7.11779297 0.03966797 8.15355469 0.04417969 9.22070312 0.04882812 C11.77870391 0.06061615 14.33658858 0.0770711 16.89453125 0.09765625 C16.53391602 0.51926025 16.17330078 0.94086426 15.80175781 1.37524414 C10.83570586 7.53963993 7.79583656 14.32441253 4.64453125 21.53515625 C4.05388564 22.86600806 3.46239055 24.19648313 2.87011719 25.52661133 C1.22926466 29.22047098 -0.39728115 32.92046643 -2.02001953 36.62231445 C-3.17040673 39.2457458 -4.32323972 41.86809232 -5.4765625 44.49023438 C-8.73670224 51.90358707 -11.9966239 59.3170066 -15.23925781 66.73803711 C-15.61473755 67.59665344 -15.99021729 68.45526978 -16.3770752 69.33990479 C-17.08297672 70.95462185 -17.78802451 72.56971251 -18.49206543 74.1852417 C-18.96537292 75.26760101 -18.96537292 75.26760101 -19.44824219 76.37182617 C-19.72134216 76.99780197 -19.99444214 77.62377777 -20.27581787 78.26872253 C-20.54960266 78.87227066 -20.82338745 79.47581879 -21.10546875 80.09765625 C-21.53959076 81.17972099 -21.53959076 81.17972099 -21.98248291 82.28364563 C-22.35306824 82.88226913 -22.72365356 83.48089264 -23.10546875 84.09765625 C-26.73046875 84.84765625 -26.73046875 84.84765625 -30.10546875 85.09765625 C-30.43546875 86.74765625 -30.76546875 88.39765625 -31.10546875 90.09765625 C-16.91546875 90.09765625 -2.72546875 90.09765625 11.89453125 90.09765625 C11.89453125 102.30765625 11.89453125 114.51765625 11.89453125 127.09765625 C6.070649 127.37461763 0.2698275 127.61268233 -5.55541992 127.75683594 C-7.53179519 127.81691697 -9.50764284 127.89861835 -11.48217773 128.00292969 C-27.47540714 128.82619963 -27.47540714 128.82619963 -31.84771729 125.9526062 C-35.06277363 122.80812821 -36.97934559 119.00419916 -39.10546875 115.09765625 C-44.37631169 109.45285342 -50.24257414 105.5517488 -57.10546875 102.09765625 C-54.91674021 94.95950323 -52.04532998 88.28928349 -48.92410278 81.51168823 C-47.367229 78.12978935 -45.82570111 74.74092454 -44.28515625 71.3515625 C-43.9542952 70.62397232 -43.62343414 69.89638214 -43.282547 69.14674377 C-40.61590725 63.26434444 -38.01127074 57.35596297 -35.42578125 51.4375 C-34.83280998 50.08073654 -34.83280998 50.08073654 -34.2278595 48.69656372 C-32.65810084 45.10200559 -31.0896348 41.50691329 -29.52828979 37.90869141 C-15.80260416 6.27842047 -15.80260416 6.27842047 -8.10546875 1.09765625 C-5.10530963 0.09760321 -3.13123119 -0.0180996 0 0 Z " fill="#ACACAE" transform="translate(180.10546875,183.90234375)"/>
<path d="M0 0 C3.52728642 1.74213537 6.7648036 3.76604575 10 6 C10.64066406 6.44214844 11.28132813 6.88429688 11.94140625 7.33984375 C20.27434146 13.77130381 26.30426927 24.66199247 28 35 C28.99188871 50.27890108 26.11775372 62.82630598 16.3125 74.6875 C10.25860153 81.2202379 2.54127596 85.57997181 -6 88 C-14.53257517 87.3781929 -21.23240349 81.18739582 -26.875 75.125 C-35.28389695 64.80499011 -38.99015627 52.18374738 -38 39 C-37.93039063 38.04222656 -37.86078125 37.08445312 -37.7890625 36.09765625 C-36.43196576 24.62264938 -30.58088444 13.76702736 -22 6 C-19.10574851 3.80351373 -16.1418908 1.82357433 -13 0 C-12.33613281 -0.39445312 -11.67226562 -0.78890625 -10.98828125 -1.1953125 C-7.20025611 -2.72838358 -3.7136533 -1.32298899 0 0 Z " fill="#6F6F6F" transform="translate(121,291)"/>
<path d="M0 0 C11.55 0 23.1 0 35 0 C35.09046699 12.37866805 35.16381197 24.75711554 35.20724869 37.13603973 C35.22809899 42.88443817 35.25637035 48.63259816 35.30175781 54.38085938 C35.34530612 59.93109981 35.36915634 65.48111127 35.37950897 71.0315094 C35.38688416 73.1461599 35.40128621 75.26079826 35.42292023 77.37535095 C35.45207321 80.34360569 35.45595098 83.31092138 35.45410156 86.27929688 C35.47567322 87.58265991 35.47567322 87.58265991 35.49768066 88.91235352 C35.45857616 94.73505787 34.27811721 99.13491156 31 104 C25.95659467 108.79738555 21.61230761 109.42526201 14.859375 109.3359375 C10.41492731 108.81377561 7.06414911 107.27570506 4 104 C0.20706175 98.14166012 -0.56789792 93.15489185 -0.45410156 86.27929688 C-0.45468567 85.34178589 -0.45526978 84.4042749 -0.45587158 83.43835449 C-0.45310304 80.36476555 -0.42206918 77.2921678 -0.390625 74.21875 C-0.38315824 72.07784556 -0.37746736 69.93693425 -0.37347412 67.79602051 C-0.35825213 62.18006289 -0.31899972 56.5645236 -0.2746582 50.94873047 C-0.23363143 45.21066953 -0.21544729 39.47254055 -0.1953125 33.734375 C-0.15250219 22.48937061 -0.08218024 11.24478566 0 0 Z " fill="#CDCDCD" transform="translate(321,201)"/>
<path d="M0 0 C3.48972003 1.49530324 5.73465395 3.49191662 8.40136719 6.17431641 C9.2619574 7.03505768 10.12254761 7.89579895 11.00921631 8.78262329 C11.92914368 9.71287323 12.84907104 10.64312317 13.796875 11.6015625 C14.75479097 12.56321086 15.71315114 13.52441694 16.67193604 14.48519897 C19.18835125 17.00923282 21.69870107 19.53921591 24.20782471 22.07049561 C26.77162441 24.6547919 29.34112918 27.23340199 31.91015625 29.8125 C36.94569457 34.86945697 41.9748456 39.93272256 47 45 C46.67 45.99 46.34 46.98 46 48 C38.74 48.33 31.48 48.66 24 49 C23.67 74.08 23.34 99.16 23 125 C14.09 125 5.18 125 -4 125 C-4 100.58 -4 76.16 -4 51 C3.26 50.67 10.52 50.34 18 50 C19.27134596 48.91868778 19.27134596 48.91868778 19.47265625 46.38427734 C18.77521712 41.39052669 15.99344619 39.23969815 12.4375 35.8515625 C11.77161865 35.19417084 11.1057373 34.53677917 10.41967773 33.85946655 C8.29346783 31.76679397 6.14734253 29.69596055 4 27.625 C2.55332388 26.20842251 1.10799408 24.79046867 -0.3359375 23.37109375 C-3.87521109 19.89790941 -7.43249006 16.44416518 -11 13 C-9.30413874 9.36696916 -7.26199512 7.05450954 -4.375 4.25 C-3.55773437 3.45078125 -2.74046875 2.6515625 -1.8984375 1.828125 C-0.95871094 0.92320313 -0.95871094 0.92320313 0 0 Z " fill="#F6D123" transform="translate(429,34)"/>
<path d="M0 0 C9.73082958 6.95983158 18.03107148 16.87947915 26.45263672 25.32226562 C29.01806202 27.89310011 31.58885194 30.45848451 34.16015625 33.0234375 C35.794592 34.6585332 37.42871797 36.29393861 39.0625 37.9296875 C39.83013672 38.69529999 40.59777344 39.46091248 41.38867188 40.24972534 C42.45118164 41.31696335 42.45118164 41.31696335 43.53515625 42.40576172 C44.157854 43.02925507 44.78055176 43.65274841 45.42211914 44.2951355 C48.67544024 47.8102752 49.2604625 50.23545622 49.4609375 54.96484375 C48.74134716 58.14201803 47.65605388 59.07958714 45 61 C41.57256812 61.50110472 38.20444079 61.37579196 34.75 61.25 C33.34621094 61.22292969 33.34621094 61.22292969 31.9140625 61.1953125 C29.60832985 61.14825673 27.30469055 61.08253713 25 61 C25.00888245 61.91819519 25.01776489 62.83639038 25.0269165 63.78240967 C25.10705421 72.43420505 25.16796026 81.08587584 25.20724869 89.737957 C25.22812638 94.18614277 25.25644702 98.63402194 25.30175781 103.08203125 C25.34520957 107.37439234 25.36913574 111.66645848 25.37950897 115.95902252 C25.3869016 117.59692275 25.40133775 119.23480677 25.42292023 120.87258148 C25.45194647 123.16638609 25.45595651 125.45897106 25.45410156 127.75292969 C25.46298401 129.05864929 25.47186646 130.3643689 25.48101807 131.70965576 C25 135 25 135 23.28289795 137.41960144 C20.61247882 139.26827214 19.24262683 139.51041179 16.01953125 139.53344727 C14.53779419 139.55720177 14.53779419 139.55720177 13.02612305 139.58143616 C11.96562744 139.57647629 10.90513184 139.57151642 9.8125 139.56640625 C8.71784424 139.57260483 7.62318848 139.57880341 6.49536133 139.58518982 C4.18213796 139.59229034 1.8688635 139.58911001 -0.44433594 139.57641602 C-3.98728247 139.56254977 -7.52758906 139.59662155 -11.0703125 139.63476562 C-13.31770898 139.63571679 -15.56510877 139.63385814 -17.8125 139.62890625 C-18.87299561 139.64216446 -19.93349121 139.65542267 -21.02612305 139.66908264 C-22.01394775 139.65654953 -23.00177246 139.64401642 -24.01953125 139.63110352 C-24.88682861 139.63014175 -25.75412598 139.62917999 -26.64770508 139.62818909 C-30.16736355 138.68825123 -31.17435575 137.09911109 -33 134 C-33.48101807 130.62736511 -33.48101807 130.62736511 -33.45410156 126.73120117 C-33.45468567 126.01846039 -33.45526978 125.3057196 -33.45587158 124.57138062 C-33.4530967 122.22807194 -33.42203554 119.8860537 -33.390625 117.54296875 C-33.38316043 115.91344396 -33.37746851 114.28391016 -33.37347412 112.65437317 C-33.35823466 108.37487812 -33.31896791 104.09593002 -33.2746582 99.81665039 C-33.23366876 95.44620156 -33.2154553 91.07566396 -33.1953125 86.70507812 C-33.15247156 78.13646835 -33.08424127 69.5683023 -33 61 C-34.97033203 61.08701172 -34.97033203 61.08701172 -36.98046875 61.17578125 C-38.71611023 61.22269048 -40.45179023 61.26818939 -42.1875 61.3125 C-43.05181641 61.35439453 -43.91613281 61.39628906 -44.80664062 61.43945312 C-49.36033357 61.52668862 -51.34002599 61.50443874 -55.06640625 58.65625 C-57 56 -57 56 -57.75 53.1875 C-55.81875361 44.97970284 -46.21478239 38.06823652 -40.41796875 32.28515625 C-39.07488396 30.94063637 -39.07488396 30.94063637 -37.70466614 29.56895447 C-35.82589224 27.68950398 -33.94616009 25.81107813 -32.06469727 23.93432617 C-29.65258227 21.52795724 -27.24505193 19.11705876 -24.83878613 16.70484257 C-22.53426977 14.39585567 -20.2259604 12.09066856 -17.91796875 9.78515625 C-17.05342575 8.91858902 -16.18888275 8.05202179 -15.29814148 7.15919495 C-14.50003555 6.36424118 -13.70192963 5.56928741 -12.87963867 4.75024414 C-12.17683273 4.0482338 -11.47402679 3.34622345 -10.74992371 2.62294006 C-7.53294709 -0.36059586 -4.22703056 -1.14864961 0 0 Z M-9.35791016 10.06738281 C-10.25869293 10.95540588 -11.15947571 11.84342896 -12.08755493 12.75836182 C-13.07179482 13.73954442 -14.05562077 14.72114241 -15.0390625 15.703125 C-16.04496521 16.70260454 -17.05101985 17.7019312 -18.05722046 18.70111084 C-20.16738875 20.79928781 -22.2733641 22.90157553 -24.37695312 25.00634766 C-27.07498831 27.70458606 -29.78651037 30.3888111 -32.50181007 33.06966019 C-34.58468711 35.13031357 -36.65842396 37.19997957 -38.72968674 39.27230072 C-39.72564243 40.26589341 -40.72484952 41.25623784 -41.727314 42.24326324 C-43.12795171 43.62433704 -44.51476457 45.01938943 -45.90087891 46.41503906 C-46.69426666 47.20557678 -47.48765442 47.9961145 -48.30508423 48.81060791 C-50.40810079 51.06569613 -50.40810079 51.06569613 -50 55 C-42.41 55.33 -34.82 55.66 -27 56 C-26.67 81.41 -26.34 106.82 -26 133 C-18.760625 133.020625 -11.52125 133.04125 -4.0625 133.0625 C-0.63049194 133.07615601 -0.63049194 133.07615601 2.87084961 133.09008789 C4.67301372 133.09300695 6.4751785 133.09555553 8.27734375 133.09765625 C9.22226685 133.10277222 10.16718994 133.10788818 11.14074707 133.11315918 C12.03394653 133.11328003 12.927146 133.11340088 13.84741211 133.11352539 C14.62684677 133.115746 15.40628143 133.11796661 16.20933533 133.12025452 C18.02366535 133.19571386 18.02366535 133.19571386 19 132 C19.12486954 129.62798453 19.18600052 127.28359657 19.20532227 124.90991211 C19.21522186 124.16849472 19.22512146 123.42707733 19.23532104 122.66319275 C19.26702466 120.20127607 19.29172826 117.73934007 19.31640625 115.27734375 C19.33696814 113.57482895 19.3579644 111.87231935 19.37937927 110.16981506 C19.43467899 105.68012691 19.48405328 101.19039208 19.53222656 96.70062256 C19.58238406 92.12263822 19.63810008 87.54472197 19.69335938 82.96679688 C19.80103753 73.97792049 19.9019475 64.98898654 20 56 C27.26 55.67 34.52 55.34 42 55 C42.40810079 51.06569613 42.40810079 51.06569613 40.30508423 48.81060791 C39.51169647 48.02007019 38.71830872 47.22953247 37.90087891 46.41503906 C37.00640045 45.51440735 36.111922 44.61377563 35.19033813 43.68585205 C34.20277131 42.71207943 33.21483721 41.73867918 32.2265625 40.765625 C31.22171403 39.76316063 30.21760362 38.75995594 29.21420288 37.75604248 C27.11018645 35.65515388 24.99962111 33.56115519 22.88378906 31.47216797 C20.16751168 28.78991409 17.46463114 26.0946374 14.76607704 23.39456558 C12.69407706 21.3231085 10.61691288 19.25689789 8.53794479 17.19243622 C7.53916765 16.20003674 6.54160892 15.20640949 5.54527664 14.21155548 C4.15450977 12.82510867 2.75638816 11.4460512 1.35791016 10.06738281 C0.56293121 9.28002747 -0.23204773 8.49267212 -1.05111694 7.68145752 C-4.85468192 4.39981734 -6.27867463 7.01767618 -9.35791016 10.06738281 Z " fill="#3F3678" transform="translate(433,27)"/>
<path d="M0 0 C121.44 0 242.88 0 368 0 C368 1.98 368 3.96 368 6 C365.27310034 7.36344983 363.12911538 7.12539193 360.07476807 7.12584114 C358.80406338 7.12844889 357.53335869 7.13105664 356.2241478 7.13374341 C354.80079891 7.13158101 353.37745017 7.12932434 351.95410156 7.12698364 C350.45237312 7.12813481 348.95064496 7.1297223 347.44891739 7.13171089 C343.30711686 7.13590485 339.16533923 7.13381321 335.02353859 7.13072467 C330.56268784 7.12847106 326.10184116 7.13194998 321.64099121 7.13470459 C312.89619458 7.1391617 304.15140651 7.13818608 295.40660954 7.13529195 C288.302363 7.13303769 281.19811886 7.13272549 274.09387207 7.13381577 C273.084489 7.133969 272.07510594 7.13412223 271.03513551 7.13428011 C268.98488204 7.13459982 266.93462857 7.13492403 264.8843751 7.1352527 C245.63880974 7.13810732 226.39324915 7.13482075 207.14768457 7.12945233 C190.61798525 7.12498431 174.08829295 7.12576025 157.55859375 7.13037109 C138.38400532 7.13571717 119.20942107 7.13783263 100.034832 7.13475883 C97.99193064 7.13444027 95.94902929 7.1341259 93.90612793 7.13381577 C92.39823082 7.13358435 92.39823082 7.13358435 90.85987115 7.13334826 C83.76046159 7.13248321 76.66105466 7.13394574 69.56164551 7.13629532 C60.91515108 7.13909389 52.26866574 7.13835384 43.62217236 7.13301457 C39.20682462 7.13037834 34.79149205 7.1293712 30.37614441 7.13266373 C26.33971975 7.13562827 22.30332442 7.13403121 18.26690245 7.12868617 C16.80125695 7.12756267 15.33560902 7.12815171 13.86996508 7.13056196 C11.88838902 7.13357244 9.9068061 7.12990774 7.92523193 7.12584114 C6.82132992 7.12567879 5.7174279 7.12551644 4.58007431 7.12534916 C2 7 2 7 0 6 C0 4.02 0 2.04 0 0 Z " fill="#3E3678" transform="translate(72,498)"/>
<path d="M0 0 C0.83144531 0.00902344 1.66289063 0.01804687 2.51953125 0.02734375 C4.55481337 0.0507378 6.58994564 0.08660275 8.625 0.125 C8.625 0.785 8.625 1.445 8.625 2.125 C8.05652344 2.41632813 7.48804688 2.70765625 6.90234375 3.0078125 C-5.51600292 9.60052409 -12.76618311 18.48468998 -17.6640625 31.796875 C-18.72282391 35.26402776 -19.20768274 38.51094725 -19.375 42.125 C-19.43816406 42.94484375 -19.50132813 43.7646875 -19.56640625 44.609375 C-20.17759778 58.25274723 -14.54010148 71.16784758 -5.48828125 81.203125 C-2.16500306 84.22540387 1.58778453 86.43589818 5.46484375 88.6796875 C6.17769531 89.15664063 6.89054687 89.63359375 7.625 90.125 C7.625 90.785 7.625 91.445 7.625 92.125 C-3.44779747 92.67863987 -12.44723741 92.75122827 -22.375 87.125 C-23.58736328 86.45597656 -23.58736328 86.45597656 -24.82421875 85.7734375 C-34.72899141 79.75321915 -41.59376681 70.80361246 -45.12109375 59.796875 C-48.54663599 45.52771974 -46.53831052 33.04094999 -39.3125 20.5 C-33.47872773 11.76807962 -25.26514154 5.56427445 -15.375 2.125 C-14.05048828 1.58552734 -14.05048828 1.58552734 -12.69921875 1.03515625 C-8.39156462 -0.14426022 -4.43966835 -0.09205054 0 0 Z " fill="#5A5A5B" transform="translate(103.375,287.875)"/>
<path d="M0 0 C16.31612747 -0.69594857 29.21780467 1.61041698 41.99609375 12.73828125 C51.56453264 22.69031012 55.35512694 34.80589512 55.14453125 48.25 C54.67639312 60.39628664 49.59391962 71.23070539 41.1875 80.03515625 C29.45020045 90.57776638 16.13932228 92.69164417 1 92 C1 91.34 1 90.68 1 90 C2.64821091 88.89721874 4.34610625 87.86833689 6.0625 86.875 C16.60836595 80.28552166 23.68061807 70.11956867 27.4375 58.1875 C30.36746868 42.61586871 26.86069104 28.98790765 18 16 C13.53543299 9.49448806 6.98323305 5.49161652 0 2 C0 1.34 0 0.68 0 0 Z " fill="#9C9C9D" transform="translate(400,288)"/>
<path d="M0 0 C19.78268967 -0.59348069 35.63034146 2.53296844 51 16 C51.92232422 16.79857422 51.92232422 16.79857422 52.86328125 17.61328125 C63.99468916 27.95487751 71.63436018 43.93742418 72.24072266 59.15991211 C72.32922742 63.69127434 72.26336759 68.21893915 72.1875 72.75 C72.17241303 74.33332048 72.15873178 75.91665501 72.14648438 77.5 C72.11640612 81.33397544 72.05763883 85.1659502 72 89 C63.42 89 54.84 89 46 89 C45.97421875 86.88722656 45.9484375 84.77445312 45.921875 82.59765625 C45.51301989 57.16911044 43.57110387 35.4013195 25.05078125 15.953125 C17.79746893 9.03499347 8.95147185 4.37627513 0 0 Z " fill="#F38775" transform="translate(402,387)"/>
<path d="M0 0 C-2.64311962 1.76207974 -5.24440004 3.17337441 -8.0625 4.625 C-25.19774442 13.96122156 -36.63836336 28.21789698 -42.1875 46.87109375 C-44.50511456 55.49721871 -44.66819275 64.05570601 -44.75 72.9375 C-44.7782535 74.50719287 -44.80819342 76.07685632 -44.83984375 77.64648438 C-44.91565901 81.4312621 -44.95719776 85.21414193 -45 89 C-53.58 89 -62.16 89 -71 89 C-71.04626338 84.62554045 -71.08597973 80.25195195 -71.10986328 75.87744141 C-71.11983431 74.39368796 -71.13341605 72.90995371 -71.15087891 71.42626953 C-71.38590996 50.92326612 -66.89807959 33.76749768 -52.546875 18.453125 C-36.49990246 2.99683857 -21.3479611 -0.41452352 0 0 Z " fill="#6276E6" transform="translate(109,387)"/>
<path d="M0 0 C-0.33 7.26 -0.66 14.52 -1 22 C2.63 22 6.26 22 10 22 C10.66 22.66 11.32 23.32 12 24 C11.46428571 27.53571429 11.46428571 27.53571429 10 29 C8.14712498 29.07226502 6.29166122 29.0838122 4.4375 29.0625 C3.42558594 29.05347656 2.41367188 29.04445313 1.37109375 29.03515625 C0.19740234 29.01775391 0.19740234 29.01775391 -1 29 C-1 29.66 -1 30.32 -1 31 C-0.05125 30.95875 0.8975 30.9175 1.875 30.875 C5 31 5 31 7 33 C7.36962413 35.88306818 7.4200394 37.39094287 5.75 39.8125 C4 41 4 41 0 41 C5.24675509 55.72668759 12.0467986 69.23568293 26.859375 76.37890625 C29.22114095 77.33628877 31.57585611 78.21602155 34 79 C34 79.33 34 79.66 34 80 C9.71000311 80.83570189 9.71000311 80.83570189 1 76 C0.08347656 75.51402344 -0.83304688 75.02804688 -1.77734375 74.52734375 C-12.26789267 68.44023512 -19.33731773 60.1417508 -24 49 C-24.52787109 47.80310547 -24.52787109 47.80310547 -25.06640625 46.58203125 C-27.09175248 40.98055067 -27.13152992 35.4978534 -27.0625 29.625 C-27.05798828 28.88894531 -27.05347656 28.15289062 -27.04882812 27.39453125 C-27.03715142 25.59631842 -27.01922011 23.79814803 -27 22 C-25.93136719 21.94199219 -24.86273438 21.88398437 -23.76171875 21.82421875 C-19.16906604 20.81793659 -18.33962542 19.67353079 -15.8125 15.8125 C-15.14089844 14.81734375 -14.46929687 13.8221875 -13.77734375 12.796875 C-12.78139436 11.22962278 -11.79015714 9.65926507 -10.81640625 8.078125 C-8.38952746 4.17095085 -4.9453022 0 0 0 Z " fill="#F46F24" transform="translate(227,81)"/>
<path d="M0 0 C1.83984375 1.53979492 1.83984375 1.53979492 3 3 C2.24904053 3.27150879 1.49808105 3.54301758 0.72436523 3.82275391 C-2.71048267 5.07463107 -6.13633761 6.34955395 -9.5625 7.625 C-10.74392578 8.05167969 -11.92535156 8.47835938 -13.14257812 8.91796875 C-23.75564416 12.73102014 -23.75564416 12.73102014 -30.94604492 20.96069336 C-31.41605941 22.24262788 -31.84846029 23.53874594 -32.25 24.84375 C-33.39404559 28.13288107 -35.16275899 31.02108737 -36.9140625 34.01953125 C-40.59683375 40.7359522 -40.04273948 51.50167038 -38.328125 58.8984375 C-37.47915924 61.23197512 -37.47915924 61.23197512 -36 64 C-36.99 64.7425 -37.98 65.485 -39 66.25 C-43.43238978 70.00396277 -46.29883069 74.62345435 -49.3984375 79.48828125 C-51 82 -51 82 -52 83 C-53.66617115 83.04063832 -55.33388095 83.042721 -57 83 C-58.26536863 79.22867534 -59.52873714 75.45668715 -60.7902832 71.68408203 C-61.21942565 70.40167295 -61.64910727 69.11944415 -62.0793457 67.83740234 C-62.69885857 65.99103915 -63.31625088 64.14396488 -63.93359375 62.296875 C-64.30540771 61.18666992 -64.67722168 60.07646484 -65.06030273 58.93261719 C-67.79927202 50.38481281 -68.42703819 43.10281831 -64.25 34.875 C-63.69957031 33.88113281 -63.14914063 32.88726562 -62.58203125 31.86328125 C-60.82081582 28.67569875 -59.46564181 25.42620945 -58.15234375 22.03515625 C-54.70582502 15.94825369 -49.65692537 13.62100861 -43.4375 11.23046875 C-42.60976074 10.90460281 -41.78202148 10.57873688 -40.92919922 10.24299622 C-39.18023848 9.55983411 -37.42853178 8.88366533 -35.67431641 8.21411133 C-33.02600586 7.19748308 -30.39435064 6.14434573 -27.76171875 5.08789062 C-9.39225001 -2.10590678 -9.39225001 -2.10590678 0 0 Z " fill="#5A5A5B" transform="translate(256,14)"/>
<path d="M0 0 C12.87 0 25.74 0 39 0 C39 11.55 39 23.1 39 35 C33.328125 35.103125 27.65625 35.20625 21.8125 35.3125 C20.03077393 35.35802002 18.24904785 35.40354004 16.41333008 35.45043945 C14.99041625 35.46505167 13.56748143 35.47779061 12.14453125 35.48828125 C11.04933167 35.526651 11.04933167 35.526651 9.93200684 35.5657959 C5.97568308 35.56916298 4.24116832 35.19660573 1.13549805 32.66479492 C-4.68197603 25.40542262 -5.90444007 21.34588075 -5 12 C-3.35 8.04 -1.7 4.08 0 0 Z " fill="#CDCDCD" transform="translate(153,275)"/>
<path d="M0 0 C0.495 0.495 0.495 0.495 1 1 C0.63121928 8.25268757 -1.13748286 12.41070403 -6.66015625 17.40625 C-23.13974461 30.75090381 -43.06364846 28.89764506 -63 28 C-63.05437341 26.25816277 -63.09296129 24.51582865 -63.125 22.7734375 C-63.14820313 21.80325684 -63.17140625 20.83307617 -63.1953125 19.83349609 C-62.82918769 14.52194039 -60.29712997 11.0594472 -56.40966797 7.57421875 C-50.23900425 3.23071697 -44.48326365 3.33734731 -37.125 3.375 C-27.32664974 3.23760273 -18.08192139 2.52051169 -8.4765625 0.62109375 C-5.53277202 0.09518062 -2.97402184 -0.21720384 0 0 Z " fill="#F5AD24" transform="translate(389,166)"/>
<path d="M0 0 C18.15 0 36.3 0 55 0 C54.34 2.64 53.68 5.28 53 8 C52.67 12.29 52.34 16.58 52 21 C35.83 21 19.66 21 3 21 C2.67 16.71 2.34 12.42 2 8 C1.34 5.36 0.68 2.72 0 0 Z " fill="#61B8E3" transform="translate(305,316)"/>
<path d="M0 0 C18.15 0 36.3 0 55 0 C54.34 2.64 53.68 5.28 53 8 C52.67 12.29 52.34 16.58 52 21 C35.83 21 19.66 21 3 21 C2.67 16.71 2.34 12.42 2 8 C1.34 5.36 0.68 2.72 0 0 Z " fill="#61B8E3" transform="translate(152,316)"/>
<path d="M0 0 C1.06541016 0.24339111 1.06541016 0.24339111 2.15234375 0.49169922 C5.02175497 1.00388322 7.65038738 1.1293457 10.5625 1.1328125 C11.60664063 1.13410156 12.65078125 1.13539063 13.7265625 1.13671875 C14.80679688 1.13285156 15.88703125 1.12898437 17 1.125 C18.62035156 1.13080078 18.62035156 1.13080078 20.2734375 1.13671875 C21.83964844 1.13478516 21.83964844 1.13478516 23.4375 1.1328125 C24.85869141 1.13112061 24.85869141 1.13112061 26.30859375 1.12939453 C28.96758753 1.00155829 31.40832307 0.59206413 34 0 C34.25254176 6.66078897 33.36701736 12.73707652 32 19.25 C31.82855469 20.2296875 31.65710938 21.209375 31.48046875 22.21875 C30.01596179 29.13500222 30.01596179 29.13500222 27.18774414 31.54296875 C21.51204615 34.52368808 16.12301548 35.1836033 9.9453125 33.41015625 C7.30949359 32.22349089 5.38123992 30.89794579 4.23046875 28.1875 C3.69126689 25.80273732 3.35754427 23.41868183 3 21 C2.46982623 18.80968614 1.92753161 16.62228096 1.375 14.4375 C0.21095471 9.45374833 -0.29993701 5.09892911 0 0 Z " fill="#F6AD23" transform="translate(233,165)"/>
<path d="M0 0 C4.10958767 1.45044271 7.43258745 3.51110752 11 6 C6.28880745 17.58489972 6.28880745 17.58489972 3.625 22.4375 C1.82456822 25.76467426 1.82456822 25.76467426 1.9375 28.75 C3.35226621 31.74597551 5.30769637 33.13609749 8 35 C6.5694549 40.06133075 4.33709545 43.95826735 1.5 48.3125 C-2.80064472 55.0319094 -6.8926602 61.84732309 -10.86328125 68.7668457 C-11.88270753 70.52663859 -12.93759663 72.26581431 -14 74 C-14.33 74 -14.66 74 -15 74 C-14.25978899 67.34606018 -13.08916386 60.82046377 -11.8125 54.25 C-11.5961792 53.12907959 -11.3798584 52.00815918 -11.15698242 50.85327148 C-9.25026337 41.07617895 -7.18497272 31.33539566 -5.0559082 21.60449219 C-3.71067077 15.43590934 -2.47478472 9.27289591 -1.4362793 3.04467773 C-1 1 -1 1 0 0 Z " fill="#6E6E70" transform="translate(272,176)"/>
<path d="M0 0 C0.1858667 0.96486328 0.3717334 1.92972656 0.56323242 2.92382812 C5.07295591 26.35977555 5.07295591 26.35977555 9.8125 49.75 C10.00674561 50.68650391 10.20099121 51.62300781 10.40112305 52.58789062 C11.23659599 56.56528485 12.11540042 60.5170759 13.12890625 64.453125 C13.87625147 67.49612706 14.19397441 69.89640936 14 73 C9.8164831 68.21446482 6.80588514 62.78376903 3.625 57.3125 C2.513351 55.4125672 1.40137355 53.51282653 0.2890625 51.61328125 C-0.24944336 50.68209473 -0.78794922 49.7509082 -1.34277344 48.79150391 C-2.46266418 46.90511163 -3.62373524 45.04265837 -4.82128906 43.20458984 C-5.3881543 42.32625488 -5.95501953 41.44791992 -6.5390625 40.54296875 C-7.31950928 39.37350708 -7.31950928 39.37350708 -8.11572266 38.18041992 C-9 36 -9 36 -8.28662109 33.82543945 C-6.78882662 31.70039025 -5.15342648 30.43561765 -3 29 C-3.56002831 23.43527426 -5.6345243 19.0732061 -8.0625 14.125 C-8.43955078 13.34125 -8.81660156 12.5575 -9.20507812 11.75 C-10.12993234 9.83004947 -11.06403978 7.914561 -12 6 C-4.640625 -1.546875 -4.640625 -1.546875 0 0 Z " fill="#6E6E70" transform="translate(229,177)"/>
<path d="M0 0 C7.91348974 1.13049853 7.91348974 1.13049853 11.25 4.25 C12.21679688 5.12398438 12.21679688 5.12398438 13.203125 6.015625 C18.31175282 11.65732703 18.52619044 16.18470662 18.34765625 23.61328125 C17.74588829 29.47544777 15.40805367 32.82488954 11.25 36.9375 C8 39 8 39 0 39 C0 26.13 0 13.26 0 0 Z " fill="#F3AB25" transform="translate(198,272)"/>
<path d="M0 0 C13.53 0 27.06 0 41 0 C41.495 2.475 41.495 2.475 42 5 C38.19656251 7.53562499 35.12494726 7.28836535 30.71875 7.265625 C29.9088562 7.26753845 29.0989624 7.2694519 28.26452637 7.27142334 C26.55313811 7.27278361 24.84173949 7.26909816 23.13037109 7.26074219 C20.50985552 7.25004025 17.89002548 7.2606426 15.26953125 7.2734375 C13.60676932 7.27211588 11.94400782 7.26955343 10.28125 7.265625 C9.49681519 7.26967346 8.71238037 7.27372192 7.9041748 7.27789307 C4.0749462 7.24486246 2.26184318 7.17456212 -1 5 C-0.67 3.35 -0.34 1.7 0 0 Z " fill="#3E3678" transform="translate(455,498)"/>
<path d="M0 0 C13.53 0 27.06 0 41 0 C41.495 2.475 41.495 2.475 42 5 C38.19656251 7.53562499 35.12494726 7.28836535 30.71875 7.265625 C29.9088562 7.26753845 29.0989624 7.2694519 28.26452637 7.27142334 C26.55313811 7.27278361 24.84173949 7.26909816 23.13037109 7.26074219 C20.50985552 7.25004025 17.89002548 7.2606426 15.26953125 7.2734375 C13.60676932 7.27211588 11.94400782 7.26955343 10.28125 7.265625 C9.49681519 7.26967346 8.71238037 7.27372192 7.9041748 7.27789307 C4.0749462 7.24486246 2.26184318 7.17456212 -1 5 C-0.67 3.35 -0.34 1.7 0 0 Z " fill="#3E3678" transform="translate(16,498)"/>
<path d="M0 0 C4.95 0.99 4.95 0.99 10 2 C10 17.18 10 32.36 10 48 C9.67 48 9.34 48 9 48 C8.75092896 46.7013501 8.75092896 46.7013501 8.49682617 45.37646484 C7.86618227 42.09221663 7.23417722 38.80823591 6.60131836 35.52441406 C6.33028462 34.11663761 6.05975762 32.70876348 5.78979492 31.30078125 C4.15296599 22.76610528 2.44035114 14.26142224 0.54418945 5.77978516 C0 3 0 3 0 0 Z " fill="#C8C8CB" transform="translate(240,203)"/>
<path d="M0 0 C0.63292969 0.15339844 1.26585937 0.30679688 1.91796875 0.46484375 C6.04026849 1.18062964 10.13766507 1.36150163 14.3125 1.5625 C15.14845703 1.60568359 15.98441406 1.64886719 16.84570312 1.69335938 C18.89696935 1.79885307 20.9484648 1.89987315 23 2 C23 2.33 23 2.66 23 3 C18.71 3 14.42 3 10 3 C10 12.57 10 22.14 10 32 C7.525 31.01 7.525 31.01 5 30 C3.875 26.1875 3.875 26.1875 3.46875 23.765625 C2.93327975 20.60635054 2.1554737 17.54494159 1.375 14.4375 C0.21095471 9.45374833 -0.29993701 5.09892911 0 0 Z " fill="#EE6E27" transform="translate(233,165)"/>
<path d="M0 0 C4.875 0.875 4.875 0.875 6 2 C10.01657143 2.22918242 10.01657143 2.22918242 14 2 C14.66 1.34 15.32 0.68 16 0 C18.625 0.375 18.625 0.375 21 1 C20.74310052 4.16842693 20.41729253 5.60962957 18.0625 7.8125 C13.6637544 9.51813605 9.65808433 9.70577035 5 9 C2.59657598 7.90494882 1.04308984 6.7204967 -1 5 C-0.67 3.35 -0.34 1.7 0 0 Z " fill="#4A3D73" transform="translate(240,140)"/>
<path d="M0 0 C-0.66979104 7.32150894 -2.01670597 14.37910423 -3.5625 21.5625 C-3.79646484 22.66658203 -4.03042969 23.77066406 -4.27148438 24.90820312 C-4.84381062 27.60631255 -5.42006002 30.30351875 -6 33 C-6.33 33 -6.66 33 -7 33 C-7 22.77 -7 12.54 -7 2 C-2 0 -2 0 0 0 Z " fill="#C6C5C9" transform="translate(260,203)"/>
<path d="M0 0 C1.56125851 0.00399299 3.12251789 0.01875614 4.68359375 0.04296875 C5.47701172 0.04361328 6.27042969 0.04425781 7.08789062 0.04492188 C12.98083853 0.09021353 12.98083853 0.09021353 14.12109375 1.23046875 C14.12109375 2.88046875 14.12109375 4.53046875 14.12109375 6.23046875 C7.85109375 6.23046875 1.58109375 6.23046875 -4.87890625 6.23046875 C-5.20890625 4.91046875 -5.53890625 3.59046875 -5.87890625 2.23046875 C-3.87890625 0.23046875 -3.87890625 0.23046875 0 0 Z " fill="#4E3F72" transform="translate(266.87890625,102.76953125)"/>
<path d="M0 0 C6.27 0 12.54 0 19 0 C19.33 1.32 19.66 2.64 20 4 C19 5 19 5 17.14233398 5.11352539 C16.35157471 5.10828857 15.56081543 5.10305176 14.74609375 5.09765625 C13.89208984 5.09443359 13.03808594 5.09121094 12.15820312 5.08789062 C11.26037109 5.07951172 10.36253906 5.07113281 9.4375 5.0625 C8.53580078 5.05798828 7.63410156 5.05347656 6.70507812 5.04882812 C4.46998686 5.03700225 2.23502563 5.0205222 0 5 C0 3.35 0 1.7 0 0 Z " fill="#403678" transform="translate(219,104)"/>
<path d="M0 0 C3 0.25 3 0.25 5 2.25 C5.36487512 5.09602594 5.40199375 6.6364306 3.8125 9.0625 C1.3864306 10.65199375 -0.15397406 10.61487512 -3 10.25 C-5 8.25 -5 8.25 -5.25 5.25 C-4.90584825 1.120179 -4.129821 0.34415175 0 0 Z " fill="#493B74" transform="translate(229,111.75)"/>
<path d="M0 0 C3 0.25 3 0.25 5 2.25 C5.3125 5.25 5.3125 5.25 5 8.25 C2 10.25 2 10.25 -0.5625 10 C-3 9.25 -3 9.25 -5 7.25 C-5.25 4.75 -5.25 4.75 -5 2.25 C-3 0.25 -3 0.25 0 0 Z " fill="#483B74" transform="translate(271,111.75)"/>
<path d="M0 0 C1.65 0.33 3.3 0.66 5 1 C5 4.96 5 8.92 5 13 C3.35 13.33 1.7 13.66 0 14 C-1 13 -1 13 -1.1328125 10.3125 C-1.13023437 9.219375 -1.12765625 8.12625 -1.125 7 C-1.12757813 5.906875 -1.13015625 4.81375 -1.1328125 3.6875 C-1 1 -1 1 0 0 Z " fill="#443976" transform="translate(248,118)"/>
<path d="M0 0 C3 1 3 1 4 3 C4.375 5.875 4.375 5.875 4 9 C1.5 11.375 1.5 11.375 -1 13 C-1.02708567 11.39592672 -1.04643483 9.7917215 -1.0625 8.1875 C-1.07410156 7.29417969 -1.08570313 6.40085937 -1.09765625 5.48046875 C-1 3 -1 3 0 0 Z " fill="#DE9E2E" transform="translate(307,94)"/>
<path d="M0 0 C2.26562673 2.26562673 2.94462749 3.84160705 3.09765625 7.04296875 C3.06510417 9.02864583 3.03255208 11.01432292 3 13 C0.5 11.375 0.5 11.375 -2 9 C-2.58763244 4.8865729 -2.33043558 3.49565336 0 0 Z " fill="#DF682E" transform="translate(191,94)"/>
</svg>
