<?xml version="1.0" encoding="UTF-8"?>
<svg version="1.1" xmlns="http://www.w3.org/2000/svg" width="512" height="512">
<path d="M0 0 C2.00363106 1.43612862 3.85335761 2.963246 5.71484375 4.578125 C6.71257812 5.36316406 6.71257812 5.36316406 7.73046875 6.1640625 C18.89353059 15.23937613 25.10406052 27.40731055 26.71484375 41.578125 C26.98534517 46.12116173 26.94524247 50.17821917 25.71484375 54.578125 C26.37484375 54.248125 27.03484375 53.918125 27.71484375 53.578125 C49.64568711 51.46805963 66.61068156 62.14690866 83.90234375 74.078125 C85.232219 74.98917824 86.56255264 75.89956269 87.89331055 76.80932617 C89.98562472 78.23980435 92.07760903 79.6707388 94.16798401 81.10404968 C99.40624665 84.69380518 104.66847289 88.24656662 109.94140625 91.78515625 C111.47375509 92.81504332 113.00606337 93.84499074 114.53833008 94.875 C116.75728584 96.3664896 118.97691673 97.85689881 121.1993103 99.34326172 C129.3198076 104.77711258 137.21864544 110.29154836 144.71484375 116.578125 C145.36356445 117.09858398 146.01228516 117.61904297 146.68066406 118.15527344 C150.85645741 121.57019447 154.13122049 125.26677428 157.27734375 129.640625 C157.98612671 130.62180298 157.98612671 130.62180298 158.70922852 131.62280273 C167.4862577 144.09780638 173.81596174 159.93310275 173.85185814 175.34874725 C173.85946995 177.08856078 173.85946995 177.08856078 173.86723554 178.86352205 C173.8677333 180.13345113 173.86823106 181.40338021 173.8687439 182.71179199 C173.87276096 184.07785399 173.87719959 185.44391481 173.88202345 186.80997419 C173.89396645 190.56294448 173.89963205 194.31590192 173.90420461 198.06888747 C173.9101689 202.11665801 173.92177623 206.16441326 173.93249512 210.21217346 C173.95699338 219.98401123 173.97163897 229.75585405 173.98455518 239.52771306 C173.98826787 242.28693058 173.992241 245.04614759 173.99630785 247.80536461 C174.02153627 264.93718592 174.04359067 282.06900803 174.056036 299.20084381 C174.05896569 303.16693627 174.06192737 307.1330287 174.06494141 311.09912109 C174.06568746 312.08487552 174.06643351 313.07062995 174.06720217 314.08625573 C174.07986824 330.07110096 174.11311053 346.05583528 174.15474324 362.04062861 C174.19712562 378.44746185 174.22072641 394.8542382 174.22595656 411.26112604 C174.22937399 420.4749767 174.24116895 429.68865373 174.2740593 438.90245056 C174.30200966 446.7451498 174.31308106 454.5876398 174.30186383 462.43038499 C174.29666504 466.4331331 174.2996426 470.43544266 174.32432938 474.43812752 C174.34673273 478.10104118 174.34615273 481.763199 174.3271255 485.42612511 C174.32297855 487.38169556 174.34353652 489.33726993 174.36491239 491.29272795 C174.32123979 496.08416438 174.23564772 499.5647543 172.02854347 503.8592968 C166.60586744 506.67205875 161.0808382 506.26563897 155.08764648 506.21304321 C153.66795317 506.2188045 152.24826732 506.22674568 150.82859707 506.23667943 C146.92720278 506.25757556 143.02641906 506.24722545 139.12502241 506.23174834 C134.91770738 506.22044991 130.71049841 506.23789002 126.50320435 506.25164795 C118.26106967 506.27390107 110.01916243 506.26906997 101.77701879 506.25458474 C95.07950677 506.24330064 88.38205858 506.24175801 81.68453979 506.24720383 C80.73193659 506.24796999 79.77933339 506.24873616 78.79786342 506.24952554 C76.86277173 506.25112414 74.92768006 506.2527452 72.9925884 506.2543885 C54.83991055 506.26865207 36.68735887 506.25224373 18.5347017 506.22538666 C2.95308429 506.20304733 -12.62834689 506.20692729 -28.20996094 506.22998047 C-46.29691479 506.25672773 -64.38375801 506.26727872 -82.47072887 506.25191915 C-84.39877 506.25032638 -86.32681114 506.24875452 -88.25485229 506.24720383 C-89.20352773 506.24643245 -90.15220316 506.24566107 -91.12962633 506.24486632 C-97.8204228 506.24054609 -104.5111492 506.24784281 -111.20193481 506.25960159 C-119.35392053 506.27361321 -127.50566546 506.26985492 -135.65762353 506.24319787 C-139.81830999 506.23004154 -143.97859477 506.22493792 -148.13927841 506.24144363 C-151.94655903 506.25631914 -155.75306486 506.24819578 -159.56027496 506.22155587 C-160.93906699 506.21596057 -162.31792418 506.21883501 -163.69667447 506.23093481 C-174.17854631 506.31588206 -174.17854631 506.31588206 -178.5969038 503.37024212 C-180.42409011 500.34834917 -180.9137491 498.77107575 -180.9243927 495.26933289 C-180.94732391 493.69399025 -180.94732391 493.69399025 -180.97071838 492.08682251 C-180.96209274 490.94530731 -180.9534671 489.80379211 -180.94458008 488.62768555 C-180.95506378 487.41751266 -180.96554749 486.20733978 -180.97634888 484.960495 C-181.00018287 481.65051876 -181.00203064 478.34190765 -180.99405503 475.03194785 C-180.99092719 471.56985172 -181.01597231 468.10796125 -181.03800964 464.64595032 C-181.07544438 458.09412583 -181.08759727 451.54250889 -181.09063405 444.99058801 C-181.09532553 437.52981278 -181.12825161 430.06924539 -181.1635319 422.60856187 C-181.23545686 407.2650979 -181.27198159 391.9217587 -181.28515625 376.578125 C-185.8081047 379.24355606 -190.32870576 381.91290835 -194.84716797 384.5859375 C-196.38493843 385.49490041 -197.92334713 386.40278444 -199.46240234 387.30957031 C-201.67323396 388.61240725 -203.88174866 389.91909435 -206.08984375 391.2265625 C-206.77948212 391.63184174 -207.46912048 392.03712097 -208.17965698 392.4546814 C-210.79707727 394.00852391 -213.12346447 395.41643322 -215.28515625 397.578125 C-215.58390822 399.48530463 -215.58390822 399.48530463 -215.52998352 401.69526672 C-215.5339212 402.55744812 -215.53785889 403.41962952 -215.54191589 404.30793762 C-215.53622086 405.25601791 -215.53052582 406.20409821 -215.5246582 407.1809082 C-215.52667236 408.17778656 -215.52868652 409.17466492 -215.53076172 410.20175171 C-215.53431392 412.37181127 -215.53353193 414.54188116 -215.52898598 416.71193886 C-215.52341056 420.14549884 -215.53252266 423.57871874 -215.54618835 427.01225281 C-215.58339044 436.7763312 -215.60185117 446.54029617 -215.59057617 456.30444336 C-215.58472876 462.27210973 -215.60297119 468.23929984 -215.63646507 474.20686913 C-215.64442855 476.48304094 -215.64312936 478.75926453 -215.63244057 481.03542519 C-215.61813291 484.2198634 -215.63436622 487.40280298 -215.6574707 490.5871582 C-215.63981911 492.0001696 -215.63981911 492.0001696 -215.62181091 493.44172668 C-215.6846591 497.85549742 -215.85828734 499.9731184 -218.46110535 503.66212463 C-221.66815292 505.83797222 -223.25753895 506.20988538 -227.09765625 506.22509766 C-228.8146875 506.24873886 -228.8146875 506.24873886 -230.56640625 506.27285767 C-231.79359375 506.26273651 -233.02078125 506.25261536 -234.28515625 506.2421875 C-235.55359375 506.24697113 -236.82203125 506.25175476 -238.12890625 506.25668335 C-240.80946449 506.26008434 -243.48773767 506.25339778 -246.16796875 506.22998047 C-249.5949148 506.20149042 -253.01990306 506.21790201 -256.44677734 506.24784279 C-259.72630618 506.27030544 -263.00560181 506.25455561 -266.28515625 506.2421875 C-267.51234375 506.25230865 -268.73953125 506.26242981 -270.00390625 506.27285767 C-274.76978247 506.20723798 -278.28086941 506.09218673 -282.55615234 503.90380859 C-285.42130552 498.3927783 -284.99629956 492.81866394 -284.94921875 486.703125 C-284.95258989 485.33218964 -284.957445 483.9612572 -284.9637146 482.59033203 C-284.97107219 479.72204026 -284.96041835 476.85452891 -284.93701172 473.98632812 C-284.90852224 470.31729007 -284.92493253 466.65008064 -284.95487404 462.98110962 C-284.97297858 460.15163498 -284.96717506 457.32259094 -284.95423508 454.49310303 C-284.94929747 452.48513597 -284.96443089 450.4771519 -284.97988892 448.46923828 C-284.84960884 438.34518612 -284.84960884 438.34518612 -282.05615234 435.2109375 C-279.28515625 433.578125 -279.28515625 433.578125 -274.28515625 433.578125 C-274.28515625 427.308125 -274.28515625 421.038125 -274.28515625 414.578125 C-275.93515625 414.578125 -277.58515625 414.578125 -279.28515625 414.578125 C-282.40066311 412.50112043 -284.00845111 410.92844611 -284.7734375 407.1953125 C-285.01220533 402.62461407 -284.76817183 400.26814726 -282.09765625 396.453125 C-279.28515625 394.578125 -279.28515625 394.578125 -274.28515625 394.578125 C-274.28515625 387.318125 -274.28515625 380.058125 -274.28515625 372.578125 C-275.93515625 372.578125 -277.58515625 372.578125 -279.28515625 372.578125 C-282.05821228 370.87149048 -282.05821228 370.87149048 -284.28515625 367.578125 C-285.03037945 363.3502108 -284.95738844 359.16782344 -284.91625977 354.88427734 C-284.92341507 353.59423798 -284.93057037 352.30419861 -284.9379425 350.97506714 C-284.95644566 347.44141719 -284.94352128 343.90852261 -284.92385221 340.37490416 C-284.90743403 336.66713338 -284.91628396 332.95940929 -284.92137146 329.25161743 C-284.9258923 323.01902254 -284.91003185 316.78672772 -284.88208008 310.55419922 C-284.8501123 303.37131447 -284.85001102 296.18897338 -284.86729485 289.00605047 C-284.88322709 282.07712204 -284.87637815 275.14839092 -284.85935783 268.21947098 C-284.85252465 265.28112085 -284.85348131 262.34293065 -284.86090279 259.40458298 C-284.87007235 255.28553502 -284.84588979 251.16730768 -284.81860352 247.04833984 C-284.82512939 245.84274414 -284.83165527 244.63714844 -284.83837891 243.39501953 C-284.70303323 231.31824289 -280.84505085 221.03871143 -273.28515625 211.578125 C-269.55534909 208.04946306 -265.68474143 204.74650941 -261.046875 202.48828125 C-259.10185384 201.70266671 -259.10185384 201.70266671 -258.28515625 199.578125 C-259.36796875 199.206875 -259.36796875 199.206875 -260.47265625 198.828125 C-269.86401158 194.6541893 -275.50590693 185.14265303 -279.22265625 175.953125 C-281.04185302 170.78855966 -282.14266623 166.04363499 -282.28515625 160.578125 C-282.32382812 159.87558594 -282.3625 159.17304688 -282.40234375 158.44921875 C-282.86124398 144.19781731 -278.83477676 130.72477336 -269.515625 119.83203125 C-259.92936693 110.14504192 -248.27070222 105.51781533 -234.78515625 105.265625 C-223.11718872 105.2415204 -213.55619471 108.45859335 -204.28515625 115.578125 C-203.41890625 116.155625 -202.55265625 116.733125 -201.66015625 117.328125 C-192.97773114 125.55358037 -187.07986493 137.48777256 -186.33984375 149.48046875 C-186.32179688 150.17269531 -186.30375 150.86492187 -186.28515625 151.578125 C-186.24648437 152.28066406 -186.2078125 152.98320312 -186.16796875 153.70703125 C-185.98893556 159.26700633 -186.83218655 164.51841287 -187.84765625 169.9765625 C-188.368076 172.63151924 -188.368076 172.63151924 -188.28515625 175.578125 C-187.60356949 175.33422531 -186.92198273 175.09032562 -186.21974182 174.83903503 C-179.7625028 172.52856538 -173.30492827 170.21903568 -166.84698582 167.91053295 C-163.52777227 166.72398639 -160.20868456 165.53709046 -156.88989258 164.34936523 C-153.06499904 162.98053497 -149.23954401 161.61327996 -145.4140625 160.24609375 C-144.23558243 159.82410202 -143.05710236 159.40211029 -141.84291077 158.96733093 C-136.95959933 157.2232206 -132.07433777 155.48398861 -127.17041016 153.79858398 C-126.4917691 153.56453354 -125.81312805 153.33048309 -125.11392212 153.08934021 C-121.52052141 152.08483705 -117.86972616 152.42211818 -114.1796875 152.5703125 C-110.0966709 151.17073596 -109.20047147 148.60441048 -107.01098633 145.015625 C-104.01459966 140.78363681 -99.92164608 138.09969788 -95.72265625 135.140625 C-93.91753976 133.82871507 -92.11285157 132.51621561 -90.30859375 131.203125 C-89.43944336 130.57792969 -88.57029297 129.95273438 -87.67480469 129.30859375 C-84.68435131 127.14305088 -81.76335244 124.90583779 -78.84765625 122.640625 C-51.30478507 101.38008397 -51.30478507 101.38008397 -37.28515625 91.578125 C-40.00630861 89.44449417 -42.74118006 87.76915226 -45.78515625 86.140625 C-57.99250077 78.86316961 -67.68413579 67.3359583 -71.76171875 53.6640625 C-74.78241766 41.6263519 -73.8405361 28.16940153 -67.59765625 17.265625 C-61.8079545 8.60241034 -55.68085867 2.22652515 -46.28515625 -2.421875 C-45.10759766 -3.04255859 -45.10759766 -3.04255859 -43.90625 -3.67578125 C-30.04421643 -9.90176503 -12.6684249 -7.88257549 0 0 Z M7.44921875 155.84765625 C6.60348801 156.19600525 5.75775726 156.54435425 4.88639832 156.90325928 C3.04449814 157.66250646 1.20356977 158.42411444 -0.63650513 159.18777466 C-5.58148993 161.23979003 -10.53356456 163.27459048 -15.484375 165.3125 C-16.51868149 165.73886246 -17.55298798 166.16522491 -18.61863708 166.60450745 C-29.46420547 171.072409 -40.3343715 175.47896211 -51.21008301 179.87289429 C-54.31986969 181.12939789 -57.42899514 182.38752762 -60.53808594 183.64575195 C-62.44461164 184.41630166 -64.35118467 185.18673429 -66.2578125 185.95703125 C-67.13081497 186.31037537 -68.00381744 186.66371948 -68.90327454 187.027771 C-69.70355576 187.35062073 -70.50383698 187.67347046 -71.32836914 188.00610352 C-72.02394424 188.28712418 -72.71951935 188.56814484 -73.43617249 188.85768127 C-78.17245932 190.70314266 -82.13857882 190.61785281 -87.1796875 190.515625 C-91.45324253 191.97777213 -92.3511879 194.44241256 -94.63061523 198.19873047 C-97.35785533 202.12077296 -100.99027133 204.49779165 -104.91015625 207.140625 C-105.70921387 207.6979834 -106.50827148 208.2553418 -107.33154297 208.82958984 C-109.63746899 210.4308628 -111.95731831 212.00893154 -114.28515625 213.578125 C-115.36796875 214.31160156 -116.45078125 215.04507813 -117.56640625 215.80078125 C-119.45443907 217.06379222 -121.34765786 218.3190868 -123.24609375 219.56640625 C-126.87163718 221.96634823 -130.45512596 224.4235041 -134.03515625 226.890625 C-135.04860107 227.58889404 -135.04860107 227.58889404 -136.08251953 228.30126953 C-137.46206693 229.25221968 -138.84146042 230.20339314 -140.22070312 231.15478516 C-143.57309419 233.46609546 -146.92930069 235.77184929 -150.28515625 238.078125 C-151.6106865 238.98956964 -152.93620731 239.90102801 -154.26171875 240.8125 C-157.00571315 242.69908001 -159.750618 244.58432646 -162.49609375 246.46875 C-163.19347656 246.94763672 -163.89085937 247.42652344 -164.609375 247.91992188 C-165.91641557 248.81742307 -167.22368313 249.71459386 -168.53125 250.61132812 C-169.77120657 251.46297558 -171.0008111 252.32986977 -172.22021484 253.21069336 C-174.28515625 254.578125 -174.28515625 254.578125 -176.96337891 255.88500977 C-180.01939221 257.53956165 -182.05394806 258.89860772 -184.28515625 261.578125 C-185.52190789 267.10896335 -185.23542471 272.39093556 -184.91015625 278.015625 C-184.85993824 279.52524326 -184.81432074 281.03502198 -184.7734375 282.54492188 C-184.66379589 286.22601633 -184.49160902 289.90104244 -184.28515625 293.578125 C-183.50575684 293.26496338 -182.72635742 292.95180176 -181.92333984 292.62915039 C-167.40338255 286.84454775 -153.57701252 285.77808924 -138.734375 291.57421875 C-126.64708073 297.77888668 -118.14144632 307.93021856 -113.94233704 320.75192261 C-112.59157899 326.56085023 -112.8001353 332.52168853 -112.7734375 338.45703125 C-112.75656166 339.87907939 -112.73840758 341.30111288 -112.71903992 342.72312927 C-112.67184834 346.43673115 -112.64184087 350.1502736 -112.61560059 353.86407471 C-112.58563789 357.66536185 -112.53916223 361.46644479 -112.49414062 365.26757812 C-112.40845927 372.70432506 -112.3409593 380.14108742 -112.28515625 387.578125 C-91.29770768 379.57432314 -91.29770768 379.57432314 -70.40161133 371.33666992 C-69.00851408 370.77979532 -67.61221165 370.23088521 -66.21313477 369.68920898 C-56.49784441 365.92142364 -49.09738483 361.65819222 -41.28515625 354.578125 C-40.1427957 353.65897223 -38.99093965 352.75130815 -37.82421875 351.86328125 C-35.74357619 350.27630321 -33.66428334 348.68763445 -31.5859375 347.09765625 C-30.76150146 346.46851318 -30.76150146 346.46851318 -29.92041016 345.82666016 C-22.00902341 339.78622542 -14.13900737 333.69306156 -6.28515625 327.578125 C1.02770178 321.8844007 8.36285886 316.2212194 15.71484375 310.578125 C17.79826621 308.97407408 19.88159755 307.36990483 21.96484375 305.765625 C23.59361736 304.51328694 25.22274814 303.26141533 26.85205078 302.00976562 C28.20501376 300.9699524 29.55748866 299.929504 30.90966797 298.88867188 C33.23928151 297.09598622 35.57066239 295.30561997 37.90234375 293.515625 C39.01754395 292.65650513 39.01754395 292.65650513 40.15527344 291.7800293 C40.84911133 291.24804932 41.54294922 290.71606934 42.2578125 290.16796875 C42.8768042 289.69222412 43.4957959 289.21647949 44.13354492 288.72631836 C47.2018609 286.4983903 49.4090253 286.39991831 53.16015625 286.26171875 C54.77470703 286.19887695 54.77470703 286.19887695 56.421875 286.13476562 C57.54980469 286.09544922 58.67773438 286.05613281 59.83984375 286.015625 C60.97550781 285.97244141 62.11117187 285.92925781 63.28125 285.88476562 C66.09232143 285.7784646 68.9034832 285.67643095 71.71484375 285.578125 C71.73807631 275.5636294 71.75581429 265.54914027 71.76665592 255.53462315 C71.77186094 250.88383083 71.7789151 246.23305705 71.7902832 241.58227539 C71.801197 237.08892066 71.8071385 232.59558369 71.80972099 228.10221672 C71.81155999 226.39313414 71.81515095 224.68405246 71.82057381 222.97497749 C71.89214673 201.18933404 71.89214673 201.18933404 61.77734375 182.25390625 C56.46034044 177.28935581 50.21173841 173.39953727 44.12109375 169.453125 C40.77881712 167.28718037 37.47643051 165.06851874 34.18359375 162.828125 C33.23709961 162.18697754 32.29060547 161.54583008 31.31542969 160.88525391 C29.43532599 159.61091846 27.55829234 158.33204017 25.68457031 157.04833984 C24.39244629 156.17749756 24.39244629 156.17749756 23.07421875 155.2890625 C22.30561523 154.76618652 21.53701172 154.24331055 20.74511719 153.70458984 C16.13020567 151.14407977 11.88222127 153.99494126 7.44921875 155.84765625 Z " fill="#000000" transform="translate(311.28515625,6.421875)"/>
<path d="M0 0 C1.95256694 0.01473405 3.90517359 0.0249166 5.85778809 0.03051758 C13.0347073 0.08258644 20.21077658 0.22220024 27.38671875 0.3515625 C51.48703125 0.6609375 51.48703125 0.6609375 76.07421875 0.9765625 C76.07421875 60.3765625 76.07421875 119.7765625 76.07421875 180.9765625 C-27.54578125 180.9765625 -131.16578125 180.9765625 -237.92578125 180.9765625 C-237.92578125 162.1665625 -237.92578125 143.3565625 -237.92578125 123.9765625 C-230.71728794 120.69997463 -223.57141319 117.56167573 -216.21289062 114.68041992 C-214.12617796 113.85752372 -212.03946744 113.03462207 -209.95275879 112.2117157 C-208.86396927 111.78353735 -207.77517975 111.355359 -206.65339661 110.91420555 C-200.82234749 108.61861369 -194.99773327 106.30677265 -189.171875 103.99804688 C-181.78863621 101.0734674 -174.40362789 98.15360233 -167.01220703 95.24975586 C-161.00942284 92.89096904 -155.01292083 90.51680865 -149.0202179 88.13253212 C-146.74844773 87.23193392 -144.47445638 86.33691642 -142.19816589 85.4478054 C-125.54230633 79.02137171 -125.54230633 79.02137171 -110.92578125 68.9765625 C-109.41274665 67.80575611 -107.89517673 66.64076264 -106.37109375 65.484375 C-104.92967308 64.35845421 -103.48957973 63.23083223 -102.05078125 62.1015625 C-100.48718899 60.87993973 -98.92338565 59.65858707 -97.359375 58.4375 C-96.6051123 57.84807617 -95.85084961 57.25865234 -95.07373047 56.65136719 C-92.09679461 54.33018283 -89.10735587 52.02557584 -86.11328125 49.7265625 C-85.07945312 48.9325 -84.045625 48.1384375 -82.98046875 47.3203125 C-80.94401042 45.7578125 -78.90755208 44.1953125 -76.87109375 42.6328125 C-70.53887761 37.76916519 -64.22587848 32.88176051 -57.92578125 27.9765625 C-43.93292435 17.08185226 -43.93292435 17.08185226 -39.24926758 13.59341431 C-37.0782929 11.93736704 -35.2400104 10.2972752 -33.2837677 8.35952759 C-23.19929833 -1.03262194 -13.22293501 -0.33522879 0 0 Z " fill="#FEB853" transform="translate(388.92578125,311.0234375)"/>
<path d="M0 0 C6.49146483 4.1430168 10.88495739 10.18779811 13.2890625 17.4609375 C13.64982605 20.92222595 13.64982605 20.92222595 13.62963867 24.58959961 C13.63007675 25.26361816 13.63051483 25.93763672 13.63096619 26.63208008 C13.62889533 28.83445381 13.60564705 31.03604243 13.58203125 33.23828125 C13.57642919 34.77526941 13.57216197 36.31226297 13.56916809 37.84925842 C13.55776724 41.87544804 13.52834177 45.90130794 13.49505615 49.92736816 C13.46425201 54.0433303 13.45064075 58.15934621 13.43554688 62.27539062 C13.40346687 70.33739012 13.35232899 78.39912268 13.2890625 86.4609375 C9.62453398 87.88936661 5.95833681 89.31341426 2.29052734 90.73339844 C0.42845835 91.45535597 -1.43226157 92.18078988 -3.29296875 92.90625 C-5.04287109 93.58300781 -5.04287109 93.58300781 -6.828125 94.2734375 C-7.90690918 94.69238281 -8.98569336 95.11132812 -10.09716797 95.54296875 C-12.7109375 96.4609375 -12.7109375 96.4609375 -14.7109375 96.4609375 C-14.71236252 95.80805252 -14.71378754 95.15516754 -14.71525574 94.48249817 C-14.73494723 87.68508938 -14.78920971 80.88857925 -14.86352539 74.09155273 C-14.88671768 71.55515999 -14.90110395 69.01867078 -14.90649414 66.48217773 C-14.91577408 62.83516226 -14.95674803 59.18966686 -15.00390625 55.54296875 C-14.9999736 54.40946487 -14.99604095 53.275961 -14.99198914 52.10810852 C-15.07462935 45.74758927 -15.07462935 45.74758927 -18.02172852 40.24462891 C-20.94660402 38.30462523 -23.01933252 37.74098379 -26.53710938 37.98486328 C-30.79732551 38.9178621 -34.27646414 41.13876146 -37.9609375 43.3984375 C-38.84483154 43.92260254 -39.72872559 44.44676758 -40.6394043 44.98681641 C-42.59391286 46.15091226 -44.54313163 47.3239221 -46.48779297 48.50439453 C-49.36676858 50.2520169 -52.25447486 51.983541 -55.146698 53.70906067 C-58.27638687 55.57785947 -61.40022367 57.45634353 -64.5234375 59.3359375 C-65.12248901 59.69565643 -65.72154053 60.05537537 -66.33874512 60.42599487 C-70.15903681 62.72542427 -73.94826335 65.06781908 -77.7109375 67.4609375 C-78.52224121 67.9755957 -79.33354492 68.49025391 -80.16943359 69.02050781 C-81.21671631 69.7373877 -81.21671631 69.7373877 -82.28515625 70.46875 C-82.86225342 70.85949707 -83.43935059 71.25024414 -84.03393555 71.65283203 C-89.28609465 77.31559085 -90.30100509 83.53279708 -90.25683594 90.99804688 C-90.26717361 91.91605072 -90.27751129 92.83405457 -90.28816223 93.77987671 C-90.31745829 96.78832883 -90.31908662 99.79610431 -90.3203125 102.8046875 C-90.33530304 104.90076978 -90.35203202 106.99684029 -90.37042236 109.09289551 C-90.41400974 114.59029703 -90.43407598 120.08753923 -90.44915771 125.58508301 C-90.46875979 131.20265083 -90.51072636 136.82004737 -90.55078125 142.4375 C-90.62599035 153.44528856 -90.67426951 164.45295302 -90.7109375 175.4609375 C-99.9509375 175.4609375 -109.1909375 175.4609375 -118.7109375 175.4609375 C-118.76701172 170.78357422 -118.76701172 170.78357422 -118.82421875 166.01171875 C-118.8704499 162.98666428 -118.92167785 159.96173276 -118.97338867 156.93676758 C-119.00661172 154.83690889 -119.0346518 152.73696147 -119.05737305 150.63696289 C-119.09096686 147.61566406 -119.14328584 144.59517649 -119.19921875 141.57421875 C-119.20560867 140.63757889 -119.2119986 139.70093903 -119.21858215 138.73591614 C-119.33878701 132.06495557 -119.33878701 132.06495557 -122.7109375 126.4609375 C-124.6909375 125.4709375 -126.6709375 124.4809375 -128.7109375 123.4609375 C-128.7109375 117.1909375 -128.7109375 110.9209375 -128.7109375 104.4609375 C-130.3609375 104.4609375 -132.0109375 104.4609375 -133.7109375 104.4609375 C-136.82644436 102.38393293 -138.43423236 100.81125861 -139.19921875 97.078125 C-139.43798658 92.50742657 -139.19395308 90.15095976 -136.5234375 86.3359375 C-133.7109375 84.4609375 -133.7109375 84.4609375 -128.7109375 84.4609375 C-128.7109375 77.2009375 -128.7109375 69.9409375 -128.7109375 62.4609375 C-126.7309375 61.4709375 -124.7509375 60.4809375 -122.7109375 59.4609375 C-119.87509831 56.57438454 -119.32100393 54.47111625 -119.19921875 50.4765625 C-119.16376953 49.54199219 -119.12832031 48.60742188 -119.09179688 47.64453125 C-119.06923828 46.67644531 -119.04667969 45.70835937 -119.0234375 44.7109375 C-118.98927734 43.72738281 -118.95511719 42.74382812 -118.91992188 41.73046875 C-118.83758477 39.30740551 -118.76838912 36.88469752 -118.7109375 34.4609375 C-116.92816406 34.49405029 -116.92816406 34.49405029 -115.109375 34.52783203 C-110.62093146 34.59753441 -106.13439213 34.59953869 -101.64550781 34.58300781 C-99.71767213 34.58493244 -97.78976035 34.60425367 -95.86230469 34.64257812 C-81.28956256 34.91553271 -72.21916793 32.43755964 -60.7109375 23.4609375 C-58.92090991 22.16700032 -57.12961581 20.87480923 -55.3359375 19.5859375 C-54.48644531 18.95300781 -53.63695313 18.32007813 -52.76171875 17.66796875 C-48.75011924 14.76585131 -44.64445047 12.01714913 -40.5234375 9.2734375 C-39.77465332 8.77408691 -39.02586914 8.27473633 -38.25439453 7.76025391 C-34.63929246 5.3616269 -31.00775339 2.98961291 -27.34765625 0.66015625 C-26.40539185 0.06013794 -26.40539185 0.06013794 -25.4440918 -0.55200195 C-18.07245202 -4.7502749 -7.43808147 -3.41618725 0 0 Z " fill="#697FFE" transform="translate(165.7109375,316.5390625)"/>
<path d="M0 0 C3.07825449 2.07990168 3.92055239 3.8032726 5.3125 7.25 C4.87922349 12.44931811 2.57525462 13.58414222 -1.26586914 16.85058594 C-5.9440834 20.52832487 -10.88242062 23.76839363 -15.875 27 C-22.78308922 31.50565819 -29.57291336 36.09544607 -36.21777344 40.98193359 C-41.12712638 44.54289458 -46.16213141 47.91826799 -51.1875 51.3125 C-53.38947414 52.80576661 -55.59129706 54.29925624 -57.79296875 55.79296875 C-59.38310791 56.87070557 -59.38310791 56.87070557 -61.00537109 57.97021484 C-77.36289999 67.27280362 -77.36289999 67.27280362 -90 80 C-90.03816444 81.73069342 -90.01054628 83.46301123 -89.95141602 85.19311523 C-89.77347816 91.28667405 -89.68327122 97.37657381 -89.6237793 103.47241211 C-89.58316683 106.10024927 -89.51577088 108.72781885 -89.4206543 111.35424805 C-88.68684939 132.62117526 -88.68684939 132.62117526 -92.52752686 138.23126221 C-96.1069802 141.70762136 -100.1523073 144.01046109 -104.75938416 145.87586975 C-106.88273446 146.94116718 -108.3725064 148.10386401 -110.20973206 149.58763123 C-114.34519743 152.59245925 -117.79018947 152.654733 -122.77734375 152.48828125 C-123.58869278 152.48120651 -124.40004181 152.47413177 -125.23597717 152.46684265 C-127.80412623 152.43905771 -130.3700204 152.37635566 -132.9375 152.3125 C-134.68811935 152.28739629 -136.43877319 152.26458676 -138.18945312 152.24414062 C-142.46049207 152.1892841 -146.729865 152.10312803 -151 152 C-151.11615928 140.82942823 -151.2048498 129.65900158 -151.25906086 118.48794746 C-151.28508752 113.30001524 -151.32035846 108.11249808 -151.37719727 102.92480469 C-151.43176483 97.91269765 -151.4614726 92.90098833 -151.47438622 87.88860703 C-151.48358182 85.982123 -151.50153845 84.07565927 -151.52865028 82.16934586 C-151.8064156 61.81832779 -151.8064156 61.81832779 -144.14250183 52.81878662 C-138.18724188 46.84830862 -131.31559391 44.35478926 -123.4453125 41.7109375 C-122.12185788 41.24864267 -120.79912858 40.78426687 -119.4770813 40.31796265 C-116.71392848 39.34688685 -113.94704082 38.38782599 -111.1763916 37.43835449 C-107.12235748 36.04694638 -103.08252321 34.61778495 -99.04589844 33.17675781 C-93.72445923 31.27889283 -88.40028831 29.38919709 -83.0715332 27.51196289 C-82.40265359 27.27631024 -81.73377398 27.0406576 -81.04462528 26.79786396 C-79.68084378 26.31748269 -78.31704199 25.83715898 -76.95322037 25.35689163 C-70.56294769 23.10641465 -64.17360869 20.85329501 -57.78515625 18.59765625 C-57.09418287 18.35374334 -56.4032095 18.10983044 -55.69129753 17.85852623 C-47.10853242 14.82726045 -38.54011425 11.76025169 -29.99609375 8.62109375 C-29.13626892 8.30599854 -28.27644409 7.99090332 -27.39056396 7.66625977 C-23.59709326 6.27478791 -19.80774964 4.8737088 -16.02490234 3.45361328 C-14.74198227 2.98046799 -13.45895046 2.50762547 -12.17578125 2.03515625 C-11.11270752 1.6369165 -10.04963379 1.23867676 -8.9543457 0.82836914 C-5.79522302 -0.05741743 -3.26461916 -0.26610446 0 0 Z " fill="#9EE356" transform="translate(198,179)"/>
<path d="M0 0 C1.4308554 0.96026464 2.85995923 1.92314273 4.28759766 2.88818359 C5.89373173 3.96677221 7.50018982 5.04487845 9.10693359 6.12255859 C10.35863342 6.96294678 10.35863342 6.96294678 11.63562012 7.8203125 C15.04790045 10.10263311 18.47458929 12.36269418 21.90289307 14.62084961 C25.34593452 16.88908787 28.78409113 19.16467575 32.22216797 21.44042969 C33.98916335 22.60815723 35.75777424 23.77344317 37.52783203 24.93652344 C40.12390678 26.64320221 42.71408969 28.35849819 45.30322266 30.07568359 C46.09983307 30.59643463 46.89644348 31.11718567 47.7171936 31.65371704 C48.43990448 32.13537323 49.16261536 32.61702942 49.90722656 33.11328125 C50.54576569 33.53453278 51.18430481 33.9557843 51.8421936 34.38980103 C52.29081757 34.76825165 52.73944153 35.14670227 53.20166016 35.53662109 C53.20166016 36.19662109 53.20166016 36.85662109 53.20166016 37.53662109 C51.23774306 39.22129373 49.26357311 40.79171875 47.20166016 42.34912109 C45.9089802 43.3438995 44.61735382 44.34004815 43.32666016 45.33740234 C42.30958984 46.12171631 42.30958984 46.12171631 41.27197266 46.921875 C37.87193587 49.57374332 34.53851453 52.30598636 31.20166016 55.03662109 C23.940338 60.96270013 16.60747171 66.79211321 9.20166016 72.53662109 C8.51587891 73.17341797 7.83009766 73.81021484 7.12353516 74.46630859 C6.48931641 74.81951172 5.85509766 75.17271484 5.20166016 75.53662109 C0.66151289 74.20095417 -3.03948125 71.51353479 -6.89208984 68.85302734 C-7.56123413 68.39685532 -8.23037842 67.94068329 -8.9197998 67.47068787 C-11.04908732 66.01798522 -13.17388075 64.55887361 -15.29833984 63.09912109 C-17.42358616 61.64412994 -19.54975833 60.19051423 -21.67687988 58.73826599 C-22.99707983 57.83636581 -24.31607402 56.93269727 -25.63366699 56.0269928 C-26.82217762 55.21300726 -28.0152764 54.40566605 -29.21362305 53.60623169 C-30.58023221 52.68383366 -31.91451824 51.71387449 -33.24169922 50.7355957 C-37.50742666 48.73511944 -41.48545686 48.87778639 -45.92248535 50.14169312 C-48.25791724 51.00436279 -50.53203096 51.95901265 -52.81396484 52.95458984 C-54.11796234 53.50240868 -54.11796234 53.50240868 -55.44830322 54.06129456 C-57.33326282 54.85480295 -59.21557088 55.65463346 -61.09545898 56.46008301 C-64.08899076 57.74152251 -67.0897044 59.0044599 -70.09326172 60.26220703 C-74.38936326 62.06143873 -78.683433 63.86538002 -82.97607422 65.67285156 C-93.57079894 70.12653721 -104.18964069 74.52035243 -114.82946777 78.86514282 C-117.13698819 79.81072112 -119.44210842 80.76217854 -121.74475098 81.71957397 C-124.97593783 83.06289513 -128.21414314 84.38769968 -131.45458984 85.70849609 C-132.41512268 86.11274307 -133.37565552 86.51699005 -134.36529541 86.93348694 C-142.6765243 90.27965793 -142.6765243 90.27965793 -147.79833984 88.53662109 C-150.39259045 86.28827057 -150.77467837 84.63915414 -151.54833984 81.28662109 C-150.36868556 75.38834965 -146.43888084 73.00572466 -141.79833984 69.53662109 C-141.13801758 69.04274902 -140.47769531 68.54887695 -139.79736328 68.04003906 C-136.66424694 65.7093742 -133.52124973 63.39292364 -130.36547852 61.09301758 C-124.7604286 57.00772471 -119.25223066 52.82121891 -113.79833984 48.53662109 C-106.99645414 43.20151738 -100.09171818 38.03066554 -93.11474609 32.92724609 C-87.12079576 28.53428575 -81.199839 24.05281983 -75.29833984 19.53662109 C-72.66635171 17.53103058 -70.03348656 15.52659675 -67.40039062 13.52246094 C-65.66917174 12.20122484 -63.94096034 10.87603847 -62.21582031 9.546875 C-42.29907259 -5.77928198 -23.20469469 -15.32484393 0 0 Z " fill="#71D6FD" transform="translate(369.79833984375,88.46337890625)"/>
<path d="M0 0 C10.23037619 4.51611201 16.55638113 15.16093383 21 25 C22.58599127 29.28125968 23.88421704 33.57469133 25 38 C25.17678 38.61815708 25.35356001 39.23631416 25.53569698 39.87320328 C26.05113049 42.23420947 26.12293949 44.35445867 26.12025452 46.77093506 C26.12162918 47.72723312 26.12300385 48.68353119 26.12442017 49.66880798 C26.11902725 51.23218651 26.11902725 51.23218651 26.11352539 52.82714844 C26.11367142 53.92988602 26.11381744 55.0326236 26.1139679 56.16877747 C26.11327093 59.81566328 26.10548857 63.4624981 26.09765625 67.109375 C26.0957913 69.63714571 26.09436776 72.16491679 26.09336853 74.69268799 C26.0899398 80.66723869 26.08205734 86.64176748 26.07201904 92.6163094 C26.06083739 99.41917224 26.05534228 106.22203595 26.05032361 113.02490568 C26.03987418 127.01661423 26.02208582 141.00830542 26 155 C19.4 155 12.8 155 6 155 C5.98541748 152.57245361 5.97083496 150.14490723 5.95581055 147.64379883 C5.90546174 139.62100277 5.83886612 131.59840074 5.76428509 123.57579517 C5.71956756 118.71192394 5.68031444 113.84813673 5.65356445 108.98413086 C5.62754532 104.28962246 5.58715269 99.59543718 5.53681374 94.90112877 C5.52013563 93.11063342 5.50862723 91.32008218 5.50238609 89.52952003 C5.49275522 87.02039382 5.46470872 84.51209601 5.43237305 82.00317383 C5.43380814 81.26374039 5.43524323 80.52430695 5.4367218 79.76246643 C5.35618823 75.34068823 4.68396953 72.53781043 2 69 C-0.71437679 66.86727538 -2.04826833 67.00254044 -5.5625 67.1875 C-9.496695 68.11412708 -9.496695 68.11412708 -12 71 C-13.21125432 74.63376296 -13.17614393 77.99098013 -13.20532227 81.77612305 C-13.21522186 82.56660034 -13.22512146 83.35707764 -13.23532104 84.17150879 C-13.26691393 86.78488162 -13.29168474 89.39827263 -13.31640625 92.01171875 C-13.33697769 93.82347588 -13.35797421 95.63522823 -13.37937927 97.44697571 C-13.43458035 102.21611664 -13.48399831 106.98530074 -13.53222656 111.7545166 C-13.5824559 116.62088871 -13.63813449 121.4871981 -13.69335938 126.35351562 C-13.80091696 135.90229217 -13.90186375 145.45112197 -14 155 C-21.26 155 -28.52 155 -36 155 C-36.01458252 152.52870605 -36.02916504 150.05741211 -36.04418945 147.51123047 C-36.09478756 139.29691498 -36.16142524 131.08278406 -36.23571491 122.86865044 C-36.28022279 117.89405854 -36.31952073 112.91954487 -36.34643555 107.94482422 C-36.37266557 103.13357464 -36.4132033 98.32262931 -36.46318626 93.51156998 C-36.47972297 91.68664493 -36.4913186 89.86166743 -36.49761391 88.03667831 C-36.54752706 74.88308531 -36.6640801 61.52632691 -43.5625 49.875 C-44.16191406 48.84117187 -44.76132812 47.80734375 -45.37890625 46.7421875 C-45.91386719 45.83726562 -46.44882812 44.93234375 -47 44 C-47.68063655 42.67374357 -48.35398239 41.34345951 -49 40 C-41.93876306 33.93578156 -34.80622692 28.00086389 -27.46240234 22.28149414 C-22.76376979 18.61666485 -18.12239487 14.8854658 -13.5 11.125 C-12.84153076 10.58955566 -12.18306152 10.05411133 -11.50463867 9.50244141 C-7.6484121 6.3601119 -3.81564336 3.19147948 0 0 Z " fill="#697FFE" transform="translate(439,137)"/>
<path d="M0 0 C5.85021185 4.34111198 10.46101656 9.79258686 12 17 C13.01117838 26.01861798 13.60181075 35.9461749 8.6875 43.91796875 C4.00554056 49.69455297 -0.67316482 54.14350794 -8 56 C-17.7696912 56.9152434 -25.17367466 56.64661484 -32.890625 50.4921875 C-38.89205008 45.07073207 -41.81300089 39.63153416 -42.4140625 31.55078125 C-42.91561103 20.06987941 -41.62412165 11.89849685 -33.75 3.125 C-23.80257519 -5.96303605 -11.65551829 -6.18491628 0 0 Z " fill="#F9C49B" transform="translate(92,136)"/>
<path d="M0 0 C7.3066634 4.6427757 15.47044882 12.34291206 18.29296875 20.62890625 C19.93187442 30.69371517 18.22238578 38.88645589 12.875 47.48046875 C5.77001894 54.38808922 -0.84543496 56.02998798 -10.59448242 56.04638672 C-19.56735968 55.82328319 -24.29353118 51.88187892 -30.6875 45.98046875 C-37.02926599 39.29350554 -39.49585948 33.35624587 -39.9375 24.16796875 C-39.65412606 16.14848634 -37.02106054 9.80420483 -31.125 4.29296875 C-21.68609364 -2.8675809 -11.07402055 -4.9158713 0 0 Z " fill="#FAC49B" transform="translate(298.375,22.33203125)"/>
<path d="M0 0 C1.84271484 -0.0309375 1.84271484 -0.0309375 3.72265625 -0.0625 C5.50736328 -0.07023437 5.50736328 -0.07023437 7.328125 -0.078125 C8.41512695 -0.0874707 9.50212891 -0.09681641 10.62207031 -0.10644531 C15.0346753 0.39639603 18.34147912 1.73700995 21.39788818 5.02011108 C23.05860662 7.75895086 23.14164954 9.46723559 23.16992188 12.65771484 C23.18583374 13.73918793 23.20174561 14.82066101 23.21813965 15.93490601 C23.21834106 17.0984964 23.21854248 18.26208679 23.21875 19.4609375 C23.23017029 21.26227646 23.23017029 21.26227646 23.24182129 23.1000061 C23.25262657 25.6402173 23.25547368 28.18047293 23.25097656 30.72070312 C23.25000535 34.60362074 23.29160397 38.48455578 23.3359375 42.3671875 C23.34114528 44.83593338 23.34383268 47.30468613 23.34375 49.7734375 C23.3683429 51.5127504 23.3683429 51.5127504 23.39343262 53.28720093 C23.31651342 62.27883817 23.31651342 62.27883817 20.43164062 65.96337891 C17.07922097 68.82196981 15.13617593 69.32832457 10.75 69.25 C7.02544576 67.64166976 4.71115816 65.78793906 2.75 62.25 C2.3317172 59.05551832 2.40156865 55.88866957 2.45703125 52.671875 C2.46127609 51.7453009 2.46552094 50.81872681 2.46989441 49.86407471 C2.48666678 46.90908566 2.52431645 43.95478239 2.5625 41 C2.5775487 38.99480153 2.59123678 36.98959235 2.60351562 34.984375 C2.63656562 30.07265304 2.68833818 25.16144274 2.75 20.25 C1.50863281 20.31960938 0.26726562 20.38921875 -1.01171875 20.4609375 C-2.65359158 20.51723028 -4.29552311 20.57182881 -5.9375 20.625 C-7.16243164 20.70041016 -7.16243164 20.70041016 -8.41210938 20.77734375 C-14.37503318 20.9221921 -14.37503318 20.9221921 -16.92440796 18.96363831 C-19.25058699 16.23569778 -20.94978629 13.82959213 -20.875 10.1875 C-20.13420269 5.52047695 -18.91031582 4.12596243 -15.25 1.25 C-10.83469735 -0.95765133 -4.84831885 0.02009666 0 0 Z " fill="#020200" transform="translate(414.25,351.75)"/>
<path d="M0 0 C3.80469442 0.91401839 5.41220188 2.51396846 8 5.48046875 C9.19389536 9.41330052 9.44799464 11.44300747 7.8125 15.23046875 C4.65530568 19.14974446 3.20793241 20.32708051 -1.9375 20.98046875 C-5.14827095 20.82443128 -6.13355182 20.39699886 -9 18.60546875 C-11.80989899 14.21500158 -12.0151866 10.55640174 -11 5.48046875 C-8.13508911 1.00404549 -5.39545376 -0.37809051 0 0 Z " fill="#010102" transform="translate(38,400.51953125)"/>
<path d="M0 0 C3.23614894 2.12904535 4.29269525 4.18134969 5.0625 7.875 C5.334065 11.41859207 4.9214213 12.13505715 3 15.4375 C-0.54594585 18.46632874 -2.36299711 19.08280362 -7 19 C-10.62036655 17.4366599 -13.2601659 15.57632565 -15 12 C-15.21431243 7.84233882 -14.6796522 4.88354786 -12.125 1.5625 C-7.96492179 -1.49638104 -4.8863851 -1.11443871 0 0 Z " fill="#050401" transform="translate(432,441)"/>
</svg>
