<?xml version="1.0" encoding="UTF-8"?>
<svg version="1.1" xmlns="http://www.w3.org/2000/svg" width="512" height="512">
<path d="M0 0 C17.39370815 9.96982533 34.33252475 26.05119106 39.7109375 45.84375 C40.34287617 50.18385707 40.35030396 54.49453997 40.375 58.875 C40.395625 59.77025391 40.41625 60.66550781 40.4375 61.58789062 C40.46382189 66.14486752 40.18600705 69.91948652 38.63671875 74.21875 C35.85844468 82.56096562 36.68313919 91.75345327 36.68920898 100.44799805 C36.65960834 120.11269298 31.6267587 135.89758764 18.125 150.6875 C13.0731508 155.6611472 8.04318519 159.7420432 2.125 163.6875 C4.105 168.6375 6.085 173.5875 8.125 178.6875 C10.80496094 178.74357422 10.80496094 178.74357422 13.5390625 178.80078125 C38.69841649 179.44562109 38.69841649 179.44562109 49.125 182.6875 C50.00414062 182.95304688 50.88328125 183.21859375 51.7890625 183.4921875 C58.77559379 185.93639195 64.40960091 190.05696833 70.125 194.6875 C70.7746875 195.20957031 71.424375 195.73164063 72.09375 196.26953125 C81.38727075 204.61257828 87.30920861 217.57430708 88.41360474 229.91149902 C88.53484578 233.44162287 88.56710642 236.9599991 88.55859375 240.4921875 C88.5638356 241.77433136 88.56907745 243.05647522 88.57447815 244.37747192 C88.58333598 247.06848127 88.58106564 249.75919256 88.57104492 252.45019531 C88.5594792 255.89012718 88.57991742 259.32904397 88.60896206 262.7688427 C88.6317305 266.07246296 88.62486028 269.37600717 88.62109375 272.6796875 C88.63794472 274.52504593 88.63794472 274.52504593 88.65513611 276.40768433 C88.64575516 277.55302643 88.63637421 278.69836853 88.62670898 279.87841797 C88.62645973 281.384189 88.62645973 281.384189 88.62620544 282.92037964 C87.97998131 286.48813807 86.68237298 288.15227083 84.125 290.6875 C80.61654553 292.26495368 76.58033259 291.82088376 72.78613281 291.80102539 C71.68797997 291.80124443 71.68797997 291.80124443 70.56764221 291.8014679 C68.15443938 291.80077276 65.7413143 291.79299908 63.328125 291.78515625 C61.65232383 291.78329065 59.97652212 291.78186742 58.30072021 291.78086853 C53.89486174 291.77705452 49.48903634 291.76723376 45.08319092 291.75616455 C39.79430322 291.74412566 34.50540444 291.73954287 29.21650696 291.73371124 C21.18598165 291.72402142 13.15552889 291.70485705 5.125 291.6875 C5.125 310.4975 5.125 329.3075 5.125 348.6875 C6.775 349.3475 8.425 350.0075 10.125 350.6875 C12.04155679 351.712651 13.9400553 352.77193169 15.82421875 353.85546875 C17.49629395 354.81404785 17.49629395 354.81404785 19.20214844 355.79199219 C20.40561933 356.48629281 21.60906936 357.18062961 22.8125 357.875 C24.05614852 358.58915736 25.29996605 359.30302047 26.54394531 360.01660156 C32.86192318 363.64367326 39.16875826 367.28993327 45.47265625 370.94140625 C46.64558452 371.62020665 47.81851738 372.2989991 48.99145508 372.9777832 C51.19454896 374.25379407 53.39628224 375.53215794 55.59643555 376.81323242 C61.02772389 379.9620642 66.4718745 382.95560682 72.125 385.6875 C72.37507813 385.00945312 72.62515625 384.33140625 72.8828125 383.6328125 C74.35731757 380.13665896 76.13318059 376.85892832 78 373.5625 C78.33902344 372.94246094 78.67804688 372.32242187 79.02734375 371.68359375 C80.96822187 368.25200316 82.6379989 365.61939452 86.125 363.6875 C91.64749135 362.98623126 91.64749135 362.98623126 94.125 363.6875 C99.05797326 367.59016872 101.16173627 372.35222625 103.6875 377.9375 C104.64873926 380.00367687 105.61249527 382.06868387 106.578125 384.1328125 C107.12662109 385.30875977 107.67511719 386.48470703 108.24023438 387.69628906 C111.61840327 394.886157 115.13831745 402.00861108 118.63110352 409.14324951 C120.80425445 413.58346675 122.97243794 418.02610727 125.140625 422.46875 C125.5644043 423.33696381 125.98818359 424.20517761 126.42480469 425.09970093 C130.05926123 432.54796883 133.68423805 440.00077446 137.29232788 447.46185303 C138.16040371 449.2564821 139.03000648 451.05037234 139.8996582 452.84423828 C141.32044194 455.78636098 142.72971325 458.73321211 144.125 461.6875 C144.6363147 462.76946655 144.6363147 462.76946655 145.15795898 463.87329102 C147.14972828 468.26627131 147.45860958 470.97541282 146.125 475.6875 C143.85966753 478.55692113 142.60777163 479.52657612 139.125 480.6875 C136.10103464 480.98175415 133.08796245 481.230347 130.05810547 481.44360352 C128.66463394 481.54623505 128.66463394 481.54623505 127.24301147 481.65093994 C124.15968466 481.87683615 121.07597396 482.09688005 117.9921875 482.31640625 C115.84000465 482.47175209 113.687834 482.6272671 111.53567505 482.78294373 C107.01143878 483.10920133 102.48699575 483.43239688 97.96240234 483.75366211 C92.20730444 484.16267945 86.45289973 484.58066885 80.69863701 485.00125217 C76.24437359 485.32552196 71.78971659 485.64411096 67.33493423 485.96116447 C65.21645609 486.11274948 63.0981112 486.26621028 60.97991562 486.4216938 C51.14356434 487.14138695 41.30054326 487.82331229 31.43798828 488.03100586 C30.74880247 488.05889222 30.05961666 488.08677858 29.34954643 488.11550999 C25.99228998 488.14206108 24.39784343 487.90358929 21.73043823 485.79103088 C19.01456803 482.23255274 18.6027092 480.1771921 19.125 475.6875 C20.69936324 472.23726811 22.6448841 469.04295935 24.625 465.8125 C25.14964844 464.93335938 25.67429687 464.05421875 26.21484375 463.1484375 C27.50671237 460.98749362 28.81019973 458.83454086 30.125 456.6875 C25.47060278 452.59163045 20.20721785 449.79715828 14.8125 446.8125 C6.30680982 442.05793583 -2.15216652 437.2339003 -10.5625 432.3125 C-11.51616455 431.75449707 -12.4698291 431.19649414 -13.45239258 430.62158203 C-14.84300903 429.80729736 -14.84300903 429.80729736 -16.26171875 428.9765625 C-17.17356934 428.44836914 -18.08541992 427.92017578 -19.02490234 427.37597656 C-21.06245263 426.1688755 -23.0761804 424.92119496 -25.07275391 423.64746094 C-26.65515869 422.65794434 -26.65515869 422.65794434 -28.26953125 421.6484375 C-29.2231958 421.03532715 -30.17686035 420.4222168 -31.15942383 419.79052734 C-33.79752372 418.40904991 -33.79752372 418.40904991 -36.36914062 419.30444336 C-37.60954102 419.9890564 -37.60954102 419.9890564 -38.875 420.6875 C-39.77436279 421.16856201 -40.67372559 421.64962402 -41.6003418 422.14526367 C-42.58172119 422.70963135 -43.56310059 423.27399902 -44.57421875 423.85546875 C-45.68917725 424.49460205 -46.80413574 425.13373535 -47.95288086 425.79223633 C-49.15613987 426.48639967 -50.359345 427.1806564 -51.5625 427.875 C-52.80396874 428.58839429 -54.04558871 429.30152547 -55.28735352 430.0144043 C-58.50793055 431.86447351 -61.72611573 433.71866123 -64.94360352 435.57409668 C-67.46250399 437.02618183 -69.98262573 438.4761399 -72.50273132 439.9261322 C-77.56500377 442.8392377 -82.62560077 445.75525134 -87.68359375 448.67578125 C-88.56845459 449.18665283 -89.45331543 449.69752441 -90.36499023 450.22387695 C-92.11826662 451.24623781 -93.85368756 452.29956697 -95.57446289 453.37573242 C-97.875 454.6875 -97.875 454.6875 -99.875 454.6875 C-98.9818894 456.50134318 -98.08533836 458.31349237 -97.1875 460.125 C-96.64480469 461.22070312 -96.10210937 462.31640625 -95.54296875 463.4453125 C-94.12230734 466.2067855 -92.60388442 468.84371005 -91 471.5 C-88.83441162 475.38821551 -88.00933364 478.18603495 -88.875 482.6875 C-91.52654267 486.1062049 -92.95511164 487.54187695 -97.28387451 488.22714233 C-98.59881897 488.1823172 -99.91376343 488.13749207 -101.26855469 488.09130859 C-102.00520733 488.0711286 -102.74185997 488.0509486 -103.50083542 488.03015709 C-105.96157582 487.9495479 -108.41674868 487.82395004 -110.875 487.6875 C-111.72759903 487.64311043 -112.58019806 487.59872086 -113.45863342 487.55298615 C-120.1710417 487.19038696 -126.87392527 486.71552593 -133.578125 486.2265625 C-135.71659287 486.07411854 -137.85508208 485.92197368 -139.99359131 485.77011108 C-144.43792609 485.45302555 -148.8819037 485.13140648 -153.32568359 484.80664062 C-159.01760275 484.39116833 -164.71036231 483.98875712 -170.40346146 483.58982277 C-174.80303672 483.27984684 -179.20204108 482.96230341 -183.600914 482.64252853 C-185.70107843 482.49091398 -187.80142677 482.3418246 -189.90195465 482.19533157 C-192.82621686 481.99040547 -195.74953791 481.77511557 -198.67285156 481.55712891 C-199.53518906 481.49886429 -200.39752655 481.44059967 -201.28599548 481.38056946 C-206.27239116 480.9955831 -210.508089 480.46268325 -214.625 477.375 C-216.27797228 475.14348742 -216.54673081 473.43950673 -216.875 470.6875 C-216.2734375 468.38305664 -216.2734375 468.38305664 -215.25 466.03515625 C-214.68345703 464.72248779 -214.68345703 464.72248779 -214.10546875 463.38330078 C-212.07685273 458.93886069 -210.00971653 454.519632 -207.875 450.125 C-207.37154053 449.0819873 -206.86808105 448.03897461 -206.34936523 446.96435547 C-200.37928347 434.61819489 -194.35629877 422.29736938 -188.328125 409.97949219 C-184.45884839 402.06864444 -180.60297629 394.15339032 -176.83984375 386.19140625 C-176.24015632 384.92691899 -175.64046569 383.66243326 -175.04077148 382.39794922 C-173.96391101 380.12049111 -172.89392516 377.83976409 -171.83227539 375.55517578 C-171.36168701 374.56114746 -170.89109863 373.56711914 -170.40625 372.54296875 C-170.00986328 371.69371826 -169.61347656 370.84446777 -169.20507812 369.96948242 C-167.33419238 366.75964963 -165.36591118 364.12935186 -161.7265625 363.05078125 C-158.52878927 362.97784958 -155.96599892 362.96624296 -153.23828125 364.76953125 C-148.02018364 370.4165136 -144.54248011 377.97619756 -140.875 384.6875 C-138.1886775 384.6875 -136.82861763 383.66573174 -134.4921875 382.3359375 C-133.58412354 381.8212793 -132.67605957 381.30662109 -131.74047852 380.77636719 C-130.75362061 380.21079102 -129.7667627 379.64521484 -128.75 379.0625 C-127.72898193 378.48145508 -126.70796387 377.90041016 -125.65600586 377.30175781 C-117.28634246 372.52639312 -108.95638744 367.68271022 -100.64990234 362.79833984 C-99.27825928 361.99323975 -99.27825928 361.99323975 -97.87890625 361.171875 C-96.95158691 360.5936499 -96.02426758 360.0154248 -95.06884766 359.41967773 C-92.50215194 358.02763476 -90.38567442 357.16020528 -87.64599609 356.28540039 C-82.92685157 354.58535475 -78.87223022 352.85918049 -75.875 348.6875 C-73.21191193 340.04365619 -73.9923664 330.57752827 -74.31280518 321.64648438 C-74.41674711 318.2681165 -74.42890718 314.88948787 -74.44921875 311.50976562 C-74.50735215 304.89892776 -74.65604397 298.29486244 -74.875 291.6875 C-76.15167038 291.69749275 -76.15167038 291.69749275 -77.45413208 291.70768738 C-85.48724728 291.76787596 -93.52028639 291.81351375 -101.55357552 291.84293652 C-105.68327605 291.85857175 -109.81278978 291.87977061 -113.94238281 291.91381836 C-117.92999983 291.94648863 -121.91743751 291.96436913 -125.90517807 291.97213173 C-127.42418108 291.97766152 -128.94317462 291.98845992 -130.46210098 292.00469017 C-132.59490177 292.02656711 -134.72696779 292.02946275 -136.85986328 292.02807617 C-138.0723172 292.03473801 -139.28477112 292.04139984 -140.53396606 292.04826355 C-144.31915766 291.63954003 -146.67935468 290.74379847 -149.875 288.6875 C-152.05677192 285.70227585 -152.12750563 283.06906971 -152.13378906 279.43505859 C-152.14009338 278.38651703 -152.14639771 277.33797546 -152.15289307 276.25765991 C-152.1488446 275.12849152 -152.14479614 273.99932312 -152.140625 272.8359375 C-152.14253845 271.6667276 -152.1444519 270.4975177 -152.14642334 269.2928772 C-152.14778465 266.81650579 -152.14409199 264.34012724 -152.13574219 261.86376953 C-152.1250998 258.09781552 -152.13560973 254.33234484 -152.1484375 250.56640625 C-152.14711477 248.15624896 -152.14455003 245.74609196 -152.140625 243.3359375 C-152.14467346 242.21891449 -152.14872192 241.10189148 -152.15289307 239.95101929 C-152.06560331 225.17102266 -148.51406809 212.15084185 -138.875 200.6875 C-137.98554688 199.4809375 -137.98554688 199.4809375 -137.078125 198.25 C-127.47686073 187.08257206 -112.25719875 180.95675531 -97.875 179.6875 C-88.87855774 179.35018302 -79.87358908 179.49629101 -70.875 179.6875 C-70.67801514 179.09074463 -70.48103027 178.49398926 -70.27807617 177.87915039 C-67.66377417 169.99143234 -67.66377417 169.99143234 -66.1875 166.125 C-65.754375 164.990625 -65.32125 163.85625 -64.875 162.6875 C-65.39707031 162.38199219 -65.91914063 162.07648438 -66.45703125 161.76171875 C-81.58449019 152.35673114 -92.76700688 137.90362161 -97.43261719 120.62207031 C-99.17750761 112.99566858 -99.3144073 105.35739333 -99.5 97.5625 C-99.53828301 96.2109152 -99.57734027 94.85935209 -99.6171875 93.5078125 C-99.71071054 90.23450609 -99.79646198 86.96119443 -99.875 83.6875 C-100.92558594 83.19121094 -101.97617188 82.69492188 -103.05859375 82.18359375 C-124.07507103 72.08327197 -124.07507103 72.08327197 -126.875 64.6875 C-126.875 59.71125043 -126.80396372 57.71174205 -123.4375 54 C-120.77122148 52.04515638 -117.96660464 50.86002805 -114.9375 49.5625 C-106.24974895 45.29619368 -103.09778402 36.13320639 -98.8762207 27.91821289 C-86.21628959 3.33951412 -86.21628959 3.33951412 -72.11328125 -2.4453125 C-68.28422965 -3.47070388 -64.62116411 -3.60320405 -60.6875 -3.6875 C-55.50702033 -3.87683453 -51.2403123 -4.24953182 -46.4375 -6.375 C-31.14117697 -12.67893919 -13.94942909 -7.11339308 0 0 Z " fill="#333333" transform="translate(290.875,16.3125)"/>
<path d="M0 0 C15.74638927 15.20984563 24.90987042 34.29221243 25.5234375 56.19555664 C25.79343009 79.03524215 19.77715058 98.18800312 4.125 115.1875 C3.58617187 115.81785156 3.04734375 116.44820312 2.4921875 117.09765625 C-9.74522379 130.59570538 -29.94058091 139.18528642 -47.87792969 140.31347656 C-68.79924531 141.08544477 -88.38610851 136.58647997 -104.875 123.1875 C-105.70386719 122.52105469 -106.53273438 121.85460937 -107.38671875 121.16796875 C-122.87502852 108.00409138 -133.40610816 88.90419983 -135.09814453 68.49609375 C-136.3479232 45.45942116 -131.2295901 24.87201547 -115.875 7.1875 C-115.111875 6.176875 -114.34875 5.16625 -113.5625 4.125 C-83.73811673 -28.4737445 -32.42055127 -28.08577004 0 0 Z " fill="#FD3131" transform="translate(134.875,69.8125)"/>
<path d="M0 0 C20.9787834 -0.57708627 39.91038148 6.58003062 55.7265625 20.12109375 C56.54640625 20.74242188 57.36625 21.36375 58.2109375 22.00390625 C71.40734923 33.11020308 80.6784904 52.14271823 82.7265625 69.12109375 C84.86116786 95.34148056 78.04404801 116.8521903 61.125 137.03125 C47.5100976 151.7527824 27.09711407 160.36324601 7.3125 161.3984375 C-15.17950592 162.10552152 -36.3940868 155.07138279 -52.97338867 139.5144043 C-68.45885349 124.36108111 -77.12972608 105.41158348 -77.74438477 83.84472656 C-77.92307195 63.63355431 -72.69074397 44.68926614 -59.2734375 29.12109375 C-58.71527344 28.40953125 -58.15710938 27.69796875 -57.58203125 26.96484375 C-45.1220713 11.77357734 -25.7041955 2.85299805 -6.4609375 0.37109375 C-4.30811224 0.20703086 -2.15594546 0.11483558 0 0 Z " fill="#1AA0FD" transform="translate(429.2734375,48.87890625)"/>
<path d="M0 0 C14.52 0 29.04 0 44 0 C44.04898438 4.64578125 44.09796875 9.2915625 44.1484375 14.078125 C44.18382507 17.02215714 44.21978569 19.96615991 44.2578125 22.91015625 C44.31810896 27.58247666 44.37628794 32.25475599 44.421875 36.92724609 C44.45876317 40.69452336 44.50513252 44.46157576 44.55806351 48.22866058 C44.57658873 49.66551517 44.59170363 51.10241793 44.60334396 52.53934479 C44.62023765 54.55269323 44.65040683 56.56591701 44.68115234 58.57910156 C44.70113785 60.29785492 44.70113785 60.29785492 44.7215271 62.05133057 C44.99452801 64.94205872 45.41697132 66.59459434 47 69 C49.23453729 70.6815961 49.23453729 70.6815961 51.96875 72.14453125 C53.00128906 72.73105469 54.03382813 73.31757813 55.09765625 73.921875 C56.22042969 74.54578125 57.34320313 75.1696875 58.5 75.8125 C59.67642655 76.47672297 60.85219791 77.14210757 62.02734375 77.80859375 C64.47013837 79.19283577 66.91568187 80.57202675 69.36328125 81.94775391 C74.93563725 85.0852535 80.46563278 88.29613776 86 91.5 C88.13649789 92.73345555 90.27321824 93.96652586 92.41015625 95.19921875 C93.4789502 95.81587402 94.54774414 96.4325293 95.64892578 97.06787109 C98.58687558 98.76180485 101.52563974 100.45430797 104.4649353 102.14590454 C106.87543748 103.53328095 109.28551376 104.92139624 111.69555664 106.30957031 C113.40143968 107.29173815 115.10793986 108.27283385 116.81445312 109.25390625 C117.84376953 109.846875 118.87308594 110.43984375 119.93359375 111.05078125 C120.84165771 111.57325439 121.74972168 112.09572754 122.68530273 112.6340332 C124.49126201 113.69977966 126.25521129 114.83680752 128 116 C131.45337714 116.4504405 133.40246081 116.31370808 136.5 114.6875 C140.2556629 110.65016238 142.53947481 105.90413956 145 101 C145.66 101 146.32 101 147 101 C150.07570022 107.27161427 153.14960648 113.54410569 156.22241211 119.81713867 C157.26238831 121.93972484 158.30273764 124.06212824 159.34350586 126.18432617 C165.01588137 137.75136186 170.66790311 149.3283328 176.26171875 160.93359375 C176.73922073 161.91731461 177.21672272 162.90103546 177.70869446 163.91456604 C178.14215683 164.81730759 178.5756192 165.72004913 179.0222168 166.65014648 C179.4054863 167.44452621 179.7887558 168.23890594 180.18363953 169.05735779 C181 171 181 171 181 173 C172.61964021 173.65784304 164.23887633 174.31017518 155.85756397 174.95575714 C151.96448352 175.25579503 148.07156052 175.55762574 144.17895508 175.86376953 C140.41210755 176.15995281 136.64490251 176.4511449 132.87741661 176.73908997 C131.45061551 176.84898018 130.02394438 176.96057368 128.59742165 177.07402039 C119.7187013 177.77874005 110.90998113 178.14950927 102 178 C103.10910518 174.57314937 104.11047535 171.55444217 106.125 168.5625 C108.24945319 164.95252692 108.6354738 162.2100139 108 158 C105.22622346 154.70538508 102.1310018 152.73220949 98.3984375 150.63671875 C97.28178711 150.00491699 96.16513672 149.37311523 95.01464844 148.72216797 C94.42228394 148.3910199 93.82991943 148.05987183 93.21960449 147.71868896 C91.34132225 146.66867313 89.46750725 145.61106341 87.59472656 144.55126953 C85.00086572 143.08365143 82.405637 141.61849729 79.80957031 140.15478516 C74.10180267 136.93170457 68.4262199 133.65326777 62.75 130.375 C61.69490234 129.76930176 60.63980469 129.16360352 59.55273438 128.53955078 C54.10260515 125.4043063 48.69075707 122.21930989 43.3203125 118.94921875 C42.23782227 118.29711426 41.15533203 117.64500977 40.04003906 116.97314453 C37.98880218 115.73487086 35.94584451 114.48273516 33.91308594 113.21435547 C27.43475936 109.23761631 27.43475936 109.23761631 20.06982422 108.4152832 C15.32603299 109.75538464 11.27435823 112.47334151 7.125 115.0625 C4.97979357 116.35780964 2.83393788 117.6520445 0.6875 118.9453125 C-0.4159375 119.61723633 -1.519375 120.28916016 -2.65625 120.98144531 C-8.01489399 124.21635101 -13.44540153 127.32370162 -18.875 130.4375 C-21.03271253 131.68201354 -23.1902633 132.92680756 -25.34765625 134.171875 C-29.36824718 136.48852116 -33.39281566 138.79795583 -37.42242432 141.09886169 C-39.81210708 142.46395767 -42.19998891 143.83218617 -44.58770752 145.20071411 C-46.26943448 146.16286142 -47.95377694 147.12043256 -49.63818359 148.07788086 C-50.66121582 148.66448486 -51.68424805 149.25108887 -52.73828125 149.85546875 C-54.08466675 150.62346802 -54.08466675 150.62346802 -55.45825195 151.40698242 C-60.93588181 154.76117137 -60.93588181 154.76117137 -64.1875 160.0625 C-63.94562323 165.14191221 -62.03050464 168.24222948 -59.4453125 172.546875 C-58 175 -58 175 -57 178 C-70.463172 178.36422234 -83.79342174 177.36675774 -97.21118164 176.34594727 C-100.95352046 176.06128138 -104.69639471 175.78479278 -108.43945312 175.50976562 C-110.84378488 175.33119825 -113.24808305 175.15217783 -115.65234375 174.97265625 C-116.75875717 174.89032242 -117.86517059 174.80798859 -119.00511169 174.72315979 C-125.02078877 174.26426329 -131.00816472 173.70586809 -137 173 C-135.73872966 168.98069278 -134.25841619 165.28735677 -132.34765625 161.53515625 C-131.82389404 160.49931396 -131.30013184 159.46347168 -130.76049805 158.39624023 C-129.91998901 156.74603882 -129.91998901 156.74603882 -129.0625 155.0625 C-122.86730254 142.78847514 -116.87329651 130.430816 -111 118 C-110.3817334 116.69144043 -110.3817334 116.69144043 -109.75097656 115.35644531 C-107.49358376 110.57426507 -105.24333842 105.78878832 -103 101 C-102.34 101 -101.68 101 -101 101 C-99.60536063 103.10232261 -98.31769738 105.19164749 -97.0625 107.375 C-94.26233728 112.29860556 -94.26233728 112.29860556 -90 116 C-82.51350819 116.00831832 -77.4970578 112.78791395 -71.25 108.9375 C-69.11029623 107.6534116 -66.96963146 106.3709235 -64.828125 105.08984375 C-63.71244141 104.41808105 -62.59675781 103.74631836 -61.44726562 103.05419922 C-56.26815035 99.95272662 -51.01455741 96.98164645 -45.76455688 94.00238037 C-42.82799578 92.33422717 -39.89660299 90.65704219 -36.96484375 88.98046875 C-33.47958886 86.98764184 -29.99376616 84.99586584 -26.50439453 83.01025391 C-23.18585472 81.1188606 -19.87352946 79.21700252 -16.5625 77.3125 C-15.56798828 76.74853516 -14.57347656 76.18457031 -13.54882812 75.60351562 C-12.62650391 75.07048828 -11.70417969 74.53746094 -10.75390625 73.98828125 C-9.95283447 73.52977783 -9.1517627 73.07127441 -8.32641602 72.59887695 C-4.39595827 69.89758954 -1.35404499 67.72076867 -0.36076355 62.89311218 C-0.35410172 61.73173233 -0.34743988 60.57035248 -0.34057617 59.3737793 C-0.33009247 58.72931351 -0.31960876 58.08484772 -0.30880737 57.42085266 C-0.2801586 55.3048121 -0.2863356 53.19041768 -0.29296875 51.07421875 C-0.27984728 49.60160787 -0.26454166 48.12901497 -0.24714661 46.65644836 C-0.20733498 42.79139695 -0.19710876 38.92681674 -0.19311523 35.06158447 C-0.18213281 30.41828632 -0.13427761 25.77523838 -0.09262848 21.13213348 C-0.03355645 14.08787785 -0.02122548 7.04492912 0 0 Z " fill="#1AA0FE" transform="translate(234,307)"/>
<path d="M0 0 C8.99559158 6.61485086 16.50301847 15.31211039 23.58810425 23.88343811 C27.02030341 28.1734006 27.02030341 28.1734006 31.79797363 30.68353271 C35.92095316 30.58057522 38.12250838 30.21534699 41.38781738 27.64447021 C42.16254395 26.79111084 42.93727051 25.93775146 43.73547363 25.05853271 C47.19501075 21.37596697 50.61968387 17.98291729 54.55578613 14.82025146 C56.49267507 12.97447054 57.82350603 11.30508807 59.35266113 9.14056396 C63.49031976 3.68528468 67.23809537 -0.60275086 74.19299316 -1.99713135 C91.34914874 -3.47553961 110.03874197 -2.37234193 123.92297363 8.80853271 C129.89156341 14.26015802 135.47674955 22.56322088 135.99328613 30.79681396 C135.92818197 33.75905355 135.8630778 36.72129313 135.79797363 39.68353271 C128.86797363 39.68353271 121.93797363 39.68353271 114.79797363 39.68353271 C114.46797363 37.04353271 114.13797363 34.40353271 113.79797363 31.68353271 C112.90039807 29.53573194 112.90039807 29.53573194 110.79797363 28.68353271 C107.12880969 28.14732922 103.95770848 27.86049508 100.86047363 30.05853271 C92.7009925 42.53773915 98.16152374 59.77797815 97.79797363 74.68353271 C55.55797363 74.68353271 13.31797363 74.68353271 -30.20202637 74.68353271 C-30.53202637 60.49353271 -30.86202637 46.30353271 -31.20202637 31.68353271 C-33.96613891 28.29472512 -33.96613891 28.29472512 -38.13952637 28.24603271 C-41.06472973 28.3750858 -42.10273915 28.61988706 -44.63952637 30.24603271 C-46.7697859 33.19799523 -46.7697859 33.19799523 -47.20202637 39.68353271 C-54.13202637 39.68353271 -61.06202637 39.68353271 -68.20202637 39.68353271 C-68.20202637 26.97382095 -65.01214053 18.99753425 -56.45983887 9.81243896 C-44.33926641 -1.88064442 -15.45255978 -9.23821337 0 0 Z " fill="#FE3131" transform="translate(225.2020263671875,215.31646728515625)"/>
<path d="M0 0 C15.74638927 15.20984563 24.90987042 34.29221243 25.5234375 56.19555664 C25.79343009 79.03524215 19.77715058 98.18800312 4.125 115.1875 C3.58617187 115.81785156 3.04734375 116.44820312 2.4921875 117.09765625 C-9.74522379 130.59570538 -29.94058091 139.18528642 -47.87792969 140.31347656 C-68.79924531 141.08544477 -88.38610851 136.58647997 -104.875 123.1875 C-105.70386719 122.52105469 -106.53273438 121.85460937 -107.38671875 121.16796875 C-122.87502852 108.00409138 -133.40610816 88.90419983 -135.09814453 68.49609375 C-136.3479232 45.45942116 -131.2295901 24.87201547 -115.875 7.1875 C-115.111875 6.176875 -114.34875 5.16625 -113.5625 4.125 C-83.73811673 -28.4737445 -32.42055127 -28.08577004 0 0 Z M-104.69921875 21.2109375 C-116.47769803 37.32440467 -118.7490906 54.29180431 -116.4453125 73.83203125 C-113.75995229 86.21452557 -106.7639042 96.40737609 -97.875 105.1875 C-97.26140625 105.82300781 -96.6478125 106.45851563 -96.015625 107.11328125 C-84.28402675 118.4187317 -68.44845499 122.73697195 -52.56982422 122.67773438 C-36.9882521 122.20018292 -22.19566429 115.83165163 -10.74609375 105.19140625 C0.96725505 92.64662977 8.00515882 76.89343607 8.625 59.6875 C7.94030327 41.84121105 0.78975459 26.69726633 -11.875 14.1875 C-12.48859375 13.55199219 -13.1021875 12.91648437 -13.734375 12.26171875 C-25.55498579 0.87048912 -41.85849552 -3.34123568 -57.90039062 -3.23681641 C-76.68492265 -2.55813181 -92.61675041 7.34721717 -104.69921875 21.2109375 Z " fill="#333232" transform="translate(134.875,69.8125)"/>
<path d="M0 0 C20.9787834 -0.57708627 39.91038148 6.58003062 55.7265625 20.12109375 C56.54640625 20.74242188 57.36625 21.36375 58.2109375 22.00390625 C71.40734923 33.11020308 80.6784904 52.14271823 82.7265625 69.12109375 C84.86116786 95.34148056 78.04404801 116.8521903 61.125 137.03125 C47.5100976 151.7527824 27.09711407 160.36324601 7.3125 161.3984375 C-15.17950592 162.10552152 -36.3940868 155.07138279 -52.97338867 139.5144043 C-68.45885349 124.36108111 -77.12972608 105.41158348 -77.74438477 83.84472656 C-77.92307195 63.63355431 -72.69074397 44.68926614 -59.2734375 29.12109375 C-58.71527344 28.40953125 -58.15710938 27.69796875 -57.58203125 26.96484375 C-45.1220713 11.77357734 -25.7041955 2.85299805 -6.4609375 0.37109375 C-4.30811224 0.20703086 -2.15594546 0.11483558 0 0 Z M-46.36328125 41.37109375 C-55.99620418 52.8378554 -60.99580257 68.10607761 -60.5625 83.015625 C-59.23617912 97.26461283 -54.88184654 108.80774884 -46.2734375 120.12109375 C-45.5515625 121.13171875 -44.8296875 122.14234375 -44.0859375 123.18359375 C-34.879627 133.76935143 -20.02895335 141.98399361 -6.00439453 143.34057617 C12.32036203 144.24487049 28.78523674 141.14483099 42.9765625 128.74609375 C44.57533859 127.2204478 46.15989102 125.6796896 47.7265625 124.12109375 C48.35304688 123.52941406 48.97953125 122.93773437 49.625 122.328125 C53.72552141 118.12555442 56.38905311 113.371446 59.0390625 108.18359375 C59.37695801 107.52738037 59.71485352 106.87116699 60.06298828 106.19506836 C66.42365663 93.15972398 67.0765176 75.86599894 63.1640625 61.99609375 C56.96309424 45.36622434 45.45186154 31.70513463 29.4765625 23.87109375 C1.10692975 11.57649045 -25.87426827 19.31189473 -46.36328125 41.37109375 Z " fill="#323333" transform="translate(429.2734375,48.87890625)"/>
<path d="M0 0 C1.58119629 0.17909912 1.58119629 0.17909912 3.19433594 0.36181641 C8.18338747 1.07832108 13.10927181 1.96343461 18.0390625 3.01171875 C19.07595215 3.23166504 20.1128418 3.45161133 21.18115234 3.67822266 C35.72156198 6.87384326 49.45288589 11.4101385 62.4140625 18.82421875 C63.12127441 19.21077637 63.82848633 19.59733398 64.55712891 19.99560547 C66.4140625 21.82421875 66.4140625 21.82421875 66.93164062 24.91186523 C66.93615234 26.16040283 66.94066406 27.40894043 66.9453125 28.6953125 C66.95105286 29.71166527 66.95105286 29.71166527 66.95690918 30.74855042 C66.95963127 32.1867928 66.95224898 33.62508444 66.93554688 35.06323242 C66.91443425 37.2236782 66.93517503 39.38068376 66.9609375 41.54101562 C66.99234489 56.9916695 62.4592307 69.7347631 51.7265625 81.01171875 C41.36237926 90.86542729 29.8706134 96.7770085 15.4140625 97.38671875 C3.74008562 96.99758619 -5.58936167 91.92594056 -14.5859375 84.82421875 C-15.22144531 84.35242188 -15.85695312 83.880625 -16.51171875 83.39453125 C-25.47357924 76.36016626 -31.22829932 65.89005942 -33.5859375 54.82421875 C-36.48788612 25.77814983 -36.48788612 25.77814983 -31.0390625 18.32421875 C-28.44276504 15.67916639 -25.52061637 13.69075331 -22.31347656 11.85205078 C-19.66583525 10.27678652 -17.4207482 8.26147353 -15.0859375 6.26171875 C-6.3210675 -0.7171589 -6.3210675 -0.7171589 0 0 Z " fill="#FE9D5B" transform="translate(243.5859375,74.17578125)"/>
<path d="M0 0 C3.02209135 1.9481819 5.4588263 4.47106309 8 7 C8.53737793 7.53044922 9.07475586 8.06089844 9.62841797 8.60742188 C13.4464158 12.37812824 17.23153156 16.17983001 21 20 C24.34584964 18.54957091 26.50054036 16.72261175 29.0390625 14.12109375 C29.78414062 13.36505859 30.52921875 12.60902344 31.296875 11.83007812 C32.44929688 10.64575195 32.44929688 10.64575195 33.625 9.4375 C35.15663169 7.87152109 36.69038195 6.30761061 38.2265625 4.74609375 C38.90283691 4.05185303 39.57911133 3.3576123 40.27587891 2.64233398 C42.55101396 0.47512448 43.660561 0.03771544 46.8125 -0.3125 C50.85211856 0.08354104 52.29729155 0.98841058 55 4 C56.25 7.25 56.25 7.25 56 11 C53.77732621 14.73738481 50.49001604 17.57255212 47.37207031 20.55957031 C46.18000989 21.70297521 44.99175675 22.85036117 43.80712891 24.00146484 C42.61134561 25.15847645 41.40272485 26.3023793 40.18115234 27.43212891 C38.28593533 29.19707089 38.28593533 29.19707089 36 32 C36.185811 35.82412591 38.29685427 37.57510997 41 40.08203125 C41.804375 40.84966797 42.60875 41.61730469 43.4375 42.40820312 C45.13999724 44.00559193 46.84831364 45.59680216 48.5625 47.18164062 C55.45406925 53.79158325 55.45406925 53.79158325 56.14453125 57.89453125 C55.9776256 61.48074714 55.219947 63.20451119 53 66 C49.55025002 67.72487499 46.65695574 68.01816395 43 67 C39.06891093 64.07750565 35.82841062 60.57997654 32.5 57 C31.57480976 56.03464044 30.64774129 55.07107725 29.71875 54.109375 C27.46007311 51.75658658 25.22215342 49.38722768 23 47 C19.53971687 48.46902461 17.48281547 50.37548574 14.953125 53.1328125 C14.19 53.93847656 13.426875 54.74414062 12.640625 55.57421875 C11.05024234 57.27114665 9.47198366 58.97952128 7.90625 60.69921875 C2.1806208 66.68423049 2.1806208 66.68423049 -1.27563477 67.60864258 C-4.54729179 67.67513816 -6.68009591 67.20506673 -9.4375 65.4375 C-11.63624632 62.00745574 -12.20546215 60.10924297 -12 56 C-10.17065558 52.86900666 -7.58105268 50.52112112 -5 48 C-3.80309366 46.79454921 -2.60792409 45.5873726 -1.4140625 44.37890625 C2.03588791 40.89730088 5.51249745 37.44396923 9 34 C5.93852182 30.31305854 2.86986844 26.79363498 -0.61328125 23.5 C-1.22107422 22.9225 -1.82886719 22.345 -2.45507812 21.75 C-3.70374414 20.57354916 -4.96178283 19.40697511 -6.22851562 18.25 C-9.37383259 15.22941693 -10.849789 13.54735977 -12.03125 9.2421875 C-12 6 -12 6 -10.1875 3.125 C-6.80937582 -0.15660634 -4.68449961 -0.69399994 0 0 Z " fill="#343232" transform="translate(58,96)"/>
<path d="M0 0 C13.85481446 7.07060945 27.75400342 17.89904395 35.0859375 31.98046875 C36.45210027 37.17188729 36.25997964 42.2076294 36.0234375 47.54296875 C31.83016711 46.21614289 27.89633911 44.62001961 23.8984375 42.79296875 C6.57736868 35.15348324 -12.27364991 30.92639839 -30.9765625 28.54296875 C-32.64606099 23.53447327 -32.3287558 18.35035976 -32.4140625 13.10546875 C-32.45982422 11.96013672 -32.50558594 10.81480469 -32.55273438 9.63476562 C-32.6651181 1.28416622 -32.6651181 1.28416622 -29.421875 -2.20703125 C-19.69301547 -5.7367762 -9.26724451 -4.08445221 0 0 Z " fill="#BE5F00" transform="translate(276.9765625,29.45703125)"/>
<path d="M0 0 C2.875 1.4375 2.875 1.4375 5 4 C5.83287997 7.79110563 6.05869558 9.3674949 5 13 C1.65294684 17.64061518 -2.40915911 21.48152758 -6.5234375 25.4375 C-7.70880693 26.60860683 -8.89226287 27.78165335 -10.07388306 28.95654297 C-13.18032725 32.03438547 -16.31327017 35.08383274 -19.45220947 38.128479 C-22.64725937 41.23833569 -25.81391063 44.37683941 -28.984375 47.51171875 C-33.61217356 52.0761385 -38.24615234 56.63410692 -42.90771484 61.1640625 C-43.84481293 62.07623535 -44.78191101 62.9884082 -45.74740601 63.92822266 C-48.44898712 66.41294674 -49.48843626 66.9181498 -53.125 67.5 C-58.80888054 66.76659606 -61.04516608 63.97932206 -65 60 C-66.25675805 58.77756085 -67.51467461 57.55631215 -68.7734375 56.3359375 C-70.14207786 54.99627434 -71.50925012 53.6551098 -72.875 52.3125 C-73.54208984 51.65886475 -74.20917969 51.00522949 -74.89648438 50.33178711 C-75.52619141 49.70280518 -76.15589844 49.07382324 -76.8046875 48.42578125 C-77.37171387 47.86286377 -77.93874023 47.29994629 -78.52294922 46.7199707 C-81.02537627 43.80598747 -82.03628933 41.87094395 -81.875 38 C-80.83307574 34.42768824 -80.10357196 33.06904798 -77 31 C-70.38165027 30.02856324 -70.38165027 30.02856324 -67.10131836 32.33496094 C-65.21899613 34.1737333 -63.47340259 36.07410519 -61.75 38.0625 C-60.56915724 39.39731041 -59.37691159 40.72214624 -58.171875 42.03515625 C-57.6572168 42.6269165 -57.14255859 43.21867676 -56.61230469 43.82836914 C-55.08314705 45.21135324 -55.08314705 45.21135324 -53.17233276 44.82603455 C-50.300734 43.73410249 -48.78809589 42.1406844 -46.63037109 39.95507812 C-45.34916885 38.66869446 -45.34916885 38.66869446 -44.04208374 37.35632324 C-43.12843048 36.42404907 -42.21477722 35.4917749 -41.2734375 34.53125 C-40.32060546 33.57027949 -39.367032 32.6100436 -38.41275024 31.6505127 C-35.90489445 29.12555243 -33.40574522 26.59215563 -30.90875244 24.05645752 C-26.90714873 19.99561562 -22.89275635 15.94742435 -18.87782669 11.89976501 C-17.47581732 10.48377816 -16.07789631 9.06374711 -14.68002319 7.64367676 C-13.83219269 6.78608765 -12.98436218 5.92849854 -12.11083984 5.04492188 C-10.98976334 3.90694153 -10.98976334 3.90694153 -9.84603882 2.74597168 C-6.64793208 -0.27877717 -4.33992652 -0.42548299 0 0 Z " fill="#323333" transform="translate(470,96)"/>
<path d="M0 0 C0.78503906 0.16242188 1.57007813 0.32484375 2.37890625 0.4921875 C6.92401754 1.12958175 11.35466028 1.14532301 15.9375 1.125 C17.23977539 1.13080078 17.23977539 1.13080078 18.56835938 1.13671875 C23.48604607 1.12928461 28.15215056 0.8310599 33 0 C34.03479213 2.41151557 35.0529372 4.82794469 36.0625 7.25 C36.35705078 7.93191406 36.65160156 8.61382812 36.95507812 9.31640625 C39.04260275 14.37558358 39.04260275 14.37558358 38.86914062 16.91796875 C37.61062833 19.93274202 35.63338978 21.70134177 33.30859375 23.984375 C32.84389175 24.44483215 32.37918976 24.90528931 31.90040588 25.37969971 C30.41968181 26.84367811 28.92885481 28.29686041 27.4375 29.75 C26.42965336 30.74279449 25.42248367 31.7362767 24.41601562 32.73046875 C21.95180539 35.16166473 19.47842671 37.58328868 17 40 C10.91293788 35.72963509 5.68809467 30.93799325 0.5 25.625 C-0.22703125 24.88894531 -0.9540625 24.15289062 -1.703125 23.39453125 C-3.47346856 21.6008937 -5.23892503 19.80273067 -7 18 C-5.4543086 13.22223076 -3.91524244 8.50552668 -1.8125 3.9375 C-1.46832031 3.18339844 -1.12414062 2.42929688 -0.76953125 1.65234375 C-0.51558594 1.10707031 -0.26164063 0.56179687 0 0 Z " fill="#FC9C5B" transform="translate(243,186)"/>
<path d="M0 0 C0.56185582 3.97703534 1.04463356 7.95548988 1.45874023 11.95068359 C1.6099282 13.30508252 1.78180689 14.65734859 1.9753418 16.00634766 C2.61129726 20.49954733 2.91871798 24.53983521 2 29 C-1.14644462 32.62368252 -4.85252852 34.66542894 -9 37 C-10.37455196 38.06152906 -11.72306629 39.15846237 -13.03125 40.30078125 C-13.61390625 40.80287109 -14.1965625 41.30496094 -14.796875 41.82226562 C-15.35890625 42.31404297 -15.9209375 42.80582031 -16.5 43.3125 C-17.09296875 43.82361328 -17.6859375 44.33472656 -18.296875 44.86132812 C-21.51917995 47.62773882 -21.51917995 47.62773882 -24.46679688 50.67651367 C-26 52 -26 52 -29.5 51.8125 C-33 51 -33 51 -36 49 C-34.59947104 45.92776123 -32.91020138 43.55466674 -30.75 40.96875 C-26.69807079 35.8430176 -23.87282113 30.34549969 -21 24.5 C-8.95926413 0 -8.95926413 0 0 0 Z " fill="#BE5F00" transform="translate(227,31)"/>
<path d="M0 0 C0.89460938 -0.00128906 1.78921875 -0.00257813 2.7109375 -0.00390625 C3.65195312 -0.00003906 4.59296875 0.00382812 5.5625 0.0078125 C6.97402344 0.00201172 6.97402344 0.00201172 8.4140625 -0.00390625 C9.75597656 -0.00197266 9.75597656 -0.00197266 11.125 0 C11.95128906 0.00112793 12.77757812 0.00225586 13.62890625 0.00341797 C15.5625 0.1328125 15.5625 0.1328125 16.5625 1.1328125 C16.63580331 3.99750575 16.65467831 6.83174924 16.625 9.6953125 C16.604375 12.4796875 16.58375 15.2640625 16.5625 18.1328125 C9.3025 18.1328125 2.0425 18.1328125 -5.4375 18.1328125 C-5.458125 15.3484375 -5.47875 12.5640625 -5.5 9.6953125 C-5.509104 8.81689697 -5.51820801 7.93848145 -5.52758789 7.03344727 C-5.53473091 5.06635276 -5.48781893 3.09927629 -5.4375 1.1328125 C-3.84812444 -0.45656306 -2.19850154 0.00300107 0 0 Z " fill="#F29759" transform="translate(345.4375,271.8671875)"/>
<path d="M0 0 C6.93 0 13.86 0 21 0 C21 5.94 21 11.88 21 18 C14.07 18 7.14 18 0 18 C0 12.06 0 6.12 0 0 Z " fill="#FA9B5B" transform="translate(157,272)"/>
</svg>
