<?xml version="1.0" encoding="UTF-8"?>
<svg version="1.1" xmlns="http://www.w3.org/2000/svg" width="512" height="512">
<path d="M0 0 C0.66291046 0.00054382 1.32582092 0.00108765 2.00881958 0.00164795 C12.67352283 0.0418357 22.3305027 0.9198923 32.4375 4.375 C33.06575684 4.58398926 33.69401367 4.79297852 34.34130859 5.00830078 C50.00653011 10.32563379 62.73456058 18.81076209 74.4375 30.375 C75.15292969 31.01824219 75.86835938 31.66148437 76.60546875 32.32421875 C92.35166469 46.81323338 103.42501336 71.26894574 104.61450195 92.5402832 C105.15799155 122.56645931 105.15799155 122.56645931 100.4375 136.375 C100.22851074 137.00325684 100.01952148 137.63151367 99.80419922 138.27880859 C94.48686621 153.94403011 86.00173791 166.67206058 74.4375 178.375 C73.79425781 179.09042969 73.15101563 179.80585938 72.48828125 180.54296875 C57.81049807 196.49431229 33.04500903 207.58582498 11.50170898 208.49951172 C-21.99123632 209.28654583 -48.62586124 202.23104424 -73.37817383 178.94287109 C-90.88458176 161.99725692 -103.35429369 137.49132219 -103.80078125 112.82421875 C-104.00026259 98.90814884 -104.12289526 85.67497626 -99.5625 72.375 C-99.34287598 71.73079102 -99.12325195 71.08658203 -98.89697266 70.42285156 C-94.5725103 58.02789576 -87.98211773 47.13752243 -80.5625 36.375 C-81.0678125 35.8903125 -81.573125 35.405625 -82.09375 34.90625 C-88.06772534 28.74262465 -88.06772534 28.74262465 -88.25 24.125 C-87.5625 20.375 -87.5625 20.375 -86.0625 17.875 C-83.25397747 16.18988648 -81.00152259 15.62993094 -77.71484375 15.7890625 C-72.80855344 17.12471322 -69.42026852 21.33983183 -66.08984375 24.98828125 C-64.70742957 26.53527246 -64.70742957 26.53527246 -62.5625 28.375 C-58.84063219 28.06351321 -56.37148517 25.98014576 -53.4375 23.8125 C-48.77577968 20.375 -48.77577968 20.375 -46.5625 20.375 C-46.645 19.1375 -46.7275 17.9 -46.8125 16.625 C-47.00353465 13.75948019 -46.77426781 12.67192313 -45.0859375 10.3046875 C-41.62460874 7.65778904 -38.06614851 6.53977615 -33.9375 5.25 C-32.80248047 4.87294922 -32.80248047 4.87294922 -31.64453125 4.48828125 C-21.03896568 1.06076344 -11.15106067 -0.01543982 0 0 Z " fill="#465A64" transform="translate(119.5625,287.625)"/>
<path d="M0 0 C0.98395752 0.32145996 0.98395752 0.32145996 1.98779297 0.64941406 C25.27606336 8.55212671 25.27606336 8.55212671 29 16 C29.13357453 19.67329964 29.1671568 22.49852959 28 26 C28.86044922 26.37125 28.86044922 26.37125 29.73828125 26.75 C32.34539758 28.19089331 34.10539016 29.87491979 36.1875 32 C36.88230469 32.70125 37.57710937 33.4025 38.29296875 34.125 C40 36 40 36 41 38 C43.54404202 36.86931466 45.23858527 35.78075948 47.3125 33.875 C50.81927423 31.42841333 52.80618071 31.38998992 57 32 C60.15600256 34.07631747 60.89160405 35.70333739 62.1875 39.25 C61.94352821 44.12943587 60.12811786 45.75272643 56.76171875 49.10546875 C54.28692417 51.71843865 54.28692417 51.71843865 53 55 C53.83734608 57.67306632 54.72748318 60.03063842 55.875 62.5625 C59 69.6790393 59 69.6790393 59 73 C60.258125 73.103125 61.51625 73.20625 62.8125 73.3125 C65.20071198 73.63261307 66.7698971 73.86960835 68.875 75.0625 C73.09736143 82.33434468 72.38607819 91.33178859 72.375 99.4375 C72.37445618 100.10540558 72.37391235 100.77331116 72.37335205 101.4614563 C72.33325879 112.16523397 71.46778263 121.85592559 68 132 C67.79101074 132.62825684 67.58202148 133.25651367 67.36669922 133.90380859 C62.04936621 149.56903011 53.56423791 162.29706058 42 174 C41.35675781 174.71542969 40.71351563 175.43085938 40.05078125 176.16796875 C25.37299807 192.11931229 0.60750903 203.21082498 -20.93579102 204.12451172 C-54.42873632 204.91154583 -81.06336124 197.85604424 -105.81567383 174.56787109 C-123.32208176 157.62225692 -135.79179369 133.11632219 -136.23828125 108.44921875 C-136.43783603 94.52802565 -136.54910002 81.30718042 -132 68 C-131.79101074 67.37174316 -131.58202148 66.74348633 -131.36669922 66.09619141 C-126.04936621 50.43096989 -117.56423791 37.70293942 -106 26 C-105.35675781 25.28457031 -104.71351563 24.56914062 -104.05078125 23.83203125 C-79.06609611 -3.32052244 -34.05614524 -11.19024127 0 0 Z " fill="#54F99A" transform="translate(424,292)"/>
<path d="M0 0 C3.61858466 3.04217294 6.98211786 6.28749816 10.30371094 9.64941406 C10.95726562 10.29265625 11.61082031 10.93589844 12.28417969 11.59863281 C28.04955338 28.22983939 33.83703357 50.29004635 34.45996094 72.59863281 C35.12581279 95.8500014 42.46979658 110.21183903 59.17871094 126.52441406 C60.02385254 127.32145752 60.86899414 128.11850098 61.73974609 128.93969727 C67.41144534 134.3681935 70.73806696 138.12935812 71.73730469 146.11425781 C71.73859375 147.26023438 71.73988281 148.40621094 71.74121094 149.58691406 C71.76054687 150.7303125 71.77988281 151.87371094 71.79980469 153.05175781 C70.73783887 160.75310048 66.49296263 166.07399004 61.10449219 171.41503906 C60.51000778 172.01572205 59.91552338 172.61640503 59.30302429 173.23529053 C58.05149342 174.49387819 56.79488082 175.74743134 55.53344727 176.99609375 C53.62270738 178.89296477 51.73720548 180.81261355 49.85253906 182.73535156 C48.62547541 183.96336662 47.39700444 185.18997741 46.16699219 186.41503906 C45.61352615 186.98176331 45.06006012 187.54848755 44.48982239 188.13238525 C39.61108888 192.89933308 34.08161028 196.02549571 27.29980469 197.14550781 C15.33022765 196.87139536 9.83852542 192.9209794 1.30371094 184.64941406 C0.59214844 184.03453125 -0.11941406 183.41964844 -0.85253906 182.78613281 C-4.12173955 179.87198894 -6.04391934 177.82103104 -6.69628906 173.39941406 C-6.69628906 169.64941406 -6.69628906 169.64941406 -5.69628906 166.64941406 C-10.48896339 162.76202266 -15.0176321 159.12472607 -20.69628906 156.64941406 C-21.02628906 157.63941406 -21.35628906 158.62941406 -21.69628906 159.64941406 C-23.65740381 161.21830586 -25.0899925 161.67057842 -27.59863281 161.58300781 C-30.2669608 161.26996375 -32.85032092 160.89858537 -35.43115234 160.13842773 C-38.29614267 159.51991344 -41.00742262 159.48506908 -43.93847656 159.43847656 C-45.78699219 159.3959375 -45.78699219 159.3959375 -47.67285156 159.35253906 C-50.23261622 159.30124117 -52.79252818 159.25675151 -55.35253906 159.21972656 C-80.36837609 158.59821508 -102.00283865 149.24682041 -119.69628906 131.64941406 C-135.88483094 114.434229 -144.29475832 90.78419572 -143.67529297 67.28491211 C-142.91040113 51.5794922 -138.4230873 38.26893131 -130.69628906 24.64941406 C-130.21289062 23.79734375 -129.72949219 22.94527344 -129.23144531 22.06738281 C-117.83678182 3.7368372 -98.72832627 -9.85796873 -78.01660156 -15.60839844 C-50.91703876 -21.66594777 -22.09861205 -17.59492255 0 0 Z " fill="#FDF075" transform="translate(158.6962890625,32.3505859375)"/>
<path d="M0 0 C0.74093399 -0.00761353 1.48186798 -0.01522705 2.24525452 -0.02307129 C3.81117384 -0.03386853 5.37716515 -0.03672688 6.94311523 -0.03222656 C9.33634865 -0.03125459 11.72637067 -0.07286326 14.11914062 -0.1171875 C15.64192041 -0.12239506 17.16471132 -0.12508268 18.6875 -0.125 C19.40115219 -0.14139526 20.11480438 -0.15779053 20.8500824 -0.17468262 C24.57227696 -0.12304175 26.10532397 0.17540165 28.82739258 2.79492188 C30.7268486 6.00375149 31.45087087 8.81198982 32.16015625 12.46875 C32.4025 13.665 32.64484375 14.86125 32.89453125 16.09375 C33.33323859 18.96528893 33.51978508 21.5745488 33.41015625 24.46875 C34.58578125 24.5925 34.58578125 24.5925 35.78515625 24.71875 C39.41015625 25.46875 39.41015625 25.46875 41.47265625 26.77734375 C44.32741787 28.47959181 46.06144826 29.25892047 49.41015625 29.46875 C53.16217566 27.91319747 56.43200597 25.61524974 59.70068359 23.22924805 C62.83547377 20.95584706 64.78588391 19.56198064 68.6796875 18.98046875 C73.55267532 19.85189003 75.96876869 23.07974276 79.41015625 26.46875 C80.69155411 27.65619468 81.97421856 28.84227331 83.2578125 30.02734375 C84.64355928 31.33942414 86.02765728 32.65324793 87.41015625 33.96875 C88.09392334 34.59724854 88.77769043 35.22574707 89.48217773 35.87329102 C92.58906033 38.89755422 94.23176071 40.66146514 95.18359375 44.96875 C94.3183573 48.88416342 92.96340152 50.90104605 90.54394531 54.01269531 C87.08529369 58.49663007 83.85049099 62.82520403 84.44921875 68.703125 C85.47266111 72.96364365 87.07846393 76.54670042 90.41015625 79.46875 C95.3829943 81.85932888 100.83387954 82.48113924 106.28540039 82.88549805 C109.50387471 83.76897905 111.13265122 85.02812934 113.41015625 87.46875 C113.89561662 90.25224876 114.06766951 92.41592228 114.00390625 95.19140625 C114.00394653 95.93329697 114.00398682 96.67518768 114.00402832 97.43955994 C113.99867891 99.00381976 113.98112035 100.56807942 113.95214844 102.13208008 C113.91022997 104.52703836 113.9110851 106.91918927 113.91796875 109.31445312 C113.90747776 110.83595705 113.89454013 112.35744648 113.87890625 113.87890625 C113.87870483 114.59458267 113.87850342 115.31025909 113.8782959 116.04762268 C113.81000791 118.91258484 113.75364947 120.96760253 112.10693359 123.37011719 C109.19157689 125.25775822 105.87655724 125.88261031 102.53515625 126.65625 C101.82746094 126.83349609 101.11976563 127.01074219 100.390625 127.19335938 C96.66863291 128.09093475 93.2407177 128.68656624 89.41015625 128.46875 C89.32765625 129.2525 89.24515625 130.03625 89.16015625 130.84375 C88.41015625 134.46875 88.41015625 134.46875 87.1015625 136.53125 C85.40032072 139.38432403 84.62010766 141.12238167 84.41015625 144.46875 C85.96668444 148.19162951 88.25974382 151.43808836 90.6496582 154.67138672 C93.07582957 158.00029067 94.33788506 160.00146228 94.98046875 164.15625 C94.3069969 168.06792213 93.29905228 169.47431753 90.53515625 172.28125 C89.71917969 173.12300781 88.90320313 173.96476563 88.0625 174.83203125 C87.18722656 175.70214844 86.31195313 176.57226562 85.41015625 177.46875 C84.52457031 178.39042969 83.63898438 179.31210938 82.7265625 180.26171875 C74.23699791 189.00357352 74.23699791 189.00357352 68.6328125 189.92578125 C64.74857633 189.37492594 62.93249355 187.96952067 59.85229492 185.65771484 C53.38131946 180.67806166 53.38131946 180.67806166 45.58203125 179.91796875 C42.36347116 181.23498044 39.43772919 182.76889873 36.41015625 184.46875 C35.42015625 184.46875 34.43015625 184.46875 33.41015625 184.46875 C33.30703125 185.70625 33.20390625 186.94375 33.09765625 188.21875 C32.64821548 192.1513567 31.96235998 195.98078005 31.09765625 199.84375 C30.76314453 201.34035156 30.76314453 201.34035156 30.421875 202.8671875 C29.1916563 206.03060701 28.34484022 206.79589919 25.41015625 208.46875 C22.08203125 208.85693359 22.08203125 208.85693359 18.16015625 208.8671875 C17.4650293 208.87005768 16.76990234 208.87292786 16.05371094 208.87588501 C14.58788231 208.87792134 13.12202624 208.87242156 11.65625 208.85986328 C9.41734848 208.8438016 7.18025188 208.85972458 4.94140625 208.87890625 C3.51431895 208.87692374 2.08723276 208.8730799 0.66015625 208.8671875 C-1.28117187 208.86211182 -1.28117187 208.86211182 -3.26171875 208.85693359 C-6.77528759 208.44712033 -8.17009996 208.00039786 -10.58984375 205.46875 C-11.52647073 202.79184696 -12.23588028 200.34128872 -12.83984375 197.59375 C-13.01257813 196.88605469 -13.1853125 196.17835938 -13.36328125 195.44921875 C-14.23510561 191.73358637 -14.79941907 188.28601473 -14.58984375 184.46875 C-15.37359375 184.38625 -16.15734375 184.30375 -16.96484375 184.21875 C-20.58984375 183.46875 -20.58984375 183.46875 -22.65234375 182.16015625 C-25.50541778 180.45891447 -27.24347542 179.67870141 -30.58984375 179.46875 C-34.31272326 181.02527819 -37.55918211 183.31833757 -40.79248047 185.70825195 C-44.12138442 188.13442332 -46.12255603 189.39647881 -50.27734375 190.0390625 C-54.18901588 189.36559065 -55.59541128 188.35764603 -58.40234375 185.59375 C-59.24410156 184.7790625 -60.08585937 183.964375 -60.953125 183.125 C-62.25830078 181.81015625 -62.25830078 181.81015625 -63.58984375 180.46875 C-64.97236328 179.12296875 -64.97236328 179.12296875 -66.3828125 177.75 C-75.38354807 168.9181094 -75.38354807 168.9181094 -76.046875 164.2578125 C-75.44374408 159.25749636 -73.25301468 156.76631329 -70.27734375 152.84375 C-66.35178931 147.26863235 -66.35178931 147.26863235 -66.0390625 140.64453125 C-67.35545918 137.42386759 -68.88918382 134.49776322 -70.58984375 131.46875 C-70.58984375 130.47875 -70.58984375 129.48875 -70.58984375 128.46875 C-71.82734375 128.365625 -73.06484375 128.2625 -74.33984375 128.15625 C-88.42126305 126.5692964 -88.42126305 126.5692964 -93.22314453 123.38598633 C-95.32230359 120.44123891 -95.05761199 117.36730563 -95.05859375 113.87890625 C-95.06620728 113.13797226 -95.0738208 112.39703827 -95.08166504 111.63365173 C-95.09246228 110.06773241 -95.09532063 108.5017411 -95.09082031 106.93579102 C-95.08984834 104.5425576 -95.13145701 102.15253558 -95.17578125 99.75976562 C-95.18098881 98.23698584 -95.18367643 96.71419493 -95.18359375 95.19140625 C-95.19998901 94.47775406 -95.21638428 93.76410187 -95.23327637 93.02882385 C-95.1816355 89.30662929 -94.8831921 87.77358228 -92.26367188 85.05151367 C-89.05484226 83.15205765 -86.24660393 82.42803538 -82.58984375 81.71875 C-80.79546875 81.35523437 -80.79546875 81.35523437 -78.96484375 80.984375 C-76.09330482 80.54566766 -73.48404495 80.35912117 -70.58984375 80.46875 C-70.50734375 79.685 -70.42484375 78.90125 -70.33984375 78.09375 C-69.58984375 74.46875 -69.58984375 74.46875 -68.28125 72.40625 C-66.58000822 69.55317597 -65.79979516 67.81511833 -65.58984375 64.46875 C-67.14637194 60.74587049 -69.43943132 57.49941164 -71.8293457 54.26611328 C-74.21653633 50.99069406 -75.51196156 48.91167509 -76.2265625 44.84765625 C-75.43579405 40.651247 -73.60941323 38.48360228 -70.65234375 35.59375 C-69.9099646 34.82937622 -69.9099646 34.82937622 -69.15258789 34.04956055 C-67.64688102 32.50669956 -66.11944333 30.98787287 -64.58984375 29.46875 C-63.71070313 28.56511719 -62.8315625 27.66148438 -61.92578125 26.73046875 C-54.98594258 19.64369539 -54.98594258 19.64369539 -50.44140625 19.07421875 C-45.36351203 19.59436816 -42.93312834 21.77089472 -38.96484375 24.78125 C-33.3897261 28.70680444 -33.3897261 28.70680444 -26.765625 29.01953125 C-23.54496134 27.70313457 -20.61885697 26.16940993 -17.58984375 24.46875 C-16.59984375 24.46875 -15.60984375 24.46875 -14.58984375 24.46875 C-14.55246094 23.87449219 -14.51507813 23.28023437 -14.4765625 22.66796875 C-13.27148889 7.47458969 -13.27148889 7.47458969 -9.50708008 1.85131836 C-6.5666035 -0.26913482 -3.49505569 0.00098363 0 0 Z M-16.58984375 84.46875 C-21.93485188 90.63606707 -24.01773038 99.37804611 -23.65234375 107.46875 C-22.3905719 115.89412977 -17.96227905 124.28922232 -11.6328125 130.00390625 C-3.37587639 135.92427153 5.40550494 138.4315452 15.41015625 136.84375 C23.84966872 134.86798816 31.15553441 130.40955645 36.41015625 123.46875 C41.67569457 114.58826958 43.46642967 106.45550101 41.34765625 96.34375 C39.73925486 90.68536492 37.43377281 86.72202504 33.41015625 82.46875 C32.84554687 81.84097656 32.2809375 81.21320313 31.69921875 80.56640625 C25.69129285 74.5711553 17.82681196 71.80641165 9.40234375 71.28125 C-1.56053693 71.96821902 -9.29843578 76.48761425 -16.58984375 84.46875 Z " fill="#9DE4FD" transform="translate(382.58984375,15.53125)"/>
<path d="M0 0 C20.45535739 14.48921148 34.79603432 34.85830849 39.42871094 59.69970703 C41.69269424 75.1126519 39.85489785 89.67603345 34.8125 104.3125 C34.42835938 105.44171875 34.04421875 106.5709375 33.6484375 107.734375 C25.65133319 128.73357406 8.62781759 145.16904998 -11.38671875 154.7421875 C-32.99195984 164.08096845 -57.04434942 165.58194956 -79.1875 157.3125 C-90.07164561 152.98290869 -99.31123262 146.89561951 -108.1875 139.3125 C-108.86167969 138.74015625 -109.53585938 138.1678125 -110.23046875 137.578125 C-124.5987349 124.29487666 -134.87416057 102.50728326 -136.36450195 82.99511719 C-136.96955365 59.43908045 -132.34332933 39.55806572 -118.1875 20.3125 C-117.1975 19.6525 -116.2075 18.9925 -115.1875 18.3125 C-113.4853302 19.8800518 -111.80109446 21.46709784 -110.125 23.0625 C-109.18527344 23.94421875 -108.24554688 24.8259375 -107.27734375 25.734375 C-105.1875 28.3125 -105.1875 28.3125 -105.203125 30.34765625 C-106.35860102 32.65402307 -107.61488401 34.82238726 -109 37 C-118.62675658 52.77590492 -121.84257179 70.21543003 -118.53125 88.5078125 C-115.49099729 101.06195949 -109.77956327 112.62938108 -101.1875 122.3125 C-100.69121094 122.90160156 -100.19492188 123.49070312 -99.68359375 124.09765625 C-89.26552299 135.56014514 -72.18377446 144.09477056 -56.82421875 145.53393555 C-35.60837432 146.51174913 -16.36608026 141.731856 -0.1875 127.3125 C0.48667969 126.73113281 1.16085938 126.14976562 1.85546875 125.55078125 C11.6252654 116.53686829 17.07934122 104.88735063 20.8125 92.3125 C21.18181641 91.1059375 21.18181641 91.1059375 21.55859375 89.875 C26.37040005 70.76051428 21.48067665 51.97684667 11.8125 35.3125 C9.67927405 32.10300846 7.37512908 29.18778099 4.8125 26.3125 C4.23113281 25.63832031 3.64976562 24.96414063 3.05078125 24.26953125 C-5.96313171 14.4997346 -17.61264937 9.04565878 -30.1875 5.3125 C-30.991875 5.06628906 -31.79625 4.82007813 -32.625 4.56640625 C-38.25782321 3.14842124 -43.97126611 3.08295899 -49.75 3 C-50.54172607 2.98219482 -51.33345215 2.96438965 -52.14916992 2.94604492 C-57.78488929 2.95364102 -63.11456002 3.71485732 -68.1875 6.3125 C-70.55972995 9.20829382 -70.55972995 9.20829382 -69.9375 12.875 C-69.5016556 16.35842612 -69.5016556 16.35842612 -67.1875 18.3125 C-64.51663508 18.50820382 -64.51663508 18.50820382 -61.39453125 18.33203125 C-59.62311768 18.28296631 -59.62311768 18.28296631 -57.81591797 18.23291016 C-56.55666504 18.1972998 -55.29741211 18.16168945 -54 18.125 C-38.67951987 17.91391008 -26.90260149 20.27686011 -14.1875 29.3125 C-13.56617188 29.75078125 -12.94484375 30.1890625 -12.3046875 30.640625 C-1.63318549 38.96726782 5.29097951 52.1788139 7.8125 65.3125 C9.48672538 83.07691248 4.8763745 98.55684481 -6.4375 112.5 C-15.56516138 122.40660841 -29.76862086 129.91552817 -43.3515625 130.6484375 C-59.8084826 130.98216 -74.96246584 126.85474503 -87.28125 115.34375 C-99.24033953 102.60045787 -104.89173268 87.66252007 -104.4296875 70.33984375 C-103.90331005 59.26767653 -99.70401567 50.68301976 -94.1875 41.3125 C-90.83929102 42.77875856 -88.49483641 44.64908447 -85.875 47.1875 C-85.15699219 47.86554688 -84.43898437 48.54359375 -83.69921875 49.2421875 C-82.1875 51.3125 -82.1875 51.3125 -82.328125 53.26171875 C-82.75351563 54.27685547 -82.75351563 54.27685547 -83.1875 55.3125 C-83.50847656 56.08464844 -83.82945313 56.85679687 -84.16015625 57.65234375 C-84.51980469 58.50957031 -84.87945312 59.36679687 -85.25 60.25 C-89.22283599 71.20804211 -87.60246628 81.72208244 -83.1875 92.3125 C-78.34057568 102.00634864 -70.55747832 107.96680781 -60.4609375 111.6015625 C-49.93407938 114.89346659 -39.44386007 113.71292567 -29.51171875 109.05859375 C-19.04820901 103.23141913 -13.9450529 95.56963162 -10.1875 84.3125 C-7.73037221 74.37443538 -8.48762161 64.42111387 -13.1875 55.3125 C-18.15189953 47.35689266 -25.28212713 40.60361606 -34.1875 37.3125 C-37.38235256 37.43778834 -39.36310949 37.79038601 -42.0625 39.5 C-43.77308918 42.25594924 -43.64089217 44.13875484 -43.1875 47.3125 C-41.19457163 49.91863709 -39.15937365 51.33000084 -36.375 53.0625 C-30.82828369 56.97782916 -26.28766333 61.76317551 -24.1875 68.3125 C-23.02033161 76.31067494 -24.54341095 82.71654743 -29.1875 89.3125 C-34.22215717 95.00018802 -38.9208959 97.76767889 -46.56640625 98.55859375 C-52.65531633 98.86536327 -57.26550402 98.00399699 -62.1875 94.3125 C-67.76366152 89.10215049 -71.85590931 84.46722792 -72.359375 76.640625 C-72.57858284 68.35456861 -72.57858284 68.35456861 -70.1875 64.3125 C-64.91314459 68.66957621 -60.10281621 73.34259718 -55.32421875 78.23828125 C-52.7723134 80.7155422 -51.84547317 81.24098118 -48.3125 81.625 C-45.14225233 81.56034917 -45.14225233 81.56034917 -42.8125 79.6875 C-41.03704597 77.38789163 -41.03704597 77.38789163 -40.5 74.5625 C-42.41205026 65.52371695 -53.98271828 57.41610643 -60.40975761 51.04564285 C-62.46720712 49.00573573 -64.52096188 46.96217359 -66.57374573 44.91757202 C-72.4048351 39.11082124 -78.24171239 33.30991297 -84.08276367 27.51318359 C-87.6676397 23.95500501 -91.24769835 20.39203892 -94.82478523 16.82603073 C-96.18772978 15.46930729 -97.55257041 14.11448593 -98.91930962 12.76158524 C-100.81978743 10.88020704 -102.71413292 8.99285663 -104.60717773 7.10400391 C-105.46030045 6.26402359 -105.46030045 6.26402359 -106.33065796 5.40707397 C-110.1875 1.54039935 -110.1875 1.54039935 -110.1875 -0.6875 C-108.13711212 -2.35566239 -106.10457324 -3.87382614 -103.9375 -5.375 C-103.05771484 -6.01791992 -103.05771484 -6.01791992 -102.16015625 -6.67382812 C-97.79963445 -9.71639446 -97.79963445 -9.71639446 -94.953125 -9.58203125 C-93.1875 -8.6875 -93.1875 -8.6875 -90.1875 -6.6875 C-83.57089736 -6.90093879 -77.76504022 -8.59400053 -71.49609375 -10.65234375 C-47.73478664 -18.08651894 -20.92002593 -13.28557491 0 0 Z " fill="#FCABA7" transform="translate(168.1875,317.6875)"/>
<path d="M0 0 C0.74093399 -0.00761353 1.48186798 -0.01522705 2.24525452 -0.02307129 C3.81117384 -0.03386853 5.37716515 -0.03672688 6.94311523 -0.03222656 C9.33634865 -0.03125459 11.72637067 -0.07286326 14.11914062 -0.1171875 C15.64192041 -0.12239506 17.16471132 -0.12508268 18.6875 -0.125 C19.40115219 -0.14139526 20.11480438 -0.15779053 20.8500824 -0.17468262 C24.57227696 -0.12304175 26.10532397 0.17540165 28.82739258 2.79492188 C30.7268486 6.00375149 31.45087087 8.81198982 32.16015625 12.46875 C32.4025 13.665 32.64484375 14.86125 32.89453125 16.09375 C33.33323859 18.96528893 33.51978508 21.5745488 33.41015625 24.46875 C34.58578125 24.5925 34.58578125 24.5925 35.78515625 24.71875 C39.41015625 25.46875 39.41015625 25.46875 41.47265625 26.77734375 C44.32741787 28.47959181 46.06144826 29.25892047 49.41015625 29.46875 C53.16217566 27.91319747 56.43200597 25.61524974 59.70068359 23.22924805 C62.83547377 20.95584706 64.78588391 19.56198064 68.6796875 18.98046875 C73.55267532 19.85189003 75.96876869 23.07974276 79.41015625 26.46875 C80.69155411 27.65619468 81.97421856 28.84227331 83.2578125 30.02734375 C84.64355928 31.33942414 86.02765728 32.65324793 87.41015625 33.96875 C88.09392334 34.59724854 88.77769043 35.22574707 89.48217773 35.87329102 C92.58906033 38.89755422 94.23176071 40.66146514 95.18359375 44.96875 C94.3183573 48.88416342 92.96340152 50.90104605 90.54394531 54.01269531 C87.08529369 58.49663007 83.85049099 62.82520403 84.44921875 68.703125 C85.47266111 72.96364365 87.07846393 76.54670042 90.41015625 79.46875 C95.3829943 81.85932888 100.83387954 82.48113924 106.28540039 82.88549805 C109.50387471 83.76897905 111.13265122 85.02812934 113.41015625 87.46875 C113.89561662 90.25224876 114.06766951 92.41592228 114.00390625 95.19140625 C114.00394653 95.93329697 114.00398682 96.67518768 114.00402832 97.43955994 C113.99867891 99.00381976 113.98112035 100.56807942 113.95214844 102.13208008 C113.91022997 104.52703836 113.9110851 106.91918927 113.91796875 109.31445312 C113.90747776 110.83595705 113.89454013 112.35744648 113.87890625 113.87890625 C113.87870483 114.59458267 113.87850342 115.31025909 113.8782959 116.04762268 C113.81000791 118.91258484 113.75364947 120.96760253 112.10693359 123.37011719 C109.19157689 125.25775822 105.87655724 125.88261031 102.53515625 126.65625 C101.82746094 126.83349609 101.11976563 127.01074219 100.390625 127.19335938 C96.66863291 128.09093475 93.2407177 128.68656624 89.41015625 128.46875 C89.32765625 129.2525 89.24515625 130.03625 89.16015625 130.84375 C88.41015625 134.46875 88.41015625 134.46875 87.1015625 136.53125 C85.40032072 139.38432403 84.62010766 141.12238167 84.41015625 144.46875 C85.96668444 148.19162951 88.25974382 151.43808836 90.6496582 154.67138672 C93.07582957 158.00029067 94.33788506 160.00146228 94.98046875 164.15625 C94.3069969 168.06792213 93.29905228 169.47431753 90.53515625 172.28125 C89.71917969 173.12300781 88.90320313 173.96476563 88.0625 174.83203125 C87.18722656 175.70214844 86.31195313 176.57226562 85.41015625 177.46875 C84.52457031 178.39042969 83.63898438 179.31210938 82.7265625 180.26171875 C74.23699791 189.00357352 74.23699791 189.00357352 68.6328125 189.92578125 C64.74857633 189.37492594 62.93249355 187.96952067 59.85229492 185.65771484 C53.38131946 180.67806166 53.38131946 180.67806166 45.58203125 179.91796875 C42.36347116 181.23498044 39.43772919 182.76889873 36.41015625 184.46875 C35.42015625 184.46875 34.43015625 184.46875 33.41015625 184.46875 C33.30703125 185.70625 33.20390625 186.94375 33.09765625 188.21875 C32.64821548 192.1513567 31.96235998 195.98078005 31.09765625 199.84375 C30.76314453 201.34035156 30.76314453 201.34035156 30.421875 202.8671875 C29.1916563 206.03060701 28.34484022 206.79589919 25.41015625 208.46875 C22.08203125 208.85693359 22.08203125 208.85693359 18.16015625 208.8671875 C17.4650293 208.87005768 16.76990234 208.87292786 16.05371094 208.87588501 C14.58788231 208.87792134 13.12202624 208.87242156 11.65625 208.85986328 C9.41734848 208.8438016 7.18025188 208.85972458 4.94140625 208.87890625 C3.51431895 208.87692374 2.08723276 208.8730799 0.66015625 208.8671875 C-1.28117187 208.86211182 -1.28117187 208.86211182 -3.26171875 208.85693359 C-6.77528759 208.44712033 -8.17009996 208.00039786 -10.58984375 205.46875 C-11.52647073 202.79184696 -12.23588028 200.34128872 -12.83984375 197.59375 C-13.01257813 196.88605469 -13.1853125 196.17835938 -13.36328125 195.44921875 C-14.23510561 191.73358637 -14.79941907 188.28601473 -14.58984375 184.46875 C-15.37359375 184.38625 -16.15734375 184.30375 -16.96484375 184.21875 C-20.58984375 183.46875 -20.58984375 183.46875 -22.65234375 182.16015625 C-25.50541778 180.45891447 -27.24347542 179.67870141 -30.58984375 179.46875 C-34.31272326 181.02527819 -37.55918211 183.31833757 -40.79248047 185.70825195 C-44.12138442 188.13442332 -46.12255603 189.39647881 -50.27734375 190.0390625 C-54.18901588 189.36559065 -55.59541128 188.35764603 -58.40234375 185.59375 C-59.24410156 184.7790625 -60.08585937 183.964375 -60.953125 183.125 C-62.25830078 181.81015625 -62.25830078 181.81015625 -63.58984375 180.46875 C-64.97236328 179.12296875 -64.97236328 179.12296875 -66.3828125 177.75 C-75.38354807 168.9181094 -75.38354807 168.9181094 -76.046875 164.2578125 C-75.44374408 159.25749636 -73.25301468 156.76631329 -70.27734375 152.84375 C-66.35178931 147.26863235 -66.35178931 147.26863235 -66.0390625 140.64453125 C-67.35545918 137.42386759 -68.88918382 134.49776322 -70.58984375 131.46875 C-70.58984375 130.47875 -70.58984375 129.48875 -70.58984375 128.46875 C-71.82734375 128.365625 -73.06484375 128.2625 -74.33984375 128.15625 C-88.42126305 126.5692964 -88.42126305 126.5692964 -93.22314453 123.38598633 C-95.32230359 120.44123891 -95.05761199 117.36730563 -95.05859375 113.87890625 C-95.06620728 113.13797226 -95.0738208 112.39703827 -95.08166504 111.63365173 C-95.09246228 110.06773241 -95.09532063 108.5017411 -95.09082031 106.93579102 C-95.08984834 104.5425576 -95.13145701 102.15253558 -95.17578125 99.75976562 C-95.18098881 98.23698584 -95.18367643 96.71419493 -95.18359375 95.19140625 C-95.19998901 94.47775406 -95.21638428 93.76410187 -95.23327637 93.02882385 C-95.1816355 89.30662929 -94.8831921 87.77358228 -92.26367188 85.05151367 C-89.05484226 83.15205765 -86.24660393 82.42803538 -82.58984375 81.71875 C-80.79546875 81.35523437 -80.79546875 81.35523437 -78.96484375 80.984375 C-76.09330482 80.54566766 -73.48404495 80.35912117 -70.58984375 80.46875 C-70.50734375 79.685 -70.42484375 78.90125 -70.33984375 78.09375 C-69.58984375 74.46875 -69.58984375 74.46875 -68.28125 72.40625 C-66.58000822 69.55317597 -65.79979516 67.81511833 -65.58984375 64.46875 C-67.14637194 60.74587049 -69.43943132 57.49941164 -71.8293457 54.26611328 C-74.21653633 50.99069406 -75.51196156 48.91167509 -76.2265625 44.84765625 C-75.43579405 40.651247 -73.60941323 38.48360228 -70.65234375 35.59375 C-69.9099646 34.82937622 -69.9099646 34.82937622 -69.15258789 34.04956055 C-67.64688102 32.50669956 -66.11944333 30.98787287 -64.58984375 29.46875 C-63.71070313 28.56511719 -62.8315625 27.66148438 -61.92578125 26.73046875 C-54.98594258 19.64369539 -54.98594258 19.64369539 -50.44140625 19.07421875 C-45.36351203 19.59436816 -42.93312834 21.77089472 -38.96484375 24.78125 C-33.3897261 28.70680444 -33.3897261 28.70680444 -26.765625 29.01953125 C-23.54496134 27.70313457 -20.61885697 26.16940993 -17.58984375 24.46875 C-16.59984375 24.46875 -15.60984375 24.46875 -14.58984375 24.46875 C-14.55246094 23.87449219 -14.51507813 23.28023437 -14.4765625 22.66796875 C-13.27148889 7.47458969 -13.27148889 7.47458969 -9.50708008 1.85131836 C-6.5666035 -0.26913482 -3.49505569 0.00098363 0 0 Z M3.41015625 16.46875 C3.17941406 17.63792969 2.94867188 18.80710937 2.7109375 20.01171875 C2.38249206 21.56010439 2.05301003 23.10827039 1.72265625 24.65625 C1.57376953 25.42517578 1.42488281 26.19410156 1.27148438 26.98632812 C0.13982877 32.15644098 -1.21001638 35.16051624 -5.58984375 38.46875 C-8.60546875 39.65625 -8.60546875 39.65625 -11.83984375 40.46875 C-16.95316528 41.87852452 -21.07242009 43.59840277 -25.4921875 46.515625 C-28.47356856 47.87029349 -30.33320114 47.90722085 -33.58984375 47.46875 C-36.80845807 45.82009158 -39.64727022 43.62799722 -42.5546875 41.4921875 C-44.5333139 40.06475627 -44.5333139 40.06475627 -47.58984375 38.46875 C-51.51328771 39.44621701 -53.86153274 42.58886616 -56.58984375 45.46875 C-54.81520346 50.42519486 -52.04444171 54.35735742 -49.05078125 58.65234375 C-47.31169135 62.00497429 -47.08230688 63.73574517 -47.58984375 67.46875 C-49.015625 70.765625 -49.015625 70.765625 -50.90234375 74.21875 C-53.56026411 79.19813674 -55.57199643 83.95257324 -56.7890625 89.48046875 C-57.91065516 92.26530126 -58.94992242 93.00445133 -61.58984375 94.46875 C-64.47039953 95.37810983 -67.38706579 96.02700959 -70.33984375 96.65625 C-71.13261719 96.83349609 -71.92539062 97.01074219 -72.7421875 97.19335938 C-74.68944451 97.62738654 -76.63939979 98.04927679 -78.58984375 98.46875 C-78.58984375 102.42875 -78.58984375 106.38875 -78.58984375 110.46875 C-76.58470703 110.94054687 -76.58470703 110.94054687 -74.5390625 111.421875 C-72.78495903 111.85336569 -71.0310633 112.28570156 -69.27734375 112.71875 C-68.39626953 112.92371094 -67.51519531 113.12867188 -66.60742188 113.33984375 C-65.33608398 113.65888672 -65.33608398 113.65888672 -64.0390625 113.984375 C-62.86863403 114.26716309 -62.86863403 114.26716309 -61.67456055 114.55566406 C-59.03827168 115.71033327 -58.0895587 117.04393991 -56.58984375 119.46875 C-55.90112956 121.34237798 -55.28040662 123.2418447 -54.71484375 125.15625 C-53.1895097 130.01012308 -51.31458814 134.0783294 -48.54296875 138.3359375 C-47.19882934 141.34372486 -47.15180123 143.18741332 -47.58984375 146.46875 C-49.24760334 149.88033142 -51.43539812 152.94936161 -53.56640625 156.078125 C-54.99403509 158.21076578 -54.99403509 158.21076578 -56.58984375 161.46875 C-55.62456127 165.39691343 -52.47313996 167.73720622 -49.58984375 170.46875 C-44.63339889 168.69410971 -40.70123633 165.92334796 -36.40625 162.9296875 C-33.05361946 161.1905976 -31.32284858 160.96121313 -27.58984375 161.46875 C-24.29296875 162.89453125 -24.29296875 162.89453125 -20.83984375 164.78125 C-15.86045701 167.43917036 -11.10602051 169.45090268 -5.578125 170.66796875 C-2.82517633 171.77672018 -2.03453559 172.87169399 -0.58984375 175.46875 C0.06155529 178.03537359 0.59686057 180.49385974 1.03515625 183.09375 C1.77138991 187.91795524 1.77138991 187.91795524 3.41015625 192.46875 C7.37015625 192.46875 11.33015625 192.46875 15.41015625 192.46875 C15.86390625 190.81875 16.31765625 189.16875 16.78515625 187.46875 C17.20087891 185.96828125 17.20087891 185.96828125 17.625 184.4375 C18.28172721 181.95435233 18.82714965 179.48218728 19.34765625 176.96875 C20.53471924 173.05842486 21.05415906 172.52250554 24.41015625 170.46875 C26.26229707 169.77894975 28.14112575 169.15846094 30.03515625 168.59375 C35.06906746 167.01797024 39.43355635 165.01852411 43.9609375 162.32421875 C47.49651415 161.08930442 49.79352495 161.57238664 53.41015625 162.46875 C56.34654399 164.131687 59.03529323 165.90235476 61.77929688 167.84960938 C63.59251929 169.11071783 63.59251929 169.11071783 66.41015625 170.46875 C70.32636142 169.41571065 72.67275796 166.35822597 75.41015625 163.46875 C73.5711171 158.37171763 70.71863289 154.12264401 67.7734375 149.6015625 C66.05102198 145.64346151 66.36228571 143.62330279 67.41015625 139.46875 C68.71484375 136.2578125 68.71484375 136.2578125 70.28515625 133.09375 C72.48874288 128.53967096 74.29987327 124.1676629 75.57421875 119.2734375 C76.76220601 116.70871735 77.94612787 115.86986418 80.41015625 114.46875 C82.97677984 113.81735096 85.43526599 113.28204568 88.03515625 112.84375 C92.85936149 112.10751634 92.85936149 112.10751634 97.41015625 110.46875 C97.41015625 106.50875 97.41015625 102.54875 97.41015625 98.46875 C89.65659442 96.32794878 89.65659442 96.32794878 81.84765625 94.40625 C78.41015625 93.46875 78.41015625 93.46875 76.41015625 91.46875 C75.58288565 89.12046257 74.82237955 86.78566664 74.09765625 84.40625 C72.39611242 78.99903597 70.48872699 74.25158413 67.328125 69.49609375 C65.99515498 66.55221527 65.98251461 64.68194726 66.41015625 61.46875 C68.05803481 58.24986052 70.25098223 55.41122389 72.38671875 52.50390625 C73.81414998 50.52527985 73.81414998 50.52527985 75.41015625 47.46875 C74.43268924 43.54530604 71.29004009 41.19706101 68.41015625 38.46875 C64.41693314 39.9095283 61.10369737 41.87145679 57.53515625 44.15625 C51.92530807 47.43322229 51.92530807 47.43322229 47.78515625 47.71875 C44.07274762 46.34378384 40.66540285 44.65943377 37.17578125 42.796875 C33.2466188 40.90998908 29.16333107 39.74311628 24.9765625 38.55859375 C21.86680851 37.23801329 20.99426192 36.44974886 19.41015625 33.46875 C18.50640384 30.5863637 17.85193092 27.67168873 17.22265625 24.71875 C17.04541016 23.92597656 16.86816406 23.13320313 16.68554688 22.31640625 C16.25151971 20.36914924 15.82962946 18.41919396 15.41015625 16.46875 C11.45015625 16.46875 7.49015625 16.46875 3.41015625 16.46875 Z " fill="#455A64" transform="translate(382.58984375,15.53125)"/>
<path d="M0 0 C3.61858466 3.04217294 6.98211786 6.28749816 10.30371094 9.64941406 C10.95726562 10.29265625 11.61082031 10.93589844 12.28417969 11.59863281 C28.04955338 28.22983939 33.83703357 50.29004635 34.45996094 72.59863281 C35.12581279 95.8500014 42.46979658 110.21183903 59.17871094 126.52441406 C60.02385254 127.32145752 60.86899414 128.11850098 61.73974609 128.93969727 C67.41144534 134.3681935 70.73806696 138.12935812 71.73730469 146.11425781 C71.73859375 147.26023438 71.73988281 148.40621094 71.74121094 149.58691406 C71.76054687 150.7303125 71.77988281 151.87371094 71.79980469 153.05175781 C70.73783887 160.75310048 66.49296263 166.07399004 61.10449219 171.41503906 C60.51000778 172.01572205 59.91552338 172.61640503 59.30302429 173.23529053 C58.05149342 174.49387819 56.79488082 175.74743134 55.53344727 176.99609375 C53.62270738 178.89296477 51.73720548 180.81261355 49.85253906 182.73535156 C48.62547541 183.96336662 47.39700444 185.18997741 46.16699219 186.41503906 C45.61352615 186.98176331 45.06006012 187.54848755 44.48982239 188.13238525 C39.61108888 192.89933308 34.08161028 196.02549571 27.29980469 197.14550781 C15.33022765 196.87139536 9.83852542 192.9209794 1.30371094 184.64941406 C0.59214844 184.03453125 -0.11941406 183.41964844 -0.85253906 182.78613281 C-3.90778017 180.06271093 -6.1015151 177.76446543 -7.07128906 173.71191406 C-7.12981308 170.08405825 -6.10779933 168.54511711 -3.68041992 165.90917969 C-3.04159882 165.21228027 -2.40277771 164.51538086 -1.74459839 163.79736328 C1.59778099 160.29239404 4.98766897 156.84272834 8.42480469 153.43066406 C9.54194603 152.31564514 9.54194603 152.31564514 10.68165588 151.17810059 C13.03247839 148.83282105 15.38677525 146.49106571 17.74121094 144.14941406 C19.34756293 142.54808445 20.95368491 140.94652408 22.55957031 139.34472656 C26.47163078 135.44361934 30.38654046 131.54538986 34.30371094 127.64941406 C32.61721822 124.17782228 30.61355617 121.06304114 28.49121094 117.83691406 C24.0371044 110.82043376 21.53728747 103.6400774 19.30371094 95.64941406 C18.93761719 94.44929688 18.57152344 93.24917969 18.19433594 92.01269531 C16.79479921 86.31360046 17.00950221 80.4842488 16.92871094 74.64941406 C16.3279458 53.05661213 10.87148615 34.36475113 -4.69628906 18.64941406 C-21.85225824 3.6349667 -40.35318458 -1.30920098 -62.69628906 -0.35058594 C-80.03820665 1.06425582 -94.49363357 9.65934839 -106.69628906 21.64941406 C-107.25058594 22.19082031 -107.80488281 22.73222656 -108.37597656 23.29003906 C-121.55623874 37.39648182 -126.27150586 55.82782724 -125.96972656 74.62207031 C-125.21004309 94.3625581 -115.58983921 111.48972477 -101.38378906 124.89941406 C-89.22983912 135.16414899 -73.75115355 141.62829041 -57.77832031 141.86035156 C-56.42739714 141.88843952 -55.07648586 141.9171041 -53.72558594 141.94628906 C-51.62394808 141.98730139 -49.52252739 142.02424059 -47.4206543 142.05078125 C-28.71027725 142.30675527 -28.71027725 142.30675527 -21.07128906 147.39941406 C-19.06844656 150.6767927 -19.15873972 152.8865687 -19.69628906 156.64941406 C-21.69369888 159.56870533 -23.08550956 160.45507513 -26.44628906 161.52441406 C-29.69628906 161.64941406 -29.69628906 161.64941406 -33.01660156 160.68457031 C-40.32009748 158.77174995 -48.05039076 159.25341766 -55.54785156 159.17089844 C-80.47634312 158.63409794 -102.08232806 149.16776249 -119.69628906 131.64941406 C-135.88483094 114.434229 -144.29475832 90.78419572 -143.67529297 67.28491211 C-142.91040113 51.5794922 -138.4230873 38.26893131 -130.69628906 24.64941406 C-130.21289062 23.79734375 -129.72949219 22.94527344 -129.23144531 22.06738281 C-117.83678182 3.7368372 -98.72832627 -9.85796873 -78.01660156 -15.60839844 C-50.91703876 -21.66594777 -22.09861205 -17.59492255 0 0 Z " fill="#465A64" transform="translate(158.6962890625,32.3505859375)"/>
<path d="M0 0 C0.98395752 0.32145996 0.98395752 0.32145996 1.98779297 0.64941406 C25.27606336 8.55212671 25.27606336 8.55212671 29 16 C29.56818182 22.13636364 29.56818182 22.13636364 27.4375 25.375 C24.20250295 27.5316647 21.84731659 28.64472336 18 28 C15.08434501 26.48038076 12.35635506 24.7300157 9.5703125 22.984375 C-8.57614297 12.30998943 -33.50255514 9.82004778 -53.6875 15 C-77.56995361 21.70685045 -96.83856327 36.53152839 -109.02734375 58.234375 C-111.92619178 63.63232501 -114.1483554 69.16187351 -116 75 C-116.31839844 75.95390625 -116.63679688 76.9078125 -116.96484375 77.890625 C-121.85351388 95.10234839 -119.74125188 113.33498397 -114 130 C-113.42378906 131.69382812 -113.42378906 131.69382812 -112.8359375 133.421875 C-104.57391726 155.11670365 -87.46198224 170.65914417 -66.8359375 180.42578125 C-43.8844709 190.19785106 -20.1847514 189.04600754 2.8125 180.25 C23.2920652 171.84696169 38.20402209 156.03673387 47.65234375 136.32421875 C51.89157286 125.8674536 55.26890543 114.79434802 54.921875 103.46875 C54.89462616 102.00392821 54.86862233 100.53908282 54.84375 99.07421875 C54.80048626 96.78271519 54.74976268 94.49245223 54.67773438 92.20166016 C54.61094337 89.97799665 54.57632394 87.75568123 54.546875 85.53125 C54.50345978 84.51073547 54.50345978 84.51073547 54.45916748 83.46960449 C54.43779875 79.65164559 54.93460757 78.08439701 57.30175781 75.02929688 C60 73 60 73 63.625 73 C68.4189781 74.42043796 68.4189781 74.42043796 70 77 C72.41954857 84.411554 72.38558914 91.68962137 72.375 99.4375 C72.37445618 100.10540558 72.37391235 100.77331116 72.37335205 101.4614563 C72.33325879 112.16523397 71.46778263 121.85592559 68 132 C67.79101074 132.62825684 67.58202148 133.25651367 67.36669922 133.90380859 C62.04936621 149.56903011 53.56423791 162.29706058 42 174 C41.35675781 174.71542969 40.71351563 175.43085938 40.05078125 176.16796875 C25.37299807 192.11931229 0.60750903 203.21082498 -20.93579102 204.12451172 C-54.42873632 204.91154583 -81.06336124 197.85604424 -105.81567383 174.56787109 C-123.32208176 157.62225692 -135.79179369 133.11632219 -136.23828125 108.44921875 C-136.43783603 94.52802565 -136.54910002 81.30718042 -132 68 C-131.79101074 67.37174316 -131.58202148 66.74348633 -131.36669922 66.09619141 C-126.04936621 50.43096989 -117.56423791 37.70293942 -106 26 C-105.35675781 25.28457031 -104.71351563 24.56914062 -104.05078125 23.83203125 C-79.06609611 -3.32052244 -34.05614524 -11.19024127 0 0 Z " fill="#455A64" transform="translate(424,292)"/>
<path d="M0 0 C10.69311358 9.0318908 17.5095687 20.58651941 18.7109375 34.68359375 C18.98469637 49.64371097 14.7629907 63.15624461 4.3671875 74.23046875 C-6.02476798 83.99927346 -18.33264805 88.46809764 -32.50390625 88.2734375 C-47.15350776 87.27460103 -58.61855211 81.81919667 -68.59765625 71.0625 C-77.88768276 58.7058628 -80.73663822 46.43875662 -79.59765625 31.0625 C-76.98337088 17.31387874 -69.87132894 6.30527065 -58.59765625 -1.9375 C-40.05883799 -13.08471201 -17.76611524 -13.25111753 0 0 Z M-56.59765625 19.0625 C-61.94266438 25.22981707 -64.02554288 33.97179611 -63.66015625 42.0625 C-62.3983844 50.48787977 -57.97009155 58.88297232 -51.640625 64.59765625 C-43.38368889 70.51802153 -34.60230756 73.0252952 -24.59765625 71.4375 C-16.15814378 69.46173816 -8.85227809 65.00330645 -3.59765625 58.0625 C1.66788207 49.18201958 3.45861717 41.04925101 1.33984375 30.9375 C-0.26855764 25.27911492 -2.57403969 21.31577504 -6.59765625 17.0625 C-7.16226563 16.43472656 -7.726875 15.80695313 -8.30859375 15.16015625 C-14.31651965 9.1649053 -22.18100054 6.40016165 -30.60546875 5.875 C-41.56834943 6.56196902 -49.30624828 11.08136425 -56.59765625 19.0625 Z " fill="#455B65" transform="translate(422.59765625,80.9375)"/>
<path d="M0 0 C3.15600256 2.07631747 3.89160405 3.70333739 5.1875 7.25 C4.8297461 14.405078 -1.12344918 18.22858337 -6.17278957 22.80757427 C-14.09902824 30.01239761 -21.63837393 37.5737873 -29.15481377 45.20191002 C-32.21110498 48.30099045 -35.27737007 51.39012796 -38.34291935 54.48004627 C-44.02156197 60.20413481 -49.69585219 65.93240371 -55.35424805 71.67651367 C-59.32010975 75.70168544 -63.29801031 79.71460394 -67.28419685 83.71964455 C-68.79381328 85.24099417 -70.29888667 86.76686604 -71.79925346 88.29733849 C-73.88790957 90.42691694 -75.9915547 92.54052595 -78.09936523 94.65112305 C-78.71192169 95.28322693 -79.32447815 95.91533081 -79.95559692 96.56658936 C-82.68512807 99.27050672 -84.50350798 100.83284914 -88.19494629 102.07562256 C-91.54202524 101.98538733 -92.42518692 101.4585698 -94.78149414 99.13891602 C-95.46140411 98.48714386 -96.14131409 97.8353717 -96.84182739 97.16384888 C-97.55402435 96.44977875 -98.26622131 95.73570862 -99 95 C-99.73838104 94.29342255 -100.47676208 93.58684509 -101.23751831 92.8588562 C-106.43561842 87.87634079 -111.53044384 82.78628304 -116.63842773 77.71166992 C-118.51170101 75.85506249 -120.39033778 74.00385182 -122.27416992 72.15795898 C-125.00614133 69.48058428 -127.72144958 66.78728351 -130.43359375 64.08984375 C-131.70063393 62.85680763 -131.70063393 62.85680763 -132.99327087 61.59886169 C-134.15567039 60.43218712 -134.15567039 60.43218712 -135.34155273 59.24194336 C-136.02579819 58.56578476 -136.71004364 57.88962616 -137.4150238 57.19297791 C-139.4199235 54.41899256 -139.83552012 52.40160607 -140 49 C-137.77247246 45.35495494 -136.34920419 43.3897701 -132.1875 42.1875 C-124.72994695 44.0884449 -118.74926554 52.11002596 -113.4375 57.46484375 C-112.76074219 58.14301651 -112.08398438 58.82118927 -111.38671875 59.51991272 C-109.25542325 61.65674305 -107.12765782 63.79704823 -105 65.9375 C-103.54320221 67.39932123 -102.08617299 68.86091187 -100.62890625 70.32226562 C-97.08326027 73.878854 -93.54077261 77.43856016 -90 81 C-87.16428869 79.70951266 -85.10720686 78.35682416 -82.90861511 76.15585327 C-82.32424179 75.57567444 -81.73986847 74.99549561 -81.13778687 74.3977356 C-80.50861359 73.76294281 -79.87944031 73.12815002 -79.23120117 72.47412109 C-78.55911118 71.80392944 -77.88702118 71.13373779 -77.19456482 70.4432373 C-74.97244943 68.22482808 -72.7576218 65.99929456 -70.54296875 63.7734375 C-68.99640281 62.22567889 -67.4494664 60.67829038 -65.9021759 59.1312561 C-62.65685566 55.88437093 -59.41492383 52.63415248 -56.17553711 49.38134766 C-52.03822791 45.2271126 -47.89443136 41.07942585 -43.74827099 36.93402672 C-40.55052308 33.73600571 -37.35539747 30.53537553 -34.16112709 27.33388138 C-32.63520783 25.80479498 -31.10869543 24.27630025 -29.58156395 22.74842453 C-27.4375187 20.60219122 -25.29680978 18.45268375 -23.15698242 16.30224609 C-22.53388184 15.67959869 -21.91078125 15.05695129 -21.26879883 14.41543579 C-17.49315728 10.61263135 -13.93400773 6.68469436 -10.47494984 2.59093666 C-7.40506799 -0.72035397 -4.32509103 -0.37285268 0 0 Z " fill="#455A64" transform="translate(481,324)"/>
<path d="M0 0 C1.38777649 -0.01178284 1.38777649 -0.01178284 2.80358887 -0.02380371 C13.11873001 -0.09183169 23.26117531 0.30014094 33.49609375 1.6484375 C34.37104996 1.75628571 35.24600616 1.86413391 36.1474762 1.97525024 C41.11187125 2.70824243 44.32983164 3.62064176 47.9375 7.375 C48.6015625 9.59375 48.6015625 9.59375 48.5625 11.875 C48.58183594 13.00421875 48.58183594 13.00421875 48.6015625 14.15625 C47.60888183 17.4729713 45.7944878 18.51004578 42.9375 20.375 C40.0559082 20.58642578 40.0559082 20.58642578 36.92578125 20.1953125 C35.77932129 20.06801758 34.63286133 19.94072266 33.45166016 19.80957031 C32.2919873 19.66616211 31.13231445 19.52275391 29.9375 19.375 C27.8276522 19.17590305 25.71695302 18.98560608 23.60546875 18.8046875 C22.55286865 18.71203613 21.50026855 18.61938477 20.41577148 18.52392578 C-3.53924224 16.52989615 -27.64370072 17.45987688 -51.0625 23.375 C-54.78989601 23.75356366 -58.00597049 23.808448 -61.5 22.375 C-63.50569622 19.80770883 -63.87732195 17.68051009 -64.375 14.5078125 C-63.88746207 11.1803661 -62.44333638 9.70224842 -60.0625 7.375 C-54.94272009 5.30912389 -49.47147255 4.41820707 -44.0625 3.375 C-43.3396582 3.22256836 -42.61681641 3.07013672 -41.87207031 2.91308594 C-28.04103533 0.08081296 -14.05838294 0.05845113 0 0 Z " fill="#455963" transform="translate(256.0625,15.625)"/>
<path d="M0 0 C4.44405909 3.30201038 5.8082002 6.50917216 7.25 11.75 C12.37137692 28.64192765 22.00852024 42.67151895 34.0625 55.375 C38.57021545 60.31507182 38.57021545 60.31507182 39.375 63.8125 C39 67 39 67 37 69.9375 C33.24750505 72.51734028 31.46801531 72.79785988 27 72 C24.5 69.9375 24.5 69.9375 22 67 C20.93934973 66.01882998 19.87667091 65.03985044 18.8125 64.0625 C11.17234907 56.37263008 5.34588713 46.93369329 0 37.5625 C-0.37366699 36.91289307 -0.74733398 36.26328613 -1.13232422 35.59399414 C-3.41689662 31.4746807 -4.86686302 27.5738602 -6 23 C-7.17017438 23.99589309 -8.3358655 24.99705335 -9.5 26 C-10.2321875 26.63035156 -10.964375 27.26070312 -11.71875 27.91015625 C-13.97205323 29.97439808 -15.95918451 32.165878 -18 34.4375 C-20.67399948 37.14308216 -22.39761316 38.56994231 -26.25 38.8125 C-30 38 -30 38 -32.5625 35.9375 C-34.47277995 32.03388444 -34.05687131 30.19413068 -33 26 C-31.20878474 23.61482464 -29.56134029 21.69437328 -27.4609375 19.62890625 C-26.62231674 18.77811745 -26.62231674 18.77811745 -25.76675415 17.91014099 C-24.58552533 16.72048055 -23.39664891 15.53837026 -22.20068359 14.36352539 C-20.37822368 12.56568014 -18.59313063 10.73579492 -16.80859375 8.90039062 C-15.65313287 7.74530017 -14.49564518 6.59223287 -13.3359375 5.44140625 C-12.80648529 4.89464737 -12.27703308 4.34788849 -11.73153687 3.78456116 C-7.87065195 0.06441063 -5.29457217 -0.75890182 0 0 Z " fill="#475C64" transform="translate(130,95)"/>
<path d="M0 0 C3.39044189 1.01474493 4.30613471 2.70337387 6.21875 5.6640625 C7.13421666 8.77014019 7.54962697 11.89233081 7.9453125 15.1015625 C8.06693756 16.02461182 8.18856262 16.94766113 8.31387329 17.89868164 C9.44702169 27.22541764 9.67442539 36.5072175 9.60986328 45.89355469 C9.59375088 48.66391172 9.60985118 51.43281083 9.62890625 54.203125 C9.64157723 63.6236895 9.17660978 72.88187559 7.9453125 82.2265625 C7.83746429 83.10127197 7.72961609 83.97598145 7.61849976 84.87719727 C6.88539594 89.84042316 5.97193938 93.05706612 2.21875 96.6640625 C0 97.328125 0 97.328125 -2.28125 97.2890625 C-3.0340625 97.30195313 -3.786875 97.31484375 -4.5625 97.328125 C-7.9295956 96.32036751 -9.00297288 94.63463984 -10.78125 91.6640625 C-10.98828125 88.6484375 -10.98828125 88.6484375 -10.59375 85.4140625 C-10.47644531 84.35703125 -10.35914063 83.3 -10.23828125 82.2109375 C-10.00089051 80.36862306 -9.76333716 78.52632876 -9.52377319 76.68429565 C-8.85129847 71.14706999 -8.62079935 65.69989224 -8.61328125 60.125 C-8.60995285 59.24107574 -8.60662445 58.35715149 -8.60319519 57.44644165 C-8.5981641 55.5858817 -8.59578567 53.72531284 -8.59594727 51.86474609 C-8.5937719 49.06722537 -8.57560556 46.27010691 -8.55664062 43.47265625 C-8.52833945 34.12787916 -8.8320562 25.10686212 -10.3503418 15.87744141 C-10.98985881 11.10841991 -11.48904691 7.11043009 -9.34375 2.7265625 C-6.10119075 0.11669774 -4.05388545 0.06941585 0 0 Z " fill="#455963" transform="translate(486.78125,207.3359375)"/>
<path d="M0 0 C1.58554688 0.17595703 1.58554688 0.17595703 3.203125 0.35546875 C4.95882812 0.58169922 4.95882812 0.58169922 6.75 0.8125 C27.65493321 3.38267739 48.6635617 3.46796414 69.48828125 0.21484375 C78.34074274 -0.87713653 78.34074274 -0.87713653 82.6875 1.25 C85.29736476 4.49255925 85.34464665 6.53986455 85.4140625 10.59375 C84.39931757 13.98419189 82.71068863 14.89988471 79.75 16.8125 C76.64392231 17.72796666 73.52173169 18.14337697 70.3125 18.5390625 C69.38945068 18.66068756 68.46640137 18.78231262 67.51538086 18.90762329 C58.18864486 20.04077169 48.906845 20.26817539 39.52050781 20.20361328 C36.75015078 20.18750088 33.98125167 20.20360118 31.2109375 20.22265625 C21.790373 20.23532723 12.53218691 19.77035978 3.1875 18.5390625 C1.87543579 18.37729019 1.87543579 18.37729019 0.53686523 18.21224976 C-4.42636066 17.47914594 -7.64300362 16.56568938 -11.25 12.8125 C-11.9140625 10.59375 -11.9140625 10.59375 -11.875 8.3125 C-11.88789063 7.5596875 -11.90078125 6.806875 -11.9140625 6.03125 C-10.13983583 0.10324561 -5.47881456 -0.66830951 0 0 Z " fill="#455964" transform="translate(219.25,476.1875)"/>
<path d="M0 0 C2.4375 1.5625 2.4375 1.5625 4 4 C4.39943451 10.39095223 3.36297771 16.19610699 2.0625 22.4375 C1.69575608 24.22715849 1.33244034 26.01752312 0.97265625 27.80859375 C0.81031494 28.59032959 0.64797363 29.37206543 0.48071289 30.17749023 C-0.82053367 37.8177703 -1.1089804 45.24278963 -0.9921875 52.984375 C-0.97468712 55.07421403 -0.95777734 57.16405807 -0.94140625 59.25390625 C-0.91035804 62.51495426 -0.8746366 65.77574807 -0.82861328 69.03662109 C-0.78630702 72.2067383 -0.76285818 75.37655295 -0.7421875 78.546875 C-0.72356659 79.52090271 -0.70494568 80.49493042 -0.6857605 81.49847412 C-0.65343505 90.02881064 -0.65343505 90.02881064 -4 94 C-7.20270544 95.60135272 -10.52463384 95.48861584 -14 95 C-16.92217729 93.05188181 -17.80745118 91.84900557 -18.58276367 88.43041992 C-19.09899593 84.18607852 -19.20008206 80.01043553 -19.23828125 75.73828125 C-19.24793915 74.84247345 -19.25759705 73.94666565 -19.26754761 73.02371216 C-19.29239087 70.1199327 -19.30494956 67.21637435 -19.3125 64.3125 C-19.31545074 63.32557159 -19.31840149 62.33864319 -19.32144165 61.32180786 C-19.35502868 11.9894795 -19.35502868 11.9894795 -9.75 0.25 C-6.00470331 -1.45240759 -3.92101864 -1.14065997 0 0 Z " fill="#455A64" transform="translate(35,193)"/>
<path d="M0 0 C4.16985575 1.88890901 6.37362624 4.20634901 9 8 C9.75 10.875 9.75 10.875 9 14 C4.28667893 20.3604155 -1.71566818 25.86803655 -7.3125 31.4375 C-8.12267578 32.25154297 -8.93285156 33.06558594 -9.76757812 33.90429688 C-10.54166016 34.67708984 -11.31574219 35.44988281 -12.11328125 36.24609375 C-12.81235596 36.94404053 -13.51143066 37.6419873 -14.23168945 38.36108398 C-17.19086715 41.10372652 -19.79203491 41.5 -23.82421875 41.5 C-28.0087875 40.53837558 -30.32905743 37.15240206 -33 34 C-29.03627475 29.24914133 -24.90205218 24.76386888 -20.5078125 20.41015625 C-19.91700897 19.82076767 -19.32620544 19.23137909 -18.71749878 18.62413025 C-16.85569596 16.76786273 -14.99042255 14.91512915 -13.125 13.0625 C-11.85132989 11.79385328 -10.57789029 10.5249751 -9.3046875 9.25585938 C-6.20577957 6.16789446 -3.10375699 3.08309071 0 0 Z " fill="#CAD3D8" transform="translate(205,171)"/>
</svg>
