<?xml version="1.0" encoding="UTF-8"?>
<svg version="1.1" xmlns="http://www.w3.org/2000/svg" width="512" height="512">
<path d="M0 0 C3.26733943 2.46254286 5.96012316 5.35993019 8.69241714 8.3967514 C10.09588482 9.95017972 11.52805584 11.47119515 12.97189331 12.98712158 C17.06975971 17.29733926 21.1249736 21.64504629 25.12646484 26.04492188 C41.00936799 43.51197063 41.00936799 43.51197063 63.31884766 49.71655273 C64.51459412 49.76425056 64.51459412 49.76425056 65.73449707 49.81291199 C80.23853361 51.01067313 91.83022075 62.3621238 101.56640625 72.0625 C102.53600241 73.02242562 103.50580952 73.98213821 104.47581482 74.94165039 C106.48860741 76.93664598 108.49527514 78.93757389 110.49829102 80.94238281 C113.05868349 83.50308235 115.63924398 86.04238654 118.22532749 88.57710266 C120.22680267 90.54518167 122.21445265 92.52678741 124.19849968 94.51242065 C125.60145355 95.91014954 127.01796915 97.29422362 128.43470764 98.67797852 C135.44243528 105.76192999 135.44243528 105.76192999 136.14819336 109.94140625 C136 113 136 113 135 116 C136.76203514 118.0345148 138.55215187 120.02116242 140.375 122 C141.10783203 122.85851562 141.10783203 122.85851562 141.85546875 123.734375 C143.50166222 125.48475793 144.90659092 126.80874226 147 128 C149.30063224 128.06451634 149.30063224 128.06451634 151.73046875 127.7421875 C155.33152714 127.51805524 156.68713982 127.78734495 159.71972656 129.84863281 C162.09221028 132.03881256 164.3656541 134.27553794 166.56176758 136.64257812 C167.93634266 138.1237529 169.34290874 139.56714083 170.75976562 141.0078125 C178.35160137 148.90112909 181.688647 154.31521108 181.5 165.43359375 C180.70871261 171.07769832 178.04641891 175.95358109 174 180 C175.57347176 181.035969 177.15921546 182.05331732 178.75 183.0625 C179.63171875 183.63097656 180.5134375 184.19945312 181.421875 184.78515625 C183.85310137 186.19491416 183.85310137 186.19491416 186.15625 185.8125 C188.80926718 184.64337379 190.81526406 182.88130039 193 181 C192.67 180.175 192.34 179.35 192 178.5 C189.71209507 170.49233275 191.01901878 164.18987781 195 157 C198.12848684 153.20810636 201.6091509 149.86430289 205.1875 146.5 C207.01603084 144.74135741 208.84294213 142.98102882 210.66796875 141.21875 C211.47516357 140.45498047 212.2823584 139.69121094 213.11401367 138.90429688 C215.06247922 137.13474248 215.06247922 137.13474248 216 135 C215.29875 134.814375 214.5975 134.62875 213.875 134.4375 C209.09642576 132.04821288 205.68829035 128.06487106 204 123 C203.796875 120.94921875 203.796875 120.94921875 203.75 118.6875 C203.72421875 117.94886719 203.6984375 117.21023437 203.671875 116.44921875 C204.63443093 109.2644263 209.80481876 104.69836579 214.625 99.75 C216.08150758 98.22991214 217.53724258 96.70908362 218.9921875 95.1875 C219.68924805 94.46175781 220.38630859 93.73601562 221.10449219 92.98828125 C223.36617783 90.61590002 225.56896698 88.19662006 227.75 85.75 C231.56795396 81.4683856 235.4379438 77.23855114 239.34643555 73.03955078 C241.95387639 70.23546974 244.52814569 67.41156435 247.046875 64.52734375 C247.5524292 63.95733643 248.0579834 63.3873291 248.57885742 62.80004883 C249.52209574 61.73512237 250.45576067 60.66157946 251.3762207 59.5769043 C259.43587966 50.55856243 270.23411112 46.40857478 281.4375 42.625 C282.70290936 42.18484349 283.96788639 41.74344207 285.23242188 41.30078125 C298.76716485 36.60757462 308.35788836 35.40733344 322 41 C323.155 41.598125 324.31 42.19625 325.5 42.8125 C327.82926199 44.18274222 327.82926199 44.18274222 329.90531921 43.80981445 C332.61121661 42.76370049 334.00118894 41.3174275 336.01489258 39.23046875 C336.79282669 38.43294189 337.5707608 37.63541504 338.37226868 36.8137207 C339.20461533 35.94706787 340.03696198 35.08041504 340.89453125 34.1875 C342.67210617 32.37198464 344.4501145 30.55689355 346.22851562 28.7421875 C349.02561744 25.87061755 351.81840211 22.99519051 354.60180664 20.11035156 C357.2903554 17.33117756 359.99725925 14.57096239 362.70703125 11.8125 C363.53330521 10.94584717 364.35957916 10.07919434 365.21089172 9.1862793 C371.72499682 2.58831663 371.72499682 2.58831663 375.90112305 1.890625 C379.6710582 2.02368503 381.27428525 2.35445333 384 5 C385.18166479 8.94708864 385.30315322 12.09054034 384 16 C389.40377757 21.63610408 394.83474393 27.24444047 400.30138969 32.81951141 C402.83939229 35.40957099 405.36731822 38.00802765 407.87402344 40.62841797 C410.29638756 43.15993122 412.74282247 45.66576498 415.20740128 48.15617371 C416.59258554 49.56866308 417.95210624 51.0061739 419.31100464 52.44396973 C423.8508502 57.18237423 423.8508502 57.18237423 429.77789307 59.5246582 C432.44657834 59.54646586 432.44657834 59.54646586 434.9211731 59.1842041 C437 59 437 59 439.625 60.5 C441.61884442 64.12517167 442.1200958 67.05386274 441 71 C438.53745714 74.26733943 435.64006981 76.96012316 432.6032486 79.69241714 C431.04982028 81.09588482 429.52880485 82.52805584 428.01287842 83.97189331 C423.70266074 88.06975971 419.35495371 92.1249736 414.95507812 96.12646484 C397.48802937 112.00936799 397.48802937 112.00936799 391.28344727 134.31884766 C391.25164871 135.11601196 391.21985016 135.91317627 391.18708801 136.73449707 C390.05462032 150.44787637 379.78428673 161.72026721 370.37426758 170.80761719 C369.54086349 171.62539642 368.70745941 172.44317566 367.84880066 173.28573608 C366.05412273 175.04579252 364.25619013 176.80253535 362.45530128 178.55623627 C359.60004497 181.3402513 356.75716172 184.13652644 353.91886902 186.93780518 C345.85243588 194.89541818 337.77514983 202.84163602 329.66040039 210.75 C325.16430188 215.13200808 320.68672144 219.53208767 316.22849578 223.95263028 C313.87752693 226.28214892 311.51562776 228.59849144 309.13581276 230.89858246 C295.03108424 244.15696777 295.03108424 244.15696777 289 262 C288.39757811 264.35688447 287.70441561 266.67054663 287 269 C289.78761015 271.81654574 292.58075796 274.62753473 295.375 277.4375 C296.56609375 278.64116211 296.56609375 278.64116211 297.78125 279.86914062 C298.54179687 280.63291016 299.30234375 281.39667969 300.0859375 282.18359375 C300.7876709 282.89056396 301.4894043 283.59753418 302.21240234 284.32592773 C303.90693091 286.07219984 303.90693091 286.07219984 306 287 C306.185625 286.29875 306.37125 285.5975 306.5625 284.875 C308.95178712 280.09642576 312.93512894 276.68829035 318 275 C320.05078125 274.796875 320.05078125 274.796875 322.3125 274.75 C323.05113281 274.72421875 323.78976562 274.6984375 324.55078125 274.671875 C331.47541806 275.59957754 335.99530015 280.44268785 340.8125 285.0625 C341.8324707 286.01866211 341.8324707 286.01866211 342.87304688 286.99414062 C347.85298161 291.70596322 347.85298161 291.70596322 349 294 C348.6596875 295.9490625 348.6596875 295.9490625 348.3125 297.9375 C348.22846884 300.6530333 348.47777032 302.33368447 350.17333984 304.49707031 C353.52871427 307.95877316 357.23245693 311.00054235 361 314 C361.66 313.67 362.32 313.34 363 313 C367.00843935 312.62346408 369.29944336 312.58785054 372.80859375 314.65234375 C386.92378944 326.92186749 393.96273028 338.81563596 399.875 356.5625 C400.2771875 357.70396484 400.679375 358.84542969 401.09375 360.02148438 C404.2227451 369.33929121 405.6748651 377.86918552 402.1875 387.3125 C401.8265625 388.30894531 401.465625 389.30539062 401.09375 390.33203125 C400 393 400 393 398.1875 396.5 C396.81725778 398.82926199 396.81725778 398.82926199 397.19018555 400.90531921 C398.23629951 403.61121661 399.6825725 405.00118894 401.76953125 407.01489258 C402.56705811 407.79282669 403.36458496 408.5707608 404.1862793 409.37226868 C405.05293213 410.20461533 405.91958496 411.03696198 406.8125 411.89453125 C408.62801536 413.67210617 410.44310645 415.4501145 412.2578125 417.22851562 C415.12938245 420.02561744 418.00480949 422.81840211 420.88964844 425.60180664 C423.66882244 428.2903554 426.42903761 430.99725925 429.1875 433.70703125 C430.05415283 434.53330521 430.92080566 435.35957916 431.8137207 436.21089172 C438.41168337 442.72499682 438.41168337 442.72499682 439.109375 446.90112305 C438.97631497 450.6710582 438.64554667 452.27428525 436 455 C432.05291136 456.18166479 428.90945966 456.30315322 425 455 C419.36389592 460.40377757 413.75555953 465.83474393 408.18048859 471.30138969 C405.59042901 473.83939229 402.99197235 476.36731822 400.37158203 478.87402344 C397.84006878 481.29638756 395.33423502 483.74282247 392.84382629 486.20740128 C391.43133692 487.59258554 389.9938261 488.95210624 388.55603027 490.31100464 C383.81762577 494.8508502 383.81762577 494.8508502 381.4753418 500.77789307 C381.45353414 503.44657834 381.45353414 503.44657834 381.8157959 505.9211731 C382 508 382 508 380.5 510.625 C376.87482833 512.61884442 373.94613726 513.1200958 370 512 C366.73266057 509.53745714 364.03987684 506.64006981 361.30758286 503.6032486 C359.90411518 502.04982028 358.47194416 500.52880485 357.02810669 499.01287842 C352.93024029 494.70266074 348.8750264 490.35495371 344.87353516 485.95507812 C328.99063201 468.48802937 328.99063201 468.48802937 306.68115234 462.28344727 C305.88398804 462.25164871 305.08682373 462.21985016 304.26550293 462.18708801 C290.62058465 461.06027391 279.36550117 450.88880131 270.36010742 441.47851562 C269.56022903 440.65658722 268.76035065 439.83465881 267.93623352 438.98782349 C266.21554267 437.21922381 264.49808135 435.44747729 262.78359032 433.67286682 C259.59807576 430.38209083 256.39144997 427.11246097 253.18307847 423.8439908 C252.71467335 423.36679456 252.24626823 422.88959832 251.76366901 422.39794159 C251.29208414 421.9175389 250.82049926 421.43713621 250.33462393 420.94217587 C243.97363117 414.45966451 237.62746891 407.96340248 231.32006836 401.42871094 C226.58756693 396.52599497 221.81865806 391.66104567 217.02730751 386.81584167 C215.21363129 384.96883289 213.41273844 383.10917847 211.62529564 381.23677063 C209.12448987 378.61997366 206.58305092 376.05010735 204.02807617 373.48632812 C203.30506317 372.70826813 202.58205017 371.93020813 201.83712769 371.12857056 C198.51518292 367.87636537 196.4583452 366.08389618 191.70864296 365.81065369 C188.25370428 366.06333164 188.25370428 366.06333164 184.97801685 366.64012909 C180.47837117 367.18387739 177.98370731 366.06562601 174 364 C172.96989356 363.03104143 171.96140885 362.03715622 171 361 C166.71872325 362.65860601 163.95626884 365.78417856 160.8125 369 C160.26658203 369.5465625 159.72066406 370.093125 159.15820312 370.65625 C156.22049968 373.55762107 156.22049968 373.55762107 154 377 C154.70125 377.185625 155.4025 377.37125 156.125 377.5625 C160.0647946 379.5323973 162.48214896 382.42242051 165 386 C165.90402948 388.71208843 166.19179124 390.50392749 166.25 393.3125 C166.28867187 394.42044922 166.28867187 394.42044922 166.328125 395.55078125 C165.36556907 402.7355737 160.19518124 407.30163421 155.375 412.25 C153.91849242 413.77008786 152.46275742 415.29091638 151.0078125 416.8125 C150.31075195 417.53824219 149.61369141 418.26398438 148.89550781 419.01171875 C146.63382217 421.38409998 144.43103302 423.80337994 142.25 426.25 C138.43204604 430.5316144 134.5620562 434.76144886 130.65356445 438.96044922 C128.04612361 441.76453026 125.47185431 444.58843565 122.953125 447.47265625 C122.4475708 448.04266357 121.9420166 448.6126709 121.42114258 449.19995117 C120.47790426 450.26487763 119.54423933 451.33842054 118.6237793 452.4230957 C111.00903894 460.94359666 100.85934538 465.22272753 90.25 468.8125 C88.62384766 469.38387695 88.62384766 469.38387695 86.96484375 469.96679688 C72.67934031 474.94666407 62.49358734 476.94173419 48 471 C46.845 470.401875 45.69 469.80375 44.5 469.1875 C42.17073801 467.81725778 42.17073801 467.81725778 40.09468079 468.19018555 C37.38878339 469.23629951 35.99881106 470.6825725 33.98510742 472.76953125 C33.20717331 473.56705811 32.4292392 474.36458496 31.62773132 475.1862793 C30.79538467 476.05293213 29.96303802 476.91958496 29.10546875 477.8125 C27.32789383 479.62801536 25.5498855 481.44310645 23.77148438 483.2578125 C20.97438256 486.12938245 18.18159789 489.00480949 15.39819336 491.88964844 C12.7096446 494.66882244 10.00274075 497.42903761 7.29296875 500.1875 C6.05355782 501.48747925 6.05355782 501.48747925 4.78910828 502.8137207 C-1.72499682 509.41168337 -1.72499682 509.41168337 -5.90112305 510.109375 C-9.6710582 509.97631497 -11.27428525 509.64554667 -14 507 C-15.18166479 503.05291136 -15.30315322 499.90945966 -14 496 C-19.40377757 490.36389592 -24.83474393 484.75555953 -30.30138969 479.18048859 C-32.83939229 476.59042901 -35.36731822 473.99197235 -37.87402344 471.37158203 C-40.29638756 468.84006878 -42.74282247 466.33423502 -45.20740128 463.84382629 C-46.59258554 462.43133692 -47.95210624 460.9938261 -49.31100464 459.55603027 C-53.8508502 454.81762577 -53.8508502 454.81762577 -59.77789307 452.4753418 C-62.44657834 452.45353414 -62.44657834 452.45353414 -64.9211731 452.8157959 C-67 453 -67 453 -69.625 451.5 C-71.61884442 447.87482833 -72.1200958 444.94613726 -71 441 C-68.53745714 437.73266057 -65.64006981 435.03987684 -62.6032486 432.30758286 C-61.04982028 430.90411518 -59.52880485 429.47194416 -58.01287842 428.02810669 C-53.70266074 423.93024029 -49.35495371 419.8750264 -44.95507812 415.87353516 C-27.48802937 399.99063201 -27.48802937 399.99063201 -21.28344727 377.68115234 C-21.25164871 376.88398804 -21.21985016 376.08682373 -21.18708801 375.26550293 C-20.04335001 361.4156482 -9.52947365 350.06066311 -0.1796875 340.74609375 C0.64199921 339.91916519 1.46368591 339.09223663 2.31027222 338.24024963 C4.03267572 336.5114717 5.75889292 334.7864856 7.48876953 333.06518555 C10.13717588 330.42536359 12.76625066 327.76726532 15.39453125 325.10742188 C17.07699413 323.42334861 18.76054954 321.74036598 20.4453125 320.05859375 C21.62046921 318.86658607 21.62046921 318.86658607 22.81936646 317.65049744 C23.92609207 316.55784325 23.92609207 316.55784325 25.05517578 315.44311523 C26.01944992 314.47909035 26.01944992 314.47909035 27.00320435 313.49559021 C29.36670716 311.72533812 31.07886828 311.28699651 34 311 C35.19496094 311.38478516 35.19496094 311.38478516 36.4140625 311.77734375 C39.2900522 312.30652365 39.2900522 312.30652365 42.1484375 309.75390625 C43.23979752 308.70635995 44.3149442 307.64171343 45.375 306.5625 C45.93316406 306.05267578 46.49132812 305.54285156 47.06640625 305.01757812 C48.68688108 303.40310506 49.93035512 302.02584258 51 300 C50.70140585 298.0073817 50.39859966 296.01366321 49.99780273 294.0390625 C50.00167761 290.44318145 52.31135439 288.64089195 54.72802734 286.18701172 C55.47777832 285.46529785 56.2275293 284.74358398 57 284 C58.73593557 282.22030418 60.47159619 280.44034014 62.20703125 278.66015625 C64.07290567 276.79165569 65.94144224 274.92581011 67.8125 273.0625 C68.77555913 272.09587098 69.73845081 271.1290751 70.70117188 270.16210938 C71.61060547 269.25396484 72.52003906 268.34582031 73.45703125 267.41015625 C74.28178955 266.58652588 75.10654785 265.76289551 75.95629883 264.91430664 C78 263 78 263 80 262 C79.86722656 261.36835938 79.73445312 260.73671875 79.59765625 260.0859375 C78.7610867 255.84813263 77.99209029 251.87599991 78.03125 247.5390625 C78.08888242 241.01219149 77.60775466 236.91041213 73.09741211 232.15429688 C68.89641803 228.10866958 68.89641803 228.10866958 64 225 C63.814375 225.70125 63.62875 226.4025 63.4375 227.125 C61.4676027 231.0647946 58.57757949 233.48214896 55 236 C52.28791157 236.90402948 50.49607251 237.19179124 47.6875 237.25 C46.57955078 237.28867187 46.57955078 237.28867187 45.44921875 237.328125 C38.2644263 236.36556907 33.69836579 231.19518124 28.75 226.375 C27.22991214 224.91849242 25.70908362 223.46275742 24.1875 222.0078125 C23.46175781 221.31075195 22.73601562 220.61369141 21.98828125 219.89550781 C19.61590002 217.63382217 17.19662006 215.43103302 14.75 213.25 C10.4683856 209.43204604 6.23855114 205.5620562 2.03955078 201.65356445 C-0.76453026 199.04612361 -3.58843565 196.47185431 -6.47265625 193.953125 C-7.04266357 193.4475708 -7.6126709 192.9420166 -8.19995117 192.42114258 C-9.26487763 191.47790426 -10.33842054 190.54423933 -11.4230957 189.6237793 C-19.94359666 182.00903894 -24.22272753 171.85934538 -27.8125 161.25 C-28.38387695 159.62384766 -28.38387695 159.62384766 -28.96679688 157.96484375 C-33.492598 144.98189761 -36.29714396 134.3090742 -31 121 C-29.94904269 118.88713792 -28.86677702 116.82385942 -27.671875 114.7890625 C-26.77326968 112.3962646 -27.12939381 111.39500414 -28 109 C-29.64436051 106.96221132 -29.64436051 106.96221132 -31.76953125 104.98510742 C-32.56705811 104.20717331 -33.36458496 103.4292392 -34.1862793 102.62773132 C-35.05293213 101.79538467 -35.91958496 100.96303802 -36.8125 100.10546875 C-38.62801536 98.32789383 -40.44310645 96.5498855 -42.2578125 94.77148438 C-45.12938245 91.97438256 -48.00480949 89.18159789 -50.88964844 86.39819336 C-53.66882244 83.7096446 -56.42903761 81.00274075 -59.1875 78.29296875 C-60.05415283 77.46669479 -60.92080566 76.64042084 -61.8137207 75.78910828 C-68.41168337 69.27500318 -68.41168337 69.27500318 -69.109375 65.09887695 C-68.97631497 61.3289418 -68.64554667 59.72571475 -66 57 C-62.05291136 55.81833521 -58.90945966 55.69684678 -55 57 C-49.36389592 51.59622243 -43.75555953 46.16525607 -38.18048859 40.69861031 C-35.59042901 38.16060771 -32.99197235 35.63268178 -30.37158203 33.12597656 C-27.84006878 30.70361244 -25.33423502 28.25717753 -22.84382629 25.79259872 C-21.43133692 24.40741446 -19.9938261 23.04789376 -18.55603027 21.68899536 C-13.81762577 17.1491498 -13.81762577 17.1491498 -11.4753418 11.22210693 C-11.45353414 8.55342166 -11.45353414 8.55342166 -11.8157959 6.0788269 C-12 4 -12 4 -10.5 1.375 C-6.87482833 -0.61884442 -3.94613726 -1.1200958 0 0 Z " fill="#020101" transform="translate(71,0)"/>
<path d="M0 0 C5.65851278 2.35916329 9.67497516 7.18786588 13.96362305 11.42822266 C15.54557476 12.98336162 17.14986757 14.51272429 18.75585938 16.04296875 C24.00691136 21.16060261 27.76823823 25.34510008 29.3762207 32.70507812 C31.65340338 41.08297134 40.42974132 47.66499576 46.375 53.5 C47.30183594 54.4178125 48.22867188 55.335625 49.18359375 56.28125 C51.4512111 58.52548985 53.72338511 60.76489422 56 63 C54.26241772 67.48285041 52.03353358 71.26785528 49.4375 75.3046875 C46.2735216 81.23714701 45.658088 86.92347576 45.6875 93.5 C45.67138672 94.22058594 45.65527344 94.94117188 45.63867188 95.68359375 C45.63401331 100.83596869 46.70085399 104.38957529 49 109 C50.258125 109.0825 51.51625 109.165 52.8125 109.25 C53.52019531 109.29640625 54.22789062 109.3428125 54.95703125 109.390625 C57.1111068 109.14996466 57.1111068 109.14996466 58.76953125 107.5234375 C60.56414284 103.84305945 60.09701351 100.35451053 59.875 96.375 C59.57205591 84.50456191 63.37783432 78.63667925 71.30078125 70.01953125 C73.17610633 67.96675149 73.17610633 67.96675149 74.4375 64.9375 C73.43778888 58.22515391 66.06362678 53.01160157 61.390625 48.43359375 C60.64499046 47.7030201 60.64499046 47.7030201 59.8842926 46.95768738 C57.81811534 44.93749711 55.75045439 42.91918155 53.66845703 40.9152832 C52.12901828 39.43063641 50.60285923 37.93331923 49.078125 36.43359375 C48.17481445 35.55759521 47.27150391 34.68159668 46.34082031 33.77905273 C42.40047609 29.10102412 40.42476675 24.14820129 40.62890625 18 C41.28148596 14.48293885 43.0299961 11.95500585 45 9 C48.90259965 9 49.88308928 10.62460992 52.54296875 13.265625 C53.67332822 14.41409091 54.79588705 15.57029141 55.91015625 16.734375 C58.95460008 19.72890991 60.29635234 20.91616113 64.671875 21.4375 C67.82085499 21.13482983 67.82085499 21.13482983 70.00585938 20.31469727 C72 20 72 20 73.64746094 20.98803711 C74.17114258 21.4960083 74.69482422 22.00397949 75.234375 22.52734375 C76.09482422 23.34428711 76.09482422 23.34428711 76.97265625 24.17773438 C77.55917969 24.75845703 78.14570313 25.33917969 78.75 25.9375 C79.35199219 26.51435547 79.95398438 27.09121094 80.57421875 27.68554688 C82.06022857 29.11258805 83.53155166 30.55489405 85 32 C85.99 31.505 85.99 31.505 87 31 C91.00843935 30.62346408 93.29944336 30.58785054 96.80859375 32.65234375 C110.92378944 44.92186749 117.96273028 56.81563596 123.875 74.5625 C124.47828125 76.27469727 124.47828125 76.27469727 125.09375 78.02148438 C128.2227451 87.33929121 129.6748651 95.86918552 126.1875 105.3125 C125.64609375 106.80716797 125.64609375 106.80716797 125.09375 108.33203125 C124 111 124 111 122.1875 114.5 C120.81725778 116.82926199 120.81725778 116.82926199 121.19018555 118.90531921 C122.23629951 121.61121661 123.6825725 123.00118894 125.76953125 125.01489258 C126.56705811 125.79282669 127.36458496 126.5707608 128.1862793 127.37226868 C129.05293213 128.20461533 129.91958496 129.03696198 130.8125 129.89453125 C132.62801536 131.67210617 134.44310645 133.4501145 136.2578125 135.22851562 C139.12938245 138.02561744 142.00480949 140.81840211 144.88964844 143.60180664 C147.66882244 146.2903554 150.42903761 148.99725925 153.1875 151.70703125 C154.05415283 152.53330521 154.92080566 153.35957916 155.8137207 154.21089172 C162.41168337 160.72499682 162.41168337 160.72499682 163.109375 164.90112305 C162.97631497 168.6710582 162.64554667 170.27428525 160 173 C156.05291136 174.18166479 152.90945966 174.30315322 149 173 C134.48 187.52 119.96 202.04 105 217 C101.21256405 215.10628203 99.50869381 213.6964456 96.66894531 210.68969727 C95.81995667 209.79859756 94.97096802 208.90749786 94.09625244 207.98939514 C93.64615059 207.51321306 93.19604874 207.03703098 92.73230743 206.54641914 C90.31939369 204.00320014 87.87363798 201.4917595 85.43359375 198.97460938 C82.34152862 195.78119482 79.25964846 192.57972086 76.21337891 189.3425293 C62.41748161 173.53351768 62.41748161 173.53351768 43.40893555 166.99731445 C42.28398682 166.99820068 41.15903809 166.99908691 40 167 C17.19935413 163.23614214 4.90888502 148.08876724 -10.85546875 132.41796875 C-11.69705347 131.58170771 -12.53863819 130.74544666 -13.40572548 129.88384438 C-17.84275825 125.47335782 -22.27623627 121.05932985 -26.70727539 116.64282227 C-30.37355943 112.98997144 -34.0470157 109.34456544 -37.72680664 105.70532227 C-42.18432116 101.29690115 -46.62964568 96.8765403 -51.06624794 92.4470768 C-52.75699648 90.76306187 -54.45201325 89.08332125 -56.15129662 87.40791893 C-58.5139439 85.07664836 -60.86058588 82.73036089 -63.20385742 80.37963867 C-63.91174911 79.68815231 -64.61964081 78.99666595 -65.34898376 78.28422546 C-66.29707916 77.32365234 -66.29707916 77.32365234 -67.264328 76.34367371 C-67.82008609 75.79122577 -68.37584417 75.23877783 -68.94844341 74.66958904 C-70 73 -70 73 -69.77278614 70.91113758 C-68.77182266 68.43570638 -67.37106929 67.07810187 -65.4375 65.25 C-64.79683594 64.63640625 -64.15617187 64.0228125 -63.49609375 63.390625 C-63.00238281 62.93171875 -62.50867188 62.4728125 -62 62 C-58.42907398 63.51031227 -56.21036096 65.58452146 -53.52612305 68.35791016 C-52.20906624 69.70908432 -52.20906624 69.70908432 -50.86540222 71.08755493 C-50.40070211 71.5686031 -49.93600201 72.04965126 -49.45722008 72.54527664 C-47.99551296 74.05580962 -46.52545348 75.55771102 -45.05244446 77.05722046 C-40.86621795 81.31963908 -36.68688628 85.58844376 -32.53442383 89.88378906 C-29.99028252 92.51422724 -27.42926202 95.12717205 -24.85657692 97.72968674 C-23.88169963 98.72248333 -22.91328525 99.72167042 -21.95166588 100.727314 C-20.60492921 102.13444737 -19.23391821 103.51822547 -17.86206055 104.90087891 C-17.09024948 105.69426666 -16.31843842 106.48765442 -15.52323914 107.30508423 C-12.18710025 109.54604282 -9.93884536 109.38305528 -6 109 C-3.91666667 108.08333333 -3.91666667 108.08333333 -3 106 C-2.58949265 101.96678024 -2.47219181 99.77681272 -4.78430176 96.37391663 C-5.61925171 95.55451096 -6.45420166 94.73510529 -7.31445312 93.89086914 C-7.77287094 93.43142914 -8.23128876 92.97198914 -8.70359802 92.49862671 C-10.21348032 90.99359706 -11.74656129 89.51484611 -13.28125 88.03515625 C-14.33652312 86.99294762 -15.39025479 85.9491761 -16.44250488 84.90391541 C-19.20895212 82.16412654 -21.99577055 79.44601252 -24.78741455 76.73193359 C-27.63524536 73.95585931 -30.46323064 71.15972772 -33.29296875 68.36523438 C-38.8427855 62.89036986 -44.41428357 57.43825879 -50 52 C-48.63236861 49.17163899 -47.30605007 46.96460668 -45.125 44.6875 C-44.63257813 44.15511719 -44.14015625 43.62273437 -43.6328125 43.07421875 C-42 42 -42 42 -40.18826294 42.1628418 C-37.20382529 43.30459054 -35.59939629 45.04882158 -33.35498047 47.3203125 C-32.44078339 48.23796387 -31.5265863 49.15561523 -30.58468628 50.10107422 C-29.59543509 51.10896613 -28.60627091 52.11694344 -27.6171875 53.125 C-26.59709417 54.15323108 -25.57626014 55.1807278 -24.55471802 56.20751953 C-21.86931765 58.91002897 -19.19261391 61.62098305 -16.51806641 64.33422852 C-12.23219711 68.67932305 -7.93355328 73.01177187 -3.63437271 77.34368896 C-2.13263542 78.85940825 -0.63476418 80.37886728 0.86257935 81.89892578 C2.22441849 83.27540283 2.22441849 83.27540283 3.61376953 84.6796875 C4.81478806 85.89760986 4.81478806 85.89760986 6.04006958 87.14013672 C8.52799017 89.50103285 9.49303193 89.95685378 12.9375 90.25 C15.91244441 90.22325478 15.91244441 90.22325478 17.875 88.9375 C19.65034876 85.87995492 19.32541145 83.47285531 19 80 C17.21390246 77.24080769 17.21390246 77.24080769 14.57788086 74.86254883 C14.10810318 74.39978043 13.6383255 73.93701202 13.15431213 73.46022034 C11.60641704 71.94255991 10.03584056 70.45073073 8.46484375 68.95703125 C7.38440417 67.90236099 6.3058612 66.84574459 5.22914124 65.78727722 C2.39728592 63.010379 -0.45274779 60.25302641 -3.30926514 57.50152588 C-7.88806939 53.09041186 -12.45079668 48.66338867 -16.99014091 44.21167564 C-18.58126586 42.66051002 -20.18732457 41.12604176 -21.79493713 39.59199524 C-22.76637893 38.64509843 -23.7371933 37.69755734 -24.70727539 36.74926758 C-25.56221085 35.92654861 -26.4171463 35.10382965 -27.29798889 34.25617981 C-29 32 -29 32 -28.87010193 29.82328796 C-27.75137588 27.47901119 -26.32155966 26.03129277 -24.4375 24.25 C-23.47650391 23.32960938 -23.47650391 23.32960938 -22.49609375 22.390625 C-22.00238281 21.93171875 -21.50867188 21.4728125 -21 21 C-17.48286197 22.50180233 -15.23491467 24.52773007 -12.55444336 27.234375 C-11.24805153 28.54583496 -11.24805153 28.54583496 -9.91526794 29.88378906 C-8.97342911 30.83916237 -8.0316218 31.79456677 -7.08984375 32.75 C-6.11676838 33.7293498 -5.14317338 34.70818355 -4.16908264 35.68652344 C-1.60960053 38.25928795 0.94425125 40.83756305 3.496521 43.41748047 C7.58378801 47.54791892 11.67781191 51.6716327 15.77511406 55.79211426 C17.20389814 57.23110786 18.62921257 58.6734731 20.05421448 60.11621094 C21.35587807 61.4276709 21.35587807 61.4276709 22.68383789 62.765625 C23.82823082 63.92239746 23.82823082 63.92239746 24.9957428 65.10253906 C27.61087188 67.57832175 29.32072824 68.91328446 32.9375 69.375 C36.06278833 69.2388274 36.06278833 69.2388274 38.375 67.3125 C40.35719018 64.49169089 40.4435904 63.3875895 40 60 C38.36702017 57.5448642 38.36702017 57.5448642 36.07006836 55.26586914 C35.24481659 54.3943924 34.41956482 53.52291565 33.56930542 52.62503052 C32.72143463 51.75877045 31.87356384 50.89251038 31 50 C30.25227325 49.22695526 29.50454651 48.45391052 28.73416138 47.65744019 C26.46643374 45.33572275 24.17676509 43.03797761 21.87890625 40.74609375 C21.05293442 39.91916519 20.22696259 39.09223663 19.3759613 38.24024963 C17.6503868 36.51400082 15.92357379 34.7889892 14.19555664 33.06518555 C11.54130537 30.4163486 8.89250891 27.76213941 6.24414062 25.10742188 C4.56021686 23.42415795 2.87598344 21.74120374 1.19140625 20.05859375 C0.00243492 18.86658607 0.00243492 18.86658607 -1.21055603 17.65049744 C-1.94214432 16.92206131 -2.6737326 16.19362518 -3.42749023 15.44311523 C-4.07096909 14.80043198 -4.71444794 14.15774872 -5.37742615 13.49559021 C-6.94507189 11.91189579 -6.94507189 11.91189579 -9 11 C-7.59155282 7.78475695 -5.89655214 5.67816132 -3.375 3.25 C-2.42753906 2.32960938 -2.42753906 2.32960938 -1.4609375 1.390625 C-0.97882813 0.93171875 -0.49671875 0.4728125 0 0 Z " fill="#FDDDCE" transform="translate(347,282)"/>
<path d="M0 0 C3.17483377 1.49572493 5.02236535 2.89108475 7.25 5.625 C8.03117187 6.57246094 8.03117187 6.57246094 8.828125 7.5390625 C9.40820312 8.26222656 9.40820312 8.26222656 10 9 C8.49076065 12.57044646 6.42002055 14.77991356 3.64208984 17.45800781 C2.74130707 18.33281799 1.84052429 19.20762817 0.91244507 20.10894775 C0.4313969 20.57202583 -0.04965126 21.03510391 -0.54527664 21.51221466 C-2.05617007 22.96962702 -3.5579765 24.4358239 -5.05722046 25.9052124 C-9.31873031 30.0814198 -13.5850145 34.25225385 -17.88378906 38.39013672 C-20.51647477 40.92556337 -23.12903372 43.4802901 -25.72968674 46.04854584 C-26.72160893 47.02072297 -27.72078743 47.98555532 -28.727314 48.94260406 C-35.22641276 54.66921863 -35.22641276 54.66921863 -37.73583984 62.53027344 C-37.32020784 66.04314282 -37.32020784 66.04314282 -35 68 C-31.75643424 68.75413353 -31.75643424 68.75413353 -28 68 C-26.13349833 66.75166539 -26.13349833 66.75166539 -24.35351562 65.05444336 C-23.65444092 64.41683075 -22.95536621 63.77921814 -22.23510742 63.12228394 C-18.24670671 59.33520924 -14.34563741 55.46729589 -10.46875 51.56640625 C-9.59222778 50.68846909 -8.71570557 49.81053192 -7.81262207 48.9059906 C-5.03937204 46.12718504 -2.26963718 43.34490603 0.5 40.5625 C2.39010805 38.66680135 4.28101518 36.77190217 6.171875 34.87695312 C10.78391004 30.25394811 15.39307141 25.62809343 20 21 C22.82836101 22.36763139 25.03539332 23.69394993 27.3125 25.875 C28.11107422 26.61363281 28.11107422 26.61363281 28.92578125 27.3671875 C30 29 30 29 29.8371582 30.81173706 C28.69540946 33.79617471 26.95117842 35.40060371 24.6796875 37.64501953 C23.76203613 38.55921661 22.84438477 39.4734137 21.89892578 40.41531372 C20.89103387 41.40456491 19.88305656 42.39372909 18.875 43.3828125 C17.84676892 44.40290583 16.8192722 45.42373986 15.79248047 46.44528198 C13.08997103 49.13068235 10.37901695 51.80738609 7.66577148 54.48193359 C3.32067695 58.76780289 -1.01177187 63.06644672 -5.34368896 67.36562729 C-6.85940825 68.86736458 -8.37886728 70.36523582 -9.89892578 71.86257935 C-10.81657715 72.77047211 -11.73422852 73.67836487 -12.6796875 74.61376953 C-13.89760986 75.81478806 -13.89760986 75.81478806 -15.14013672 77.04006958 C-17.50103285 79.52799017 -17.95685378 80.49303193 -18.25 83.9375 C-18.22325478 86.91244441 -18.22325478 86.91244441 -16.9375 88.875 C-13.87995492 90.65034876 -11.47285531 90.32541145 -8 90 C-5.24080769 88.21390246 -5.24080769 88.21390246 -2.86254883 85.57788086 C-2.39978043 85.10810318 -1.93701202 84.6383255 -1.46022034 84.15431213 C0.05744009 82.60641704 1.54926927 81.03584056 3.04296875 79.46484375 C4.09763901 78.38440417 5.15425541 77.3058612 6.21272278 76.22914124 C8.989621 73.39728592 11.74697359 70.54725221 14.49847412 67.69073486 C18.90958814 63.11193061 23.33661133 58.54920332 27.78832436 54.00985909 C29.33948998 52.41873414 30.87395824 50.81267543 32.40800476 49.20506287 C33.35490157 48.23362107 34.30244266 47.2628067 35.25073242 46.29272461 C36.07345139 45.43778915 36.89617035 44.5828537 37.74382019 43.70201111 C40 42 40 42 42.17671204 42.12989807 C44.52098881 43.24862412 45.96870723 44.67844034 47.75 46.5625 C48.36359375 47.20316406 48.9771875 47.84382813 49.609375 48.50390625 C50.06828125 48.99761719 50.5271875 49.49132812 51 50 C48.28680398 55.81942512 44.10155579 60.15178187 39.24365234 64.28417969 C35.24062517 67.75087717 31.46367495 71.39108375 27.7265625 75.140625 C26.75183487 76.11391754 26.75183487 76.11391754 25.75741577 77.10687256 C24.40003791 78.46357601 23.04389746 79.82151855 21.68896484 81.18066406 C19.61279069 83.26224108 17.53127037 85.33836605 15.44921875 87.4140625 C14.12467887 88.73926244 12.80044882 90.06477215 11.4765625 91.390625 C10.85576813 92.00939514 10.23497375 92.62816528 9.59536743 93.26568604 C9.02071747 93.84348816 8.4460675 94.42129028 7.85400391 95.01660156 C7.34962799 95.52177307 6.84525208 96.02694458 6.32559204 96.54742432 C4.1062517 98.97936394 3.04421313 100.65366385 2.625 103.9375 C2.77409979 107.05676767 2.77409979 107.05676767 4.625 109.4375 C6.91107074 111.22026166 6.91107074 111.22026166 9.75 111.1875 C18.00326637 108.17188344 24.37830657 99.69621026 30.390625 93.53125 C32.16867732 91.72597774 33.94734075 89.92130721 35.7265625 88.1171875 C38.50635863 85.29391074 41.2832714 82.46805322 44.04785156 79.62988281 C46.73417467 76.8773242 49.43583093 74.14064363 52.140625 71.40625 C53.38443939 70.11902039 53.38443939 70.11902039 54.65338135 68.80578613 C55.42808777 68.02747437 56.20279419 67.2491626 57.00097656 66.44726562 C57.67856018 65.75556274 58.3561438 65.06385986 59.05426025 64.35119629 C61 63 61 63 63.12982178 63.18273926 C65.54482857 64.238088 66.9441902 65.65250886 68.75 67.5625 C69.36359375 68.20316406 69.9771875 68.84382813 70.609375 69.50390625 C71.06828125 69.99761719 71.5271875 70.49132812 72 71 C69.69107631 76.46595873 65.15760695 80.3286116 61.05395508 84.48144531 C59.58214786 85.97999514 58.13626042 87.50079448 56.68945312 89.0234375 C51.44006385 94.41702665 46.87163925 97.93024687 39.53295898 100.13818359 C30.99409575 103.04345465 24.63361982 111.12548329 18.5 117.375 C17.5821875 118.30183594 16.664375 119.22867188 15.71875 120.18359375 C13.47451015 122.4512111 11.23510578 124.72338511 9 127 C5.73630614 125.72274135 2.76273112 124.35340128 -0.25 122.5625 C-8.0506463 118.26132798 -14.34852251 116.72907443 -23.25 116.625 C-24.03109131 116.61106201 -24.81218262 116.59712402 -25.61694336 116.58276367 C-30.1506397 116.62024833 -33.42911986 116.89305311 -37 120 C-37.70990939 121.92911172 -37.70990939 121.92911172 -37.5 124 C-37.48453125 125.0209375 -37.48453125 125.0209375 -37.46875 126.0625 C-36.86554871 128.555732 -35.98927165 129.40307021 -34 131 C-32.03776501 131.33142222 -32.03776501 131.33142222 -29.90234375 131.1171875 C-29.10562256 131.08101318 -28.30890137 131.04483887 -27.48803711 131.00756836 C-26.64635986 130.9638208 -25.80468262 130.92007324 -24.9375 130.875 C-15.53121872 130.65743736 -9.52487539 131.82583684 -2.4296875 138.37109375 C-0.75317639 139.97503945 0.88800175 141.61726931 2.48046875 143.3046875 C4.94070549 145.30035707 4.94070549 145.30035707 8.23144531 145.00195312 C13.18562687 143.68477503 15.38542794 141.33415343 18.81640625 137.6640625 C19.43595688 137.02890717 20.05550751 136.39375183 20.6938324 135.73934937 C22.66492161 133.71501769 24.61474307 131.67177092 26.5625 129.625 C28.51629148 127.58806333 30.47440045 125.55579572 32.44187927 123.53207397 C33.66258795 122.2749077 34.87519272 121.00980489 36.07826233 119.73574829 C40.50843852 115.14989358 44.3446074 112.29980239 50.875 111.5625 C55.50352071 111.71440126 59.08583692 113.66815817 63 116 C63 119.68452929 62.31036269 120.08556986 59.81640625 122.66015625 C59.14061523 123.36624023 58.46482422 124.07232422 57.76855469 124.79980469 C56.67655762 125.91983887 56.67655762 125.91983887 55.5625 127.0625 C54.078651 128.60993326 52.59557237 130.15810562 51.11328125 131.70703125 C50.03941162 132.82392334 50.03941162 132.82392334 48.94384766 133.96337891 C46.66494734 136.35104362 44.44556219 138.78559346 42.25 141.25 C38.36885119 145.60518226 34.42251335 149.8959507 30.44921875 154.16699219 C26.63199983 158.27953303 22.94377545 162.48950231 19.328125 166.78125 C12.72110594 173.07787219 4.69487855 175.8790895 -3.8125 178.8125 C-4.92431641 179.21919922 -6.03613281 179.62589844 -7.18164062 180.04492188 C-17.76426396 183.72933433 -26.66486888 184.65785981 -36.9375 179.75 C-37.73091797 179.37738037 -38.52433594 179.00476074 -39.34179688 178.62084961 C-49.68474028 173.25226357 -57.37011905 164.43681433 -65.125 155.92016602 C-67.67980456 153.30381994 -69.32098643 152.07073058 -73 151.6875 C-75.91988844 151.78937382 -75.91988844 151.78937382 -77.875 153.0625 C-79.76756573 156.32191875 -79.60865308 158.28721622 -79 162 C-76.97689555 164.98648752 -74.56136824 167.47078282 -72 170 C-71.154375 170.86625 -70.30875 171.7325 -69.4375 172.625 C-68.633125 173.40875 -67.82875 174.1925 -67 175 C-65.89451807 176.10284983 -64.79037751 177.20704568 -63.6875 178.3125 C-62.800625 179.199375 -61.91375 180.08625 -61 181 C-62.40509099 184.18259851 -64.06921342 186.31348466 -66.53173828 188.75878906 C-67.25233429 189.47923401 -67.9729303 190.19967896 -68.71536255 190.94195557 C-69.49249603 191.70876648 -70.26962952 192.47557739 -71.0703125 193.265625 C-71.86654022 194.05902283 -72.66276794 194.85242065 -73.48312378 195.66986084 C-76.02575948 198.20130703 -78.57526348 200.72570803 -81.125 203.25 C-82.85071753 204.96568617 -84.57598355 206.68182662 -86.30078125 208.3984375 C-90.52863032 212.60424248 -94.76213869 216.80428507 -99 221 C-104.60946923 216.36824326 -109.62552963 211.36064836 -114.64453125 206.1015625 C-116.30654736 204.38796847 -117.97000286 202.67576952 -119.63476562 200.96484375 C-122.23485398 198.2906781 -124.82636779 195.61039667 -127.39477539 192.90576172 C-129.89235539 190.28076632 -132.42089484 187.68925541 -134.95703125 185.1015625 C-135.71466263 184.28918121 -136.47229401 183.47679993 -137.25288391 182.63980103 C-141.32866114 178.44698048 -141.32866114 178.44698048 -146.69515991 176.55584717 C-149.36750347 176.54252185 -149.36750347 176.54252185 -151.87406921 176.86166382 C-154 177 -154 177 -156.625 175.5 C-158.61884442 171.87482833 -159.1200958 168.94613726 -158 165 C-155.53745714 161.73266057 -152.64006981 159.03987684 -149.6032486 156.30758286 C-148.04982028 154.90411518 -146.52880485 153.47194416 -145.01287842 152.02810669 C-140.70266074 147.93024029 -136.35495371 143.8750264 -131.95507812 139.87353516 C-114.48802937 123.99063201 -114.48802937 123.99063201 -108.28344727 101.68115234 C-108.25164871 100.88398804 -108.21985016 100.08682373 -108.18708801 99.26550293 C-107.04335001 85.4156482 -96.52947365 74.06066311 -87.1796875 64.74609375 C-86.35800079 63.91916519 -85.53631409 63.09223663 -84.68972778 62.24024963 C-82.96732428 60.5114717 -81.24110708 58.7864856 -79.51123047 57.06518555 C-76.86282412 54.42536359 -74.23374934 51.76726532 -71.60546875 49.10742188 C-69.92300587 47.42334861 -68.23945046 45.74036598 -66.5546875 44.05859375 C-65.37953079 42.86658607 -65.37953079 42.86658607 -64.18063354 41.65049744 C-63.07390793 40.55784325 -63.07390793 40.55784325 -61.94482422 39.44311523 C-61.30197479 38.80043198 -60.65912537 38.15774872 -59.99679565 37.49559021 C-57.63226789 35.72457044 -55.92301172 35.2841925 -53 35 C-52.18917969 35.268125 -51.37835938 35.53625 -50.54296875 35.8125 C-49.70378906 35.874375 -48.86460938 35.93625 -48 36 C-45.89583986 34.0476251 -44.1455592 32.17893644 -42.3125 30 C-36.99201317 24.12097722 -36.99201317 24.12097722 -33.27734375 23.66796875 C-31.65757856 24.00093439 -30.04564515 24.37645867 -28.44848633 24.80493164 C-25.98811516 25.23851031 -25.98811516 25.23851031 -24.12011719 23.87988281 C-23.51844727 23.30592773 -22.91677734 22.73197266 -22.296875 22.140625 C-21.60883789 21.49375732 -20.92080078 20.84688965 -20.21191406 20.18041992 C-19.48198242 19.46088135 -18.75205078 18.74134277 -18 18 C-17.23139648 17.25145752 -16.46279297 16.50291504 -15.67089844 15.73168945 C-13.26192109 13.35987553 -10.87783659 10.96550913 -8.5 8.5625 C-7.26636719 7.32209961 -7.26636719 7.32209961 -6.0078125 6.05664062 C-4.00287887 4.04005041 -2.00033747 2.02114764 0 0 Z " fill="#FDCCBE" transform="translate(158,276)"/>
<path d="M0 0 C3.44319853 2.36688017 6.57382879 4.91726799 9.69921875 7.6875 C12.69077697 9.76497099 14.35603993 9.62001717 17.94921875 9.25 C20.38591218 7.74600642 20.38591218 7.74600642 22.57421875 5.625 C34.43483659 -4.46457536 46.63102368 -7.52165613 61.94921875 -6.75 C74.85443314 -5.34682968 86.8221168 1.07344633 95.20703125 10.89453125 C104.90829509 23.69232396 107.90418486 35.77195561 106.77734375 51.67578125 C104.21945455 69.79416311 91.22425098 82.14377002 78.84375 94.34765625 C77.072227 96.11948976 75.30204174 97.89266169 73.53312683 99.667099 C69.84817932 103.3547971 66.14983495 107.02831177 62.44067383 110.69165039 C58.15650237 114.92434204 53.89620801 119.17954296 49.64940912 123.44969183 C45.5423735 127.578263 41.41850784 131.68960749 37.28665733 135.79333305 C35.53657689 137.53437561 33.7906709 139.27962462 32.04902077 141.02910042 C29.62491996 143.4589979 27.18240638 145.86867529 24.73364258 148.27368164 C24.01612823 149.00019928 23.29861389 149.72671692 22.55935669 150.47525024 C21.89091232 151.12388535 21.22246796 151.77252045 20.5337677 152.44081116 C19.9588197 153.01089936 19.38387171 153.58098757 18.79150105 154.16835117 C16.94921875 155.25 16.94921875 155.25 14.44768715 155.11591053 C11.72646968 154.1728004 10.41836287 153.22381825 8.38917542 151.20462036 C7.72625488 150.55442429 7.06333435 149.90422821 6.38032532 149.23432922 C5.66901962 148.51649765 4.95771393 147.79866608 4.22485352 147.05908203 C3.46322906 146.30607315 2.70160461 145.55306427 1.91690063 144.77723694 C-0.60216729 142.2808983 -3.10617961 139.7700601 -5.609375 137.2578125 C-7.35854243 135.5138803 -9.10822958 133.77046924 -10.8584137 132.02755737 C-14.52925818 128.36713217 -18.19249868 124.69929686 -21.85083008 121.02636719 C-26.52388796 116.33618557 -31.21687202 111.66654748 -35.91609097 107.0025959 C-39.53767639 103.40305811 -43.14739802 99.79180225 -46.75383186 96.17708969 C-48.4782709 94.45183392 -50.20652875 92.73038596 -51.93874931 91.01294327 C-54.37044451 88.59881258 -56.78543173 86.16905741 -59.19702148 83.73486328 C-59.90630295 83.03727402 -60.61558441 82.33968475 -61.34635925 81.62095642 C-71.48001849 71.29468315 -77.35807519 57.69035136 -77.55078125 43.1875 C-77.36699672 29.39545556 -71.32738663 17.20067657 -62.08984375 7.12890625 C-44.93709332 -8.6765975 -20.17815673 -11.57466609 0 0 Z " fill="#FB77A7" transform="translate(241.05078125,195.75)"/>
<path d="M0 0 C2.69515871 1.25343849 4.34847018 2.89754393 6.44252014 5.0100708 C7.30311035 5.8708876 8.16370056 6.73170441 9.05036926 7.61860657 C9.97029663 8.55401779 10.890224 9.48942902 11.83802795 10.45318604 C12.79572515 11.41648054 13.75408842 12.37911327 14.71308899 13.34111023 C17.23174526 15.87120462 19.74126134 18.41017907 22.24897766 20.95111084 C24.81096027 23.54381656 27.38148797 26.12801934 29.9513092 28.71295166 C34.98965136 33.78343968 40.01838629 38.86335859 45.04115295 43.94927979 C43.53568423 47.50521605 41.48294554 49.70782375 38.71498108 52.37554932 C37.82065369 53.24390411 36.92632629 54.11225891 36.00489807 55.00692749 C35.52709396 55.46676151 35.04928986 55.92659554 34.55700684 56.40036392 C33.05393928 57.84989836 31.56000089 59.3082564 30.06861877 60.76980591 C25.82920939 64.92399018 21.58521183 69.07298803 17.3082428 73.1885376 C14.68834825 75.71083835 12.08887165 78.25271982 9.5012207 80.80807114 C8.51656843 81.77305001 7.52467841 82.73070521 6.52529907 83.68042374 C0.18606471 89.71159506 -3.36507588 94.10061159 -3.95884705 102.94927979 C-4.16243973 104.3752149 -4.37441081 105.80001268 -4.59947205 107.22271729 C-4.6969574 107.89617187 -4.79444275 108.56962646 -4.8948822 109.26348877 C-8.188883 130.88453132 -23.13874204 143.2800887 -37.9315033 158.01959229 C-39.46585682 159.55207711 -40.99998702 161.08478555 -42.53390503 162.6177063 C-46.5412541 166.62126571 -50.55159871 170.62181099 -54.56260681 174.6217041 C-58.66722822 178.7160344 -62.76896506 182.81325232 -66.87095642 186.91021729 C-74.8974566 194.9260429 -82.92712914 202.93868248 -90.95884705 210.94927979 C-93.59706729 207.84549127 -94.66250436 205.13465054 -95.64634705 201.19927979 C-95.89771423 200.21443604 -96.14908142 199.22959229 -96.4080658 198.21490479 C-96.58982361 197.46724854 -96.77158142 196.71959229 -96.95884705 195.94927979 C-96.53289246 195.54109009 -96.10693787 195.13290039 -95.66807556 194.71234131 C-91.23201115 190.45349462 -86.82454981 186.16655912 -82.43247986 181.86236572 C-80.79053418 180.26060979 -79.14147453 178.66611236 -77.48521423 177.0791626 C-75.10308454 174.79426269 -72.74791259 172.4843231 -70.39634705 170.16802979 C-69.2807843 169.11440247 -69.2807843 169.11440247 -68.14268494 168.03948975 C-64.82687942 164.7266276 -62.50784233 162.39328895 -62.3065033 157.56060791 C-62.52177673 156.36886963 -62.73705017 155.17713135 -62.95884705 153.94927979 C-66.78501334 151.39850225 -68.41680312 151.28887524 -72.95884705 151.94927979 C-75.79542376 153.85412161 -78.02375223 156.24550674 -80.3533783 158.73052979 C-81.36352242 159.76264587 -81.36352242 159.76264587 -82.39407349 160.81561279 C-84.53702536 163.01088263 -86.65475952 165.22860567 -88.77134705 167.44927979 C-90.9099857 169.66540361 -93.05351648 171.87654112 -95.20217896 174.08294678 C-96.53674621 175.45629808 -97.8646767 176.83613492 -99.18536377 178.22283936 C-99.78326218 178.84348267 -100.38116058 179.46412598 -100.99717712 180.10357666 C-101.52233414 180.65428833 -102.04749115 181.205 -102.58856201 181.7723999 C-103.95884705 182.94927979 -103.95884705 182.94927979 -105.95884705 182.94927979 C-107.68540955 181.33990479 -107.68540955 181.33990479 -109.58384705 179.19927979 C-110.21548767 178.50318604 -110.8471283 177.80709229 -111.49790955 177.08990479 C-112.95884705 174.94927979 -112.95884705 174.94927979 -112.95884705 170.94927979 C-111.82666016 169.34280396 -111.82666016 169.34280396 -110.22080994 167.77301025 C-109.62341507 167.1791452 -109.0260202 166.58528015 -108.41052246 165.97341919 C-107.75744614 165.34412506 -107.10436981 164.71483093 -106.4315033 164.06646729 C-105.76799362 163.41098907 -105.10448395 162.75551086 -104.42086792 162.08016968 C-102.29691228 159.98524905 -100.15979305 157.90439799 -98.02134705 155.82427979 C-95.88910462 153.73450467 -93.7596703 151.64194238 -91.63253784 149.54696655 C-90.30727535 148.24344713 -88.97855115 146.94343631 -87.64611816 145.64724731 C-87.04557114 145.05968658 -86.44502411 144.47212585 -85.82627869 143.86676025 C-85.29555252 143.35031952 -84.76482635 142.83387878 -84.21801758 142.30178833 C-82.23225809 140.16883127 -81.95968708 138.95915014 -81.70884705 136.01177979 C-81.73559226 133.03683538 -81.73559226 133.03683538 -83.02134705 131.07427979 C-86.23250705 129.20973526 -88.29031964 129.44004487 -91.95884705 129.94927979 C-94.97103002 132.07081422 -97.34951898 134.71575908 -99.83384705 137.42193604 C-101.3286202 138.9759903 -102.82341244 140.53002621 -104.31822205 142.08404541 C-106.64738293 144.55028815 -108.96940252 147.02304419 -111.28892517 149.49835205 C-113.53727507 151.88520448 -115.80925369 154.2476233 -118.08384705 156.60943604 C-119.11227722 157.73274071 -119.11227722 157.73274071 -120.16148376 158.8787384 C-122.02190867 160.80479503 -123.71711965 162.48411708 -125.95884705 163.94927979 C-129.78526306 163.95513916 -129.78526306 163.95513916 -132.95884705 162.94927979 C-133.83412048 162.70049072 -134.70939392 162.45170166 -135.6111908 162.19537354 C-136.36529236 161.9285376 -137.11939392 161.66170166 -137.89634705 161.38677979 C-139.0545697 160.98265869 -139.0545697 160.98265869 -140.2361908 160.57037354 C-141.08890564 160.26293213 -141.08890564 160.26293213 -141.95884705 159.94927979 C-141.95884705 159.28927979 -141.95884705 158.62927979 -141.95884705 157.94927979 C-140.73179626 156.74127197 -140.73179626 156.74127197 -138.88853455 155.24615479 C-132.61585064 149.91064137 -126.8846048 144.02413052 -121.07505798 138.19586182 C-119.0713126 136.18671153 -117.06221997 134.18301808 -115.05259705 132.17974854 C-113.77363007 130.90012152 -112.49497291 129.62018475 -111.21665955 128.33990479 C-110.61773895 127.74300842 -110.01881836 127.14611206 -109.40174866 126.53112793 C-104.65352076 122.00573873 -104.65352076 122.00573873 -102.58384705 116.01177979 C-102.72001964 112.88649146 -102.72001964 112.88649146 -104.64634705 110.57427979 C-107.46639337 108.59262561 -108.57222438 108.50909098 -111.95884705 108.94927979 C-114.40534055 110.55731017 -114.40534055 110.55731017 -116.6761322 112.83599854 C-117.54796143 113.66148193 -118.41979065 114.48696533 -119.31803894 115.33746338 C-123.44166329 119.41581716 -127.48082525 123.56376301 -131.48228455 127.76177979 C-133.26198979 129.59791375 -135.04328771 131.43250508 -136.82603455 133.26568604 C-139.59414069 136.11404855 -142.35268777 138.96914678 -145.08580017 141.85113525 C-147.7548573 144.65994108 -150.45811822 147.43166686 -153.16978455 150.19927979 C-154.37506302 151.49442505 -154.37506302 151.49442505 -155.60469055 152.81573486 C-161.05579752 158.29492918 -164.91383376 159.9332228 -172.67799377 160.03814697 C-173.43067535 160.0088208 -174.18335693 159.97949463 -174.95884705 159.94927979 C-176.46774173 156.93149041 -176.45910981 155.32605341 -175.95884705 151.94927979 C-174.75450134 150.26519775 -174.75450134 150.26519775 -173.0955658 148.44146729 C-172.45860779 147.74037842 -171.82164978 147.03928955 -171.16539001 146.31695557 C-170.43723083 145.53562256 -169.70907166 144.75428955 -168.95884705 143.94927979 C-167.74865906 142.63999512 -167.74865906 142.63999512 -166.51402283 141.30426025 C-164.2633319 138.90059757 -161.98927804 136.52376029 -159.6905365 134.16607666 C-158.74512639 133.18895229 -157.80787382 132.20386811 -156.87901306 131.21099854 C-150.97591757 124.90992987 -146.13983484 120.86047317 -137.65000916 118.81256104 C-132.96818734 117.31070837 -129.88683106 113.97926679 -126.50474548 110.52593994 C-124.61549394 108.59909433 -122.69732819 106.70280252 -120.77915955 104.80474854 C-116.81732075 100.87428374 -112.88118705 96.91913229 -108.95884705 92.94927979 C-105.76008622 94.14605754 -103.02162301 95.45750396 -100.20884705 97.38677979 C-92.96493981 101.91254808 -86.74370563 103.20655873 -78.27134705 103.26177979 C-77.54632996 103.26733887 -76.82131287 103.27289795 -76.07432556 103.27862549 C-71.68695464 103.21971095 -67.9930838 102.70302633 -63.95884705 100.94927979 C-62.43392707 97.89943983 -62.72322157 95.30694289 -62.95884705 91.94927979 C-64.14639183 90.15396721 -64.14639183 90.15396721 -65.95884705 88.94927979 C-67.92108203 88.61785756 -67.92108203 88.61785756 -70.0565033 88.83209229 C-70.85322449 88.8682666 -71.64994568 88.90444092 -72.47080994 88.94171143 C-73.31248718 88.98545898 -74.15416443 89.02920654 -75.02134705 89.07427979 C-84.42762832 89.29184243 -90.43397166 88.12344295 -97.52915955 81.57818604 C-99.20567065 79.97424033 -100.84684879 78.33201047 -102.4393158 76.64459229 C-104.89985637 74.64871806 -104.89985637 74.64871806 -108.19248962 74.94732666 C-113.14313906 76.26433355 -115.32224934 78.60926892 -118.74009705 82.28521729 C-119.357276 82.92037262 -119.97445496 83.55552795 -120.6103363 84.20993042 C-122.57480091 86.23423573 -124.51820925 88.27714064 -126.45884705 90.32427979 C-128.40109209 92.36250366 -130.34765104 94.3957587 -132.30735779 96.41720581 C-133.52343429 97.67247282 -134.72955986 98.93748405 -135.92381287 100.21353149 C-140.15076577 104.58961438 -144.05743956 107.17596509 -150.14634705 108.38287354 C-155.46382652 108.39433362 -158.5422692 106.89366501 -162.95884705 103.94927979 C-162.95884705 100.2647505 -162.26920973 99.86370992 -159.7752533 97.28912354 C-159.09946228 96.58303955 -158.42367126 95.87695557 -157.72740173 95.1494751 C-156.63540466 94.02944092 -156.63540466 94.02944092 -155.52134705 92.88677979 C-154.03749804 91.33934652 -152.55441942 89.79117416 -151.0721283 88.24224854 C-150.35621521 87.49765381 -149.64030212 86.75305908 -148.9026947 85.98590088 C-146.62379438 83.59823616 -144.40440923 81.16368632 -142.20884705 78.69927979 C-138.32670662 74.34298481 -134.38122322 70.04924618 -130.40367126 65.78009033 C-128.06309438 63.26145042 -125.77248468 60.73004768 -123.54478455 58.10943604 C-122.45037048 56.82359619 -122.45037048 56.82359619 -121.33384705 55.51177979 C-120.41732361 54.39996338 -120.41732361 54.39996338 -119.48228455 53.26568604 C-112.6158637 46.96260932 -104.22661123 43.56726025 -95.52134705 40.57427979 C-94.56164001 40.2197876 -93.60193298 39.86529541 -92.61314392 39.50006104 C-82.3336464 35.91435079 -73.51115238 35.71676707 -63.52134705 40.19927979 C-62.68095886 40.57189941 -61.84057068 40.94451904 -60.97471619 41.32843018 C-50.3658751 46.55268192 -42.63915099 55.36098699 -34.81797791 64.02911377 C-32.91148451 66.13391157 -32.91148451 66.13391157 -29.95884705 67.94927979 C-24.91883297 67.71715013 -24.91883297 67.71715013 -20.95884705 64.94927979 C-20.27514006 61.96583114 -20.09738142 60.8068243 -20.95884705 57.94927979 C-23.61978782 54.27576862 -26.74385857 51.13875247 -29.95884705 47.94927979 C-30.64720642 47.23642822 -31.3355658 46.52357666 -32.04478455 45.78912354 C-35.18272688 42.44595482 -35.18272688 42.44595482 -38.95884705 39.94927979 C-38.3748997 36.40112521 -37.10875186 34.71298847 -34.60411072 32.17462158 C-33.89634995 31.45094894 -33.18858917 30.72727631 -32.4593811 29.98167419 C-31.68963455 29.21172623 -30.919888 28.44177826 -30.1268158 27.64849854 C-29.33865982 26.85272903 -28.55050385 26.05695953 -27.73846436 25.23707581 C-26.07028538 23.55809268 -24.39811183 21.88307041 -22.72227478 20.21173096 C-20.15273839 17.64316871 -17.60526282 15.05402896 -15.05845642 12.46295166 C-13.43671165 10.83600164 -11.81370664 9.21030665 -10.1893158 7.58599854 C-9.42564194 6.80592941 -8.66196808 6.02586029 -7.87515259 5.22215271 C-7.15793533 4.51424088 -6.44071808 3.80632904 -5.70176697 3.07696533 C-5.07412949 2.44727341 -4.446492 1.81758148 -3.79983521 1.16880798 C-1.95884705 -0.05072021 -1.95884705 -0.05072021 0 0 Z " fill="#D38679" transform="translate(453.95884704589844,16.05072021484375)"/>
<path d="M0 0 C4.87538908 3.98866076 9.20581076 8.22963104 13.47987366 12.85392761 C16.89075989 16.54384947 20.36641263 20.17092129 23.83666992 23.80493164 C25.64396386 25.716147 27.43465569 27.64320877 29.20776367 29.58618164 C39.28762657 40.59747372 47.15997351 48.97148937 62.66896057 49.76615906 C64.35584324 49.80878358 66.04304705 49.84063976 67.73036194 49.85957336 C79.96574471 50.61659875 90.97209081 60.49283508 99.09765625 68.8046875 C99.8173912 69.5286673 100.53712616 70.25264709 101.27867126 70.99856567 C103.54717085 73.28368718 105.80493872 75.57907683 108.0625 77.875 C109.61062678 79.43819489 111.15944881 81.00070157 112.70898438 82.5625 C116.48072262 86.36708839 120.24373714 90.18013523 124 94 C123.03126953 94.88945312 123.03126953 94.88945312 122.04296875 95.796875 C119.72717925 97.91604878 119.72717925 97.91604878 119.3125 101.25 C120.02406769 105.13127833 120.49439203 105.92883262 123.02172852 108.70922852 C123.97585129 109.75894333 123.97585129 109.75894333 124.94924927 110.8298645 C128.3453689 114.42368975 131.82370713 117.92620708 135.33984375 121.40234375 C136.10680069 122.16551407 136.87375763 122.92868439 137.66395569 123.71498108 C140.08603626 126.12495178 142.51135821 128.53161826 144.9375 130.9375 C148.15777337 134.13128723 151.37479001 137.32830321 154.58984375 140.52734375 C155.70527809 141.63033058 155.70527809 141.63033058 156.84324646 142.75559998 C157.52137894 143.43042923 158.19951141 144.10525848 158.89819336 144.80053711 C159.49885117 145.3959581 160.09950897 145.99137909 160.71836853 146.60484314 C162 148 162 148 162 149 C159.75256955 149.53181175 157.50192898 150.05007126 155.25 150.5625 C153.99703125 150.85253906 152.7440625 151.14257812 151.453125 151.44140625 C148.20349826 151.96708116 146.96962599 152.09523234 144 151 C142.20370483 149.55773926 142.20370483 149.55773926 140.36474609 147.68945312 C139.67077728 146.99203003 138.97680847 146.29460693 138.2618103 145.5760498 C137.52314728 144.81876587 136.78448425 144.06148193 136.0234375 143.28125 C135.25697906 142.50817505 134.49052063 141.7351001 133.70083618 140.93859863 C131.25170861 138.46604563 128.81295559 135.98356524 126.375 133.5 C123.92820732 131.0181846 121.47930816 128.53850003 119.02774048 126.06140137 C117.50208138 124.51872061 115.9795138 122.97297532 114.46029663 121.4239502 C113.77263214 120.7265271 113.08496765 120.029104 112.37646484 119.31054688 C111.77119965 118.69401245 111.16593445 118.07747803 110.54232788 117.44226074 C108.28604094 115.33236302 107.19544583 115.01247527 104.0625 114.8125 C100.82568546 114.7530642 100.82568546 114.7530642 98 117 C97.28574498 121.05399791 97.01734599 123.48862432 99.29272461 126.98828125 C101.17869493 129.10519212 103.15582864 131.05508157 105.21875 133 C106.31745422 134.08172485 106.31745422 134.08172485 107.43835449 135.18530273 C109.77408692 137.47637798 112.13610672 139.73802769 114.5 142 C116.09166192 143.55152239 117.68152839 145.10488897 119.26953125 146.66015625 C123.15913429 150.46172173 127.07068069 154.23952311 131 158 C129.78934835 161.63195496 128.46308874 162.42896192 125.4375 164.6875 C124.61121094 165.31011719 123.78492188 165.93273437 122.93359375 166.57421875 C122.29550781 167.04472656 121.65742188 167.51523438 121 168 C114.12507297 162.38220249 107.97992292 156.05816956 101.75 149.75 C99.60185787 147.57522801 97.45039199 145.40382326 95.296875 143.234375 C94.80934753 142.73854919 94.32182007 142.24272339 93.81951904 141.73187256 C89.63568866 137.41874229 89.63568866 137.41874229 84.0625 135.625 C80.93721167 135.7611726 80.93721167 135.7611726 78.625 137.6875 C76.6465099 140.5030436 76.56957919 141.61946184 77 145 C78.5357816 147.36058056 78.5357816 147.36058056 80.75390625 149.55859375 C81.57648926 150.42726074 82.39907227 151.29592773 83.24658203 152.19091797 C84.15520996 153.11791504 85.06383789 154.04491211 86 155 C86.46847351 155.48156555 86.93694702 155.9631311 87.4196167 156.45928955 C90.38653294 159.50704547 93.38190634 162.52480901 96.39575195 165.52612305 C97.96361068 167.08851972 99.5259203 168.65632806 101.08789062 170.22460938 C102.08822039 171.22427993 103.08885944 172.2236411 104.08984375 173.22265625 C105.43357056 174.56469116 105.43357056 174.56469116 106.80444336 175.93383789 C108.82196756 178.03068853 108.82196756 178.03068853 111 179 C109.16508812 183.74018901 107.08058541 188.36413251 105 193 C98.55109694 190.31676847 91.64671484 183.74902078 88.828125 177.33203125 C88.41876766 175.72205879 88.04114281 174.10346425 87.70532227 172.4765625 C85.29932433 164.0285033 76.66123946 157.42429779 70.625 151.5 C69.69816406 150.5821875 68.77132812 149.664375 67.81640625 148.71875 C65.5487889 146.47451015 63.27661489 144.23510578 61 142 C62.27725865 138.73630614 63.64659872 135.76273112 65.4375 132.75 C69.76286449 124.90547801 71.25824235 118.63823316 71.3125 109.6875 C71.31805908 108.89802979 71.32361816 108.10855957 71.3293457 107.29516602 C71.31156237 101.84035093 71.31156237 101.84035093 69 97 C65.95016004 95.47508002 63.3576631 95.76437452 60 96 C58.20468742 97.18754478 58.20468742 97.18754478 57 99 C56.66857778 100.96223499 56.66857778 100.96223499 56.8828125 103.09765625 C56.91898682 103.89437744 56.95516113 104.69109863 56.99243164 105.51196289 C57.0361792 106.35364014 57.07992676 107.19531738 57.125 108.0625 C57.34256264 117.46878128 56.17416316 123.47512461 49.62890625 130.5703125 C48.02496055 132.24682361 46.38273069 133.88800175 44.6953125 135.48046875 C42.69964293 137.94070549 42.69964293 137.94070549 42.99804688 141.23144531 C44.31522497 146.18562687 46.66584657 148.38542794 50.3359375 151.81640625 C50.97109283 152.43595688 51.60624817 153.05550751 52.26065063 153.6938324 C54.28498231 155.66492161 56.32822908 157.61474307 58.375 159.5625 C60.41193667 161.51629148 62.44420428 163.47440045 64.46792603 165.44187927 C65.7250923 166.66258795 66.99019511 167.87519272 68.26425171 169.07826233 C72.85010642 173.50843852 75.70019761 177.3446074 76.4375 183.875 C76.28559874 188.50352071 74.33184183 192.08583692 72 196 C68.31547071 196 67.91443014 195.31036269 65.33984375 192.81640625 C64.63375977 192.14061523 63.92767578 191.46482422 63.20019531 190.76855469 C62.08016113 189.67655762 62.08016113 189.67655762 60.9375 188.5625 C59.39006674 187.078651 57.84189438 185.59557237 56.29296875 184.11328125 C55.17607666 183.03941162 55.17607666 183.03941162 54.03662109 181.94384766 C51.64895638 179.66494734 49.21440654 177.44556219 46.75 175.25 C42.39481774 171.36885119 38.1040493 167.42251335 33.83300781 163.44921875 C29.72046697 159.63199983 25.51049769 155.94377545 21.21875 152.328125 C14.92212781 145.72110594 12.1209105 137.69487855 9.1875 129.1875 C8.57745117 127.51977539 8.57745117 127.51977539 7.95507812 125.81835938 C4.27066567 115.23573604 3.34214019 106.33513112 8.25 96.0625 C8.62261963 95.26908203 8.99523926 94.47566406 9.37915039 93.65820312 C14.74773643 83.31525972 23.56318567 75.62988095 32.07983398 67.875 C34.69618006 65.32019544 35.92926942 63.67901357 36.3125 60 C36.21062618 57.08011156 36.21062618 57.08011156 34.9375 55.125 C32.65533485 53.79987185 30.73548889 53.21472049 28.08203125 53.33203125 C23.1370784 54.9184983 19.56707267 59.40049939 16 63 C15.12859375 63.85851562 14.2571875 64.71703125 13.359375 65.6015625 C11.22245034 67.71832749 9.10383849 69.85042589 7 72 C3.89148918 70.6142528 1.73944927 69.00400017 -0.68286133 66.62353516 C-1.38651321 65.93587067 -2.0901651 65.24820618 -2.81513977 64.53970337 C-3.56321396 63.79699188 -4.31128815 63.0542804 -5.08203125 62.2890625 C-5.85560471 61.52451752 -6.62917816 60.75997253 -7.42619324 59.97225952 C-9.05695261 58.35599381 -10.68492641 56.73691338 -12.31030273 55.11523438 C-14.8084235 52.62905701 -17.32458327 50.16213759 -19.84179688 47.6953125 C-21.42302053 46.12354742 -23.00313757 44.55066811 -24.58203125 42.9765625 C-25.34022659 42.23789948 -26.09842194 41.49923645 -26.8795929 40.7381897 C-27.56748398 40.04422089 -28.25537506 39.35025208 -28.96411133 38.63525391 C-29.57603836 38.02839752 -30.18796539 37.42154114 -30.81843567 36.79629517 C-32 35 -32 35 -31.87469482 32.97903442 C-30.87903228 30.72630536 -29.79155181 29.4297111 -28.04077148 27.70019531 C-27.4202037 27.07985413 -26.79963593 26.45951294 -26.16026306 25.82037354 C-25.48733719 25.16293152 -24.81441132 24.5054895 -24.12109375 23.828125 C-23.4344313 23.1457074 -22.74776886 22.46328979 -22.04029846 21.76019287 C-19.84630585 19.58298804 -17.64211084 17.41644719 -15.4375 15.25 C-13.94788366 13.77543029 -12.4589428 12.30017787 -10.97070312 10.82421875 C-7.32159192 7.20817824 -3.66329621 3.60166712 0 0 Z " fill="#A14E40" transform="translate(48,25)"/>
<path d="M0 0 C3.26733943 2.46254286 5.96012316 5.35993019 8.69241714 8.3967514 C10.09588482 9.95017972 11.52805584 11.47119515 12.97189331 12.98712158 C17.06975971 17.29733926 21.1249736 21.64504629 25.12646484 26.04492188 C41.00936799 43.51197063 41.00936799 43.51197063 63.31884766 49.71655273 C64.11601196 49.74835129 64.91317627 49.78014984 65.73449707 49.81291199 C80.23853361 51.01067313 91.83022075 62.3621238 101.56640625 72.0625 C102.53600241 73.02242562 103.50580952 73.98213821 104.47581482 74.94165039 C106.48860741 76.93664598 108.49527514 78.93757389 110.49829102 80.94238281 C113.05868349 83.50308235 115.63924398 86.04238654 118.22532749 88.57710266 C120.22680267 90.54518167 122.21445265 92.52678741 124.19849968 94.51242065 C125.60145355 95.91014954 127.01796915 97.29422362 128.43470764 98.67797852 C135.44243528 105.76192999 135.44243528 105.76192999 136.14819336 109.94140625 C136 113 136 113 135 116 C139.29 120.29 143.58 124.58 148 129 C147.67 129.99 147.34 130.98 147 132 C146.47124377 135.37082095 146.27217598 137.84345772 148.140625 140.8125 C150.94001848 144.07392929 154.01400023 147.01826417 157.13671875 149.96484375 C157.68038086 150.48667236 158.22404297 151.00850098 158.78417969 151.54614258 C159.87053746 152.58357254 160.97125063 153.60621301 162.08691406 154.61206055 C164.73369421 157.1278495 165.93750631 158.55221916 166.44921875 162.21875 C166 165 166 165 164.375 167.375 C162 169 162 169 159.25 169.6875 C151.00717458 167.94382539 144.18464106 158.24877871 138.49609375 152.41796875 C136.68614764 150.58078816 134.87558234 148.7442174 133.06445312 146.90820312 C130.23875091 144.03914605 127.41595134 141.16764573 124.60571289 138.28344727 C121.87455211 135.48133643 119.12316809 132.69954651 116.37109375 129.91796875 C115.53549423 129.05342575 114.69989471 128.18888275 113.838974 127.29814148 C109.25577158 122.69414104 106.34274063 120.67234337 100 119 C97.21281476 116.85907137 94.85883734 114.34773629 92.44921875 111.796875 C91.40094658 110.72376068 91.40094658 110.72376068 90.33149719 109.62896729 C88.10442925 107.34764044 85.89446911 105.0507647 83.6875 102.75 C81.49052387 100.46429379 79.28980984 98.18293907 77.07563782 95.91387939 C75.70181299 94.5057575 74.3374462 93.08831703 72.98478699 91.65985107 C65.74942683 84.23784902 55.20969704 76.6915961 44.55218506 75.79379272 C42.88946318 75.78846494 41.2267237 75.787245 39.56399536 75.78987122 C25.14898058 75.46481907 17.32217485 67.43352924 7.91129684 57.66448784 C5.82199519 55.46308369 3.76125543 53.23604381 1.70196533 51.0065918 C-0.95132197 48.15623601 -3.6616925 45.36123217 -6.3671875 42.56054688 C-11.63424603 37.09185326 -16.83659288 31.56686301 -22 26 C-20.41111636 22.58465089 -18.76217071 20.80684629 -15.875 18.375 C-12.76255758 15.41285991 -12.76255758 15.41285991 -11.6171875 11.3984375 C-11.70397345 9.66782348 -11.81494338 7.93820776 -11.953125 6.2109375 C-12 4 -12 4 -10.5 1.375 C-6.87482833 -0.61884442 -3.94613726 -1.1200958 0 0 Z " fill="#863E2F" transform="translate(71,0)"/>
<path d="M0 0 C16.53898268 9.73016645 24.06513022 26.12300992 29.875 43.5625 C30.2771875 44.70396484 30.679375 45.84542969 31.09375 47.02148438 C34.2227451 56.33929121 35.6748651 64.86918552 32.1875 74.3125 C31.8265625 75.30894531 31.465625 76.30539062 31.09375 77.33203125 C30 80 30 80 28.1875 83.5 C26.81725778 85.82926199 26.81725778 85.82926199 27.19018555 87.90531921 C28.23629951 90.61121661 29.6825725 92.00118894 31.76953125 94.01489258 C32.56705811 94.79282669 33.36458496 95.5707608 34.1862793 96.37226868 C35.05293213 97.20461533 35.91958496 98.03696198 36.8125 98.89453125 C38.62801536 100.67210617 40.44310645 102.4501145 42.2578125 104.22851562 C45.12938245 107.02561744 48.00480949 109.81840211 50.88964844 112.60180664 C53.66882244 115.2903554 56.42903761 117.99725925 59.1875 120.70703125 C60.05415283 121.53330521 60.92080566 122.35957916 61.8137207 123.21089172 C68.41168337 129.72499682 68.41168337 129.72499682 69.109375 133.90112305 C68.97631497 137.6710582 68.64554667 139.27428525 66 142 C63.25948508 143.06542697 60.89247162 143.60392265 58 143 C56.28308196 141.36832602 54.64189981 139.70509481 53 138 C51.74213634 136.73752283 50.4817509 135.47755551 49.21948242 134.21948242 C38.81298828 123.81298828 28.40649414 113.40649414 18 103 C15.02099077 104.42712547 12.95917798 105.80958684 10.65234375 108.1875 C10.04712891 108.80367188 9.44191406 109.41984375 8.81835938 110.0546875 C8.19767578 110.69664062 7.57699219 111.33859375 6.9375 112 C5.69892558 113.27308578 4.45812384 114.54400932 3.21484375 115.8125 C2.66948975 116.37582031 2.12413574 116.93914062 1.56225586 117.51953125 C-1.09945265 120.04189418 -2.77196421 120.97097726 -6.4375 121.4375 C-10 121 -10 121 -12.4375 118.8125 C-14.16301239 115.70657769 -14.43774689 114.47591877 -14 111 C-12.48828125 108.78125 -12.48828125 108.78125 -10.3125 106.5 C-9.49394531 105.62085938 -8.67539062 104.74171875 -7.83203125 103.8359375 C-5.90036973 101.85548623 -3.89678047 99.99591946 -1.82421875 98.1640625 C4.90822586 92.09193446 9.51392232 86.16350886 13.3125 77.875 C13.69148438 77.06434082 14.07046875 76.25368164 14.4609375 75.41845703 C18.92930997 64.86553744 17.24011792 55.90142832 13.375 45.4375 C13.04371094 44.47392578 12.71242188 43.51035156 12.37109375 42.51757812 C8.4508235 31.54821817 3.5145758 23.60995339 -5.671875 16.48046875 C-9.79477082 13.01305636 -9.79477082 13.01305636 -10.41723633 9.94042969 C-10.46309469 6.85566734 -10.14618315 4.34396036 -8.9375 1.5 C-5.95944453 -0.80559133 -3.67676798 -0.33600716 0 0 Z " fill="#020201" transform="translate(441,313)"/>
<path d="M0 0 C13.53968432 4.37879152 22.49912622 12.99692298 29.3125 25.38671875 C34.87704712 37.10909191 35.87994269 50.58911577 32 63 C26.50104735 77.58264999 16.8440395 87.30434884 5.89453125 98.09765625 C4.12300825 99.86948976 2.35282299 101.64266169 0.58390808 103.417099 C-3.10103943 107.1047971 -6.7993838 110.77831177 -10.50854492 114.44165039 C-14.79271638 118.67434204 -19.05301074 122.92954296 -23.29980963 127.19969183 C-27.40684525 131.328263 -31.53071091 135.43960749 -35.66256142 139.54333305 C-37.41264186 141.28437561 -39.15854785 143.02962462 -40.90019798 144.77910042 C-43.32429879 147.2089979 -45.76681237 149.61867529 -48.21557617 152.02368164 C-48.93309052 152.75019928 -49.65060486 153.47671692 -50.38986206 154.22525024 C-51.05830643 154.87388535 -51.72675079 155.52252045 -52.41545105 156.19081116 C-53.27787304 157.04594347 -53.27787304 157.04594347 -54.1577177 157.91835117 C-56 159 -56 159 -58.58414173 158.79105282 C-61.66115812 157.78350924 -63.11061131 156.28866928 -65.3125 153.9375 C-66.00988281 153.20402344 -66.70726562 152.47054687 -67.42578125 151.71484375 C-67.94527344 151.14894531 -68.46476563 150.58304688 -69 150 C-67.34434873 145.67848071 -64.05932491 142.81561165 -60.82543945 139.64599609 C-60.19265579 139.01773926 -59.55987213 138.38948242 -58.90791321 137.7421875 C-57.53397142 136.37919718 -56.15776303 135.01848875 -54.77956581 133.65980148 C-52.59225788 131.5027045 -50.41173451 129.33895795 -48.23295593 127.17324829 C-42.03691687 121.0169042 -35.82842033 114.87317959 -29.61645508 108.73291016 C-25.81464228 104.97404996 -22.02035671 101.20771833 -18.23027611 97.43703079 C-16.79043872 96.00769844 -15.34769837 94.58128378 -13.90191078 93.15797043 C1.04642704 78.4414763 13.86370762 63.09220621 14.3125 41.125 C14.32799222 27.19405257 9.83364801 14.79501395 1.28515625 3.79296875 C0 2 0 2 0 0 Z " fill="#FA5994" transform="translate(314,192)"/>
<path d="M0 0 C3.18086518 1.50946511 5.29869906 3.07941825 7.75 5.625 C8.36359375 6.25664063 8.9771875 6.88828125 9.609375 7.5390625 C10.06828125 8.02117188 10.5271875 8.50328125 11 9 C9.49453128 12.55593626 7.44179259 14.75854397 4.67382812 17.42626953 C3.77950073 18.29462433 2.88517334 19.16297913 1.96374512 20.05764771 C1.48594101 20.51748173 1.0081369 20.97731575 0.51585388 21.45108414 C-0.98721367 22.90061857 -2.48115207 24.35897662 -3.97253418 25.82052612 C-8.21194356 29.9747104 -12.45594112 34.12370825 -16.73291016 38.23925781 C-19.3528047 40.76155857 -21.95228131 43.30344003 -24.53993225 45.85879135 C-25.52458453 46.82377023 -26.51647454 47.78142543 -27.51585388 48.73114395 C-33.85508825 54.76231527 -37.40622883 59.15133181 -38 68 C-38.20359268 69.42593512 -38.41556376 70.8507329 -38.640625 72.2734375 C-38.78685303 73.28361938 -38.78685303 73.28361938 -38.93603516 74.31420898 C-42.23003595 95.93525154 -57.17989499 108.33080891 -71.97265625 123.0703125 C-73.50700977 124.60279733 -75.04113998 126.13550577 -76.57505798 127.66842651 C-80.58240705 131.67198592 -84.59275167 135.6725312 -88.60375977 139.67242432 C-92.70838117 143.76675462 -96.81011801 147.86397254 -100.91210938 151.9609375 C-108.93860956 159.97676312 -116.96828209 167.98940269 -125 176 C-127.63822024 172.89621148 -128.70365731 170.18537076 -129.6875 166.25 C-129.93886719 165.26515625 -130.19023437 164.2803125 -130.44921875 163.265625 C-130.72185547 162.14414062 -130.72185547 162.14414062 -131 161 C-130.36439903 160.38105362 -130.36439903 160.38105362 -129.71595764 159.74960327 C-125.30504006 155.44937163 -120.91187754 151.13158497 -116.52856445 146.80322266 C-114.89079461 145.19058442 -113.24856357 143.58246383 -111.60180664 141.97900391 C-109.23434759 139.67224893 -106.88345243 137.34967784 -104.53515625 135.0234375 C-103.42733543 133.95432632 -103.42733543 133.95432632 -102.2971344 132.86361694 C-98.52802097 129.09659485 -96.06543773 126.62764512 -96 121 C-95.01 121.99 -95.01 121.99 -94 123 C-89.13261667 118.33814291 -84.2990286 113.6430766 -79.48583984 108.92529297 C-77.85025258 107.32954323 -76.20750886 105.74109033 -74.55712891 104.16064453 C-60.3423907 90.53279291 -50.64299003 77.98624694 -48 58 C-48.04948792 56.83374084 -48.04948792 56.83374084 -48.09997559 55.6439209 C-48.15065706 48.61598206 -46.07129914 44.9976994 -41.18289948 40.02317047 C-39.67829559 38.54610874 -38.15081123 37.09553046 -36.62109375 35.64453125 C-35.56659342 34.60871384 -34.51430263 33.57064268 -33.46412659 32.53044128 C-30.71230108 29.81655009 -27.93179708 27.1340529 -25.1439209 24.45727539 C-22.2971756 21.71337052 -19.47900629 18.94044489 -16.65820312 16.16992188 C-11.13282963 10.75135748 -5.57679473 5.36568125 0 0 Z " fill="#C66E5B" transform="translate(488,51)"/>
<path d="M0 0 C4.76199454 1.36523316 7.78531904 5.47922863 11.00741959 9.06044769 C12.41088726 10.61387601 13.84305828 12.13489144 15.28689575 13.65081787 C19.38476215 17.96103555 23.43997604 22.30874258 27.44146729 26.70861816 C43.32437043 44.17566692 43.32437043 44.17566692 65.6338501 50.38024902 C66.4310144 50.41204758 67.22817871 50.44384613 68.04949951 50.47660828 C82.55353605 51.67436942 94.1452232 63.02582009 103.88140869 72.72619629 C104.85100485 73.68612191 105.82081196 74.6458345 106.79081726 75.60534668 C108.80360985 77.60034227 110.81027758 79.60127018 112.81329346 81.6060791 C115.37368593 84.16677864 117.95424642 86.70608282 120.54032993 89.24079895 C122.54180511 91.20887796 124.52945509 93.1904837 126.51350212 95.17611694 C127.91645599 96.57384583 129.33297159 97.95791991 130.74971008 99.3416748 C137.75804445 106.42623961 137.75804445 106.42623961 138.4944458 110.64416504 C138.31500244 113.66369629 138.31500244 113.66369629 136.81500244 116.03869629 C133.358232 118.28559708 131.47203853 118.87154809 127.31500244 118.66369629 C121.09789685 114.4067546 115.92348525 108.31315303 110.71343994 102.91369629 C109.07244786 101.23569806 107.43049003 99.55864385 105.78765869 97.88244629 C103.23827572 95.27773774 100.6946225 92.66849607 98.16705322 90.04260254 C83.39306956 74.71844713 72.90449414 66.41154866 51.22125244 64.35900879 C50.18226807 64.23268066 49.14328369 64.10635254 48.07281494 63.97619629 C47.15645264 63.8898291 46.24009033 63.80346191 45.29595947 63.71447754 C37.11178956 60.8295744 30.65653626 52.13940087 24.67047119 46.11682129 C23.77886795 45.2238031 22.88726471 44.33078491 21.96864319 43.41070557 C19.62211193 41.05955801 17.27777017 38.70627165 14.93450928 36.35186768 C12.54560024 33.95267479 10.15381339 31.55635455 7.76226807 29.15979004 C3.56553612 24.95326637 -0.62899171 20.74455937 -4.82154846 16.53387451 C-5.98476385 15.36645862 -7.17618191 14.22573522 -8.40623474 13.12896729 C-9.68499756 11.66369629 -9.68499756 11.66369629 -10.12249756 8.22619629 C-9.68499756 4.66369629 -9.68499756 4.66369629 -8.18499756 2.22619629 C-5.41252721 0.49340232 -3.27579293 -0.08208243 0 0 Z " fill="#010000" transform="translate(68.68499755859375,-0.6636962890625)"/>
<path d="M0 0 C2.25976701 2.84927145 2.3466458 5.44671615 2 9 C0.56298828 11.15722656 0.56298828 11.15722656 -1.5546875 13.390625 C-2.37807617 14.26138672 -3.20146484 15.13214844 -4.04980469 16.02929688 C-7.38440235 19.41650523 -10.78757355 22.73351965 -14.1953125 26.046875 C-14.83643982 26.67106323 -15.47756714 27.29525146 -16.13812256 27.93835449 C-21.59686838 33.24747862 -21.59686838 33.24747862 -24.14892578 35.67578125 C-36.63060707 47.57868101 -44.1673068 57.91620274 -46.25 75.5625 C-46.51629701 77.62758207 -46.79200763 79.69147688 -47.078125 81.75390625 C-47.23909668 83.08917358 -47.23909668 83.08917358 -47.40332031 84.45141602 C-48.60486544 89.5835476 -51.76164981 93.00945387 -55.42382812 96.65087891 C-56.31485229 97.54175201 -57.20587646 98.43262512 -58.12390137 99.35049438 C-59.09291266 100.30928981 -60.06203146 101.26797658 -61.03125 102.2265625 C-62.02912427 103.22070134 -63.02655399 104.21528659 -64.02355957 105.21029663 C-66.64177589 107.82090243 -69.26593888 110.42544922 -71.89141846 113.02874756 C-74.56012602 115.6770006 -77.22319238 118.33091274 -79.88671875 120.984375 C-84.57037291 125.64891949 -89.25891642 130.3084912 -93.9510498 134.96450806 C-95.18764621 136.19298205 -96.40003345 137.4475556 -97.56164551 138.74716187 C-99 140 -99 140 -102.4375 140.4375 C-106 140 -106 140 -108.4375 138.5 C-110.17029397 135.72752965 -110.74577872 133.59079538 -110.66369629 130.31500244 C-109.29846313 125.5530079 -105.18446765 122.5296834 -101.6032486 119.30758286 C-100.04982028 117.90411518 -98.52880485 116.47194416 -97.01287842 115.02810669 C-92.70266074 110.93024029 -88.35495371 106.8750264 -83.95507812 102.87353516 C-66.48802937 86.99063201 -66.48802937 86.99063201 -60.28344727 64.68115234 C-60.25164871 63.88398804 -60.21985016 63.08682373 -60.18708801 62.26550293 C-59.04085766 48.38546768 -48.5133257 37.03980894 -39.109375 27.74609375 C-38.28294495 26.91916519 -37.45651489 26.09223663 -36.6050415 25.24024963 C-34.87408437 23.51161493 -33.13947793 21.78662726 -31.40136719 20.06518555 C-28.73447397 17.42211264 -26.08138973 14.76572646 -23.4296875 12.10742188 C-21.74037745 10.42368205 -20.0503007 8.74071103 -18.359375 7.05859375 C-17.56561462 6.26392197 -16.77185425 5.46925018 -15.95404053 4.65049744 C-15.21607239 3.92206131 -14.47810425 3.19362518 -13.71777344 2.44311523 C-13.07048279 1.80043198 -12.42319214 1.15774872 -11.75628662 0.49559021 C-7.71628996 -2.94472493 -4.62719032 -1.7667454 0 0 Z " fill="#020202" transform="translate(110,313)"/>
<path d="M0 0 C0.99 0.845625 1.98 1.69125 3 2.5625 C3.639375 3.10261719 4.27875 3.64273437 4.9375 4.19921875 C6.32705441 5.41244713 7.68153946 6.66689701 9 7.95703125 C13.19544682 12.01903983 13.19544682 12.01903983 18.75 13.5 C21.82727843 13.11941045 21.82727843 13.11941045 24.00097656 12.33496094 C26 12 26 12 29.234375 14.140625 C30.42606859 15.15423404 31.59727736 16.19228198 32.75 17.25 C33.35199219 17.79849609 33.95398438 18.34699219 34.57421875 18.91210938 C38.88371346 23.15808546 38.88371346 23.15808546 39.390625 26.828125 C39.26171875 27.70984375 39.1328125 28.5915625 39 29.5 C38.48954319 32.22611682 38.48954319 32.22611682 39 35 C41.46219862 37.80924442 43.92160372 40.12047486 46.8515625 42.4140625 C55.25111163 49.11461192 58.95968453 58.50384897 62.375 68.4375 C62.72949219 69.39720703 63.08398438 70.35691406 63.44921875 71.34570312 C66.24287536 79.35454494 67.80497891 87.26847258 64.46875 95.35546875 C63.83430448 96.6437816 63.17810241 97.92162156 62.5 99.1875 C62.16613281 99.85330078 61.83226562 100.51910156 61.48828125 101.20507812 C60.67835705 102.81335617 59.84203386 104.40829825 59 106 C58.67 106 58.34 106 58 106 C57.97329224 104.9486084 57.97329224 104.9486084 57.94604492 103.87597656 C57.50259636 95.22766866 55.29249967 87.84167792 52.3125 79.75 C51.89033203 78.53570312 51.46816406 77.32140625 51.03320312 76.0703125 C48.79280753 69.86614009 46.52218885 64.60420153 42.22338867 59.55957031 C41 58 41 58 40 55 C38.67483052 54.31724964 37.33991904 53.65332932 36 53 C34.53852319 51.6511558 33.1250352 50.24936232 31.75 48.8125 C28.42631202 45.41351811 25.03500838 42.23298813 21.42578125 39.14453125 C17.3875246 35.57447827 13.49925373 31.84120049 9.59301758 28.12768555 C6.07477689 24.81611323 2.55506181 21.86672757 -1.4375 19.125 C-4.78695528 16.60974867 -4.78695528 16.60974867 -5.6796875 14.0546875 C-6.01577005 8.85529269 -3.83524615 5.20991096 -1 1 C-0.67 0.67 -0.34 0.34 0 0 Z " fill="#FBCBBD" transform="translate(393,290)"/>
<path d="M0 0 C6.50313209 -0.46450943 10.4174808 0.67424388 16 4 C16 7.68452929 15.31036269 8.08556986 12.81640625 10.66015625 C12.14061523 11.36624023 11.46482422 12.07232422 10.76855469 12.79980469 C9.67655762 13.91983887 9.67655762 13.91983887 8.5625 15.0625 C7.078651 16.60993326 5.59557237 18.15810562 4.11328125 19.70703125 C3.03941162 20.82392334 3.03941162 20.82392334 1.94384766 21.96337891 C-0.33505266 24.35104362 -2.55443781 26.78559346 -4.75 29.25 C-8.63114881 33.60518226 -12.57748665 37.8959507 -16.55078125 42.16699219 C-20.36800017 46.27953303 -24.05622455 50.48950231 -27.671875 54.78125 C-34.27889406 61.07787219 -42.30512145 63.8790895 -50.8125 66.8125 C-51.92431641 67.21919922 -53.03613281 67.62589844 -54.18164062 68.04492188 C-62.56468072 70.96353443 -70.1302121 72.72782337 -78.69921875 69.6875 C-79.68535156 69.130625 -80.67148438 68.57375 -81.6875 68 C-82.70199219 67.443125 -83.71648437 66.88625 -84.76171875 66.3125 C-85.50035156 65.879375 -86.23898438 65.44625 -87 65 C-87 64.67 -87 64.34 -87 64 C-86.35168213 63.97639404 -85.70336426 63.95278809 -85.03540039 63.9284668 C-77.28904247 63.45880302 -70.68003039 61.51572912 -63.4375 58.8125 C-61.84905273 58.25079102 -61.84905273 58.25079102 -60.22851562 57.67773438 C-50.4874986 54.11863204 -41.96117093 49.73403036 -34.8125 42.125 C-34.30187012 41.59817627 -33.79124023 41.07135254 -33.26513672 40.52856445 C-30.07738394 37.21555317 -27.0092566 33.81205543 -24.02734375 30.3125 C-21.15413755 27.03516267 -18.1685145 23.86666986 -15.1875 20.6875 C-9.39840292 14.51112591 -3.67093764 8.28507144 2 2 C1.01 1.01 1.01 1.01 0 0 Z " fill="#FAAE9E" transform="translate(205,388)"/>
<path d="M0 0 C5.65851278 2.35916329 9.67497516 7.18786588 13.96362305 11.42822266 C15.54557476 12.98336162 17.14986757 14.51272429 18.75585938 16.04296875 C24.00691136 21.16060261 27.76823823 25.34510008 29.3762207 32.70507812 C31.65340338 41.08297134 40.42974132 47.66499576 46.375 53.5 C47.30183594 54.4178125 48.22867188 55.335625 49.18359375 56.28125 C51.4512111 58.52548985 53.72338511 60.76489422 56 63 C54.7367158 66.35594194 53.74084921 68.63290296 51 71 C50.55269531 70.46890625 50.10539062 69.9378125 49.64453125 69.390625 C45.83564488 64.9293207 45.83564488 64.9293207 41.5 61 C39.29806921 59.23845537 37.72404067 57.59099793 35.9152832 55.45483398 C31.76756152 50.66593358 27.33928475 46.19527629 22.85546875 41.72265625 C22.00447098 40.87070175 21.15347321 40.01874725 20.27668762 39.14097595 C18.49208294 37.355695 16.70623176 35.57165928 14.91918945 33.78881836 C12.17477838 31.04980339 9.43579568 28.30544048 6.69726562 25.56054688 C4.95865423 23.82259558 3.21973305 22.08495414 1.48046875 20.34765625 C0.24927559 19.11342674 0.24927559 19.11342674 -1.00679016 17.85426331 C-1.76485458 17.09935104 -2.52291901 16.34443878 -3.30395508 15.56665039 C-3.97123123 14.90016983 -4.63850739 14.23368927 -5.32600403 13.54701233 C-6.93391172 11.91695628 -6.93391172 11.91695628 -9 11 C-7.59155282 7.78475695 -5.89655214 5.67816132 -3.375 3.25 C-2.74335938 2.63640625 -2.11171875 2.0228125 -1.4609375 1.390625 C-0.73777344 0.70226562 -0.73777344 0.70226562 0 0 Z " fill="#F9C9BB" transform="translate(347,282)"/>
<path d="M0 0 C2.37881358 1.08699958 3.8024539 2.50946368 5.59524536 4.40568542 C6.20883911 5.04634949 6.82243286 5.68701355 7.45462036 6.34709167 C7.91352661 6.84080261 8.37243286 7.33451355 8.84524536 7.84318542 C6.53632167 13.30914416 2.00285231 17.17179703 -2.10079956 21.32463074 C-3.57260678 22.82318056 -5.01849422 24.34397991 -6.46530151 25.86662292 C-11.71469079 31.26021207 -16.28311539 34.7734323 -23.62179565 36.98136902 C-32.16065889 39.88664007 -38.52113481 47.96866871 -44.65475464 54.21818542 C-45.57256714 55.14502136 -46.49037964 56.0718573 -47.43600464 57.02677917 C-49.68024449 59.29439653 -51.91964886 61.56657054 -54.15475464 63.84318542 C-57.51069658 62.57990122 -59.7876576 61.58403463 -62.15475464 58.84318542 C-61.32330933 58.15482605 -61.32330933 58.15482605 -60.47506714 57.45256042 C-59.75061401 56.83896667 -59.02616089 56.22537292 -58.27975464 55.59318542 C-57.56045776 54.98990417 -56.84116089 54.38662292 -56.10006714 53.76506042 C-54.0825026 52.00519363 -54.0825026 52.00519363 -53.27194214 49.85881042 C-52.15475464 47.84318542 -52.15475464 47.84318542 -49.71432495 46.34538269 C-44.49431301 42.96486177 -40.39529333 38.22526237 -36.08444214 33.79240417 C-35.11692225 32.80843451 -34.14857526 31.8252775 -33.17944336 30.84289551 C-29.08324007 26.6889 -24.99732261 22.52499248 -20.92575073 18.34684753 C-18.42668178 15.78346875 -15.91567017 13.23232166 -13.39664078 10.68856239 C-12.44065098 9.7182982 -11.48936137 8.74337981 -10.5429039 7.76381493 C-9.22435133 6.39973402 -7.88890264 5.05204603 -6.55270386 3.70524597 C-5.79802826 2.93343491 -5.04335266 2.16162384 -4.26580811 1.36642456 C-2.15475464 -0.15681458 -2.15475464 -0.15681458 0 0 Z " fill="#F7AC9C" transform="translate(221.15475463867188,339.1568145751953)"/>
<path d="M0 0 C3.33333333 3.33333333 6.66666667 6.66666667 10 10 C8.59490901 13.18259851 6.93078658 15.31348466 4.46826172 17.75878906 C3.74766571 18.47923401 3.0270697 19.19967896 2.28463745 19.94195557 C1.50750397 20.70876648 0.73037048 21.47557739 -0.0703125 22.265625 C-0.86654022 23.05902283 -1.66276794 23.85242065 -2.48312378 24.66986084 C-5.02575948 27.20130703 -7.57526348 29.72570803 -10.125 32.25 C-11.85071753 33.96568617 -13.57598355 35.68182662 -15.30078125 37.3984375 C-19.52863032 41.60424248 -23.76213869 45.80428507 -28 50 C-29.1055189 49.06409496 -30.20935453 48.12620142 -31.3125 47.1875 C-31.92738281 46.66542969 -32.54226562 46.14335937 -33.17578125 45.60546875 C-34.85424679 44.12827531 -36.43882034 42.59960869 -38 41 C-36.6126656 37.87089582 -35.00527326 35.76460071 -32.57592773 33.36474609 C-31.52990639 32.32379288 -31.52990639 32.32379288 -30.4627533 31.2618103 C-29.71063065 30.52314728 -28.958508 29.78448425 -28.18359375 29.0234375 C-27.41193375 28.25697906 -26.64027374 27.49052063 -25.8452301 26.70083618 C-23.38068313 24.25409823 -20.90955414 21.81415106 -18.4375 19.375 C-15.96275662 16.92784707 -13.48947206 14.47926422 -11.01905823 12.02774048 C-9.481535 10.50250282 -7.94134713 8.97994583 -6.39830017 7.46029663 C-5.35700706 6.4287999 -5.35700706 6.4287999 -4.29467773 5.37646484 C-3.68115952 4.77119965 -3.0676413 4.16593445 -2.43553162 3.54232788 C-0.90313882 2.04129715 -0.90313882 2.04129715 0 0 Z " fill="#F9AD9E" transform="translate(87,447)"/>
<path d="M0 0 C3.18259851 1.40509099 5.31348466 3.06921342 7.75878906 5.53173828 C8.47923401 6.25233429 9.19967896 6.9729303 9.94195557 7.71536255 C10.70876648 8.49249603 11.47557739 9.26962952 12.265625 10.0703125 C13.05902283 10.86654022 13.85242065 11.66276794 14.66986084 12.48312378 C17.20130703 15.02575948 19.72570803 17.57526348 22.25 20.125 C23.96568617 21.85071753 25.68182662 23.57598355 27.3984375 25.30078125 C31.60424248 29.52863032 35.80428507 33.76213869 40 38 C39.06409496 39.1055189 38.12620142 40.20935453 37.1875 41.3125 C36.66542969 41.92738281 36.14335937 42.54226563 35.60546875 43.17578125 C34.12827531 44.85424679 32.59960869 46.43882034 31 48 C27.81740149 46.59490901 25.68651534 44.93078658 23.24121094 42.46826172 C22.52076599 41.74766571 21.80032104 41.0270697 21.05804443 40.28463745 C20.29123352 39.50750397 19.52442261 38.73037048 18.734375 37.9296875 C17.94097717 37.13345978 17.14757935 36.33723206 16.33013916 35.51687622 C13.79869297 32.97424052 11.27429197 30.42473652 8.75 27.875 C7.03431383 26.14928247 5.31817338 24.42401645 3.6015625 22.69921875 C-0.60424248 18.47136968 -4.80428507 14.23786131 -9 10 C-8.06409496 8.8944811 -7.12620142 7.79064547 -6.1875 6.6875 C-5.66542969 6.07261719 -5.14335937 5.45773437 -4.60546875 4.82421875 C-3.12827531 3.14575321 -1.59960869 1.56117966 0 0 Z " fill="#FCCBBD" transform="translate(457,415)"/>
<path d="M0 0 C3.13227391 1.56613695 4.89352459 2.55806574 7.3125 4.875 C7.84488281 5.36742187 8.37726563 5.85984375 8.92578125 6.3671875 C10 8 10 8 9.890625 9.9609375 C8.79704881 12.46465142 7.41835379 13.87719278 5.4375 15.75 C4.79683594 16.36359375 4.15617188 16.9771875 3.49609375 17.609375 C3.00238281 18.06828125 2.50867188 18.5271875 2 19 C-3 14 -3 14 -4.625 12.3125 C-6.17108027 10.76081059 -6.17108027 10.76081059 -9 9 C-6.03 6.03 -3.06 3.06 0 0 Z " fill="#F4AA9A" transform="translate(178,297)"/>
<path d="M0 0 C3.61991736 0.29168756 5.32363813 1.99615571 7.75 4.5625 C8.36359375 5.20316406 8.9771875 5.84382813 9.609375 6.50390625 C10.06828125 6.99761719 10.5271875 7.49132812 11 8 C9.63629701 10.99220268 8.05091917 13.29026529 5.875 15.75 C5.06675781 16.67039062 5.06675781 16.67039062 4.2421875 17.609375 C3.83226562 18.06828125 3.42234375 18.5271875 3 19 C1.948125 17.9171875 1.948125 17.9171875 0.875 16.8125 C-1.92770745 14.00176187 -4.92262792 11.50483774 -8 9 C-7.04270084 7.87411986 -6.08412105 6.7493285 -5.125 5.625 C-4.59132812 4.99851562 -4.05765625 4.37203125 -3.5078125 3.7265625 C-2.38567993 2.44163349 -1.20628025 1.20628025 0 0 Z " fill="#F1A899" transform="translate(198,318)"/>
<path d="M0 0 C3.21043882 1.38188453 5.04936365 2.92421903 7.25 5.625 C7.77078125 6.25664062 8.2915625 6.88828125 8.828125 7.5390625 C9.40820312 8.26222656 9.40820312 8.26222656 10 9 C6.66666667 12.33333333 3.33333333 15.66666667 0 19 C-1.36877116 17.76600937 -2.71969166 16.51219377 -4.0625 15.25 C-4.81660156 14.55390625 -5.57070313 13.8578125 -6.34765625 13.140625 C-8 11 -8 11 -7.96875 8.96875 C-6.78900424 6.57120216 -5.37697268 5.08368326 -3.4375 3.25 C-2.79683594 2.63640625 -2.15617187 2.0228125 -1.49609375 1.390625 C-1.00238281 0.93171875 -0.50867188 0.4728125 0 0 Z " fill="#F5C6B9" transform="translate(285,344)"/>
<path d="M0 0 C2.50371392 1.09357619 3.91625528 2.47227121 5.7890625 4.453125 C6.40265625 5.09378906 7.01625 5.73445313 7.6484375 6.39453125 C8.10734375 6.88824219 8.56625 7.38195312 9.0390625 7.890625 C5.54546785 11.48697244 1.92808119 14.72514467 -1.9609375 17.890625 C-4.6009375 15.250625 -7.2409375 12.610625 -9.9609375 9.890625 C-8.39480055 6.75835109 -7.40287176 4.99710041 -5.0859375 2.578125 C-4.34730469 1.77955078 -4.34730469 1.77955078 -3.59375 0.96484375 C-1.9609375 -0.109375 -1.9609375 -0.109375 0 0 Z " fill="#F6C6B9" transform="translate(306.9609375,324.109375)"/>
<path d="M0 0 C3.21043882 1.38188453 5.04936365 2.92421903 7.25 5.625 C7.77078125 6.25664062 8.2915625 6.88828125 8.828125 7.5390625 C9.40820312 8.26222656 9.40820312 8.26222656 10 9 C6.66666667 12.33333333 3.33333333 15.66666667 0 19 C-1.36877116 17.76600937 -2.71969166 16.51219377 -4.0625 15.25 C-4.81660156 14.55390625 -5.57070313 13.8578125 -6.34765625 13.140625 C-8 11 -8 11 -7.96875 8.96875 C-6.78900424 6.57120216 -5.37697268 5.08368326 -3.4375 3.25 C-2.79683594 2.63640625 -2.15617187 2.0228125 -1.49609375 1.390625 C-1.00238281 0.93171875 -0.50867188 0.4728125 0 0 Z " fill="#F4C5B7" transform="translate(326,303)"/>
<path d="M0 0 C3.21043882 1.38188453 5.04936365 2.92421903 7.25 5.625 C7.77078125 6.25664062 8.2915625 6.88828125 8.828125 7.5390625 C9.40820312 8.26222656 9.40820312 8.26222656 10 9 C7.99892742 13.6489565 4.8751729 15.84245171 1 19 C-1.97 15.7 -4.94 12.4 -8 9 C-2.25 2.25 -2.25 2.25 0 0 Z " fill="#F6AC9C" transform="translate(158,276)"/>
</svg>
