<?xml version="1.0" encoding="UTF-8"?>
<svg version="1.1" xmlns="http://www.w3.org/2000/svg" width="512" height="512">
<path d="M0 0 C1.76947998 0.01027222 1.76947998 0.01027222 3.57470703 0.02075195 C13.15465617 0.19568332 21.72643702 1.46069564 30.8125 4.4375 C31.95460938 4.81132813 33.09671875 5.18515625 34.2734375 5.5703125 C57.50011937 13.90102263 75.78323082 28.25419616 86.8125 50.4375 C90.47274128 58.91106436 91.84993606 66.27502491 91.8125 75.4375 C93.00746094 75.39109375 94.20242188 75.3446875 95.43359375 75.296875 C106.24535433 74.9980318 114.19688166 75.10414423 122.625 82.5625 C129.96708727 90.80798372 130.49255071 100.17670259 130.4375 110.8125 C130.46972656 112.05 130.50195312 113.2875 130.53515625 114.5625 C130.5444235 123.3663889 128.82511367 130.1147757 123.8125 137.4375 C119.87379322 141.28518051 115.94723514 143.49751341 110.8125 145.4375 C110.79848145 146.3507605 110.79848145 146.3507605 110.78417969 147.2824707 C110.25245645 174.83563888 110.25245645 174.83563888 100.03515625 185.4921875 C93.44487191 191.26013408 87.12038054 193.5268351 78.47265625 193.61328125 C77.24482422 193.63712891 76.01699219 193.66097656 74.75195312 193.68554688 C72.17139135 193.7284479 69.59060985 193.75973515 67.00976562 193.77929688 C65.78064453 193.80701172 64.55152344 193.83472656 63.28515625 193.86328125 C61.60305054 193.88515503 61.60305054 193.88515503 59.88696289 193.9074707 C56.11417592 194.55788923 54.43120348 195.66813386 51.8125 198.4375 C51.13417433 200.63679042 51.13417433 200.63679042 51.32421875 202.984375 C51.34838867 204.25087891 51.34838867 204.25087891 51.37304688 205.54296875 C51.41494141 206.41566406 51.45683594 207.28835937 51.5 208.1875 C51.52255859 209.07566406 51.54511719 209.96382812 51.56835938 210.87890625 C51.62717448 213.06682812 51.70928732 215.25129671 51.8125 217.4375 C52.50585449 217.66824219 53.19920898 217.89898437 53.91357422 218.13671875 C98.08811466 232.91755357 98.08811466 232.91755357 104.8125 240.4375 C104.93980219 242.37885839 105.06178342 244.32409447 105.04296875 246.26953125 C106.8854454 251.46026496 114.24415583 254.69268125 118.8125 257.4375 C119.328125 257.086875 119.84375 256.73625 120.375 256.375 C123.98314455 254.9872521 126.09404079 255.41512109 129.8125 256.4375 C132.41895231 258.2116831 134.5233995 260.34203965 136.6875 262.625 C137.29392334 263.25067871 137.90034668 263.87635742 138.52514648 264.52099609 C152.04515188 278.87601312 160.23162949 296.08054176 160.0078125 315.94140625 C160.00356766 317.38724342 160.00356766 317.38724342 159.99923706 318.86228943 C159.98813848 321.90832506 159.96305364 324.95405486 159.9375 328 C159.92745684 330.07877176 159.91833334 332.15754818 159.91015625 334.23632812 C159.88823305 339.30350131 159.85377556 344.370449 159.8125 349.4375 C160.63776184 349.42417633 161.46302368 349.41085266 162.31329346 349.39712524 C170.13841126 349.27627634 177.96321008 349.18523789 185.78905106 349.12662697 C189.81127385 349.09547965 193.83271761 349.05331814 197.85449219 348.98486328 C201.74493675 348.91906769 205.63463809 348.88366958 209.52559662 348.86823654 C211.00065544 348.85725668 212.47567935 348.83581864 213.95041656 348.80311966 C225.5410649 348.55663835 234.88858078 350.72150424 243.75 358.625 C250.54832107 366.41068089 252.5602157 374.95774357 252.4753418 385.05249023 C252.49089363 386.70847733 252.49089363 386.70847733 252.50675964 388.3979187 C252.53366256 392.01436516 252.52420251 395.62958458 252.51171875 399.24609375 C252.5176344 401.77995641 252.52488393 404.31381626 252.53340149 406.84767151 C252.54525284 412.14576399 252.53905233 417.44341996 252.51928711 422.74145508 C252.49693334 428.83630394 252.51452745 434.93009293 252.55233639 441.02484173 C252.58752072 446.92542324 252.58872108 452.82567939 252.57645607 458.72636604 C252.57497607 461.22006432 252.58258136 463.71378616 252.59970665 466.20742607 C252.74426834 491.33323316 252.74426834 491.33323316 245.8125 500.4375 C245.30019333 501.11940903 244.78788666 501.80131805 244.26005554 502.50389099 C238.86160229 508.68172058 231.56623418 512.27109328 223.40530586 512.90102005 C217.93223145 513.15232998 212.46002459 513.11417761 206.98266602 513.08447266 C204.87917831 513.091256 202.77569656 513.10016314 200.67222595 513.11102295 C194.98669021 513.13372753 189.30161041 513.12501899 183.61606717 513.10912752 C177.66020594 513.09643442 171.70438272 513.10821702 165.7485199 513.11605835 C155.75618501 513.12514 145.76403527 513.11320069 135.77172852 513.08935547 C124.21471081 513.06209506 112.65813347 513.07100017 101.10112625 513.0984875 C91.17222333 513.12115764 81.24345312 513.12439044 71.3145327 513.11129415 C65.38665822 513.10349486 59.45899104 513.10247242 53.53112984 513.11897659 C47.96508003 513.13339328 42.39960048 513.12345063 36.83361244 513.09450531 C34.7889577 513.08788179 32.74425514 513.08981367 30.69961929 513.10081863 C27.91368174 513.11443429 25.12958472 513.09740768 22.34376526 513.07241821 C21.53025701 513.08357182 20.71674875 513.09472543 19.87858874 513.10621703 C15.92089783 513.03710182 14.19436551 512.80149906 11.27929592 510.02281761 C9.8125 507.4375 9.8125 507.4375 9.8125 505.4375 C3.5425 505.4375 -2.7275 505.4375 -9.1875 505.4375 C-9.5175 506.7575 -9.8475 508.0775 -10.1875 509.4375 C-11.51135641 511.16338104 -11.51135641 511.16338104 -13.1875 512.4375 C-16.17127373 512.73906067 -18.94769505 512.85494291 -21.93345642 512.83863831 C-22.83818508 512.84543498 -23.74291374 512.85223164 -24.67505842 512.85923427 C-27.71960425 512.8782888 -30.7637506 512.87576406 -33.80834961 512.87329102 C-35.98634359 512.88226384 -38.16433279 512.89247097 -40.34231567 512.90382385 C-46.27046601 512.93038751 -52.19848653 512.93736031 -58.12669063 512.93927121 C-63.0764979 512.94211732 -68.02627484 512.95315178 -72.97607046 512.9637875 C-83.99296848 512.98684373 -95.00980584 512.9957919 -106.0267263 512.99377144 C-106.68797742 512.99365157 -107.34922854 512.9935317 -108.03051758 512.9934082 C-108.69258044 512.99328556 -109.35464331 512.99316292 -110.03676868 512.99303656 C-121.41095997 512.99174388 -132.7847637 513.02583683 -144.1588611 513.07063919 C-154.50129334 513.10992237 -164.84359382 513.12595735 -175.18610007 513.12404197 C-181.36145917 513.1232782 -187.53645964 513.1317648 -193.71174431 513.16357613 C-199.52724278 513.19271296 -205.34204235 513.19279374 -211.15756607 513.17102623 C-213.28595187 513.16789947 -215.41438185 513.17491342 -217.54269218 513.1931076 C-231.35339109 513.30346946 -241.42922419 512.65149806 -252.1875 503.0625 C-257.08530594 497.68685933 -260.28761771 491.09850785 -260.34812927 483.79164124 C-260.3581749 482.83723145 -260.36822052 481.88282166 -260.37857056 480.89949036 C-260.38440155 479.85379379 -260.39023254 478.80809723 -260.39624023 477.73071289 C-260.41091591 476.07647812 -260.41091591 476.07647812 -260.42588806 474.38882446 C-260.45586441 470.72928067 -260.4772388 467.06977365 -260.49609375 463.41015625 C-260.50266558 462.15914061 -260.5092374 460.90812496 -260.51600838 459.61919975 C-260.54190458 454.35629143 -260.56539033 449.0933885 -260.58050442 443.83043766 C-260.6023532 436.31227185 -260.64419445 428.79482545 -260.71394199 421.27694708 C-260.76714738 415.33804005 -260.78701674 409.39928909 -260.79570198 403.46014214 C-260.80423796 400.94407015 -260.82300971 398.4280103 -260.8524456 395.91209602 C-261.13376492 370.48977637 -261.13376492 370.48977637 -254.1875 361.4375 C-253.67501205 360.75595352 -253.16252411 360.07440704 -252.63450623 359.37220764 C-247.36838423 353.34024906 -240.06559966 349.60745233 -232.07485962 349.00253296 C-227.18062125 348.79767767 -222.2909636 348.87403461 -217.39453125 348.94921875 C-215.59422291 348.95856182 -213.79390173 348.96567086 -211.99357605 348.97065735 C-207.28990643 348.98960981 -202.58702747 349.03860682 -197.88366699 349.09417725 C-193.07033987 349.14562563 -188.2568831 349.16822566 -183.44335938 349.19335938 C-174.02439509 349.24673896 -164.60601368 349.33190645 -155.1875 349.4375 C-155.2095752 348.1282959 -155.23165039 346.8190918 -155.25439453 345.47021484 C-155.32554076 341.10424156 -155.3706816 336.73846185 -155.40722656 332.37207031 C-155.42711428 330.4442446 -155.45423439 328.51647733 -155.48925781 326.58886719 C-155.91561882 302.48692998 -150.70847657 283.57818016 -134.1875 265.4375 C-133.59839844 264.7671875 -133.00929688 264.096875 -132.40234375 263.40625 C-121.18577474 251.37617159 -106.70147969 242.84630972 -92.1875 235.4375 C-91.49575684 235.08204102 -90.80401367 234.72658203 -90.09130859 234.36035156 C-81.46964022 229.98272257 -72.63331372 226.34322557 -63.5625 223 C-62.63791992 222.65759277 -61.71333984 222.31518555 -60.76074219 221.96240234 C-55.87879468 220.21299326 -51.35332511 218.93992957 -46.1875 218.4375 C-45.05381215 206.95780684 -45.05381215 206.95780684 -48.54589844 196.32568359 C-52.05909506 192.4393236 -56.19517627 189.28623688 -60.29296875 186.04345703 C-71.51209007 176.53322764 -79.30017228 161.01360525 -84.1875 147.4375 C-84.74099121 147.40309814 -85.29448242 147.36869629 -85.86474609 147.33325195 C-109.52779488 145.74504524 -109.52779488 145.74504524 -117.625 137.0625 C-123.82914896 128.98308568 -124.36769711 120.40356698 -124.375 110.625 C-124.38724609 109.77357422 -124.39949219 108.92214844 -124.41210938 108.04492188 C-124.43464648 98.18118301 -122.89606865 89.98110145 -116.1875 82.4375 C-111.29083884 78.45165124 -106.64365907 75.29121309 -100.17578125 75.33984375 C-99.03979492 75.34467773 -99.03979492 75.34467773 -97.88085938 75.34960938 C-96.70233398 75.36217773 -96.70233398 75.36217773 -95.5 75.375 C-94.70271484 75.37951172 -93.90542969 75.38402344 -93.08398438 75.38867188 C-91.11845743 75.4004415 -89.15296915 75.41837652 -87.1875 75.4375 C-87.05794922 73.85775391 -87.05794922 73.85775391 -86.92578125 72.24609375 C-85.36482376 55.44619071 -81.19556279 39.27057679 -68.5234375 27.25390625 C-63.04653017 22.99510707 -56.63859358 20.17909692 -50.0625 18.0625 C-46.56665825 16.85156925 -44.19812345 14.93800105 -41.375 12.5625 C-29.5137461 2.6932124 -15.11117202 -0.1358332 0 0 Z M88.8125 146.4375 C88.54099121 147.03175781 88.26948242 147.62601563 87.98974609 148.23828125 C86.73213048 150.97597686 85.45994427 153.70666687 84.1875 156.4375 C83.76082031 157.37207031 83.33414062 158.30664062 82.89453125 159.26953125 C80.38352098 164.62885168 77.69399014 169.29551139 73.93603516 173.87890625 C72.61757781 175.38767728 72.61757781 175.38767728 72.8125 177.4375 C78.57469112 177.78323147 82.85346075 177.78196833 87.8125 174.4375 C91.67978636 170.24793978 94.08576008 166.6587459 94.0078125 160.890625 C94.00136719 160.04628906 93.99492187 159.20195312 93.98828125 158.33203125 C93.97152344 157.45933594 93.95476562 156.58664063 93.9375 155.6875 C93.92847656 154.79933594 93.91945313 153.91117188 93.91015625 152.99609375 C93.88664577 150.80961942 93.85378499 148.62369906 93.8125 146.4375 C92.1625 146.4375 90.5125 146.4375 88.8125 146.4375 Z " fill="#000000" transform="translate(260.1875,-0.4375)"/>
<path d="M0 0 C0.77096316 -0.00265183 1.54192632 -0.00530365 2.336252 -0.00803584 C4.94089212 -0.01574539 7.54548522 -0.01628864 10.15013599 -0.01688576 C12.02793351 -0.02089928 13.90573016 -0.02533732 15.78352576 -0.03016531 C20.96041984 -0.04214881 26.13730459 -0.04778337 31.31420982 -0.05234647 C36.89105555 -0.05829578 42.46789009 -0.06990725 48.04472828 -0.08063698 C61.52082629 -0.10517551 74.99692802 -0.11978981 88.4730415 -0.13269705 C92.27767752 -0.13640778 96.08231317 -0.1403811 99.88694882 -0.14444971 C123.50083884 -0.16968388 147.11472968 -0.19175844 170.72863007 -0.20417786 C176.20000874 -0.20709921 181.67138738 -0.21006673 187.142766 -0.21308327 C187.82251954 -0.21345418 188.50227307 -0.21382509 189.2026252 -0.21420723 C211.24352203 -0.22636366 233.28433902 -0.25730928 255.32519835 -0.29900479 C278.62412018 -0.34299989 301.92298779 -0.36871122 325.2219575 -0.37409842 C337.92409218 -0.37751561 350.6261009 -0.38930727 363.32819653 -0.42220116 C374.14404895 -0.45016406 384.95974961 -0.46121747 395.77563538 -0.4500057 C401.29561995 -0.44480956 406.81528648 -0.44776808 412.33522511 -0.47247124 C417.38797489 -0.49489521 422.44017693 -0.49427709 427.49293587 -0.47526737 C429.32138231 -0.47245775 431.14986535 -0.47811905 432.97825273 -0.4930803 C449.92590217 -0.6232858 449.92590217 -0.6232858 456.53168201 5.13701439 C460.22809045 9.11776193 461.6468098 12.1073328 461.68558216 17.50607872 C461.69418262 18.39895592 461.70278309 19.29183311 461.71164417 20.2117672 C461.7180341 21.67752945 461.7180341 21.67752945 461.72455311 23.17290306 C461.7327306 24.20412285 461.74090809 25.23534264 461.74933338 26.29781151 C461.77418305 29.71686281 461.79070314 33.13587258 461.80511951 36.55498314 C461.81044319 37.72273088 461.81576687 38.89047863 461.82125187 40.09361267 C461.84798265 46.27547232 461.8673571 52.45731179 461.88177967 58.63921165 C461.89841966 65.02044432 461.94319299 71.40115976 461.99415112 77.782197 C462.02782896 82.69191637 462.0393578 87.60151311 462.04500675 92.51133728 C462.05171853 94.86323368 462.06693854 97.21512204 462.09089756 99.56690598 C462.12255944 102.86308194 462.12258356 106.15786458 462.11517811 109.45415306 C462.13158344 110.42120674 462.14798878 111.38826042 462.16489124 112.38461876 C462.10516735 118.8964034 460.86510276 123.21056835 456.53168201 128.13701439 C451.14175408 132.59263638 446.53574373 133.86714365 439.65538502 133.75606346 C438.79720387 133.76230244 437.93902273 133.76854142 437.05483609 133.77496946 C434.19792519 133.7898141 431.34239868 133.76929354 428.48553944 133.7488308 C426.43013495 133.75237387 424.37473328 133.75815362 422.31934071 133.76599693 C417.90329093 133.77815605 413.48762777 133.77473227 409.07158947 133.75916481 C402.09278826 133.73483538 395.1143253 133.74634695 388.13551807 133.76283836 C375.84788768 133.78731293 363.56041155 133.78153553 351.27277088 133.76903343 C332.75398805 133.75042945 314.23523364 133.7552369 295.71647245 133.78906763 C288.77434479 133.80060403 281.83246286 133.79611324 274.89034879 133.77904725 C270.58106112 133.77117176 266.27184563 133.77538626 261.9625597 133.78275681 C259.95939946 133.78356967 257.95622961 133.77918449 255.95309353 133.76931381 C253.22620535 133.75652279 250.49994626 133.76193103 247.7730608 133.7719326 C246.97404809 133.76367443 246.17503538 133.75541625 245.35181016 133.74690783 C241.24592233 133.76108182 241.24592233 133.76108182 237.57909584 135.409832 C236.25700685 137.39798884 236.25700685 137.39798884 235.53168201 141.13701439 C228.93168201 141.13701439 222.33168201 141.13701439 215.53168201 141.13701439 C214.87168201 139.15701439 214.21168201 137.17701439 213.53168201 135.13701439 C209.68448168 133.36617284 205.04223359 133.99686958 200.85960865 134.00571251 C199.97499905 134.0035968 199.09038945 134.00148108 198.1789735 133.99930125 C195.20888414 133.99330027 192.23883725 133.99430148 189.26874256 133.99516869 C187.1416056 133.99213727 185.01446928 133.98861586 182.88733387 133.98464012 C178.30328963 133.97674963 173.71925318 133.97160565 169.13520336 133.96834946 C161.88687092 133.96244182 154.63858764 133.94590398 147.39027882 133.92700768 C144.90932849 133.92067027 142.42837813 133.91434465 139.94742775 133.90803051 C138.70494731 133.9048647 137.46246686 133.90169889 136.1823355 133.89843714 C119.30571035 133.85634877 102.42910811 133.82337987 85.55243397 133.81108665 C74.17081893 133.8027109 62.78932557 133.7802386 51.40777141 133.74173099 C45.38414734 133.72195508 39.36070524 133.70957093 33.33704662 133.71456528 C27.67101803 133.71920592 22.00533452 133.70543786 16.3393755 133.67755318 C14.26051243 133.67063181 12.18161375 133.67052496 10.10275173 133.67775345 C7.2629921 133.68663004 4.42437332 133.67096709 1.58470631 133.6492672 C0.7634889 133.65770973 -0.05772852 133.66615227 -0.9038313 133.67485064 C-6.54376927 133.59524659 -9.81074298 132.35061907 -14.46831799 129.13701439 C-18.31118681 124.9825616 -20.71104305 121.36178013 -20.73574352 115.64096642 C-20.74427349 114.74526939 -20.75280346 113.84957237 -20.76159191 112.92673302 C-20.76023235 111.46400711 -20.76023235 111.46400711 -20.75884533 109.97173119 C-20.76556255 108.93875908 -20.77227978 107.90578697 -20.77920055 106.84151268 C-20.79821471 103.42303737 -20.80210661 100.00475806 -20.80425549 96.58623314 C-20.81068143 94.20975221 -20.81740963 91.83327208 -20.8244276 89.45679283 C-20.83640921 84.47265858 -20.84010755 79.48859367 -20.83892345 74.50444603 C-20.83872031 68.12207641 -20.86601434 61.74015229 -20.90046787 55.35788822 C-20.92272156 50.44819667 -20.92676144 45.53861255 -20.925704 40.62887573 C-20.92806257 38.27617738 -20.93690043 35.92347617 -20.95236874 33.57082748 C-20.97199529 30.27706292 -20.96620283 26.98426174 -20.95415783 23.69048119 C-20.96539684 22.72140327 -20.97663586 21.75232536 -20.98821545 20.75388145 C-20.92468572 13.90670414 -19.60415159 9.55652977 -14.87066174 4.39482689 C-9.81970269 0.48875189 -6.19978107 -0.01029361 0 0 Z " fill="#9ED2FC" transform="translate(35.46831798553467,363.8629856109619)"/>
<path d="M0 0 C5.95672578 2.60268917 11.79591487 5.45742678 17.6472168 8.28686523 C39.01494349 18.56247151 58.83815862 21.46561982 82.4375 21.9765625 C83.30943565 46.05167448 77.22921058 64.51904868 61.4375 82.9765625 C60.77782227 83.84772705 60.11814453 84.7188916 59.43847656 85.61645508 C55.07479232 89.04825914 51.39507781 88.65237517 45.9921875 88.578125 C44.48194504 88.59013443 44.48194504 88.59013443 42.94119263 88.60238647 C39.73121712 88.62544356 36.5225096 88.61598951 33.3125 88.6015625 C30.09558778 88.59771969 26.87923301 88.6011 23.66238403 88.62216187 C21.66247921 88.63428736 19.66241784 88.63152275 17.66256714 88.61245728 C16.30568283 88.61794083 16.30568283 88.61794083 14.92138672 88.62353516 C13.72822342 88.61756821 13.72822342 88.61756821 12.51095581 88.61148071 C9.87925673 89.07485466 9.0051013 89.83713325 7.4375 91.9765625 C6.85862509 96.56696581 6.85862509 96.56696581 8.61450195 100.66333008 C11.11466418 102.46437101 12.91594013 102.40720906 15.98046875 102.48828125 C17.05361328 102.52373047 18.12675781 102.55917969 19.23242188 102.59570312 C20.91174805 102.62954102 20.91174805 102.62954102 22.625 102.6640625 C23.75615234 102.69822266 24.88730469 102.73238281 26.05273438 102.76757812 C28.8475574 102.85012564 31.64206398 102.91925432 34.4375 102.9765625 C31.5574706 105.19903707 28.95359311 106.75991507 25.5625 108.1015625 C24.32886719 108.60042969 24.32886719 108.60042969 23.0703125 109.109375 C9.73602553 113.5013805 -3.51728602 111.28076326 -15.87890625 105.3984375 C-22.69484653 101.89174285 -28.74683828 97.95543836 -34.5625 92.9765625 C-35.36171875 92.32171875 -36.1609375 91.666875 -36.984375 90.9921875 C-52.72585039 77.59726745 -64.65987905 58.19119108 -66.74389648 37.34106445 C-67.29205821 26.40947438 -67.29205821 26.40947438 -64.02441406 21.81298828 C-59.8609242 17.64221595 -55.02425962 14.51427285 -50.00439453 11.46826172 C-47.70998582 10.06665832 -45.50808794 8.58809385 -43.30859375 7.04296875 C-28.44206888 -3.33161782 -17.72172425 -7.38405177 0 0 Z " fill="#FEBB84" transform="translate(254.5625,90.0234375)"/>
<path d="M0 0 C3.62921646 0.50561839 6.62957371 1.06562347 9.83984375 2.84765625 C10.51080078 3.20537109 11.18175781 3.56308594 11.87304688 3.93164062 C13.24799804 4.68480687 14.62041462 5.44261898 15.99023438 6.20507812 C20.49637465 8.59423975 23.76860058 9.57034054 29 9 C30.94369738 7.64570159 30.94369738 7.64570159 32 6 C37.6057656 8.10089954 42.82767735 10.6162146 47 15 C47.22265625 17.26171875 47.22265625 17.26171875 46.875 19.6875 C46.4749324 22.30407926 46.4749324 22.30407926 47 25 C49.20881835 27.68559533 51.51934387 29.91461838 54.08129883 32.24560547 C64.0151313 41.406985 69.74143717 52.96574867 73 66 C73 79.53 73 93.06 73 107 C36.7 107 0.4 107 -37 107 C-45.75899939 61.74516982 -45.75899939 61.74516982 -39.9375 50.625 C-39.37192383 49.52091797 -39.37192383 49.52091797 -38.79492188 48.39453125 C-37.87055636 46.59260354 -36.93627386 44.79576901 -36 43 C-35.11828125 43.23783203 -35.11828125 43.23783203 -34.21875 43.48046875 C-31.01359495 44.2309716 -28.27953909 44.29281599 -25 44 C-21.48824993 41.14880047 -19.74661543 37.93981896 -17.79296875 33.90625 C-17.50448563 33.31888062 -17.2160025 32.73151123 -16.91877747 32.12634277 C-16.00058402 30.25456991 -15.09325697 28.37781835 -14.1875 26.5 C-12.99927419 24.04922368 -11.80557152 21.60123274 -10.60546875 19.15625 C-10.31251923 18.55917236 -10.0195697 17.96209473 -9.71774292 17.34692383 C-6.76059416 11.39276737 -3.43822079 5.68813156 0 0 Z " fill="#365D7C" transform="translate(332,242)"/>
<path d="M0 0 C2.33684325 2.13724484 3.72758093 4.11590558 5.09375 6.96484375 C5.47934082 7.75584473 5.86493164 8.5468457 6.26220703 9.36181641 C6.67067871 10.21179199 7.07915039 11.06176758 7.5 11.9375 C11.61030124 20.35161949 15.9870818 28.57478114 20.59570312 36.72631836 C21.26375977 37.91753296 21.26375977 37.91753296 21.9453125 39.1328125 C22.34250488 39.83293457 22.73969727 40.53305664 23.14892578 41.25439453 C24 43 24 43 24 45 C25.41655793 45.0272415 26.83327045 45.04650467 28.25 45.0625 C29.43335938 45.07990234 29.43335938 45.07990234 30.640625 45.09765625 C32.91397859 45.00356049 34.81129768 44.58351934 37 44 C38.322644 46.53682516 39.63317361 49.07877651 40.9375 51.625 C41.31068359 52.33785156 41.68386719 53.05070312 42.06835938 53.78515625 C42.42607422 54.48769531 42.78378906 55.19023437 43.15234375 55.9140625 C43.48226318 56.5529541 43.81218262 57.1918457 44.15209961 57.85009766 C46.54865036 63.92669597 45.75438547 69.04075514 44.6015625 75.265625 C44.44714691 76.14023376 44.29273132 77.01484253 44.13363647 77.91595459 C43.80696274 79.75567488 43.47554076 81.59455766 43.13964844 83.43261719 C42.62448559 86.25281607 42.12349817 89.07525003 41.625 91.8984375 C41.30550558 93.68764628 40.98522069 95.47671412 40.6640625 97.265625 C40.51297028 98.11143127 40.36187805 98.95723755 40.20620728 99.82867432 C39.11742081 105.76515839 39.11742081 105.76515839 38 108 C1.7 108 -34.6 108 -72 108 C-72 52.55498282 -72 52.55498282 -50.7265625 30.66015625 C-36.62424066 17.33088527 -18.01796624 6.96431991 0 0 Z " fill="#365D7C" transform="translate(192,241)"/>
<path d="M0 0 C10.58462726 8.57147266 18.65200426 20.88788473 20.8671875 34.42578125 C20.94719501 36.70195194 20.97487703 38.98025821 20.96484375 41.2578125 C20.96162109 42.55009766 20.95839844 43.84238281 20.95507812 45.17382812 C20.94672415 46.52864651 20.93825922 47.88346422 20.9296875 49.23828125 C20.9246675 50.6126286 20.92010547 51.9869777 20.91601562 53.36132812 C20.90424418 56.71619049 20.88780033 60.07096346 20.8671875 63.42578125 C-0.15880932 64.38441332 -17.78300217 60.72028567 -36.7109375 51.59082031 C-40.35202517 49.83928096 -44.01452972 48.13561684 -47.68383789 46.4440918 C-49.54677133 45.58518541 -51.40568296 44.71747567 -53.25952148 43.83911133 C-65.46899137 38.17989856 -79.87889499 34.08480048 -93.1328125 38.80078125 C-104.17482387 44.06153751 -114.34921585 51.32225653 -123.97265625 58.80859375 C-126.1328125 60.42578125 -126.1328125 60.42578125 -127.1328125 60.42578125 C-128.29367207 19.74211805 -128.29367207 19.74211805 -115.47265625 5.59375 C-110.33476856 0.78356357 -104.65832372 -1.06646136 -97.8828125 -2.44921875 C-93.45926379 -3.77628336 -92.83561411 -4.97048327 -90.1328125 -8.57421875 C-63.24911071 -30.22589576 -25.07952651 -18.51107909 0 0 Z " fill="#365D7C" transform="translate(316.1328125,34.57421875)"/>
<path d="M0 0 C57.95550384 -0.11439939 115.91099834 -0.20253564 173.86659262 -0.25532665 C180.70598382 -0.26156334 187.54537478 -0.26804611 194.38476562 -0.2746582 C195.40566892 -0.2756389 195.40566892 -0.2756389 196.44719652 -0.2766394 C218.50813766 -0.29794677 240.56901476 -0.33550376 262.62991711 -0.3814861 C285.94269691 -0.42998954 309.25543015 -0.45998007 332.56826448 -0.47044247 C346.53498622 -0.4773092 360.50152414 -0.49901118 374.4681893 -0.53958233 C384.04061796 -0.56597545 393.61295135 -0.57400874 403.18541378 -0.56750689 C408.71145814 -0.56429869 414.2371809 -0.56927868 419.76316833 -0.59602737 C424.82158079 -0.62033431 429.87945494 -0.62160397 434.93789202 -0.60449447 C436.76845029 -0.60237945 438.59904197 -0.60874362 440.42953438 -0.62441591 C457.39695868 -0.76124807 457.39695868 -0.76124807 464 5 C467.69640843 8.98074754 469.11512778 11.97031841 469.15390015 17.36906433 C469.16250061 18.26194153 469.17110107 19.15481873 469.17996216 20.07475281 C469.18635208 21.54051506 469.18635208 21.54051506 469.19287109 23.03588867 C469.20104858 24.06710846 469.20922607 25.09832825 469.21765137 26.16079712 C469.24250104 29.57984842 469.25902113 32.99885819 469.2734375 36.41796875 C469.27876118 37.5857165 469.28408485 38.75346424 469.28956985 39.95659828 C469.31630064 46.13845793 469.33567509 52.3202974 469.35009766 58.50219727 C469.36673764 64.88342993 469.41151098 71.26414537 469.4624691 77.64518261 C469.49614694 82.55490198 469.50767578 87.46449872 469.51332474 92.37432289 C469.52003652 94.72621929 469.53525652 97.07810765 469.55921555 99.42989159 C469.59087742 102.72606756 469.59090155 106.02085019 469.58349609 109.31713867 C469.59990143 110.28419235 469.61630676 111.25124603 469.63320923 112.24760437 C469.57413393 118.68867106 468.21344459 123.05145459 464 128 C457.7424535 133.68087109 451.6702733 133.63012426 443.5 133.3125 C441.83710937 133.27866211 441.83710937 133.27866211 440.140625 133.24414062 C437.42565247 133.18562829 434.7135587 133.10370491 432 133 C432.34933594 132.37351562 432.69867188 131.74703125 433.05859375 131.1015625 C433.51363281 130.28429687 433.96867187 129.46703125 434.4375 128.625 C435.11619141 127.40683594 435.11619141 127.40683594 435.80859375 126.1640625 C438.01829296 122.15037934 438.15013115 119.63180297 438.20532227 114.97998047 C438.21522186 114.25792419 438.22512146 113.53586792 438.23532104 112.79193115 C438.26696031 110.40038352 438.29170299 108.00881601 438.31640625 105.6171875 C438.33697369 103.96094236 438.3579701 102.30470249 438.37937927 100.64846802 C438.43462167 96.28538276 438.48402137 91.92224996 438.53222656 87.55908203 C438.58242577 83.10835531 438.63812007 78.65769777 438.69335938 74.20703125 C438.80096747 65.47141264 438.90240653 56.73573621 439 48 C438.01 48 437.02 48 436 48 C436.00888245 48.57771652 436.01776489 49.15543304 436.0269165 49.75065613 C436.11547932 55.76897274 436.17577123 61.78710394 436.21972656 67.8059082 C436.2398294 70.05142741 436.26711605 72.29689435 436.30175781 74.54223633 C436.3503331 77.7717784 436.37298237 81.00062775 436.390625 84.23046875 C436.41127014 85.23272995 436.43191528 86.23499115 436.45318604 87.2676239 C436.45459782 91.66290674 436.43568445 94.26471026 434.15917969 98.10668945 C431.35401738 100.56643999 429.72810034 101.07608368 426 101 C423.33911133 99.70410156 423.33911133 99.70410156 421 97 C420.28561115 93.22541249 420.41962523 89.5011685 420.51171875 85.671875 C420.51879349 84.56773254 420.52586823 83.46359009 420.53315735 82.32598877 C420.56114237 78.79996955 420.62389244 75.27553913 420.6875 71.75 C420.71257738 69.35939793 420.73539152 66.96877098 420.75585938 64.578125 C420.81098254 58.71820806 420.89465104 52.85921753 421 47 C420.2371167 47.01885254 419.4742334 47.03770508 418.68823242 47.05712891 C417.69154541 47.07179199 416.6948584 47.08645508 415.66796875 47.1015625 C414.67821045 47.12041504 413.68845215 47.13926758 412.66870117 47.15869141 C410 47 410 47 407.3125 45.375 C405.56945356 42.22091596 405.34707033 40.55483933 406 37 C408.56837797 33.77911041 410.02746252 32.17592388 414.13793945 31.43237305 C415.28480225 31.45855713 416.43166504 31.48474121 417.61328125 31.51171875 C418.86044922 31.52783203 420.10761719 31.54394531 421.39257812 31.56054688 C422.68615234 31.60244141 423.97972656 31.64433594 425.3125 31.6875 C426.62541016 31.71005859 427.93832031 31.73261719 429.29101562 31.75585938 C432.5285013 31.81472275 435.76367 31.89691196 439 32 C438.912261 28.99872105 438.80528288 26.00013004 438.6875 23 C438.66494141 22.16082031 438.64238281 21.32164062 438.61914062 20.45703125 C438.32025002 13.44668785 436.95623973 7.9343596 433 2 C429.82448553 1.5391807 429.82448553 1.5391807 425.99158287 1.61523914 C425.25820938 1.61008924 424.52483588 1.60493933 423.76923895 1.59963337 C421.28637147 1.58590562 418.8040241 1.59372913 416.32113647 1.60127258 C414.53336746 1.59583883 412.74560203 1.58908968 410.95784247 1.58113068 C406.02543827 1.56301148 401.09318389 1.56367386 396.1607542 1.56726015 C390.84919457 1.56788145 385.53768635 1.55128792 380.22615051 1.53674316 C371.0169983 1.51390128 361.80788404 1.50206245 352.59870529 1.49761391 C339.28364923 1.49116622 325.96866196 1.46825328 312.65363355 1.44127061 C291.05295286 1.39794667 269.45227505 1.36801198 247.8515625 1.34643555 C226.86359233 1.32544263 205.8756458 1.29818231 184.88769531 1.26245117 C183.59485167 1.26025235 182.30200804 1.25805352 180.96998732 1.25578807 C174.48442555 1.24471884 167.99886401 1.23352595 161.51330256 1.22227156 C107.67555595 1.12900711 53.83779592 1.05744597 0 1 C0 0.67 0 0.34 0 0 Z " fill="#85BDED" transform="translate(28,364)"/>
<path d="M0 0 C8.36018473 5.40215835 12.9349874 12.28420289 16.35546875 21.55859375 C17.55543875 32.16373401 16.74829742 41.33619372 10.5078125 50.17578125 C4.98697611 56.92903665 -1.71237664 62.53487976 -10.59863281 63.84716797 C-22.12178737 64.83619764 -31.55100839 63.05486052 -40.5703125 55.578125 C-47.81045874 48.52886774 -51.71791276 40.21447079 -52.08203125 30.18359375 C-51.82462292 20.50280206 -48.23441352 12.6191819 -41.64453125 5.55859375 C-29.85655746 -5.22666858 -14.13094398 -7.70209502 0 0 Z " fill="#020304" transform="translate(339.64453125,400.44140625)"/>
<path d="M0 0 C6.15579434 0.60501567 10.68924304 3.25447876 15.99023438 6.20507812 C20.49637465 8.59423975 23.76860058 9.57034054 29 9 C30.94369738 7.64570159 30.94369738 7.64570159 32 6 C37.6057656 8.10089954 42.82767735 10.6162146 47 15 C47.22265625 17.26171875 47.22265625 17.26171875 46.875 19.6875 C46.4749324 22.30407926 46.4749324 22.30407926 47 25 C49.20881835 27.68559533 51.51934387 29.91461838 54.08129883 32.24560547 C63.95863491 41.35488176 72.14392026 54.68020443 73.17338562 68.29264832 C73.22951086 70.7809416 73.22534062 73.26126921 73.1953125 75.75 C73.1924826 76.64871826 73.18965271 77.54743652 73.18673706 78.47338867 C73.17563125 81.31573365 73.15054505 84.15775186 73.125 87 C73.11495777 88.9387975 73.10583411 90.87759999 73.09765625 92.81640625 C73.07743346 97.54449496 73.03826711 102.27188601 73 107 C65.08 107 57.16 107 49 107 C48.896875 103.535 48.79375 100.07 48.6875 96.5 C48.11925847 82.16836115 46.50433734 69.00867468 40 56 C39.50757813 55.01515625 39.01515625 54.0303125 38.5078125 53.015625 C28.79007485 35.06803297 12.7235241 22.64134277 -6 15 C-6.99 15.495 -6.99 15.495 -8 16 C-6.57250019 12.20950293 -4.83763458 8.72877544 -2.875 5.1875 C-2.33617187 4.21167969 -1.79734375 3.23585937 -1.2421875 2.23046875 C-0.83226562 1.49441406 -0.42234375 0.75835937 0 0 Z " fill="#2A4C65" transform="translate(332,242)"/>
<path d="M0 0 C0.83571533 -0.00515625 1.67143066 -0.0103125 2.5324707 -0.015625 C3.84090942 0.02498047 3.84090942 0.02498047 5.17578125 0.06640625 C6.51999146 0.09347656 6.51999146 0.09347656 7.89135742 0.12109375 C15.54054089 0.39952431 21.79743906 1.23196446 27.59765625 6.5703125 C33.18961567 12.64318043 33.8524103 17.22712863 33.76171875 25.3984375 C33.23614472 31.60771931 30.42516892 34.95213595 25.86328125 39.06640625 C22.79898621 41.62890625 22.79898621 41.62890625 20.48828125 41.62890625 C23.57278137 45.87715549 26.71398951 49.9151498 30.30078125 53.75390625 C32.46559636 56.21217407 33.51185098 57.69217237 34.67578125 60.81640625 C34.48828125 63.62890625 34.48828125 63.62890625 33.05078125 66.50390625 C30.13407714 68.92263649 28.31987315 69.19359598 24.57202148 69.08789062 C20.67797348 68.2301507 18.67128801 65.42473597 16.23828125 62.44140625 C15.73554688 61.86326172 15.2328125 61.28511719 14.71484375 60.68945312 C11.8831488 57.40928292 9.17637499 54.02742476 6.48828125 50.62890625 C6.4625 51.50933594 6.43671875 52.38976562 6.41015625 53.296875 C6.3534375 54.45832031 6.29671875 55.61976563 6.23828125 56.81640625 C6.16867187 58.53923828 6.16867187 58.53923828 6.09765625 60.296875 C5.38883925 64.17265002 4.29724524 65.90077576 1.48828125 68.62890625 C-2.01171875 69.19140625 -2.01171875 69.19140625 -5.51171875 68.62890625 C-8.24135956 66.53898897 -9.37332184 65.3515253 -10.02638245 61.94166565 C-10.03258102 60.91750046 -10.0387796 59.89333527 -10.04516602 58.83813477 C-10.06100235 57.67335098 -10.07683868 56.5085672 -10.09315491 55.30848694 C-10.08819504 54.05426437 -10.08323517 52.80004181 -10.078125 51.5078125 C-10.08432358 50.21576401 -10.09052216 48.92371552 -10.09690857 47.59251404 C-10.10730714 44.85959032 -10.1027607 42.12718744 -10.08813477 39.39428711 C-10.07095615 35.898998 -10.09442957 32.40535423 -10.12962437 28.91024876 C-10.15692134 25.56767371 -10.1468604 22.22549383 -10.140625 18.8828125 C-10.15388321 17.63061417 -10.16714142 16.37841583 -10.18080139 15.08827209 C-10.08830841 6.46903343 -10.08830841 6.46903343 -7.25439453 2.33984375 C-4.5120694 0.62912499 -3.18264418 -0.00308495 0 0 Z " fill="#010202" transform="translate(384.51171875,395.37109375)"/>
<path d="M0 0 C3.82824904 1.38468582 4.82502278 2.57034933 6.9375 6.0625 C7.54032483 9.43113981 7.54239434 12.75999328 7.546875 16.17578125 C7.57167938 17.63010811 7.57167938 17.63010811 7.59698486 19.11381531 C7.64544745 22.20094143 7.66683225 25.28757499 7.6875 28.375 C7.71566109 30.47202997 7.74558871 32.569037 7.77734375 34.66601562 C7.85120622 39.79813654 7.90079171 44.92998429 7.9375 50.0625 C11.11710015 51.75280347 13.24970965 52.33484385 16.875 52.3125 C18.12603516 52.32023437 18.12603516 52.32023437 19.40234375 52.328125 C22.209151 52.03403734 24.34743592 51.1502675 26.9375 50.0625 C26.9468457 48.75579346 26.95619141 47.44908691 26.96582031 46.1027832 C27.00573838 41.24762066 27.07150275 36.39309056 27.14501953 31.53833008 C27.17321852 29.43847792 27.19443837 27.33851983 27.20849609 25.23852539 C27.22994014 22.21705941 27.27659867 19.19686566 27.328125 16.17578125 C27.32935364 15.23914139 27.33058228 14.30250153 27.33184814 13.33747864 C27.42652884 9.10951177 27.56567411 6.67716795 29.79199219 2.99682617 C32.58014283 0.48311229 34.18870082 -0.01400611 37.9375 0.0625 C40.68466387 1.83289449 42.46895922 3.12541844 43.9375 6.0625 C44.06139683 9.10397943 44.12598613 12.12157072 44.140625 15.1640625 C44.14632507 16.0744931 44.15202515 16.98492371 44.15789795 17.92294312 C44.16735714 19.85470414 44.17388557 21.78648137 44.17773438 23.71826172 C44.18739283 26.65491565 44.21838768 29.59085559 44.25 32.52734375 C44.25653489 34.40624585 44.26178345 36.28515296 44.265625 38.1640625 C44.2779718 39.03519684 44.2903186 39.90633118 44.30303955 40.80386353 C44.27595335 48.3293731 42.72723018 54.881734 37.53125 60.6796875 C30.21821158 67.02482378 22.27215334 68.70107954 12.8125 68.46484375 C6.06629349 67.76438078 1.57013252 64.92710628 -2.96875 59.98828125 C-6.42441816 55.57904428 -8.16596194 52.14555769 -8.25537109 46.47094727 C-8.27143402 45.54310928 -8.28749695 44.6152713 -8.30404663 43.65931702 C-8.34854029 39.4313335 -8.38953212 35.20350447 -8.41259766 30.9753418 C-8.4291867 28.74346511 -8.45651509 26.51164218 -8.49462891 24.2800293 C-8.54928464 21.06270793 -8.57125138 17.84662876 -8.5859375 14.62890625 C-8.60860687 13.63089493 -8.63127625 12.63288361 -8.65463257 11.60462952 C-8.63352729 4.71039863 -8.63352729 4.71039863 -5.72119141 1.40600586 C-3.0625 0.0625 -3.0625 0.0625 0 0 Z " fill="#050709" transform="translate(106.0625,395.9375)"/>
<path d="M0 0 C1.38928711 -0.0153479 1.38928711 -0.0153479 2.80664062 -0.03100586 C4.25780273 0.00367798 4.25780273 0.00367798 5.73828125 0.0390625 C7.22231445 0.06117798 7.22231445 0.06117798 8.73632812 0.08374023 C17.95562759 0.39567715 24.14440282 2.30234011 30.55078125 9.1015625 C34.70154536 14.57728803 35.64659286 20.0017549 35.48046875 26.78515625 C34.55722891 32.97086315 31.46854596 37.44556412 26.91796875 41.62109375 C19.99555605 46.49876739 13.26753818 46.3034067 5.05078125 45.6640625 C5.07172852 46.21868164 5.09267578 46.77330078 5.11425781 47.34472656 C5.19761673 49.86765273 5.24949993 52.39028899 5.30078125 54.9140625 C5.35105469 56.22310547 5.35105469 56.22310547 5.40234375 57.55859375 C5.50097755 64.01910737 5.50097755 64.01910737 3.25390625 67.23828125 C-0.01146964 69.3515121 -2.15154922 69.27440225 -5.94921875 68.6640625 C-9.47708117 65.15804863 -10.45225298 62.77852341 -10.48266602 57.8515625 C-10.49850235 56.706875 -10.51433868 55.5621875 -10.53065491 54.3828125 C-10.52569504 53.155625 -10.52073517 51.9284375 -10.515625 50.6640625 C-10.52182358 49.395625 -10.52802216 48.1271875 -10.53440857 46.8203125 C-10.54150861 44.1400636 -10.54027813 41.46131734 -10.52563477 38.78125 C-10.50843926 35.35435964 -10.5319565 31.92914486 -10.56712437 28.50244141 C-10.59441724 25.22296199 -10.58436114 21.94362343 -10.578125 18.6640625 C-10.59138321 17.436875 -10.60464142 16.2096875 -10.61830139 14.9453125 C-10.52594389 6.51001864 -10.52594389 6.51001864 -7.71923828 2.39306641 C-4.82900782 0.58902867 -3.36753278 0.02283073 0 0 Z " fill="#020303" transform="translate(178.94921875,395.3359375)"/>
<path d="M0 0 C1.38928711 -0.02030273 1.38928711 -0.02030273 2.80664062 -0.04101562 C4.25780273 -0.0187793 4.25780273 -0.0187793 5.73828125 0.00390625 C7.22231445 0.0203418 7.22231445 0.0203418 8.73632812 0.03710938 C16.96614923 0.28220663 23.05465459 1.36708671 28.89453125 7.50390625 C33.57201758 13.32870055 35.60432909 18.44239676 35.42578125 25.94140625 C34.41908365 32.98828943 30.17806706 38.01287896 24.796875 42.375 C20.31791438 45.43111407 17.29883233 45.79322201 11.80078125 45.69140625 C9.90585938 45.66433594 9.90585938 45.66433594 7.97265625 45.63671875 C6.52632812 45.60191406 6.52632812 45.60191406 5.05078125 45.56640625 C5.0971875 46.80777344 5.14359375 48.04914063 5.19140625 49.328125 C5.22893546 50.97002796 5.26533439 52.61195702 5.30078125 54.25390625 C5.35105469 55.47883789 5.35105469 55.47883789 5.40234375 56.72851562 C5.4681367 60.79123018 5.36349198 63.02557616 3.2890625 66.61328125 C0.92232282 68.67849912 0.07024524 69.2298569 -3.01171875 69.12890625 C-6.94921875 68.56640625 -6.94921875 68.56640625 -8.66906738 66.89990234 C-10.27129087 63.97932408 -10.34234287 61.99396732 -10.36914062 58.66796875 C-10.38505249 57.47993652 -10.40096436 56.2919043 -10.4173584 55.06787109 C-10.41755981 53.7886377 -10.41776123 52.5094043 -10.41796875 51.19140625 C-10.42558228 49.87479004 -10.4331958 48.55817383 -10.44104004 47.20166016 C-10.4544725 44.41755648 -10.45605892 41.63373634 -10.45019531 38.84960938 C-10.44429396 35.2847883 -10.47491107 31.72132677 -10.51531219 28.1567688 C-10.54739799 24.75160406 -10.54307294 21.34672179 -10.54296875 17.94140625 C-10.55936401 16.66217285 -10.57575928 15.38293945 -10.59265137 14.06494141 C-10.58334595 12.87690918 -10.57404053 11.68887695 -10.56445312 10.46484375 C-10.56650757 9.41989746 -10.56856201 8.37495117 -10.57067871 7.29833984 C-9.35328454 1.94668367 -5.15003634 0.06733704 0 0 Z " fill="#030404" transform="translate(239.94921875,395.43359375)"/>
<path d="M0 0 C7.90873923 -0.55276134 16.31852233 2.42536018 22.3671875 7.59765625 C24.70945793 11.1110619 24.86928371 13.08612712 24.1171875 17.22265625 C21.7731599 19.83457272 20.1799725 20.99891204 16.7421875 21.72265625 C13.71751779 21.14652869 11.61813602 19.78532919 9.01953125 18.1875 C5.71407366 16.51101535 2.81077192 16.34577573 -0.8828125 16.22265625 C-4.00755877 17.85739141 -4.00755877 17.85739141 -4.5703125 20.34765625 C-4.6734375 20.96640625 -4.7765625 21.58515625 -4.8828125 22.22265625 C-3.6453125 22.61453125 -2.4078125 23.00640625 -1.1328125 23.41015625 C18.41437538 29.98764601 18.41437538 29.98764601 23.9296875 37.78515625 C26.33808731 42.72871375 26.88655746 47.7923357 26.1171875 53.22265625 C23.66789853 59.52900309 18.90730921 63.89592628 13.1171875 67.22265625 C6.28885705 69.61183451 -2.58450742 69.32703256 -9.359375 67.05859375 C-14.50699693 64.56780894 -19.61448074 62.00842776 -22.8828125 57.22265625 C-23.51816233 53.19877399 -23.53251869 51.19721554 -21.2578125 47.78515625 C-18.01640499 45.65265131 -16.72458325 45.49779384 -12.8828125 46.22265625 C-11.46013178 47.18407721 -10.06661908 48.18927879 -8.6953125 49.22265625 C-4.16805889 52.48166394 -0.75406838 52.81654534 4.734375 52.62890625 C7.37436022 52.34513056 7.37436022 52.34513056 10.1171875 50.22265625 C10.24534115 47.83738295 10.24534115 47.83738295 9.1171875 45.22265625 C5.4173315 42.97372417 1.71546532 41.45543328 -2.31640625 39.88671875 C-9.59795384 36.97409971 -14.50750478 34.84812223 -18.8828125 28.22265625 C-20.6334179 22.97084004 -20.9400162 17.16207776 -19.046875 11.8984375 C-15.71566198 6.02968973 -10.79934674 2.52816766 -4.4453125 0.41015625 C-2.9612153 0.30156377 -1.47776754 0.17475674 0 0 Z " fill="#020304" transform="translate(56.8828125,395.77734375)"/>
<path d="M0 0 C0.80847885 -0.00145523 1.6169577 -0.00291046 2.44993591 -0.00440979 C4.15538139 -0.00275285 5.86084213 0.00878564 7.56616211 0.02954102 C10.17821602 0.05853406 12.78824452 0.05013937 15.40039062 0.03710938 C17.05860362 0.04334593 18.71681021 0.05173623 20.375 0.0625 C21.54694664 0.05809654 21.54694664 0.05809654 22.74256897 0.05360413 C28.09468444 0.14690308 28.09468444 0.14690308 30.60522461 1.81225586 C32.40398731 4.79376663 32.08644739 7.12227988 31.62109375 10.49609375 C29.68359375 13.43359375 29.68359375 13.43359375 26.62109375 15.49609375 C24.35327148 15.69750977 24.35327148 15.69750977 21.9296875 15.625 C21.12200928 15.60638916 20.31433105 15.58777832 19.48217773 15.56860352 C18.86802002 15.54467529 18.2538623 15.52074707 17.62109375 15.49609375 C17.6299762 16.07381027 17.63885864 16.65152679 17.64801025 17.24674988 C17.73657307 23.26506649 17.79686498 29.28319769 17.84082031 35.30200195 C17.86092315 37.54752116 17.8882098 39.7929881 17.92285156 42.03833008 C17.97142685 45.26787215 17.99407612 48.4967215 18.01171875 51.7265625 C18.03236389 52.7288237 18.05300903 53.7310849 18.07427979 54.76371765 C18.07569157 59.15900049 18.0567782 61.76080401 15.78027344 65.6027832 C12.97511113 68.06253374 11.34919409 68.57217743 7.62109375 68.49609375 C4.96020508 67.20019531 4.96020508 67.20019531 2.62109375 64.49609375 C1.9067049 60.72150624 2.04071898 56.99726225 2.1328125 53.16796875 C2.14342461 51.51175507 2.14342461 51.51175507 2.1542511 49.82208252 C2.18223612 46.2960633 2.24498619 42.77163288 2.30859375 39.24609375 C2.33367113 36.85549168 2.35648527 34.46486473 2.37695312 32.07421875 C2.43207629 26.21430181 2.51574479 20.35531128 2.62109375 14.49609375 C1.85821045 14.51494629 1.09532715 14.53379883 0.30932617 14.55322266 C-0.68736084 14.56788574 -1.68404785 14.58254883 -2.7109375 14.59765625 C-3.7006958 14.61650879 -4.6904541 14.63536133 -5.71020508 14.65478516 C-8.37890625 14.49609375 -8.37890625 14.49609375 -11.06640625 12.87109375 C-12.78346147 9.76404144 -12.96229182 7.99640717 -12.37890625 4.49609375 C-9.08743355 -0.21217805 -5.32417772 -0.07675315 0 0 Z " fill="#030405" transform="translate(446.37890625,396.50390625)"/>
<path d="M0 0 C0.66 0 1.32 0 2 0 C2.93362553 4.59403041 3.09823573 8.42074924 2 13 C-1.09851154 17.36057534 -5.69838967 20.42242121 -9.98486328 23.52832031 C-12.63347224 25.46263275 -15.18582038 27.50707508 -17.74755859 29.55419922 C-19.46846951 30.92509436 -21.20142447 32.27843227 -22.94140625 33.625 C-25.64754043 35.72631492 -28.33049263 37.85246335 -31 40 C-35.59253322 37.07747886 -39.66219404 33.83687449 -43.75 30.25 C-53.53878763 21.69337304 -53.53878763 21.69337304 -64 14 C-64.29296875 10.9609375 -64.29296875 10.9609375 -64.1875 7.375 C-64.16042969 6.18648437 -64.13335937 4.99796875 -64.10546875 3.7734375 C-64.07066406 2.85820312 -64.03585938 1.94296875 -64 1 C-62.824375 1.4125 -61.64875 1.825 -60.4375 2.25 C-58.62778293 2.84191059 -56.81483627 3.42397627 -55 4 C-53.87464844 4.35964844 -52.74929687 4.71929687 -51.58984375 5.08984375 C-33.67677131 10.38277052 -18.07421282 7.81543683 -1 1 C-0.67 0.67 -0.34 0.34 0 0 Z " fill="#F1A66A" transform="translate(294,207)"/>
<path d="M0 0 C19.47410902 2.33886265 38.75376439 13.49621053 50.875 28.8125 C57.48482763 38.07573514 61.14777812 47.45436695 61.09765625 58.83203125 C61.09443359 60.12431641 61.09121094 61.41660156 61.08789062 62.74804688 C61.07953665 64.10286526 61.07107172 65.45768297 61.0625 66.8125 C61.05748 68.18684735 61.05291797 69.56119645 61.04882812 70.93554688 C61.03705677 74.29038341 61.01912174 77.6451973 61 81 C54.07 81 47.14 81 40 81 C40.66 80.67 41.32 80.34 42 80 C41.9300805 76.08914329 41.84164703 72.17914253 41.73754883 68.26904297 C41.6887559 66.30066475 41.65376562 64.33195966 41.61914062 62.36328125 C41.15468419 45.72729606 36.93540499 32.63544694 26 20 C25.42765625 19.33226563 24.8553125 18.66453125 24.265625 17.9765625 C19.24916529 12.55278341 13.41838436 8.81804551 7.171875 4.98046875 C4.66830546 3.41727939 2.31862446 1.81931672 0 0 Z " fill="#2A4B63" transform="translate(276,17)"/>
<path d="M0 0 C6.27 0 12.54 0 19 0 C19.66376074 24.22726695 13.90551155 42.40947445 -2 61 C-2.66652588 61.87350098 -3.33305176 62.74700195 -4.01977539 63.64697266 C-8.31220178 67.03604495 -11.79724866 66.63474929 -17.11328125 66.48828125 C-18.56760811 66.47766914 -18.56760811 66.47766914 -20.05131531 66.46684265 C-23.13917137 66.43891874 -26.22519475 66.37618303 -29.3125 66.3125 C-31.40947897 66.28741458 -33.50648644 66.26460184 -35.60351562 66.24414062 C-40.73638009 66.18909838 -45.86787964 66.10283859 -51 66 C-51 65.67 -51 65.34 -51 65 C-50.16339844 65.0220752 -49.32679688 65.04415039 -48.46484375 65.06689453 C-45.32519715 65.12556733 -42.18939888 65.13866455 -39.04931641 65.12207031 C-37.03643778 65.12494791 -35.02384294 65.17919432 -33.01171875 65.234375 C-25.72380363 65.24331856 -25.72380363 65.24331856 -19.44433594 61.98828125 C-17.34542645 59.42829984 -15.64889768 56.86794121 -14 54 C-13.54431641 53.2776416 -13.08863281 52.5552832 -12.61914062 51.81103516 C-2.36202394 34.99441898 -0.3334248 19.37198063 0 0 Z " fill="#F0A56A" transform="translate(318,112)"/>
<path d="M0 0 C4.26796442 2.54741516 7.7796389 6.75849656 9.99609375 11.19140625 C10.71092997 17.57968945 11.21236711 23.46143768 7.24609375 28.81640625 C3.60725564 33.02496143 0.0414693 35.83016801 -5.60546875 36.5 C-12.30718088 36.78573191 -16.78127603 36.18879846 -22.15625 32.0234375 C-26.34025114 27.87481903 -28.17058946 23.55980184 -28.50390625 17.69140625 C-28.18512095 11.9034607 -26.3461526 7.35928014 -22.0625 3.39453125 C-15.04237172 -2.03540223 -8.4279224 -3.40074062 0 0 Z " fill="#9CD0FA" transform="translate(331.00390625,412.80859375)"/>
<path d="M0 0 C3.47914941 -0.02887814 6.95826831 -0.04675687 10.4375 -0.0625 C11.92733398 -0.07506836 11.92733398 -0.07506836 13.44726562 -0.08789062 C14.39150391 -0.09111328 15.33574219 -0.09433594 16.30859375 -0.09765625 C17.62041626 -0.10551147 17.62041626 -0.10551147 18.95874023 -0.11352539 C21 0 21 0 22 1 C22.51604411 3.55935877 22.97980767 6.10949428 23.41015625 8.68359375 C23.54191757 9.45429703 23.67367889 10.22500031 23.80943298 11.01905823 C24.08781814 12.6521141 24.36425656 14.28550283 24.63891602 15.91918945 C25.06024659 18.42410292 25.4876034 20.92792963 25.91601562 23.43164062 C26.18525175 25.01556454 26.45414345 26.59954705 26.72265625 28.18359375 C26.85076187 28.9357164 26.97886749 29.68783905 27.1108551 30.4627533 C28 35.76694402 28 35.76694402 28 38 C16.78 38 5.56 38 -6 38 C-6 32.62049521 -5.94798042 28.73628864 -4.94140625 23.671875 C-4.72033203 22.54265625 -4.49925781 21.4134375 -4.27148438 20.25 C-4.03751953 19.095 -3.80355469 17.94 -3.5625 16.75 C-3.33240234 15.57953125 -3.10230469 14.4090625 -2.86523438 13.203125 C-1.06158703 4.08555696 -1.06158703 4.08555696 0 0 Z " fill="#E85266" transform="translate(252,311)"/>
<path d="M0 0 C2.99647419 1.41744076 5.90528353 2.97120716 8.8125 4.5625 C9.60076172 4.98724609 10.38902344 5.41199219 11.20117188 5.84960938 C13.1373378 6.89396554 15.07005367 7.9442077 17 9 C16.35018312 13.71346047 14.48307971 17.57843211 12.4375 21.8125 C11.303125 24.184375 10.16875 26.55625 9 29 C1.08 29 -6.84 29 -15 29 C-16.299375 26.421875 -17.59875 23.84375 -18.9375 21.1875 C-19.34605225 20.37949951 -19.75460449 19.57149902 -20.17553711 18.73901367 C-20.4978833 18.09681885 -20.82022949 17.45462402 -21.15234375 16.79296875 C-21.48226318 16.1383667 -21.81218262 15.48376465 -22.15209961 14.80932617 C-23 13 -23 13 -24 10 C-21.96028888 8.72593712 -19.91834736 7.45570798 -17.875 6.1875 C-17.30523437 5.83107422 -16.73546875 5.47464844 -16.1484375 5.10742188 C-4.97913144 -1.80993245 -4.97913144 -1.80993245 0 0 Z " fill="#E75266" transform="translate(266,267)"/>
<path d="M0 0 C14 0 14 0 17.6875 1.6875 C22.44913521 6.44913521 23.38196777 10.0199218 23.41015625 16.61132812 C23.39855469 17.54396484 23.38695312 18.47660156 23.375 19.4375 C23.38660156 20.36626953 23.39820313 21.29503906 23.41015625 22.25195312 C23.38363207 28.46303269 22.57939074 32.88323618 18.5 37.8125 C13.20956136 42.00076392 6.604531 40 0 40 C0 26.8 0 13.6 0 0 Z " fill="#9CD0FA" transform="translate(352,90)"/>
<path d="M0 0 C0 13.2 0 26.4 0 40 C-15 40 -15 40 -20 36 C-22.79521556 30.76623627 -22.36773745 25.35438307 -22.375 19.5625 C-22.39949219 18.53833984 -22.42398438 17.51417969 -22.44921875 16.45898438 C-22.47295851 10.34599492 -22.22965146 6.56357131 -18 2 C-14 0 -14 0 0 0 Z " fill="#9DD2FC" transform="translate(174,90)"/>
<path d="M0 0 C2.421875 1.78515625 2.421875 1.78515625 4.75 4.0625 C8.92082791 8.01348006 13.21717604 11.64682653 17.7265625 15.203125 C20.52898207 17.4180958 23.26785578 19.69924697 26 22 C22.35855146 25.98393204 17.67866633 28.17343868 13 30.75 C11.62714844 31.52923828 11.62714844 31.52923828 10.2265625 32.32421875 C9.34742188 32.81019531 8.46828125 33.29617188 7.5625 33.796875 C6.35787109 34.46734863 6.35787109 34.46734863 5.12890625 35.15136719 C3 36 3 36 0 35 C-1.48632812 32.5949707 -1.48632812 32.5949707 -3.03125 29.42578125 C-3.59457031 28.28302734 -4.15789062 27.14027344 -4.73828125 25.96289062 C-5.3257762 24.74621703 -5.91301362 23.52941904 -6.5 22.3125 C-7.08631417 21.11478092 -7.67354394 19.91750958 -8.26171875 18.72070312 C-9.35025941 16.50003036 -10.43468293 14.2773314 -11.51367188 12.05200195 C-12.98832821 9.02396667 -14.48871713 6.00989663 -16 3 C-14.46673133 2.29396917 -12.92284586 1.61097276 -11.375 0.9375 C-10.51648438 0.55464844 -9.65796875 0.17179688 -8.7734375 -0.22265625 C-5.35915142 -1.17961812 -3.39559342 -1.00344713 0 0 Z " fill="#EAF1FA" transform="translate(223,233)"/>
<path d="M0 0 C0.70640625 0.29003906 1.4128125 0.58007812 2.140625 0.87890625 C3.05328125 1.24113281 3.9659375 1.60335937 4.90625 1.9765625 C5.64359375 2.27433594 6.3809375 2.57210937 7.140625 2.87890625 C1.94599745 14.18592724 -3.4643244 25.19725497 -9.859375 35.87890625 C-15.70951603 34.28690066 -20.56455986 31.32153752 -25.734375 28.25390625 C-26.61351562 27.73828125 -27.49265625 27.22265625 -28.3984375 26.69140625 C-30.5550806 25.42555052 -32.70855488 24.15462218 -34.859375 22.87890625 C-29.41837603 17.2947231 -23.50591896 12.32591913 -17.53955078 7.31640625 C-16.08291527 6.07015954 -14.66807013 4.77538174 -13.26171875 3.47265625 C-8.63688435 -0.63830766 -6.04169799 -1.95795768 0 0 Z " fill="#EAF1FA" transform="translate(310.859375,233.12109375)"/>
<path d="M0 0 C0.66 0 1.32 0 2 0 C2.69012832 4.51023257 2.93333131 8.51398821 2 13 C-1.17934403 16.7761141 -4.78510189 19.45527993 -9 22 C-9.33 22 -9.66 22 -10 22 C-10 19.36 -10 16.72 -10 14 C-11.051875 14.474375 -12.10375 14.94875 -13.1875 15.4375 C-25.74552162 21.10092151 -42.07398521 18.25034169 -54.5078125 13.72265625 C-62.5617515 10.4382485 -62.5617515 10.4382485 -64 9 C-64.14115161 6.32941149 -64.04247107 3.67567762 -64 1 C-62.824375 1.4125 -61.64875 1.825 -60.4375 2.25 C-58.62778293 2.84191059 -56.81483627 3.42397627 -55 4 C-53.87464844 4.35964844 -52.74929687 4.71929687 -51.58984375 5.08984375 C-33.67677131 10.38277052 -18.07421282 7.81543683 -1 1 C-0.67 0.67 -0.34 0.34 0 0 Z " fill="#E49656" transform="translate(294,207)"/>
<path d="M0 0 C3.47914941 -0.02887814 6.95826831 -0.04675687 10.4375 -0.0625 C11.92733398 -0.07506836 11.92733398 -0.07506836 13.44726562 -0.08789062 C14.39150391 -0.09111328 15.33574219 -0.09433594 16.30859375 -0.09765625 C17.62041626 -0.10551147 17.62041626 -0.10551147 18.95874023 -0.11352539 C21 0 21 0 22 1 C22.51604411 3.55935877 22.97980767 6.10949428 23.41015625 8.68359375 C23.54191757 9.45429703 23.67367889 10.22500031 23.80943298 11.01905823 C24.08781814 12.6521141 24.36425656 14.28550283 24.63891602 15.91918945 C25.06024659 18.42410292 25.4876034 20.92792963 25.91601562 23.43164062 C26.18525175 25.01556454 26.45414345 26.59954705 26.72265625 28.18359375 C26.85076187 28.9357164 26.97886749 29.68783905 27.1108551 30.4627533 C28 35.76694402 28 35.76694402 28 38 C25.36 38 22.72 38 20 38 C19.83395264 36.97229492 19.83395264 36.97229492 19.66455078 35.92382812 C19.15487421 32.78197171 18.63997657 29.64099187 18.125 26.5 C17.95097656 25.42234375 17.77695312 24.3446875 17.59765625 23.234375 C16.63792975 17.40492512 15.53709072 11.70523762 14 6 C9.05 6 4.1 6 -1 6 C-0.67 4.02 -0.34 2.04 0 0 Z " fill="#DF374D" transform="translate(252,311)"/>
<path d="M0 0 C2.99647419 1.41744076 5.90528353 2.97120716 8.8125 4.5625 C9.60076172 4.98724609 10.38902344 5.41199219 11.20117188 5.84960938 C13.1373378 6.89396554 15.07005367 7.9442077 17 9 C16.46930939 12.82097239 15.50298434 15.06171403 13 18 C12.11957031 17.43410156 11.23914063 16.86820312 10.33203125 16.28515625 C9.15910813 15.54386884 7.98591678 14.80300573 6.8125 14.0625 C6.23435547 13.68931641 5.65621094 13.31613281 5.06054688 12.93164062 C0.35328177 9.90084674 0.35328177 9.90084674 -5 9 C-7.78463089 10.20739411 -10.27176515 11.78663018 -12.8125 13.4375 C-13.50537109 13.87126953 -14.19824219 14.30503906 -14.91210938 14.75195312 C-16.61637169 15.82152465 -18.30934397 16.90904837 -20 18 C-21.77706209 15.33440687 -22.87548273 12.9719385 -24 10 C-21.96028888 8.72593712 -19.91834736 7.45570798 -17.875 6.1875 C-17.30523437 5.83107422 -16.73546875 5.47464844 -16.1484375 5.10742188 C-4.97913144 -1.80993245 -4.97913144 -1.80993245 0 0 Z " fill="#DF374D" transform="translate(266,267)"/>
<path d="M0 0 C2.41399514 0.92124196 4.8119328 1.88414812 7.2109375 2.84375 C5.2309375 7.13375 3.2509375 11.42375 1.2109375 15.84375 C-3.37442428 14.92667764 -7.03211181 13.59045404 -11.2890625 11.78125 C-13.78240465 10.84624669 -16.16869717 10.29295549 -18.7890625 9.84375 C-17.65019031 8.67036653 -16.50459366 7.50299877 -15.33203125 6.36328125 C-14.26117078 5.30868702 -13.22372893 4.21949829 -12.21484375 3.10546875 C-8.05711332 -1.11041175 -5.67604595 -1.72125581 0 0 Z " fill="#D5EAFA" transform="translate(310.7890625,233.15625)"/>
<path d="M0 0 C9.76931447 -0.43743199 9.76931447 -0.43743199 14 3 C15.42041821 5.84083641 15.31452272 7.85477278 15 11 C13.6875 13.375 13.6875 13.375 11 15 C7.26603606 15.33310182 3.76345914 15.17921234 0 15 C0 10.05 0 5.1 0 0 Z " fill="#99CDF5" transform="translate(184,411)"/>
<path d="M0 0 C8.83928571 -0.66964286 8.83928571 -0.66964286 12.625 2.0625 C15 5 15 5 15.125 8.625 C13.88551638 12.34345086 13.30088233 13.09828059 10 15 C7.421875 15.29296875 7.421875 15.29296875 4.75 15.1875 C3.1825 15.125625 1.615 15.06375 0 15 C0 10.05 0 5.1 0 0 Z " fill="#9ACDF6" transform="translate(245,411)"/>
<path d="M0 0 C8.13294798 -0.60693642 8.13294798 -0.60693642 12.125 2.1875 C14 5 14 5 14.0625 7.625 C12.71275782 10.64207075 12.0100327 11.57023447 9 13 C5.95224774 13.24171828 3.06714345 13.13531515 0 13 C0 8.71 0 4.42 0 0 Z " fill="#98CBF3" transform="translate(390,411)"/>
<path d="M0 0 C0.33 0 0.66 0 1 0 C1 13.2 1 26.4 1 40 C-14 40 -14 40 -19 36 C-19.8125 33.25 -19.8125 33.25 -20 31 C-17.525 31.99 -17.525 31.99 -15 33 C-10.05 33.33 -5.1 33.66 0 34 C0 22.78 0 11.56 0 0 Z " fill="#76A7D1" transform="translate(173,90)"/>
<path d="M0 0 C0.99 0.33 1.98 0.66 3 1 C-1.625 6.875 -1.625 6.875 -5 8 C-7.39490986 8.06970052 -9.79167691 8.08448003 -12.1875 8.0625 C-13.45980469 8.05347656 -14.73210937 8.04445312 -16.04296875 8.03515625 C-17.50669922 8.01775391 -17.50669922 8.01775391 -19 8 C-19 6.02 -19 4.04 -19 2 C-17.19402344 1.90912109 -17.19402344 1.90912109 -15.3515625 1.81640625 C-13.77602923 1.73200268 -12.20050904 1.64735459 -10.625 1.5625 C-9.8309375 1.52318359 -9.036875 1.48386719 -8.21875 1.44335938 C-3.97398779 1.31106596 -3.97398779 1.31106596 0 0 Z " fill="#84BCED" transform="translate(371,122)"/>
<path d="M0 0 C-6.4528547 5.18004391 -13.84158474 7.39567294 -22 8 C-15.27949807 1.01313672 -9.66899288 -0.79982478 0 0 Z " fill="#EBA268" transform="translate(289,193)"/>
</svg>
