<?xml version="1.0" encoding="UTF-8"?>
<svg version="1.1" xmlns="http://www.w3.org/2000/svg" width="512" height="512">
<path d="M0 0 C0.98484375 0.51433594 1.9696875 1.02867188 2.984375 1.55859375 C10.21609385 5.5323682 16.10705975 10.2486646 22 16 C22.9075 16.86625 23.815 17.7325 24.75 18.625 C25.86375 19.800625 25.86375 19.800625 27 21 C27.44472656 21.44988281 27.88945312 21.89976563 28.34765625 22.36328125 C39.94612531 34.82776933 45.88920013 51.62736909 49 68 C56.26 68 63.52 68 71 68 C71.61875 66.246875 72.2375 64.49375 72.875 62.6875 C77.83816054 50.96393417 85.6698563 44.44567635 96.8984375 39.2421875 C105.96146291 35.61241158 117.72568995 35.45463302 127 38.625 C139.45843158 44.02365368 147.94589295 52.34498976 153 65 C156.67192137 76.18788541 155.72031321 88.09715286 150.7109375 98.73828125 C144.84298812 109.07779634 136.70518183 116.05802148 125.5625 120.3125 C111.46976319 123.03215096 99.30581781 121.91453013 87 114 C79.76555959 108.3880301 75.26492803 101.52722379 72 93 C72 92.01 72 91.02 72 90 C64.41 90 56.82 90 49 90 C48.67 93.3 48.34 96.6 48 100 C44.28811833 115.6451211 37.58374564 128.73537789 27.35546875 141.0390625 C25.47735477 143.3999421 24.25985331 145.31870898 23 148 C31.24289712 159.73313283 39.58548057 171.38946132 48 183 C50.1886763 186.01998362 52.37640328 189.04064847 54.5625 192.0625 C55.09834717 192.80314697 55.63419434 193.54379395 56.1862793 194.30688477 C59.91346699 199.4690369 63.59082048 204.66448754 67.25 209.875 C72.03447327 216.68727221 76.95027466 223.38179936 82 230 C87.44668729 228.2174478 92.8054391 226.22810043 98.171875 224.21875 C107.20911455 221.18274611 115.8887268 220.7104393 125.375 220.8125 C127.11716797 220.8134668 127.11716797 220.8134668 128.89453125 220.81445312 C138.18508487 220.86278548 138.18508487 220.86278548 142 222 C142.12955078 221.17822266 142.12955078 221.17822266 142.26171875 220.33984375 C143.37935151 214.03393412 145.18419058 208.16815653 147.41088867 202.17944336 C148.32137924 199.62758996 149.027008 197.47223077 148.87109375 194.74609375 C147.74192295 192.4826886 146.39097174 191.45920839 144.375 189.9375 C135.26562168 182.21824225 131.24248332 172.7518214 130 161 C129.5529602 148.98580534 133.24984066 138.25126715 141 129.03125 C149.85173534 120.04120629 160.4869391 115.67903787 173.0625 115.5 C184.83238454 115.65415424 194.57250691 120.04904798 203.16015625 128 C212.56395526 137.84322887 215.53177441 148.57348925 215.26953125 161.82421875 C214.73947419 173.32097366 209.23509267 182.86882554 201.125 190.84375 C191.98410455 198.30881462 181.58516848 200.79445669 170 201 C169.76216797 202.0209375 169.76216797 202.0209375 169.51953125 203.0625 C167.40635001 211.84212595 164.75879753 220.40738161 162 229 C162.88171875 229.26683594 163.7634375 229.53367188 164.671875 229.80859375 C174.22866213 233.22974407 181.76917252 240.09275516 189 247 C189.61488281 247.54011719 190.22976563 248.08023437 190.86328125 248.63671875 C202.1760526 258.961248 209.18852814 274.43709306 213 289 C213.34933594 290.13953125 213.69867188 291.2790625 214.05859375 292.453125 C217.70103213 307.21422288 216.43794354 325.87200943 211 340 C210.62617188 341.03511719 210.25234375 342.07023437 209.8671875 343.13671875 C204.31477464 357.49577321 196.09225171 370.38821018 184 380 C183.09121094 380.73347656 182.18242187 381.46695312 181.24609375 382.22265625 C164.77058953 395.08944507 164.77058953 395.08944507 155.5625 395.625 C151.51762976 394.91537364 149.7636094 394.01484662 147 391 C146.1875 388.75 146.1875 388.75 146 387 C144.9275 387.33 143.855 387.66 142.75 388 C139 389 139 389 135 389 C135.103125 390.051875 135.20625 391.10375 135.3125 392.1875 C135 396 135 396 132.875 398.875 C129.62349322 401.27828762 128.03106012 402 124 402 C119.65013709 400.5500457 117.5674355 399.85115325 115 396 C114.92094936 393.66800612 114.91201231 391.33167378 115 389 C112.03 388.67 109.06 388.34 106 388 C105.67 389.32 105.34 390.64 105 392 C102.14834672 395.11089449 100.57489172 395.94287935 96.34375 396.36328125 C91.39904799 396.2447574 87.79624598 394.34068422 83.5625 391.9375 C82.81750244 391.52773926 82.07250488 391.11797852 81.30493164 390.69580078 C75.78276954 387.59595714 70.77093914 384.17457175 66 380 C64.99453125 379.18982422 64.99453125 379.18982422 63.96875 378.36328125 C58.5620262 373.90273412 53.97409914 368.7814687 50 363 C50 362.34 50 361.68 50 361 C49.18321777 361.4439209 48.36643555 361.8878418 47.52490234 362.34521484 C44.47422809 364.00028034 41.42127194 365.65097647 38.36669922 367.29882812 C37.04871085 368.01097482 35.73163729 368.72481745 34.41552734 369.44042969 C32.51641845 370.47264785 30.61403129 371.49858887 28.7109375 372.5234375 C27.56931152 373.14138184 26.42768555 373.75932617 25.25146484 374.39599609 C22.20784555 375.89746619 19.24320504 377.0162994 16 378 C16.34933594 379.07378906 16.69867188 380.14757812 17.05859375 381.25390625 C17.51852249 382.69001026 17.97814142 384.12621352 18.4375 385.5625 C18.78264648 386.61920898 18.78264648 386.61920898 19.13476562 387.69726562 C21.76838989 395.97982308 22.13557548 403.79772994 22.0625 412.4375 C22.05798828 413.45521484 22.05347656 414.47292969 22.04882812 415.52148438 C22.03712435 418.01438837 22.01984083 420.50715161 22 423 C22.96989365 423.15925713 22.96989365 423.15925713 23.9593811 423.32173157 C31.33032713 424.5898403 38.49299924 426.34613228 45.7109375 428.29296875 C48.11318082 428.92941564 50.51552762 429.56547209 52.91796875 430.20117188 C56.66513882 431.19753922 60.41132464 432.19726492 64.15576172 433.20385742 C67.79668413 434.18063818 71.44094887 435.14399091 75.0859375 436.10546875 C76.20680756 436.41058884 77.32767761 436.71570892 78.48251343 437.03007507 C79.52775177 437.30398575 80.57299011 437.57789642 81.64990234 437.86010742 C83.02243668 438.22745247 83.02243668 438.22745247 84.42269897 438.60221863 C87.27914732 439.04308368 89.24163983 438.83323955 92 438 C93.7168622 436.18115829 93.7168622 436.18115829 95.125 433.875 C99.18727299 428.32911427 103.96899994 425.18374681 110 422 C110.68449219 421.63777344 111.36898438 421.27554687 112.07421875 420.90234375 C120.99816706 417.13289604 133.84351633 417.55590457 142.9375 420.5 C154.96805471 425.78531282 163.15908053 434.03191696 168.4375 446 C171.72786675 456.02778438 171.64315529 468.78297519 167.3828125 478.48046875 C161.08562207 489.95416318 152.87711801 498.19657065 140.25 502.33984375 C127.65900487 504.89738964 115.81670256 503.57203357 104.6875 497.0625 C103.800625 496.381875 102.91375 495.70125 102 495 C100.515 493.9171875 100.515 493.9171875 99 492.8125 C90.09351911 485.14173505 85.86453816 473.45513067 85 462 C77.57004663 459.4028193 70.05651712 457.37558163 62.43359375 455.42578125 C61.15895767 455.09708542 59.88432159 454.76838959 58.57106018 454.42973328 C55.21323153 453.56387357 51.85444092 452.70180644 48.49542236 451.84057617 C45.05559369 450.95789391 41.61670674 450.07155829 38.17773438 449.18554688 C31.45273047 447.45349242 24.7267013 445.72545029 18 444 C17.57653542 444.82014587 17.57653542 444.82014587 17.14451599 445.65686035 C15.84944201 448.15896255 14.54783117 450.65760848 13.24609375 453.15625 C12.80213257 454.01637695 12.35817139 454.87650391 11.90075684 455.76269531 C8.56292808 462.15317315 4.93700474 467.71493185 0 473 C-0.80824219 473.89847656 -1.61648438 474.79695313 -2.44921875 475.72265625 C-9.22511875 482.9140129 -16.46388574 488.10920144 -25 493 C-25.84949219 493.48855469 -26.69898438 493.97710937 -27.57421875 494.48046875 C-32.25377726 496.873332 -35.84963149 497.33329194 -41.0546875 496.65234375 C-43.38962146 495.86934381 -44.47804127 494.91919954 -46 493 C-46 492.34 -46 491.68 -46 491 C-49.96 491.66 -53.92 492.32 -58 493 C-58.33 494.98 -58.66 496.96 -59 499 C-61.17670951 501.58484255 -62.81616546 502.77052483 -66.15625 503.41796875 C-70.42280979 503.68107327 -72.4421423 503.39514921 -76 500.875 C-78.15299098 497.78007546 -78.73991338 495.72790821 -79 492 C-83.02977818 491.65556254 -83.02977818 491.65556254 -87 492 C-89.42416001 494.32069965 -89.42416001 494.32069965 -91 497 C-94.1089219 498.55446095 -96.55020906 498.25463573 -100 498 C-102.75156947 497.07577111 -105.25437073 495.80067897 -107.8125 494.4375 C-108.51318604 494.07398438 -109.21387207 493.71046875 -109.93579102 493.3359375 C-115.62664679 490.32494433 -120.94403357 486.99856748 -126 483 C-126.74378906 482.41992188 -127.48757812 481.83984375 -128.25390625 481.2421875 C-137.89079906 473.23099661 -145.87475722 462.4380418 -151 451 C-151 450.34 -151 449.68 -151 449 C-171.79 449 -192.58 449 -214 449 C-214.33 450.98 -214.66 452.96 -215 455 C-219.76160852 466.45147174 -227.91019141 473.76628931 -239 479 C-250.30306148 482.95739506 -263.27733136 482.44327405 -274.16796875 477.5390625 C-284.90365093 471.70477453 -292.51638592 462.96655018 -296.3359375 451.2421875 C-299.01927988 438.14116295 -297.41386764 425.97272987 -290.4609375 414.44921875 C-283.4561768 404.57283814 -273.19857699 398.9577566 -261.50390625 396.46875 C-249.0294848 394.71235146 -237.904508 398.55733372 -227.6796875 405.59765625 C-220.19616415 411.61577483 -216.60451416 418.88420043 -214 428 C-195.52 427.67 -177.04 427.34 -158 427 C-158.33 421.39 -158.66 415.78 -159 410 C-157.44393242 386.6589863 -149.51305379 367.59582491 -134 350 C-135.51335655 345.14084916 -138.30322491 342.02963937 -141.625 338.3125 C-142.71098645 337.07410012 -143.79561616 335.8345092 -144.87890625 334.59375 C-145.41016113 333.98660156 -145.94141602 333.37945312 -146.48876953 332.75390625 C-149.22253319 329.5811505 -151.80057001 326.28744268 -154.37890625 322.98828125 C-155.83292987 321.20491252 -157.33948112 319.5898585 -159 318 C-159.60328125 318.33773438 -160.2065625 318.67546875 -160.828125 319.0234375 C-161.62734375 319.46945312 -162.4265625 319.91546875 -163.25 320.375 C-164.03890625 320.81585938 -164.8278125 321.25671875 -165.640625 321.7109375 C-166.41921875 322.13632812 -167.1978125 322.56171875 -168 323 C-168.67675781 323.37640625 -169.35351562 323.7528125 -170.05078125 324.140625 C-173.29020064 325.56882593 -176.56566674 325.57125543 -180 325 C-183 323.125 -183 323.125 -185 321 C-185 320.34 -185 319.68 -185 319 C-188.63 319.66 -192.26 320.32 -196 321 C-196.2475 321.9075 -196.495 322.815 -196.75 323.75 C-198.13150975 327.34192535 -198.77145764 328.90144747 -202 331 C-205.45031104 331.6246756 -208.55194918 331.64720695 -212 331 C-215.35124453 328.60625391 -216.67243114 327.13389222 -217.8125 323.1875 C-217.9053125 322.1046875 -217.9053125 322.1046875 -218 321 C-220.64 320.34 -223.28 319.68 -226 319 C-226.2475 319.598125 -226.495 320.19625 -226.75 320.8125 C-228.2542674 323.44496795 -229.32507908 324.5540968 -232 326 C-237.96850167 326.56878048 -241.69373006 325.16490661 -246.8125 322.4375 C-247.51246094 322.07470947 -248.21242187 321.71191895 -248.93359375 321.33813477 C-254.62506643 318.3289786 -259.92965077 314.97728482 -265 311 C-266.00546875 310.24009766 -266.00546875 310.24009766 -267.03125 309.46484375 C-282.59976903 296.89264683 -294.04812144 275.9987691 -296.76855469 256.32128906 C-299.35002877 230.43030221 -295.23881784 206.26763064 -278.984375 185.4140625 C-278.32953125 184.61742187 -277.6746875 183.82078125 -277 183 C-276.38640625 182.22398437 -275.7728125 181.44796875 -275.140625 180.6484375 C-267.24917352 171.15913014 -257.03469067 164.35346379 -246 159 C-244.61748047 158.32130859 -244.61748047 158.32130859 -243.20703125 157.62890625 C-235.03950452 153.91439005 -226.80010007 152.37361968 -218 151 C-218.01160156 149.78570312 -218.02320313 148.57140625 -218.03515625 147.3203125 C-218.12664006 132.85872262 -217.64578247 118.44594766 -217 104 C-217.59675537 103.8138916 -218.19351074 103.6277832 -218.80834961 103.43603516 C-230.42956968 99.70809584 -239.64789325 92.86518204 -245.375 81.8125 C-245.95874955 80.56043906 -246.49725536 79.28672762 -247 78 C-247.35449219 77.11957031 -247.70898438 76.23914063 -248.07421875 75.33203125 C-250.89694925 65.17258351 -250.23443843 52.99658222 -245.54296875 43.57421875 C-238.57607951 31.95097822 -230.12663585 24.73288707 -217 21 C-205.8355927 18.37308064 -194.02164862 20.23816937 -184.1875 26.125 C-174.1860675 33.08378419 -168.81657072 41.55028785 -165 53 C-163.8187422 65.74780827 -164.51035174 77.15890238 -172.25 87.75 C-179.04519598 95.81209693 -184.98431249 99.44741477 -195 104 C-195.66 119.51 -196.32 135.02 -197 151 C-192.71 151.66 -188.42 152.32 -184 153 C-181.1719608 153.8368173 -178.58310056 154.65933152 -175.875 155.75 C-174.8706189 156.14034424 -174.8706189 156.14034424 -173.84594727 156.53857422 C-167.95991877 158.88734293 -162.45497917 161.77928587 -157 165 C-154.66928387 166.33794714 -152.33441002 167.66850053 -150 169 C-149.0821875 168.07058594 -148.164375 167.14117187 -147.21875 166.18359375 C-135.87152781 154.73729622 -135.87152781 154.73729622 -130.078125 149.86328125 C-126.56683614 146.71500158 -123.30373407 143.30720827 -120.03466797 139.90966797 C-118.72591939 138.57015547 -117.36661933 137.28041719 -116 136 C-115.34 136 -114.68 136 -114 136 C-114.59167969 135.06800781 -115.18335938 134.13601562 -115.79296875 133.17578125 C-125.84356825 117.0769581 -131.61532932 100.93055983 -131.4375 81.75 C-131.42847656 80.57195801 -131.41945312 79.39391602 -131.41015625 78.18017578 C-130.98552432 56.66254256 -123.68039663 38.57585922 -110 22 C-108.824375 20.4221875 -108.824375 20.4221875 -107.625 18.8125 C-80.84139773 -9.88421672 -34.86701076 -18.73840848 0 0 Z M-112.82421875 162.80078125 C-114.68233568 164.67444728 -116.53912069 166.54943517 -118.39453125 168.42578125 C-120.64041334 170.64472622 -122.92326549 172.75093193 -125.3125 174.8125 C-130.38300146 179.17244784 -130.38300146 179.17244784 -135 184 C-134.75726628 187.86699926 -132.32382072 190.78388916 -130.25 193.9375 C-121.81286765 207.25779946 -118.72675258 221.4592268 -117 237 C-110.4 237 -103.8 237 -97 237 C-96.319375 235.205625 -95.63875 233.41125 -94.9375 231.5625 C-89.97069752 219.75069243 -82.73958711 212.75719602 -71.0625 207.625 C-60.70364121 204.15747765 -48.20028709 204.51470714 -38.1953125 208.859375 C-35.27751618 210.37538305 -32.61669848 212.00632497 -30 214 C-29.175 214.556875 -28.35 215.11375 -27.5 215.6875 C-20.01639351 222.609836 -15.31963246 232.15746166 -14.6171875 242.31640625 C-14.17529874 253.78740383 -15.69820932 263.70681186 -23 273 C-25.375 275.5625 -25.375 275.5625 -28 278 C-29.36125 279.2684375 -29.36125 279.2684375 -30.75 280.5625 C-40.53502367 288.59838732 -52.92087632 289.03366584 -65 288 C-71.39733546 286.58893058 -76.78346068 283.97450615 -82 280 C-82.804375 279.40703125 -83.60875 278.8140625 -84.4375 278.203125 C-87.11780361 275.89871763 -88.75543794 273.73788457 -90.625 270.75 C-91.19476563 269.85796875 -91.76453125 268.9659375 -92.3515625 268.046875 C-94 265 -94 265 -97 257 C-103.93 257 -110.86 257 -118 257 C-118.721875 259.413125 -119.44375 261.82625 -120.1875 264.3125 C-124.29855353 277.60575924 -129.90715381 290.50135907 -140.03125 300.3671875 C-141.19312797 302.01000166 -141.19312797 302.01000166 -141.00390625 304.27734375 C-139.58201166 308.13361041 -137.17578413 310.67161709 -134.4375 313.6875 C-133.33976503 314.92846744 -132.24341585 316.17066206 -131.1484375 317.4140625 C-130.61057617 318.0215332 -130.07271484 318.62900391 -129.51855469 319.25488281 C-127.45279772 321.62884275 -125.5035106 324.08603819 -123.5625 326.5625 C-120.88729431 329.9525832 -118.1494787 333.04736371 -115 336 C-113.9790625 335.43732422 -113.9790625 335.43732422 -112.9375 334.86328125 C-90.91761051 323.23841938 -66.65166323 319.83682003 -42.44628906 326.62792969 C-23.70536466 332.43151201 -6.41106907 343.80861821 5 360 C11.13038426 358.32525759 16.42004359 355.19066199 21.9375 352.125 C22.90107422 351.59519531 23.86464844 351.06539062 24.85742188 350.51953125 C29.93103075 347.72436464 34.98010473 344.8904543 40 342 C39.566875 340.50339844 39.566875 340.50339844 39.125 338.9765625 C32.24861594 313.22988783 34.70804254 287.127054 48 264 C49.95267532 260.94092275 52.08922176 258.05013096 54.3359375 255.19921875 C56.04623364 253.08097526 56.04623364 253.08097526 57.10546875 250.76953125 C58.29086717 248.42461648 59.67456411 248.12748407 62 247 C63.03298142 245.69205231 64.03724669 244.36047192 65 243 C64.45811035 242.27018921 64.45811035 242.27018921 63.90527344 241.52563477 C56.99056206 232.20300511 50.13728099 222.84673392 43.46948242 213.34570312 C38.27168668 205.94457801 32.96945594 198.62036007 27.66308594 191.296875 C25.39394447 188.16298144 23.12989839 185.02542158 20.86572266 181.88793945 C15.59234189 174.58084725 10.30873409 167.2814661 5 160 C1.96306079 160.52572225 -0.08375611 161.04653117 -2.8125 162.5625 C-7.07305947 164.48392878 -9.34294743 164.59137175 -14 164 C-14.804375 163.154375 -15.60875 162.30875 -16.4375 161.4375 C-18.67797888 158.78548729 -18.67797888 158.78548729 -21.19921875 158.85546875 C-24.64403785 159.23822643 -27.70823835 159.90274612 -31 161 C-31.80212628 162.87387216 -31.80212628 162.87387216 -32.1875 165.0625 C-32.42533203 166.16271484 -32.42533203 166.16271484 -32.66796875 167.28515625 C-32.77753906 167.85105469 -32.88710938 168.41695312 -33 169 C-39.07806891 170.79172099 -43.03241883 171.28545662 -49 169 C-49.99 165.04 -49.99 165.04 -51 161 C-55.455 160.01 -55.455 160.01 -60 159 C-60.61875 159.804375 -61.2375 160.60875 -61.875 161.4375 C-64.49099141 164.59207787 -65.21506114 164.87924017 -69.25 165.5 C-78.80236191 165.37842448 -88.7546789 157.82553162 -96.109375 152.28515625 C-101.77338715 148.43503229 -109.01960364 159.02773971 -112.82421875 162.80078125 Z " fill="#010100" transform="translate(297,9)"/>
<path d="M0 0 C13.72702063 11.92523308 24.59039663 28.6329386 26.18457031 47.14306641 C27.02016012 61.38716746 25.17967886 74.43556199 18 87 C17.29875 86.278125 16.5975 85.55625 15.875 84.8125 C8.57942442 77.59843923 1.69653318 74.20811891 -8 71 C-7.98952637 70.11328613 -7.97905273 69.22657227 -7.96826172 68.31298828 C-7.93387763 64.97686079 -7.90895575 61.64092562 -7.89013672 58.3046875 C-7.88016969 56.86943564 -7.86659113 55.43420358 -7.84912109 53.99902344 C-7.67767378 39.53693818 -8.66519447 29.49293272 -18.375 18.25 C-28.55707172 9.52250996 -38.60586477 7.89001581 -51.68554688 8.70556641 C-59.33491681 9.67868246 -66.16941987 14.11273047 -71 20 C-71.70125 20.825 -72.4025 21.65 -73.125 22.5 C-80.79790338 32.73053784 -80.27466207 43.83011956 -80.125 56.125 C-80.11494507 57.57291044 -80.10582368 59.02082768 -80.09765625 60.46875 C-80.07585344 63.97931037 -80.04146381 67.48961028 -80 71 C-81.00015137 71.2769873 -81.00015137 71.2769873 -82.02050781 71.55957031 C-92.0837048 74.44261947 -98.54303041 78.72183386 -105 87 C-108.4567313 84.31143121 -109.36873324 80.64195174 -110.625 76.625 C-110.8415625 75.965 -111.058125 75.305 -111.28125 74.625 C-116.9502865 57.05798566 -114.78563254 38.66109972 -106.4375 22.3125 C-96.58455788 4.21750849 -79.76562499 -8.12651699 -60.1875 -13.9375 C-39.18459261 -18.49473462 -17.01723915 -12.90291381 0 0 Z " fill="#C9D8DA" transform="translate(466,265)"/>
<path d="M0 0 C1.4540625 0.52787109 1.4540625 0.52787109 2.9375 1.06640625 C22.84082484 8.75863511 35.42794191 21.79035469 44.3046875 40.79296875 C45.31538287 43.17216041 46.194258 45.54460728 47 48 C47.33644531 48.98033203 47.33644531 48.98033203 47.6796875 49.98046875 C52.18185216 65.92306551 48.69224987 83.36389628 42 98 C41.01 98 40.02 98 39 98 C37.421875 96.390625 37.421875 96.390625 35.75 94.25 C31.05549955 88.69304435 26.7012163 86.42124015 19.76953125 84.39453125 C18.87468018 84.1313208 17.9798291 83.86811035 17.05786133 83.59692383 C16.37876709 83.39993896 15.69967285 83.2029541 15 83 C15.01047363 82.11328613 15.02094727 81.22657227 15.03173828 80.31298828 C15.06612237 76.97686079 15.09104425 73.64092562 15.10986328 70.3046875 C15.11983031 68.86943564 15.13340887 67.43420358 15.15087891 65.99902344 C15.32232622 51.53693818 14.33480553 41.49293272 4.625 30.25 C-3.98652379 22.86869389 -13.7280955 19.22627586 -25.171875 19.5859375 C-34.69196101 20.97976225 -43.97704451 25.94939845 -49.97265625 33.4765625 C-57.46104708 44.393929 -57.28058529 55.34352175 -57.125 68.125 C-57.11494507 69.57291044 -57.10582368 71.02082768 -57.09765625 72.46875 C-57.07585344 75.97931037 -57.04146381 79.48961028 -57 83 C-57.81476807 83.25539551 -58.62953613 83.51079102 -59.46899414 83.77392578 C-60.54270264 84.1192334 -61.61641113 84.46454102 -62.72265625 84.8203125 C-63.78492432 85.15820801 -64.84719238 85.49610352 -65.94165039 85.84423828 C-72.88495123 88.46813755 -77.57651667 93.19417813 -82 99 C-84.79310165 96.59681852 -85.84756392 94.32797623 -87.0625 90.875 C-87.54396484 89.54082031 -87.54396484 89.54082031 -88.03515625 88.1796875 C-93.60616841 69.82015755 -92.19323716 51.46780134 -83.4375 34.3125 C-79.3838142 26.8372121 -74.05485678 20.90784963 -68 15 C-67.42894531 14.40832031 -66.85789062 13.81664062 -66.26953125 13.20703125 C-49.76212286 -2.62140918 -21.22188255 -8.25663868 0 0 Z " fill="#C9D8DA" transform="translate(111,183)"/>
<path d="M0 0 C7.44691544 6.4694448 13.19346424 13.40091 18 22 C18.39832031 22.68707031 18.79664063 23.37414063 19.20703125 24.08203125 C26.88198748 38.19590208 28.40330429 56.57985708 24.25 72 C22.66364587 77.3539452 20.76799938 82.15600109 18 87 C17.29875 86.278125 16.5975 85.55625 15.875 84.8125 C8.57942442 77.59843923 1.69653318 74.20811891 -8 71 C-7.98952637 70.11328613 -7.97905273 69.22657227 -7.96826172 68.31298828 C-7.93387763 64.97686079 -7.90895575 61.64092562 -7.89013672 58.3046875 C-7.88016969 56.86943564 -7.86659113 55.43420358 -7.84912109 53.99902344 C-7.67767378 39.53693818 -8.66519447 29.49293272 -18.375 18.25 C-26.98652379 10.86869389 -36.7280955 7.22627586 -48.171875 7.5859375 C-57.69196101 8.97976225 -66.97704451 13.94939845 -72.97265625 21.4765625 C-80.46104708 32.393929 -80.28058529 43.34352175 -80.125 56.125 C-80.11494507 57.57291044 -80.10582368 59.02082768 -80.09765625 60.46875 C-80.07585344 63.97931037 -80.04146381 67.48961028 -80 71 C-81.00015137 71.2769873 -81.00015137 71.2769873 -82.02050781 71.55957031 C-92.0837048 74.44261947 -98.54303041 78.72183386 -105 87 C-108.4567313 84.31143121 -109.36873324 80.64195174 -110.625 76.625 C-110.8415625 75.965 -111.058125 75.305 -111.28125 74.625 C-116.71224611 57.795617 -115.02745265 39.97373494 -107.31469727 24.12817383 C-103.52855131 16.79660886 -98.93455424 10.77055965 -93 5 C-91.98873047 3.95779297 -91.98873047 3.95779297 -90.95703125 2.89453125 C-66.02469055 -21.28937145 -26.88244873 -20.38297257 0 0 Z " fill="#C9D8DA" transform="translate(300,35)"/>
<path d="M0 0 C1.35385043 1.1427939 2.68810167 2.30928103 4 3.5 C4.68320312 4.10328125 5.36640625 4.7065625 6.0703125 5.328125 C18.1951615 16.66923851 25.87419647 32.9903576 27.25 49.5 C27.5295076 62.63685707 24.81653329 74.40351563 20 86.5 C19.01 86.5 18.02 86.5 17 86.5 C15.421875 84.890625 15.421875 84.890625 13.75 82.75 C9.05549955 77.19304435 4.7012163 74.92124015 -2.23046875 72.89453125 C-3.12531982 72.6313208 -4.0201709 72.36811035 -4.94213867 72.09692383 C-5.62123291 71.89993896 -6.30032715 71.7029541 -7 71.5 C-6.98952637 70.6435791 -6.97905273 69.7871582 -6.96826172 68.90478516 C-6.93386366 65.6805117 -6.90894885 62.45633282 -6.89013672 59.23193359 C-6.88017397 57.84518324 -6.86659882 56.45845335 -6.84912109 55.07177734 C-6.68415281 41.63171461 -7.2232393 30.12385579 -16.5 19.6875 C-25.17870262 12.09363521 -34.37238616 7.53726437 -46.1640625 8.15625 C-56.67841678 9.43071719 -65.50328772 13.81061134 -72.1796875 22.2578125 C-77.04369319 29.66482531 -79.32065243 35.82226405 -79.1953125 44.7421875 C-79.19106766 45.89474533 -79.19106766 45.89474533 -79.18673706 47.07058716 C-79.17561311 49.50555521 -79.1505236 51.94014462 -79.125 54.375 C-79.11496011 56.03384882 -79.10583603 57.69270346 -79.09765625 59.3515625 C-79.07569937 63.40118579 -79.04122406 67.45052887 -79 71.5 C-79.81476807 71.75539551 -80.62953613 72.01079102 -81.46899414 72.27392578 C-82.54270264 72.6192334 -83.61641113 72.96454102 -84.72265625 73.3203125 C-85.78492432 73.65820801 -86.84719238 73.99610352 -87.94165039 74.34423828 C-95.00246998 77.01254832 -99.36164859 81.77027179 -104 87.5 C-104.66 87.5 -105.32 87.5 -106 87.5 C-106.79874865 85.35679273 -107.58861858 83.21027584 -108.375 81.0625 C-109.03628906 79.27005859 -109.03628906 79.27005859 -109.7109375 77.44140625 C-115.98331523 59.06497171 -113.93835334 40.83606776 -105.875 23.375 C-96.29140914 5.20483729 -80.56818125 -6.58832354 -61.23046875 -12.95703125 C-39.76955751 -18.18131612 -17.54072715 -13.16309301 0 0 Z " fill="#C9D8DA" transform="translate(272,366.5)"/>
<path d="M0 0 C0.7425 0.598125 1.485 1.19625 2.25 1.8125 C10.56590714 8.42742613 19.67541414 8.94805828 30 8 C34.58252746 7.05289576 38.16359215 4.91445677 42 2.3125 C45.96586518 -0.24637207 49.35454392 -0.79461749 54 0 C60.90971127 1.51874526 65.32877283 3.9295586 69.3125 10 C70.21102546 12.61389225 70.39013709 14.24059288 70 17 C67.76171875 19.24609375 67.76171875 19.24609375 64.6875 21.4375 C64.1507666 21.82437988 63.6140332 22.21125977 63.06103516 22.60986328 C58.6488595 25.72152657 54.01757805 28.31302653 49.1796875 30.7109375 C46.71687274 31.95472397 46.71687274 31.95472397 45 35 C44.75944532 37.05709596 44.75944532 37.05709596 44.875 39.1875 C44.91625 40.445625 44.9575 41.70375 45 43 C39.06 43.99 39.06 43.99 33 45 C32.67 46.98 32.34 48.96 32 51 C29.82329049 53.58484255 28.18383454 54.77052483 24.84375 55.41796875 C20.57719021 55.68107327 18.5578577 55.39514921 15 52.875 C12.84700902 49.78007546 12.26008662 47.72790821 12 44 C9.36 43.67 6.72 43.34 4 43 C3.92265625 42.11248047 3.92265625 42.11248047 3.84375 41.20703125 C3.17453705 36.38861786 3.17453705 36.38861786 0.47265625 32.5 C-1.63348265 31.19066212 -3.76871969 30.08314578 -6 29 C-20.47661651 21.45058967 -20.47661651 21.45058967 -24 17 C-24.90559586 13.04830899 -24.23786987 11.45744206 -22.375 7.875 C-16.819082 1.14941505 -8.62644359 -2.68378245 0 0 Z " fill="#9EDD6F" transform="translate(206,457)"/>
<path d="M0 0 C4.97696844 2.86522685 9.1852708 4.60578107 15 5 C16.25296875 5.09474609 16.25296875 5.09474609 17.53125 5.19140625 C26.23044494 5.57016333 32.92187019 3.45541781 39.75 -1.9375 C43.70011656 -4.57091104 46.62955297 -3.9446833 51.1875 -3.0625 C56.08951335 -1.90050125 59.3339876 -0.4895733 63 3 C64.7969629 6.29443198 66.06615298 8.68934406 65.875 12.4765625 C64.69627461 15.87592234 63.06464436 16.90140072 60.125 18.9375 C59.13886719 19.62328125 58.15273437 20.3090625 57.13671875 21.015625 C53.28869054 23.44999403 49.32628509 25.52797652 45.21484375 27.48046875 C42.46707824 29.36562005 41.88664197 30.82988348 41 34 C40.83201738 36.70886941 40.83201738 36.70886941 41 39 C37.34920174 40.61064629 33.9492568 41.44894091 30 42 C29.7525 42.9075 29.505 43.815 29.25 44.75 C27.86849025 48.34192535 27.22854236 49.90144747 24 52 C20.54968896 52.6246756 17.44805082 52.64720695 14 52 C10.64875547 49.60625391 9.32756886 48.13389222 8.1875 44.1875 C8.125625 43.465625 8.06375 42.74375 8 42 C5.36 41.34 2.72 40.68 0 40 C-0.07734375 39.11248047 -0.07734375 39.11248047 -0.15625 38.20703125 C-0.82546295 33.38861786 -0.82546295 33.38861786 -3.52734375 29.5 C-5.63348265 28.19066212 -7.76871969 27.08314578 -10 26 C-25.21540049 18.06532123 -25.21540049 18.06532123 -28 14 C-28.72433068 9.77890049 -27.46888629 6.78147715 -25.3125 3.1875 C-17.90893768 -3.81586976 -8.36316581 -5.97641757 0 0 Z " fill="#F45756" transform="translate(71,288)"/>
<path d="M0 0 C2.625 1.8125 2.625 1.8125 5 4 C13.31655491 8.15827745 23.62039781 9.76905636 32.71875 7.24609375 C36.57595098 5.76478916 39.7207733 4.20514615 43.0625 1.75 C47.17562061 -0.70036973 50.32755558 -0.73263928 55 0 C60.15110312 1.346397 63.94136929 2.83808824 67.5625 6.8125 C69.2370124 10.52554923 70.21973075 12.89835931 70 17 C65.36411888 22.46796235 58.77616223 25.51905452 52.51196289 28.84130859 C51.83125732 29.20691895 51.15055176 29.5725293 50.44921875 29.94921875 C49.83393311 30.27237061 49.21864746 30.59552246 48.5847168 30.9284668 C46.24379807 32.51131879 45.14365927 34.29119058 44.5859375 37.04296875 C44.51632812 37.75066406 44.44671875 38.45835937 44.375 39.1875 C44.189375 41.0746875 44.189375 41.0746875 44 43 C40.37 43.66 36.74 44.32 33 45 C33 46.65 33 48.3 33 50 C30.59981719 53.10611893 28.84552771 54.70590341 25.125 56 C21.09693738 56 18.52726138 54.89929459 15 53 C12.8480563 49.77208445 12.79913557 48.71599191 13 45 C11.700625 44.855625 10.40125 44.71125 9.0625 44.5625 C5.125 44.125 5.125 44.125 4 43 C3.80979364 41.58369416 3.62282984 40.1669522 3.4375 38.75 C2.84844535 36.04803192 2.46410652 34.4557764 0.4765625 32.50390625 C-1.6306706 31.19226115 -3.76679296 30.08408109 -6 29 C-21.01597218 21.1693211 -21.01597218 21.1693211 -24 17 C-24.28871557 11.61064269 -22.42731367 8.07572436 -19 4 C-13.01154947 0.38197781 -6.94649768 -0.92619969 0 0 Z " fill="#FCC24D" transform="translate(233,125)"/>
<path d="M0 0 C8.02794125 4.90139312 17.05583707 6.15261606 26.375 5.0625 C31.26474856 3.69365264 35.34497895 1.81925016 39.4375 -1.1875 C43.55062061 -3.63786973 46.70255558 -3.67013928 51.375 -2.9375 C56.52610312 -1.591103 60.31636929 -0.09941176 63.9375 3.875 C66.77743902 10.1722561 66.77743902 10.1722561 66.375 14.0625 C61.74035518 19.39234155 55.6987029 22.4572381 49.4375 25.5 C44.98996253 27.63640107 44.98996253 27.63640107 42.12890625 31.4296875 C41.72483749 33.00078716 41.35694072 34.58188114 41.03515625 36.171875 C40.81730469 36.79578125 40.59945312 37.4196875 40.375 38.0625 C36.41326946 39.86328661 33.71579495 40.0625 29.375 40.0625 C29.478125 41.114375 29.58125 42.16625 29.6875 43.25 C29.375 47.0625 29.375 47.0625 27.25 49.9375 C23.99849322 52.34078762 22.40606012 53.0625 18.375 53.0625 C14.02513709 51.6125457 11.9424355 50.91365325 9.375 47.0625 C9.29594936 44.73050612 9.28701231 42.39417378 9.375 40.0625 C6.405 39.7325 3.435 39.4025 0.375 39.0625 C0.16875 37.825 -0.0375 36.5875 -0.25 35.3125 C-1.09269266 32.02830738 -1.46787412 31.19998514 -4.125 28.875 C-6.04650043 27.87993728 -7.97407688 26.89536981 -9.92578125 25.9609375 C-15.94184033 23.06050466 -22.01945122 20.01425177 -26.625 15.0625 C-27.80195229 11.46406691 -27.67084578 10.2076783 -26.5 6.5 C-23.38863147 0.79582436 -20.15322952 -0.94143451 -14.0625 -2.75 C-7.92291648 -4.42752837 -5.20437872 -3.46676042 0 0 Z " fill="#51E4EC" transform="translate(402.625,357.9375)"/>
<path d="M0 0 C5.19626718 2.68850345 9.17554886 6.69070907 11.046875 12.3046875 C11.30806699 16.571219 11.2783241 20.84352325 11.296875 25.1171875 C11.3175 26.29345703 11.338125 27.46972656 11.359375 28.68164062 C11.39109577 35.69589691 11.28735635 40.79171112 6.328125 46.16796875 C5.7403125 46.64621094 5.1525 47.12445313 4.546875 47.6171875 C3.66515625 48.35388672 3.66515625 48.35388672 2.765625 49.10546875 C-1.36809482 51.98967781 -6.12417642 51.97667711 -10.953125 51.3046875 C-16.51863153 49.21518154 -19.64444845 46.16125654 -22.15258789 40.82421875 C-23.81021872 35.60715556 -23.56579094 30.22851064 -23.515625 24.8046875 C-23.55139648 23.02771484 -23.55139648 23.02771484 -23.58789062 21.21484375 C-23.57588711 14.03673883 -22.92089505 8.73009561 -17.953125 3.3046875 C-12.68864762 -1.0911779 -6.55840306 -2.33479149 0 0 Z " fill="#FCBA8D" transform="translate(234.953125,394.6953125)"/>
<path d="M0 0 C4.75178615 2.833308 8.32785808 6.03462241 10.83984375 11.05859375 C11.13973817 15.42753845 11.11806912 19.80558097 11.15234375 24.18359375 C11.18134766 25.3953125 11.21035156 26.60703125 11.24023438 27.85546875 C11.29141226 35.08336044 10.86251683 39.97393897 6.83984375 46.05859375 C1.80950011 50.06233665 -2.4190915 51.49757689 -8.74609375 51.39453125 C-12.92937777 50.8123914 -16.22399075 49.07649405 -19.16015625 46.05859375 C-23.79169817 39.03312874 -23.76716706 32.69126097 -23.66015625 24.43359375 C-23.675625 23.2321875 -23.69109375 22.03078125 -23.70703125 20.79296875 C-23.6721124 12.91876849 -23.05924048 9.07207654 -17.5625 3.4140625 C-12.24873694 -0.82277791 -6.51133141 -2.83766884 0 0 Z " fill="#FCBA8D" transform="translate(428.16015625,292.94140625)"/>
<path d="M0 0 C4.75178615 2.833308 8.32785808 6.03462241 10.83984375 11.05859375 C11.13973817 15.42753845 11.11806912 19.80558097 11.15234375 24.18359375 C11.18134766 25.3953125 11.21035156 26.60703125 11.24023438 27.85546875 C11.29141226 35.08336044 10.86251683 39.97393897 6.83984375 46.05859375 C1.80950011 50.06233665 -2.4190915 51.49757689 -8.74609375 51.39453125 C-12.92937777 50.8123914 -16.22399075 49.07649405 -19.16015625 46.05859375 C-23.79169817 39.03312874 -23.76716706 32.69126097 -23.66015625 24.43359375 C-23.675625 23.2321875 -23.69109375 22.03078125 -23.70703125 20.79296875 C-23.6721124 12.91876849 -23.05924048 9.07207654 -17.5625 3.4140625 C-12.24873694 -0.82277791 -6.51133141 -2.83766884 0 0 Z " fill="#FCBA8D" transform="translate(96.16015625,222.94140625)"/>
<path d="M0 0 C4.75178615 2.833308 8.32785808 6.03462241 10.83984375 11.05859375 C11.13973817 15.42753845 11.11806912 19.80558097 11.15234375 24.18359375 C11.18134766 25.3953125 11.21035156 26.60703125 11.24023438 27.85546875 C11.29141226 35.08336044 10.86251683 39.97393897 6.83984375 46.05859375 C1.80950011 50.06233665 -2.4190915 51.49757689 -8.74609375 51.39453125 C-12.92937777 50.8123914 -16.22399075 49.07649405 -19.16015625 46.05859375 C-23.79169817 39.03312874 -23.76716706 32.69126097 -23.66015625 24.43359375 C-23.675625 23.2321875 -23.69109375 22.03078125 -23.70703125 20.79296875 C-23.6721124 12.91876849 -23.05924048 9.07207654 -17.5625 3.4140625 C-12.24873694 -0.82277791 -6.51133141 -2.83766884 0 0 Z " fill="#FCBA8D" transform="translate(262.16015625,62.94140625)"/>
<path d="M0 0 C4.50334071 3.23992499 7.52260466 7.39203273 9.26953125 12.6328125 C10.20417795 20.657422 9.03372563 27.01786591 4.26953125 33.6328125 C2.11335545 35.72513799 -0.08680691 37.22162704 -2.73046875 38.6328125 C-3.49359375 39.0659375 -4.25671875 39.4990625 -5.04296875 39.9453125 C-11.61072333 41.62543577 -17.89213046 41.42745867 -23.84375 38.03515625 C-28.57299803 34.52004229 -33.46928351 29.51834361 -34.73046875 23.6328125 C-35.48094801 16.78320022 -34.90879024 11.25434252 -30.73046875 5.6328125 C-21.7411333 -3.88199558 -11.84124109 -6.52666832 0 0 Z " fill="#FBC14B" transform="translate(54.73046875,429.3671875)"/>
<path d="M0 0 C6.22574408 3.59514799 10.4545116 8.47024142 12.6875 15.3125 C13.76777587 22.17607091 12.59195158 27.59023817 8.6875 33.3125 C4.59450197 38.31505315 -0.33372949 41.68627062 -6.76953125 42.69921875 C-14.28877386 43.03417733 -19.32242122 40.75892809 -25.0625 36.0625 C-29.75892809 30.32242122 -32.03417733 25.28877386 -31.69921875 17.76953125 C-30.68627062 11.33372949 -27.31505315 6.40549803 -22.3125 2.3125 C-15.36030301 -2.43116909 -7.77966275 -3.58948658 0 0 Z " fill="#F35655" transform="translate(434.3125,449.6875)"/>
<path d="M0 0 C6.22574408 3.59514799 10.4545116 8.47024142 12.6875 15.3125 C13.76777587 22.17607091 12.59195158 27.59023817 8.6875 33.3125 C4.59450197 38.31505315 -0.33372949 41.68627062 -6.76953125 42.69921875 C-14.28877386 43.03417733 -19.32242122 40.75892809 -25.0625 36.0625 C-29.75892809 30.32242122 -32.03417733 25.28877386 -31.69921875 17.76953125 C-30.68627062 11.33372949 -27.31505315 6.40549803 -22.3125 2.3125 C-15.36030301 -2.43116909 -7.77966275 -3.58948658 0 0 Z " fill="#50E4EB" transform="translate(250.3125,235.6875)"/>
<path d="M0 0 C5.55528736 3.05322093 8.9441415 7.38828301 11.75 13 C12.41200757 20.6619237 12.63793117 27.72572577 7.75 34 C3.55081029 38.44795687 -0.6560442 41.53799671 -6.86328125 42.3359375 C-14.21246879 42.44229333 -19.54092247 41.48603723 -25.00390625 36.3515625 C-30.66430526 30.10466432 -31.76516405 24.59142979 -31.6328125 16.234375 C-30.92291368 10.23645436 -28.08410934 6.74005245 -23.8125 2.6875 C-15.79900004 -2.5896829 -8.9853195 -4.00550387 0 0 Z " fill="#9DDD6E" transform="translate(419.25,68)"/>
<path d="M0 0 C6.47735302 3.68320074 11.01005856 7.59513792 13.1875 14.8125 C14.19752299 21.88266095 13.52815496 28.01226808 9.1875 33.8125 C4.8324042 38.44623938 0.57102823 41.40093127 -5.86328125 42.18359375 C-13.23319951 42.33363999 -18.24286694 41.85420575 -23.8125 36.8125 C-28.61084769 32.11257996 -31.08232708 27.30886916 -31.25 20.5625 C-31.11409748 14.62276031 -29.55615664 10.42489992 -25.8125 5.8125 C-18.15199133 -1.26676384 -10.09782931 -3.14522552 0 0 Z " fill="#9DDD6E" transform="translate(98.8125,51.1875)"/>
<path d="M0 0 C5.97568887 3.32600357 9.32648676 7.13077427 11.6875 13.5625 C13.54853272 20.57309485 12.22867076 26.80391458 9.125 33.25 C4.98114487 37.8300504 -0.39527445 41.49513205 -6.66796875 42.11328125 C-13.12498695 42.28631841 -17.9617059 41.76593165 -23.25 37.875 C-28.66876785 32.45623215 -31.37328613 27.03134472 -31.6875 19.375 C-31.48582168 12.68294666 -29.28135436 9.30133993 -25 4.1875 C-17.13131336 -2.42935013 -9.55835078 -4.38209257 0 0 Z " fill="#0068AF" transform="translate(479.25,147.125)"/>
<path d="M0 0 C2.37929847 3.66045918 2.97336836 7.15700781 2.625 11.5 C0.85996686 14.42143417 -0.33347635 15.97923817 -3.375 17.5 C-8.15622289 18.15753556 -11.36303489 18.21680862 -15.375 15.375 C-17.64703763 12.1089459 -18.454619 10.48095021 -18.375 6.5 C-17.0391024 2.76573654 -15.40735715 0.16963707 -12.0625 -2 C-7.52810086 -2.84360914 -3.93158707 -2.48310762 0 0 Z " fill="#020201" transform="translate(236.375,494.5)"/>
<path d="M0 0 C2.86942113 2.26533247 3.83907612 3.51722837 5 7 C5.48577498 11.37197481 5.52821952 13.28535006 2.875 16.875 C-0.37650678 19.27828762 -1.96893988 20 -6 20 C-10.34986291 18.5500457 -12.4325645 17.85115325 -15 14 C-15.4606067 9.02544761 -15.16781812 5.93246387 -12 2 C-7.91061482 -1.40782099 -5.06737003 -1.38201001 0 0 Z " fill="#000101" transform="translate(427,391)"/>
<path d="M0 0 C2.86942113 2.26533247 3.83907612 3.51722837 5 7 C5.48577498 11.37197481 5.52821952 13.28535006 2.875 16.875 C-0.37650678 19.27828762 -1.96893988 20 -6 20 C-10.34986291 18.5500457 -12.4325645 17.85115325 -15 14 C-15.4606067 9.02544761 -15.16781812 5.93246387 -12 2 C-7.91061482 -1.40782099 -5.06737003 -1.38201001 0 0 Z " fill="#020100" transform="translate(261,161)"/>
<path d="M0 0 C2.86942113 2.26533247 3.83907612 3.51722837 5 7 C5.47043558 11.23392019 5.44127101 13.30867543 3.125 16.9375 C-1.26462449 19.83465216 -4.88467887 20.00464572 -10 19 C-13.1875 17.125 -13.1875 17.125 -15 14 C-15.41651638 9.22548819 -14.9804095 5.33989298 -12.125 1.4375 C-7.8912944 -1.42647732 -4.86423009 -1.10938581 0 0 Z " fill="#010000" transform="translate(95,321)"/>
</svg>
