<?xml version="1.0" encoding="UTF-8"?>
<svg version="1.1" xmlns="http://www.w3.org/2000/svg" width="512" height="512">
<path d="M0 0 C1.43224159 -0.01475876 1.43224159 -0.01475876 2.89341736 -0.02981567 C23.82566787 -0.20097687 44.26831455 -0.20915358 64.82421875 4.23828125 C66.49871094 4.60034668 66.49871094 4.60034668 68.20703125 4.96972656 C123.7727102 17.4343752 123.7727102 17.4343752 134.73828125 31.734375 C135.59569681 33.30128941 136.44298893 34.87381051 137.27734375 36.453125 C140.08469996 39.69292749 144.21480628 39.18099786 148.2734375 39.5625 C165.03265188 42.75209746 181.89194971 61.85070922 193.82421875 73.23828125 C194.69691406 74.06972656 195.56960938 74.90117188 196.46875 75.7578125 C201.90528539 81.06073105 206.85453539 86.6136879 211.53466797 92.59375 C212.45281333 93.76463738 213.37697329 94.93081909 214.30517578 96.09375 C231.73752722 117.95532531 245.15069547 142.01371315 254.82421875 168.23828125 C255.09717773 168.96273437 255.37013672 169.6871875 255.65136719 170.43359375 C263.72363736 192.06608044 268.74896063 215.58427264 269.19921875 238.67578125 C269.2254834 239.5052124 269.25174805 240.33464355 269.27880859 241.18920898 C269.29661664 247.97886938 267.65769531 253.32030738 262.859375 258.26171875 C262.20839844 258.70773437 261.55742187 259.15375 260.88671875 259.61328125 C260.23832031 260.07476562 259.58992188 260.53625 258.921875 261.01171875 C253.51466969 264.17347381 249.15297614 264.51215449 243.0234375 264.43359375 C241.76887505 264.42934891 241.76887505 264.42934891 240.4889679 264.42501831 C237.82973649 264.41386445 235.17084757 264.38876888 232.51171875 264.36328125 C230.70378092 264.35324524 228.89583779 264.34412048 227.08789062 264.3359375 C222.66653563 264.31394084 218.24543517 264.27944419 213.82421875 264.23828125 C213.83088058 265.35835068 213.83754242 266.4784201 213.84440613 267.63243103 C213.90533631 278.21050453 213.95024851 288.78854222 213.97965527 299.36675167 C213.99528202 304.80455299 214.01646567 310.24221213 214.05053711 315.67993164 C214.08323717 320.93190971 214.10109424 326.18375139 214.10885048 331.43582344 C214.11437489 333.43519804 214.12516262 335.43456554 214.14140892 337.43388176 C214.16332472 340.24376173 214.16617978 343.05308483 214.16479492 345.86303711 C214.18097366 347.09087669 214.18097366 347.09087669 214.19747925 348.34352112 C214.15956945 355.49583605 212.59639453 361.55470078 208.63671875 367.55078125 C203.59650538 372.36698514 198.17119817 374.83266164 191.19140625 375.33984375 C184.74302827 375.06318067 178.25134032 373.04487038 173.82421875 368.23828125 C168.36340964 360.95551484 168.10240298 354.21628284 168.15234375 345.33984375 C168.13286717 343.3357404 168.1133874 341.33163707 168.09371567 339.32753563 C168.07267969 336.54546699 168.0744142 333.76357913 168.07562256 330.98144531 C168.07237867 326.08683755 168.02965017 321.19238252 167.99188232 316.29794312 C167.97411539 313.69709327 167.96383681 311.09617945 167.96173096 308.49526978 C167.95792419 307.32330048 167.95411743 306.15133118 167.95019531 304.94384766 C167.94950043 303.39571884 167.94950043 303.39571884 167.9487915 301.8163147 C167.93481394 299.11994768 167.93481394 299.11994768 166.82421875 296.23828125 C165.17421875 296.56828125 163.52421875 296.89828125 161.82421875 297.23828125 C161.72625 298.37265625 161.62828125 299.50703125 161.52734375 300.67578125 C159.80903115 318.7360878 159.80903115 318.7360878 152.01171875 326.05078125 C145.91991591 330.98491676 139.63172434 333.23828125 131.82421875 333.23828125 C122.50959124 332.23805279 116.39812791 328.32183073 110.3046875 321.43359375 C106.19606432 315.34112349 106.55854893 308.99757953 106.62890625 301.93359375 C106.63092041 300.97638428 106.63293457 300.0191748 106.63500977 299.03295898 C106.64542979 295.4763506 106.67335225 291.91981083 106.69921875 288.36328125 C106.74046875 280.40203125 106.78171875 272.44078125 106.82421875 264.23828125 C80.75421875 264.23828125 54.68421875 264.23828125 27.82421875 264.23828125 C35.24921875 277.10828125 35.24921875 277.10828125 42.82421875 290.23828125 C64.07421875 327.07161458 85.32421875 363.90494792 106.57421875 400.73828125 C107.19361328 401.81174805 107.81300781 402.88521484 108.45117188 403.99121094 C109.69518804 406.14780831 110.93868168 408.30470719 112.18164062 410.46191406 C115.39386339 416.03527224 118.61615668 421.60250103 121.85546875 427.16015625 C125.54679985 433.49978241 129.19860676 439.86087623 132.82421875 446.23828125 C133.26362793 447.00188965 133.70303711 447.76549805 134.15576172 448.55224609 C138.37305297 455.94532564 141.64044658 462.54913371 139.82421875 471.23828125 C137.7643927 477.9644431 134.64143092 482.26389386 128.57421875 485.81640625 C97.08716182 502.09664591 61.40355699 512.25942785 25.8125 512.44140625 C24.88967224 512.44842056 23.96684448 512.45543488 23.01605225 512.46266174 C20.05622417 512.4800617 17.09659609 512.48651344 14.13671875 512.48828125 C12.62064529 512.48929337 12.62064529 512.48929337 11.07394409 512.49032593 C-3.53979035 512.47480332 -17.80714152 512.15088142 -32.17578125 509.23828125 C-33.08150879 509.06135742 -33.98723633 508.88443359 -34.92041016 508.70214844 C-96.96734426 496.3376071 -96.96734426 496.3376071 -107.83984375 480.87109375 C-108.50113281 479.66066406 -108.50113281 479.66066406 -109.17578125 478.42578125 C-110.38270425 476.06280453 -110.38270425 476.06280453 -112.17578125 474.23828125 C-115.39728899 473.37010475 -118.49293668 473.10124077 -121.8125 472.79296875 C-127.57761622 471.8421598 -131.58268481 468.69111107 -136.17578125 465.23828125 C-137.19285156 464.49191406 -138.20992188 463.74554688 -139.2578125 462.9765625 C-156.36918352 450.23432966 -171.93444593 435.9926239 -185.17578125 419.23828125 C-185.90152344 418.37976563 -186.62726563 417.52125 -187.375 416.63671875 C-215.57495404 383.26923387 -232.76461775 340.98252919 -240.17578125 298.23828125 C-240.41941406 296.954375 -240.66304687 295.67046875 -240.9140625 294.34765625 C-242.08640015 287.48908227 -242.39499752 280.68259761 -242.48828125 273.73828125 C-242.51498901 272.46355957 -242.51498901 272.46355957 -242.54223633 271.16308594 C-242.53559654 266.0249119 -241.78046568 262.78955166 -239.17578125 258.23828125 C-239.37752632 255.48109867 -240.00427379 253.59438835 -241.19921875 251.11328125 C-252.04917196 219.17101901 -230.59110168 170.10428499 -216.80200195 141.33081055 C-206.46092985 120.43780151 -193.23224142 101.13676194 -177.17578125 84.23828125 C-176.00197562 82.89029801 -174.83480693 81.53649354 -173.67578125 80.17578125 C-166.22725862 71.64826703 -158.05009054 64.24492545 -149.17578125 57.23828125 C-148.0227722 56.30681251 -146.87045767 55.37448359 -145.71875 54.44140625 C-128.24096909 40.3573923 -128.24096909 40.3573923 -118.42578125 39.42578125 C-113.95681757 39.06002167 -113.95681757 39.06002167 -110.61328125 36.44140625 C-110.22140625 35.69375 -109.82953125 34.94609375 -109.42578125 34.17578125 C-101.42330293 19.44555566 -73.06863877 13.49065301 -58.11328125 9.05078125 C-39.37691463 3.71552171 -19.50951195 0.16571999 0 0 Z " fill="#020100" transform="translate(243.17578125,-0.23828125)"/>
<path d="M0 0 C7.67013518 2.02579248 15.27170881 3.58929093 23.13671875 4.578125 C24.31948898 4.72837883 24.31948898 4.72837883 25.52615356 4.88166809 C29.42623606 5.36841518 33.32704333 5.81748725 37.23632812 6.22338867 C50.20493585 7.69275502 60.11972885 12.27377493 70.875 19.75 C72.35613281 20.76900391 72.35613281 20.76900391 73.8671875 21.80859375 C74.57101562 22.30488281 75.27484375 22.80117187 76 23.3125 C74.34587599 27.84374396 72.10298274 31.93114057 69.75 36.125 C69.31453857 36.90488281 68.87907715 37.68476562 68.43041992 38.48828125 C63.62754585 47.04603842 58.66206012 55.50867718 53.703125 63.9765625 C49.96365411 70.36531992 46.25874966 76.77366076 42.5625 83.1875 C41.94028564 84.26708984 41.31807129 85.34667969 40.67700195 86.45898438 C39.41488483 88.6493252 38.15292215 90.83975502 36.89111328 93.03027344 C33.76319852 98.45909942 30.63141552 103.88569281 27.5 109.3125 C26.24998121 111.47915583 24.99998122 113.6458225 23.75 115.8125 C21.25 120.14583333 18.75 124.47916667 16.25 128.8125 C15.63060547 129.88612793 15.01121094 130.95975586 14.37304688 132.06591797 C13.1295949 134.22121311 11.88610564 136.37648673 10.64257812 138.53173828 C7.75537125 143.53587674 4.8684957 148.5402052 1.98303223 153.54534912 C0.97380896 155.29591241 -0.03553836 157.04640411 -1.04492188 158.796875 C-2.3016766 160.97642165 -3.55820586 163.15609832 -4.81445312 165.3359375 C-8.85416442 172.34111283 -12.9193684 179.33108507 -17 186.3125 C-19.75746999 183.00711423 -22.02895473 179.72307543 -24.1015625 175.953125 C-24.66907227 174.92832031 -25.23658203 173.90351563 -25.82128906 172.84765625 C-26.41651367 171.76355469 -27.01173828 170.67945313 -27.625 169.5625 C-32.88005893 160.08321362 -38.2383318 150.68618147 -43.78369141 141.37451172 C-45.11659301 139.11483951 -46.42493876 136.84199518 -47.73046875 134.56640625 C-48.40964355 133.38981445 -48.40964355 133.38981445 -49.10253906 132.18945312 C-49.97047661 130.68468942 -50.83339483 129.17701551 -51.69042969 127.66601562 C-53.57287663 124.41805507 -54.82947913 122.42618058 -58 120.3125 C-61.12026907 119.98747197 -63.14747535 119.80098521 -65.875 121.4375 C-67.51334649 124.16807748 -67.23428078 126.16211539 -67 129.3125 C-65.91408214 132.08389692 -65.91408214 132.08389692 -64.2890625 134.76953125 C-63.70882324 135.79079102 -63.12858398 136.81205078 -62.53076172 137.86425781 C-61.58740967 139.4783252 -61.58740967 139.4783252 -60.625 141.125 C-59.98449707 142.24358398 -59.34399414 143.36216797 -58.68408203 144.51464844 C-56.80381421 147.78922456 -54.90593587 151.05281044 -53 154.3125 C-52.52111328 155.13347168 -52.04222656 155.95444336 -51.54882812 156.80029297 C-49.55422907 160.21342536 -47.54637531 163.61848642 -45.53125 167.01953125 C-42.44328855 172.24233336 -39.40277544 177.49212239 -36.375 182.75 C-35.84116699 183.66942383 -35.30733398 184.58884766 -34.75732422 185.53613281 C-34.2676416 186.38916992 -33.77795898 187.24220703 -33.2734375 188.12109375 C-32.61480713 189.26276001 -32.61480713 189.26276001 -31.94287109 190.42749023 C-31 192.3125 -31 192.3125 -31 194.3125 C-92.71 194.3125 -154.42 194.3125 -218 194.3125 C-219.64143179 172.97388671 -217.82850322 159.31446568 -209.0246582 140.25292969 C-204.7858043 130.92324132 -201.83280107 121.1312149 -199.17578125 111.24609375 C-195.4358283 97.43204788 -185.79052872 87.7539552 -175.625 78.1875 C-171.33136193 73.97850354 -167.96220051 69.26489153 -164.5 64.375 C-154.40140475 50.13055854 -143.41810518 37.57569438 -126 32.3125 C-121.89396762 33.57130968 -120.61835768 36.15395885 -118.6015625 39.7890625 C-117.96420166 40.9231958 -117.32684082 42.0573291 -116.67016602 43.22583008 C-115.98843124 44.46304635 -115.30670954 45.70026983 -114.625 46.9375 C-113.91526571 48.20604183 -113.20423119 49.47385702 -112.49194336 50.7409668 C-111.3994965 52.68462663 -110.30780761 54.6286659 -109.22001648 56.57493591 C-105.73973659 62.80058328 -102.1654109 68.96955037 -98.5625 75.125 C-97.99007568 76.10428467 -97.41765137 77.08356934 -96.82788086 78.0925293 C-93.47116521 83.82563763 -90.09693584 89.54807262 -86.6875 95.25 C-86.32019775 95.86528564 -85.95289551 96.48057129 -85.57446289 97.11450195 C-83.99596256 99.86903169 -83.99596256 99.86903169 -82 102.3125 C-77.98342857 102.54168242 -77.98342857 102.54168242 -74 102.3125 C-71.65786726 100.36858812 -71.65786726 100.36858812 -71.49609375 96.8671875 C-71.66705742 90.87672836 -74.97362605 86.38729391 -78.0625 81.4375 C-79.35135971 79.30404913 -80.63908044 77.16990986 -81.92578125 75.03515625 C-82.59689941 73.93316895 -83.26801758 72.83118164 -83.95947266 71.69580078 C-87.31065887 66.13935922 -90.52518904 60.50539925 -93.75 54.875 C-97.19212905 48.88663851 -100.63732659 42.90156977 -104.16796875 36.96484375 C-104.64073242 36.16941162 -105.11349609 35.37397949 -105.60058594 34.55444336 C-106.46572511 33.10364478 -107.33462372 31.65507863 -108.20800781 30.20922852 C-111 25.53041331 -111 25.53041331 -111 23.3125 C-109.58227539 22.13916016 -109.58227539 22.13916016 -107.59765625 20.8515625 C-106.87126953 20.37976563 -106.14488281 19.90796875 -105.39648438 19.421875 C-104.24116211 18.68710938 -104.24116211 18.68710938 -103.0625 17.9375 C-102.32708984 17.45539063 -101.59167969 16.97328125 -100.83398438 16.4765625 C-94.20500557 12.21548966 -87.36642462 8.25409962 -79.4375 7.25 C-78.32761719 7.09917969 -77.21773437 6.94835938 -76.07421875 6.79296875 C-72.95470845 6.41385884 -69.8311972 6.0765808 -66.70703125 5.73828125 C-54.77171884 4.40248468 -43.32193267 2.48041321 -31.72558594 -0.70605469 C-20.51051097 -3.67156134 -11.08494147 -3.10881326 0 0 Z " fill="#FAC949" transform="translate(274,54.6875)"/>
<path d="M0 0 C2.61712286 2.36271395 4.17321749 4.83435853 5.86328125 7.91796875 C6.41298584 8.9123999 6.96269043 9.90683105 7.52905273 10.93139648 C8.11759033 12.00591064 8.70612793 13.0804248 9.3125 14.1875 C10.57897199 16.4749321 11.84724656 18.76136697 13.1171875 21.046875 C13.44071701 21.62948593 13.76424652 22.21209686 14.09757996 22.81236267 C17.30026554 28.56634102 20.60616035 34.25733344 23.9375 39.9375 C28.79950811 48.23371877 33.63626878 56.54343338 38.4375 64.875 C39.06003662 65.95515381 39.68257324 67.03530762 40.32397461 68.14819336 C41.58576826 70.33796334 42.84740534 72.52782355 44.10888672 74.71777344 C47.23680148 80.14659942 50.36858448 85.57319281 53.5 91 C54.75001879 93.16665583 56.00001878 95.3333225 57.25 97.5 C58.178125 99.10875 58.178125 99.10875 59.125 100.75 C61 104 62.875 107.25 64.75 110.5 C65.6795752 112.11116699 65.6795752 112.11116699 66.62792969 113.75488281 C67.86838986 115.90514319 69.10862703 118.05553224 70.34863281 120.20605469 C73.26830662 125.26897509 76.19018475 130.33058332 79.12011719 135.38757324 C80.49918031 137.76812173 81.87695785 140.14941306 83.25463867 142.53076172 C84.22384658 144.2048265 85.19490565 145.87781912 86.16601562 147.55078125 C87.05063477 149.08025391 87.05063477 149.08025391 87.953125 150.640625 C88.47036133 151.53297852 88.98759766 152.42533203 89.52050781 153.34472656 C91.10496045 156.18837457 92.56451444 159.07871731 94 162 C79.60374621 173.96052398 66.85533749 178.79366788 48.4375 180.8125 C37.1732497 182.11098238 26.32012917 184.01897576 15.37084961 187.06958008 C2.86766828 190.4326988 -7.4324841 188.80388884 -19.8125 185.5 C-22.33789715 184.83629847 -24.86519974 184.17979654 -27.39453125 183.53125 C-28.49643799 183.23798828 -29.59834473 182.94472656 -30.73364258 182.64257812 C-34.81414489 181.83983636 -39.12869836 181.0341669 -42.9375 183 C-44.37386603 185.70374782 -44.45627584 188.03806846 -44.59375 191.0625 C-44.14698043 193.22777244 -44.14698043 193.22777244 -41.83349609 194.52294922 C-38.88727057 196.05876383 -36.30613876 196.84185486 -33.0703125 197.5703125 C-31.94496094 197.82683594 -30.81960937 198.08335937 -29.66015625 198.34765625 C-28.49355469 198.60417969 -27.32695312 198.86070312 -26.125 199.125 C-24.96613281 199.38925781 -23.80726563 199.65351563 -22.61328125 199.92578125 C-6.03201023 203.65893598 7.94260116 203.68060907 24.4921875 199.015625 C33.48634063 196.50113058 42.18919231 195.43160157 51.5 194.625 C67.91933438 193.13356755 80.00743453 188.90059638 94 180 C94.83015625 179.48695313 95.6603125 178.97390625 96.515625 178.4453125 C98.351419 177.30917426 100.17715756 176.15680385 102 175 C103.52304476 177.32083012 105.01733491 179.65356005 106.5 182 C106.92925781 182.64839844 107.35851562 183.29679688 107.80078125 183.96484375 C110.85432416 188.86020619 111.91422448 192.22595064 111 198 C93.64369758 217.46720406 46.98698894 223.90877693 22.07421875 225.84765625 C-19.66558357 227.91608356 -59.48320475 222.58269146 -98.0625 205.8125 C-98.80685303 205.49168457 -99.55120605 205.17086914 -100.31811523 204.84033203 C-107.56177187 201.56551282 -107.56177187 201.56551282 -110 198 C-111.03790954 191.70385754 -108.66049016 187.74931044 -105.5 182.5625 C-104.85611328 181.46518555 -104.85611328 181.46518555 -104.19921875 180.34570312 C-103.14632537 178.55578437 -102.07499718 176.77673146 -101 175 C-100.37996094 175.4125 -99.75992188 175.825 -99.12109375 176.25 C-93.58917546 179.8574227 -87.97084948 183.25044878 -82.1875 186.4375 C-81.25538696 186.96827148 -81.25538696 186.96827148 -80.30444336 187.50976562 C-76.37458543 189.63486615 -73.4576467 190.52821825 -69 190 C-66.41666667 188.58333333 -66.41666667 188.58333333 -65 186 C-64.81645691 182.51430531 -64.81645691 182.51430531 -66 179 C-68.35755999 177.31202442 -70.20889778 176.25996062 -72.8125 175.125 C-80.29868762 171.53379332 -86.53367506 167.20195973 -93 162 C-84.52876953 146.4001637 -75.94559439 130.85180052 -66.88842773 115.58325195 C-63.14652161 109.2716483 -59.47567329 102.92007734 -55.8125 96.5625 C-55.17449463 95.45527588 -54.53648926 94.34805176 -53.87915039 93.20727539 C-52.57110523 90.93662932 -51.26324552 88.66587642 -49.95556641 86.39501953 C-46.80667946 80.9283002 -43.65316736 75.46425113 -40.5 70 C-39.2499765 67.83334689 -37.99997653 65.66668021 -36.75 63.5 C-34.25 59.16666667 -31.75 54.83333333 -29.25 50.5 C-28.6302832 49.42580811 -28.01056641 48.35161621 -27.37207031 47.24487305 C-26.13189239 45.09526366 -24.89165873 42.94568642 -23.65136719 40.79614258 C-20.7264977 35.72690788 -17.80219167 30.65735064 -14.87988281 25.5866394 C-13.50193062 23.19573403 -12.12365828 20.80501328 -10.74536133 18.41430664 C-9.77459018 16.73016037 -8.80428126 15.04574769 -7.83398438 13.36132812 C-7.24423828 12.33845703 -6.65449219 11.31558594 -6.046875 10.26171875 C-5.52963867 9.36412842 -5.01240234 8.46653809 -4.47949219 7.54174805 C-3.0082728 5.01421255 -1.51048171 2.5042345 0 0 Z " fill="#FBB000" transform="translate(256,271)"/>
<path d="M0 0 C14.81016729 2.0625378 27.2630375 12.87743777 36 24.25 C38.08873984 27.02257756 40.1408456 29.82131659 42.18554688 32.62646484 C47.09419721 39.33400076 52.22260998 45.38456692 58.1875 51.1875 C69.00603003 61.75500666 75.38088174 72.4174094 78.6875 87.3125 C80.28738323 94.46450547 82.95784039 100.94149935 85.9375 107.625 C86.37843994 108.62096191 86.81937988 109.61692383 87.27368164 110.64306641 C89.59115654 115.86551124 89.59115654 115.86551124 91.94677734 121.07080078 C97.88423549 134.24420253 96.71538542 147.9816454 95 162 C93.75283203 162.05607422 93.75283203 162.05607422 92.48046875 162.11328125 C90.85044922 162.21189453 90.85044922 162.21189453 89.1875 162.3125 C87.56908203 162.39951172 87.56908203 162.39951172 85.91796875 162.48828125 C82.68575768 163.05510809 81.95837643 163.47196127 80 166 C79.5554603 167.98903985 79.5554603 167.98903985 79.62818909 170.2061615 C79.62143158 171.06274857 79.61467407 171.91933563 79.60771179 172.80187988 C79.61543106 173.73858521 79.62315033 174.67529053 79.63110352 175.64038086 C79.62733704 176.62925797 79.62357056 177.61813507 79.61968994 178.63697815 C79.61324905 180.7862802 79.61359536 182.93561072 79.61987495 185.08491325 C79.62895943 188.48474628 79.61879147 191.88402477 79.60325623 195.28382874 C79.56308108 204.9505219 79.56195645 214.61717283 79.56420898 224.28393555 C79.56426001 230.19433118 79.54513021 236.10442806 79.51487541 242.0147419 C79.50401928 245.36743823 79.51619953 248.71957183 79.52870178 252.07225037 C79.51979985 254.12491417 79.50972634 256.17757335 79.49829102 258.23022461 C79.50803452 259.1649057 79.51777802 260.09958679 79.52781677 261.06259155 C79.45762969 267.36071982 79.45762969 267.36071982 77.15635681 270.57545471 C74.17226531 272.54682302 72.50274934 272.6567655 69 272 C66.42699854 269.42783529 65.12770583 267.75339895 64.5146637 264.13676453 C64.52086227 263.08833878 64.52706085 262.03991302 64.53344727 260.9597168 C64.5298671 259.76465012 64.52628693 258.56958344 64.52259827 257.33830261 C64.5370549 256.05490494 64.55151154 254.77150726 64.56640625 253.44921875 C64.5641174 252.10788853 64.5593519 250.76656046 64.55223083 249.42524719 C64.53063007 244.46175707 64.54783226 239.49860517 64.57373047 234.53515625 C64.59523004 230.33891824 64.59694013 226.14365065 64.57081413 221.94742775 C64.56649859 219.99107671 64.59110821 218.03472996 64.61634827 216.07853699 C64.57630879 208.91482431 64.12670352 203.35441154 59 198 C56.71730885 196.3230653 54.58711401 195.2203368 52 194 C51.34 193.67 50.68 193.34 50 193 C43.57999273 192.18750945 38.23190551 193.07892049 33 197 C26.99162268 203.56001494 26.82470582 209.55760874 26.57421875 218.23828125 C25.92598377 222.48488182 24.67702031 224.68109192 22 228 C18.10145984 230.3180509 14.46866379 230.47878541 10 230 C6.4664184 227.801327 4.55892012 225.82266971 3 222 C2.75949097 219.77264404 2.75949097 219.77264404 2.77294922 217.32324219 C2.77310028 216.40258972 2.77325134 215.48193726 2.77340698 214.53338623 C2.78372955 213.54783752 2.79405212 212.56228882 2.8046875 211.546875 C2.8075174 210.53151672 2.81034729 209.51615845 2.81326294 208.47003174 C2.82444999 205.22990084 2.84955209 201.99004724 2.875 198.75 C2.8850317 196.55208733 2.89415722 194.35417032 2.90234375 192.15625 C2.92438449 186.77073886 2.95784749 181.38538924 3 176 C4.1175341 175.99120064 4.1175341 175.99120064 5.25764465 175.98222351 C12.27652789 175.92433561 19.29508897 175.85228187 26.31364918 175.76428509 C29.92204877 175.71954449 33.53033451 175.68029695 37.13891602 175.65356445 C40.62099585 175.62756759 44.10263839 175.58719205 47.58444786 175.53681374 C49.56025199 175.51199236 51.5362252 175.50209061 53.51216125 175.49235535 C55.31368904 175.46266411 55.31368904 175.46266411 57.15161133 175.43237305 C58.21084305 175.42126999 59.27007477 175.41016693 60.36140442 175.39872742 C63.01563518 175.20485243 63.01563518 175.20485243 64.84208679 173.66047668 C66.64972255 171.06828151 66.38315868 169.06526942 66 166 C64.92392658 164.21642764 64.92392658 164.21642764 63 163 C60.10904155 162.53845675 60.10904155 162.53845675 56.75483704 162.60127258 C55.44651917 162.58873444 54.13820129 162.57619629 52.79023743 162.5632782 C51.33712744 162.56445231 49.88401765 162.56591149 48.4309082 162.56762695 C46.90338343 162.55861256 45.37586591 162.54828614 43.84835815 162.53674316 C39.69782276 162.50910889 35.54742436 162.49987998 31.39680886 162.49388909 C27.06056021 162.48452209 22.72441457 162.45832012 18.38822937 162.43388367 C10.17538683 162.39016879 1.96256423 162.36165251 -6.25035936 162.33856028 C-15.599766 162.3115353 -24.94906927 162.26762217 -34.29840219 162.22227156 C-53.5322136 162.12935387 -72.76605235 162.0577058 -92 162 C-90.7282356 158.06804528 -89.38267032 154.63344163 -87.26953125 151.078125 C-86.44787476 149.68424561 -86.44787476 149.68424561 -85.60961914 148.26220703 C-85.01656982 147.26817871 -84.42352051 146.27415039 -83.8125 145.25 C-82.53580222 143.08632451 -81.25978329 140.92224834 -79.984375 138.7578125 C-79.32501953 137.64180664 -78.66566406 136.52580078 -77.98632812 135.37597656 C-74.81074644 129.9787367 -71.6862344 124.55236 -68.5625 119.125 C-67.30341652 116.94008624 -66.04430177 114.75519051 -64.78515625 112.5703125 C-64.16012207 111.48524414 -63.53508789 110.40017578 -62.89111328 109.28222656 C-59.76319852 103.85340058 -56.63141552 98.42680719 -53.5 93 C-52.24998121 90.83334417 -50.99998122 88.6666775 -49.75 86.5 C-27.25 47.5 -27.25 47.5 -25.37158203 44.24414062 C-24.13289998 42.09704864 -22.8942921 39.94991386 -21.65576172 37.80273438 C-18.7146665 32.70411191 -15.77278587 27.60594704 -12.82830811 22.50927734 C-11.43041399 20.08952335 -10.03293911 17.66952737 -8.63549805 15.24951172 C-7.64347676 13.53198948 -6.65084571 11.81481948 -5.65820312 10.09765625 C-5.06201172 9.06511719 -4.46582031 8.03257813 -3.8515625 6.96875 C-3.32385254 6.05544922 -2.79614258 5.14214844 -2.25244141 4.20117188 C-1.46663489 2.82011309 -0.71060752 1.42121505 0 0 Z " fill="#FBDD80" transform="translate(362,87)"/>
<path d="M0 0 C61.71 0 123.42 0 187 0 C185.57181199 4.28456404 184.48701477 7.1910008 182.26953125 10.921875 C181.72176025 11.85112793 181.17398926 12.78038086 180.60961914 13.73779297 C179.72004517 15.22883545 179.72004517 15.22883545 178.8125 16.75 C177.53580222 18.91367549 176.25978329 21.07775166 174.984375 23.2421875 C174.32501953 24.35819336 173.66566406 25.47419922 172.98632812 26.62402344 C169.81074644 32.0212633 166.6862344 37.44764 163.5625 42.875 C162.30341652 45.05991376 161.04430177 47.24480949 159.78515625 49.4296875 C158.84760498 51.05729004 158.84760498 51.05729004 157.89111328 52.71777344 C154.76319852 58.14659942 151.63141552 63.57319281 148.5 69 C147.24998121 71.16665583 145.99998122 73.3333225 144.75 75.5 C122.25 114.5 122.25 114.5 120.37158203 117.75585938 C119.13289998 119.90295136 117.8942921 122.05008614 116.65576172 124.19726562 C113.7146665 129.29588809 110.77278587 134.39405296 107.82830811 139.49072266 C106.43041399 141.91047665 105.03293911 144.33047263 103.63549805 146.75048828 C102.64347676 148.46801052 101.65084571 150.18518052 100.65820312 151.90234375 C100.06201172 152.93488281 99.46582031 153.96742188 98.8515625 155.03125 C98.32385254 155.94455078 97.79614258 156.85785156 97.25244141 157.79882812 C96.46663489 159.17988691 95.71060752 160.57878495 95 162 C80.15029188 159.93195554 67.70625704 149.07665086 58.9375 137.6875 C56.53568594 134.50554645 54.19984805 131.28268469 51.8984375 128.02734375 C47.48571635 121.88754634 42.78135156 116.64686848 37.375 111.375 C26.30145454 100.51396199 20.89473467 90.25554943 16.67578125 75.359375 C14.12778946 66.41790155 11.29153125 57.94704413 7.375 49.5 C6.79165894 48.23663818 6.79165894 48.23663818 6.1965332 46.94775391 C5.82101318 46.13483887 5.44549316 45.32192383 5.05859375 44.484375 C-2.10868921 28.95364548 -1.41810853 17.0173024 0 0 Z " fill="#F7AE02" transform="translate(56,263)"/>
<path d="M0 0 C3.69128501 3.30054088 5.88632809 6.9110047 8.25 11.1875 C8.61351562 11.82880859 8.97703125 12.47011719 9.3515625 13.13085938 C12 17.84527726 12 17.84527726 12 19 C11.02160156 19.14695312 11.02160156 19.14695312 10.0234375 19.296875 C1.16739229 20.81206858 -3.51168963 23.8650664 -8.80078125 31.09765625 C-11.72567636 35.73747357 -11.63613986 40.7088132 -11 46 C-8.86610339 53.10951896 -5.38858711 57.14475896 0.9140625 60.94140625 C5.60315379 63.32107618 9.84532075 63.69679228 15 63 C21.56034806 60.74518408 26.04442905 57.6696517 30 52 C33.25353972 54.98594221 35.34492367 58.0049615 37.50390625 61.84765625 C37.98409462 62.69531052 37.98409462 62.69531052 38.47398376 63.56008911 C39.50952278 65.39089619 40.53602657 67.22659755 41.5625 69.0625 C42.27404008 70.3243693 42.98628425 71.58584183 43.69921875 72.84692383 C44.77324988 74.74685479 45.84685217 76.64701005 46.91799927 78.54856873 C50.51374799 84.92913773 54.19631358 91.25834337 57.90063477 97.57641602 C61 102.89348766 61 102.89348766 61 104 C60.443125 104.01417969 59.88625 104.02835937 59.3125 104.04296875 C51.65640002 104.521475 46.22152868 107.23287544 41.125 113 C37.4505953 118.18739487 36.10122744 122.6198244 37 129 C38.85292155 135.48021752 41.60743883 139.97368623 46 145 C36.51976163 147.53750946 27.19919386 149.3188662 17.4375 150.375 C8.96456339 151.29285092 1.02099624 152.91388789 -7.1875 155.1875 C-26.48305317 160.32903142 -42.3822 158.11090352 -61.39355469 152.70898438 C-64.78132795 151.78746943 -68.18019612 151.1123363 -71.625 150.4375 C-76.64831651 149.3241882 -79.46942015 147.73232727 -83 144 C-74.52876953 128.4001637 -65.94559439 112.85180052 -56.88842773 97.58325195 C-53.14652161 91.2716483 -49.47567329 84.92007734 -45.8125 78.5625 C-45.17449463 77.45527588 -44.53648926 76.34805176 -43.87915039 75.20727539 C-42.57110523 72.93662932 -41.26324552 70.66587642 -39.95556641 68.39501953 C-36.18823572 61.85463244 -32.41515691 55.31755899 -28.64160156 48.78076172 C-25.7593164 43.78696488 -22.87916963 38.79198766 -20.0080719 33.79174805 C-6.44902888 10.17833951 -6.44902888 10.17833951 0 0 Z " fill="#FCDD80" transform="translate(246,289)"/>
<path d="M0 0 C16.07519123 6.32352623 27.38221123 14.36195491 37.25 28.6875 C43.83752657 38.02467751 51.03123605 46.17441069 59.25 54.125 C68.70678686 63.52376977 73.81959672 74.3936579 76.6875 87.3125 C78.28738323 94.46450547 80.95784039 100.94149935 83.9375 107.625 C84.37843994 108.62096191 84.81937988 109.61692383 85.27368164 110.64306641 C87.59115654 115.86551124 87.59115654 115.86551124 89.94677734 121.07080078 C95.88423549 134.24420253 94.71538542 147.9816454 93 162 C91.75283203 162.05607422 91.75283203 162.05607422 90.48046875 162.11328125 C88.85044922 162.21189453 88.85044922 162.21189453 87.1875 162.3125 C85.56908203 162.39951172 85.56908203 162.39951172 83.91796875 162.48828125 C80.68575768 163.05510809 79.95837643 163.47196127 78 166 C77.5554603 167.98903985 77.5554603 167.98903985 77.62818909 170.2061615 C77.62143158 171.06274857 77.61467407 171.91933563 77.60771179 172.80187988 C77.61543106 173.73858521 77.62315033 174.67529053 77.63110352 175.64038086 C77.62733704 176.62925797 77.62357056 177.61813507 77.61968994 178.63697815 C77.61324905 180.7862802 77.61359536 182.93561072 77.61987495 185.08491325 C77.62895943 188.48474628 77.61879147 191.88402477 77.60325623 195.28382874 C77.56308108 204.9505219 77.56195645 214.61717283 77.56420898 224.28393555 C77.56426001 230.19433118 77.54513021 236.10442806 77.51487541 242.0147419 C77.50401928 245.36743823 77.51619953 248.71957183 77.52870178 252.07225037 C77.51979985 254.12491417 77.50972634 256.17757335 77.49829102 258.23022461 C77.50803452 259.1649057 77.51777802 260.09958679 77.52781677 261.06259155 C77.45762969 267.36071982 77.45762969 267.36071982 75.15635681 270.57545471 C72.17226531 272.54682302 70.50274934 272.6567655 67 272 C64.42699854 269.42783529 63.12770583 267.75339895 62.5146637 264.13676453 C62.52086227 263.08833878 62.52706085 262.03991302 62.53344727 260.9597168 C62.5298671 259.76465012 62.52628693 258.56958344 62.52259827 257.33830261 C62.5370549 256.05490494 62.55151154 254.77150726 62.56640625 253.44921875 C62.5641174 252.10788853 62.5593519 250.76656046 62.55223083 249.42524719 C62.53063007 244.46175707 62.54783226 239.49860517 62.57373047 234.53515625 C62.59523004 230.33891824 62.59694013 226.14365065 62.57081413 221.94742775 C62.56649859 219.99107671 62.59110821 218.03472996 62.61634827 216.07853699 C62.57630879 208.91482431 62.12670352 203.35441154 57 198 C54.71730885 196.3230653 52.58711401 195.2203368 50 194 C49.34 193.67 48.68 193.34 48 193 C41.57999273 192.18750945 36.23190551 193.07892049 31 197 C24.99162268 203.56001494 24.82470582 209.55760874 24.57421875 218.23828125 C23.92598377 222.48488182 22.67702031 224.68109192 20 228 C16.10145984 230.3180509 12.46866379 230.47878541 8 230 C4.4664184 227.801327 2.55892012 225.82266971 1 222 C0.75949097 219.77264404 0.75949097 219.77264404 0.77294922 217.32324219 C0.77310028 216.40258972 0.77325134 215.48193726 0.77340698 214.53338623 C0.78372955 213.54783752 0.79405212 212.56228882 0.8046875 211.546875 C0.8075174 210.53151672 0.81034729 209.51615845 0.81326294 208.47003174 C0.82444999 205.22990084 0.84955209 201.99004724 0.875 198.75 C0.8850317 196.55208733 0.89415722 194.35417032 0.90234375 192.15625 C0.92438449 186.77073886 0.95784749 181.38538924 1 176 C2.1175341 175.99120064 2.1175341 175.99120064 3.25764465 175.98222351 C10.27652789 175.92433561 17.29508897 175.85228187 24.31364918 175.76428509 C27.92204877 175.71954449 31.53033451 175.68029695 35.13891602 175.65356445 C38.62099585 175.62756759 42.10263839 175.58719205 45.58444786 175.53681374 C47.56025199 175.51199236 49.5362252 175.50209061 51.51216125 175.49235535 C53.31368904 175.46266411 53.31368904 175.46266411 55.15161133 175.43237305 C56.21084305 175.42126999 57.27007477 175.41016693 58.36140442 175.39872742 C61.01563518 175.20485243 61.01563518 175.20485243 62.84208679 173.66047668 C64.64972255 171.06828151 64.38315868 169.06526942 64 166 C62.92392658 164.21642764 62.92392658 164.21642764 61 163 C58.10904155 162.53845675 58.10904155 162.53845675 54.75483704 162.60127258 C53.44651917 162.58873444 52.13820129 162.57619629 50.79023743 162.5632782 C49.33712744 162.56445231 47.88401765 162.56591149 46.4309082 162.56762695 C44.90338343 162.55861256 43.37586591 162.54828614 41.84835815 162.53674316 C37.69782276 162.50910889 33.54742436 162.49987998 29.39680886 162.49388909 C25.06056021 162.48452209 20.72441457 162.45832012 16.38822937 162.43388367 C8.17538683 162.39016879 -0.03743577 162.36165251 -8.25035936 162.33856028 C-17.599766 162.3115353 -26.94906927 162.26762217 -36.29840219 162.22227156 C-55.5322136 162.12935387 -74.76605235 162.0577058 -94 162 C-92.48525928 157.18285158 -90.58417449 153.30695748 -88 149 C-73.89180565 148.95323903 -59.78362335 148.91812413 -45.67536736 148.89637566 C-39.12437121 148.8859376 -32.57342712 148.87177785 -26.02246094 148.84912109 C-19.70066948 148.82739372 -13.37892811 148.81543154 -7.0571022 148.81024551 C-4.64497209 148.80654959 -2.23284473 148.79933244 0.17926407 148.78853989 C3.55723244 148.77402659 6.93499375 148.77202202 10.31298828 148.77294922 C11.31064713 148.76575867 12.30830597 148.75856812 13.3361969 148.75115967 C18.33517794 148.7660116 22.29151423 149.12902555 27 151 C37.93579271 152.13859343 48.22174667 150.59486878 57.375 144.25 C64.43020904 138.39505474 70.15135479 130.31728848 71.22753906 121.03808594 C71.85634447 112.37322645 71.76982306 104.53565797 67 97 C66.4225 95.96875 65.845 94.9375 65.25 93.875 C59.94759721 87.09970755 54.03182337 82.99334158 46 80 C46.33 79.34 46.66 78.68 47 78 C46.62625264 76.10576972 46.62625264 76.10576972 45.890625 74 C45.63224854 73.20021729 45.37387207 72.40043457 45.10766602 71.57641602 C44.82463623 70.72619873 44.54160645 69.87598145 44.25 69 C43.68005816 67.2594193 43.11103726 65.51853675 42.54296875 63.77734375 C42.13377197 62.52800049 42.13377197 62.52800049 41.71630859 61.25341797 C40.90807656 58.71082026 40.22842335 56.14560397 39.5625 53.5625 C37.04051953 45.12640158 32.20558228 37.57745513 25.75 31.640625 C23.8537476 29.86288837 22.18869572 27.97517089 20.5 26 C18.28951072 23.42519846 16.02192387 21.02423152 13.5625 18.6875 C9.0992553 14.30540521 5.36206203 9.26577507 2 4 C2 3.34 2 2.68 2 2 C1.34 2 0.68 2 0 2 C0 1.34 0 0.68 0 0 Z " fill="#F9AE00" transform="translate(364,87)"/>
<path d="M0 0 C47.19 0 94.38 0 143 0 C141.02 3.96 139.04 7.92 137 12 C134.81901042 10.50260417 132.63802083 9.00520833 130.45703125 7.5078125 C125.41690604 4.41482629 120.90557335 3.18862557 115 4 C106.62479575 6.1617606 101.98385204 9.98170338 97.625 17.3125 C96.00636711 24.27262142 96.45382262 30.54749508 99.671875 36.9609375 C103.43939754 42.74519269 108.65995555 45.67100408 115 48 C113.43358249 52.30764815 111.31663844 56.06171464 109 60 C104.96421527 58.43776075 101.02773677 56.68489803 97.0859375 54.90234375 C89.35323298 51.55729741 78.49206547 51.63581495 70.5625 54.5625 C59.72776079 59.78866832 53.4337366 67.28664926 49.125 78.4375 C46.32927379 87.8897172 47.69317419 97.52271233 52.13671875 106.2265625 C56.85744021 114.17881884 63.43847936 118.90515017 71 124 C69.42986223 129.96652354 66.24970218 134.82909025 63 140 C59.68611233 138.60987482 58.11662061 137.17019501 56.109375 134.2109375 C55.57256104 133.44193115 55.03574707 132.6729248 54.48266602 131.88061523 C53.91088623 131.05376221 53.33910645 130.22690918 52.75 129.375 C47.84203999 122.4655832 42.66544124 116.31751901 36.5625 110.4375 C25.34167315 99.5573409 19.92861293 89.37516594 15.67578125 74.359375 C13.12778946 65.41790155 10.29153125 56.94704413 6.375 48.5 C5.79165894 47.23663818 5.79165894 47.23663818 5.1965332 45.94775391 C4.82101318 45.13483887 4.44549316 44.32192383 4.05859375 43.484375 C-3.01367316 28.15953502 -3.03138004 16.67259024 0 0 Z " fill="#FCDE80" transform="translate(57,264)"/>
<path d="M0 0 C13.08745546 1.67936375 23.39836492 8.59389323 34 16 C32.34587599 20.53124396 30.10298274 24.61864057 27.75 28.8125 C27.31453857 29.59238281 26.87907715 30.37226562 26.43041992 31.17578125 C21.62754585 39.73353842 16.66206012 48.19617718 11.703125 56.6640625 C7.96365411 63.05281992 4.25874966 69.46116076 0.5625 75.875 C-0.05971436 76.95458984 -0.68192871 78.03417969 -1.32299805 79.14648438 C-2.58511517 81.3368252 -3.84707785 83.52725502 -5.10888672 85.71777344 C-8.23680148 91.14659942 -11.36858448 96.57319281 -14.5 102 C-15.75001879 104.16665583 -17.00001878 106.3333225 -18.25 108.5 C-20.75 112.83333333 -23.25 117.16666667 -25.75 121.5 C-26.36939453 122.57362793 -26.98878906 123.64725586 -27.62695312 124.75341797 C-28.8704051 126.90871311 -30.11389436 129.06398673 -31.35742188 131.21923828 C-34.24462875 136.22337674 -37.1315043 141.2277052 -40.01696777 146.23284912 C-41.02619104 147.98341241 -42.03553836 149.73390411 -43.04492188 151.484375 C-44.3016766 153.66392165 -45.55820586 155.84359832 -46.81445312 158.0234375 C-50.85416442 165.02861283 -54.9193684 172.01858507 -59 179 C-61.86255693 175.58200412 -64.16686267 172.15887658 -66.3125 168.25390625 C-66.91320312 167.16916016 -67.51390625 166.08441406 -68.1328125 164.96679688 C-68.74898437 163.84337891 -69.36515625 162.71996094 -70 161.5625 C-74.44086981 153.28638845 -74.44086981 153.28638845 -79.46875 145.3671875 C-81 143 -81 143 -80.5 140.5625 C-79.65765318 139.12349086 -78.80663202 137.68920492 -77.92578125 136.2734375 C-75.66190036 132.90765525 -75.66190036 132.90765525 -75.23046875 129.0390625 C-76.0836177 126.77843432 -77.16573144 124.9505389 -78.5 122.9375 C-82.14128911 117.42264063 -82.83083245 112.52392295 -82 106 C-79.52277126 99.21965411 -75.56296026 94.53269929 -69.26171875 91.03515625 C-65.04696167 89.14156974 -61.33128024 88.8661021 -56.7265625 88.92578125 C-55.11515381 88.94185425 -55.11515381 88.94185425 -53.47119141 88.95825195 C-52.65569824 88.97202881 -51.84020508 88.98580566 -51 89 C-50.39696045 87.95211304 -50.39696045 87.95211304 -49.78173828 86.88305664 C-48.5789646 84.79373066 -47.37562651 82.70472955 -46.171875 80.6159668 C-44.80248829 78.23978238 -43.43564615 75.86215784 -42.0703125 73.48364258 C-39.01831637 68.17462729 -35.95371047 62.87899299 -32.7421875 57.6640625 C-32.27280762 56.89570068 -31.80342773 56.12733887 -31.31982422 55.33569336 C-30.46128085 53.9382973 -29.59106255 52.54798485 -28.70751953 51.16625977 C-27.00200776 48.37598432 -25.96865619 46.56579602 -26.15234375 43.25 C-27.03219891 40.80616558 -27.03219891 40.80616558 -28.5625 37.8125 C-30.83165037 32.64512787 -30.92543286 27.23610485 -29.37890625 21.828125 C-26.61015274 15.47845027 -21.54567557 11.05275954 -15.625 7.625 C-13 7 -13 7 -10.578125 6.8828125 C-7.95661251 6.75400986 -5.5516383 6.62461979 -3 6 C-0.76113268 3.11320156 -0.76113268 3.11320156 0 0 Z " fill="#FCB100" transform="translate(316,62)"/>
<path d="M0 0 C2.57637541 1.12238137 3.31301676 2.39091624 4.72265625 4.796875 C5.150625 5.50714844 5.57859375 6.21742187 6.01953125 6.94921875 C6.97265625 8.859375 6.97265625 8.859375 6.97265625 10.859375 C5.86857422 11.22289063 5.86857422 11.22289063 4.7421875 11.59375 C-2.94188077 14.23292801 -7.77635237 16.26410791 -11.83984375 23.546875 C-14.54890441 29.39364517 -15.11631512 34.00313521 -13.36328125 40.2109375 C-10.76125807 46.97619778 -6.65669958 51.12359613 -0.15234375 54.234375 C6.92233359 55.64931047 13.58731311 55.51387957 19.97265625 51.859375 C22.20682556 49.98724592 24.02664075 48.04864243 25.97265625 45.859375 C29.50863663 47.03803513 29.7038062 47.63703563 31.41796875 50.7890625 C31.85496094 51.58441406 32.29195313 52.37976563 32.7421875 53.19921875 C33.18949219 54.03582031 33.63679688 54.87242187 34.09765625 55.734375 C34.55269531 56.56324219 35.00773437 57.39210937 35.4765625 58.24609375 C37.21311373 61.4357828 38.82179651 64.40679579 39.97265625 67.859375 C38.84988281 67.88515625 37.72710937 67.9109375 36.5703125 67.9375 C24.72703714 68.27073364 24.72703714 68.27073364 13.97265625 72.859375 C12.93238281 73.51099609 12.93238281 73.51099609 11.87109375 74.17578125 C6.81860686 77.64818329 3.2200516 81.68083626 -0.02734375 86.859375 C-0.44242187 87.50261719 -0.8575 88.14585937 -1.28515625 88.80859375 C-5.65999737 96.83933357 -5.44326541 108.13948323 -2.90234375 116.796875 C1.21439628 126.80284036 8.02735614 134.44125349 18.03515625 138.796875 C19.00453125 139.1475 19.97390625 139.498125 20.97265625 139.859375 C20.97265625 140.189375 20.97265625 140.519375 20.97265625 140.859375 C4.47265625 140.859375 -12.02734375 140.859375 -29.02734375 140.859375 C-27.04734375 137.559375 -25.06734375 134.259375 -23.02734375 130.859375 C-21.32622351 122.60365585 -23.41868549 116.17369443 -27.65234375 109.171875 C-32.31188872 104.63494964 -37.6763001 102.63905939 -44.15234375 102.421875 C-51.52565387 102.76428878 -56.78709531 105.73822312 -62.02734375 110.859375 C-65.90616983 117.33332043 -65.95855083 123.49361089 -65.02734375 130.859375 C-63.74932864 133.92844355 -62.1239634 136.30218644 -60.02734375 138.859375 C-59.53234375 139.849375 -59.53234375 139.849375 -59.02734375 140.859375 C-65.62734375 140.859375 -72.22734375 140.859375 -79.02734375 140.859375 C-79.83400372 125.37150356 -75.4425574 113.63623667 -69.05200195 99.79980469 C-64.81314805 90.47011632 -61.86014482 80.6780899 -59.203125 70.79296875 C-55.46317205 56.97892288 -45.81787247 47.3008302 -35.65234375 37.734375 C-30.67220661 32.85241261 -26.85076853 27.20589491 -22.83789062 21.53393555 C-7.17933152 -0.49798831 -7.17933152 -0.49798831 0 0 Z " fill="#FCDD80" transform="translate(134.02734375,95.140625)"/>
<path d="M0 0 C0.62003906 0.4125 1.24007812 0.825 1.87890625 1.25 C7.41082454 4.8574227 13.02915052 8.25044878 18.8125 11.4375 C19.43390869 11.79134766 20.05531738 12.14519531 20.69555664 12.50976562 C24.60810466 14.62550568 27.56413904 15.7485902 32 15 C32.58394531 14.33484375 33.16789062 13.6696875 33.76953125 12.984375 C36.41460207 10.63114212 37.08836043 10.73769408 40.51171875 10.828125 C42.2385864 10.94740212 43.96404161 11.08878563 45.6875 11.25 C46.56728516 11.31574219 47.44707031 11.38148438 48.35351562 11.44921875 C49.97169865 11.57148701 51.58926338 11.70245544 53.20581055 11.84472656 C54.13517025 11.92515557 55.06716653 12 56 12 C56.2475 13.11375 56.495 14.2275 56.75 15.375 C57.57878507 18.97101871 57.57878507 18.97101871 59.71362305 20.13452148 C62.39312825 21.14881363 65.03842542 21.83267934 67.83203125 22.47265625 C68.96060547 22.73240234 70.08917969 22.99214844 71.25195312 23.25976562 C72.42693359 23.52466797 73.60191406 23.78957031 74.8125 24.0625 C76.55756836 24.4656543 76.55756836 24.4656543 78.33789062 24.87695312 C94.94108943 28.66630015 108.90896355 28.69009081 125.4921875 24.015625 C134.48634063 21.50113058 143.18919231 20.43160157 152.5 19.625 C168.91933438 18.13356755 181.00743453 13.90059638 195 5 C195.83015625 4.48695313 196.6603125 3.97390625 197.515625 3.4453125 C199.351419 2.30917426 201.17715756 1.15680385 203 0 C204.52304476 2.32083012 206.01733491 4.65356005 207.5 7 C208.14388672 7.97259766 208.14388672 7.97259766 208.80078125 8.96484375 C211.85432416 13.86020619 212.91422448 17.22595064 212 23 C194.64369758 42.46720406 147.98698894 48.90877693 123.07421875 50.84765625 C81.33441643 52.91608356 41.51679525 47.58269146 2.9375 30.8125 C2.19314697 30.49168457 1.44879395 30.17086914 0.68188477 29.84033203 C-6.56177187 26.56551282 -6.56177187 26.56551282 -9 23 C-10.03790954 16.70385754 -7.66049016 12.74931044 -4.5 7.5625 C-4.07074219 6.83095703 -3.64148438 6.09941406 -3.19921875 5.34570312 C-2.14632537 3.55578437 -1.07499718 1.77673146 0 0 Z " fill="#FB9E00" transform="translate(155,446)"/>
<path d="M0 0 C0.81462708 -0.00199402 1.62925415 -0.00398804 2.46856689 -0.00604248 C36.59101369 0.00343717 69.95936279 7.92676316 100.875 22.375 C101.62104492 22.72240234 102.36708984 23.06980469 103.13574219 23.42773438 C103.86180664 23.77642578 104.58787109 24.12511719 105.3359375 24.484375 C106.31892822 24.95568848 106.31892822 24.95568848 107.32177734 25.43652344 C108.875 26.375 108.875 26.375 109.875 28.375 C110.58939494 34.81267263 108.60795292 38.50676796 105.375 43.8125 C104.94574219 44.54404297 104.51648438 45.27558594 104.07421875 46.02929688 C103.02132537 47.81921563 101.94999718 49.59826854 100.875 51.375 C100.2665625 50.9625 99.658125 50.55 99.03125 50.125 C81.41194762 38.51698902 65.21888372 32.86884276 44.19604492 31.30541992 C34.88870876 30.50143859 26.06580617 28.14498896 17.0703125 25.71484375 C2.21869616 21.75069052 -11.23401529 23.54266961 -25.91015625 27.359375 C-35.98987279 29.96433049 -45.95202636 31.28835683 -56.33300781 32.16015625 C-73.83919536 33.79152023 -87.67303458 41.84654985 -102.125 51.375 C-103.64419198 48.86411326 -105.1398853 46.34343871 -106.625 43.8125 C-107.05425781 43.10802734 -107.48351562 42.40355469 -107.92578125 41.67773438 C-110.56625819 37.1302463 -112.01485815 33.77303658 -111.125 28.375 C-108.09907738 23.64806439 -102.24849132 21.99406997 -97.25 19.9375 C-96.29963867 19.54135498 -95.34927734 19.14520996 -94.37011719 18.73706055 C-91.62710349 17.60267034 -88.87750547 16.48612247 -86.125 15.375 C-84.93132812 14.88515625 -83.73765625 14.3953125 -82.5078125 13.890625 C-56.32560565 3.83561289 -27.88235547 0.01792907 0 0 Z " fill="#FB9E00" transform="translate(257.125,14.625)"/>
<path d="M0 0 C2.61569333 1.37161677 4.87113138 3.11419897 7.1875 4.9375 C7.8475 5.44112061 8.5075 5.94474121 9.1875 6.46362305 C11.13750085 7.96043802 13.070155 9.47733222 15 11 C15.95519531 11.73992187 16.91039062 12.47984375 17.89453125 13.2421875 C67.9880983 53.04667107 100.31920957 112.21548262 107.75244141 175.66210938 C108.85504566 186.07486912 108.85504566 186.07486912 108 190 C106.11857107 192.22139966 104.60264246 193.69867877 102 195 C100.55151418 195.08342159 99.09929131 195.10732861 97.6484375 195.09765625 C96.79765625 195.09443359 95.946875 195.09121094 95.0703125 195.08789062 C94.18085938 195.07951172 93.29140625 195.07113281 92.375 195.0625 C91.4778125 195.05798828 90.580625 195.05347656 89.65625 195.04882812 C87.43743352 195.03702591 85.21874982 195.02056155 83 195 C83.02618408 194.175 83.05236816 193.35 83.0793457 192.5 C83.92052361 170.2296974 83.92052361 170.2296974 78 149 C77.34215192 147.47799249 76.68461686 145.95584965 76.02734375 144.43359375 C74.6632223 141.31555603 73.27009532 138.21260849 71.85546875 135.1171875 C68.50877778 127.75613654 66.06791929 120.39393975 64.0625 112.5625 C59.55146767 95.42057716 51.43213676 84.17087061 38.87939453 72.07470703 C32.49045013 65.77518549 27.37669315 58.72498646 22.21875 51.41015625 C19.49689393 47.56519602 16.50389163 44.07964755 13.30273438 40.62670898 C12 39 12 39 12 37 C11.42765625 36.73445313 10.8553125 36.46890625 10.265625 36.1953125 C7.89089735 34.94243895 5.89533111 33.48774891 3.75 31.875 C-3.03478943 27.03599853 -10.50329038 23.5809345 -18 20 C-16.706487 15.64324228 -15.03309387 12.12199635 -12.5625 8.3125 C-11.96566406 7.38050781 -11.36882812 6.44851562 -10.75390625 5.48828125 C-7.46710917 0.82527515 -6.03043518 -0.91720391 0 0 Z " fill="#FB9D00" transform="translate(389,54)"/>
<path d="M0 0 C7.11227716 3.1458149 11.05432768 11.62195106 14.25 18.4375 C14.25 19.0975 14.25 19.7575 14.25 20.4375 C13.66621582 20.72359131 13.08243164 21.00968262 12.48095703 21.30444336 C-3.4193976 29.04409153 -3.4193976 29.04409153 -16.75 40.4375 C-17.34039062 41.0459375 -17.93078125 41.654375 -18.5390625 42.28125 C-22.26623503 46.29774643 -25.37041997 50.7015263 -28.5 55.1875 C-34.51219096 63.79067544 -41.45269197 71.27745363 -49 78.5625 C-60.187087 89.63519961 -65.81381772 103.44808902 -69.5 118.5 C-71.88814351 127.86887069 -75.66928649 136.37794081 -79.77758789 145.11621094 C-85.38303044 157.30860507 -87.22265996 168.37672899 -86.9375 181.75 C-86.92396484 182.97912109 -86.91042969 184.20824219 -86.89648438 185.47460938 C-86.86160365 188.46272513 -86.81259698 191.44985873 -86.75 194.4375 C-90.16637953 194.55382513 -93.58224897 194.62478897 -97 194.6875 C-97.96808594 194.72101563 -98.93617187 194.75453125 -99.93359375 194.7890625 C-107.04794132 194.88719143 -107.04794132 194.88719143 -110.390625 192.74609375 C-116.99306972 181.53332125 -109.11418881 157.67859982 -106.20703125 146 C-101.09695776 126.61546933 -94.23192733 108.10100041 -84.75 90.4375 C-84.36585937 89.70934082 -83.98171875 88.98118164 -83.5859375 88.23095703 C-66.94991551 56.77680093 -43.44263063 30.67110955 -15.53613281 8.83837891 C-13.95032726 7.59461834 -12.37659554 6.33549775 -10.8046875 5.07421875 C-7.06111892 2.21788737 -4.73220168 0.5520902 0 0 Z " fill="#FC9E00" transform="translate(127.75,53.5625)"/>
<path d="M0 0 C1.47533203 0.02707031 1.47533203 0.02707031 2.98046875 0.0546875 C5.40463783 0.10175874 7.82682059 0.16749258 10.25 0.25 C10.23428955 1.00506836 10.2185791 1.76013672 10.20239258 2.53808594 C10.13926452 6.02531157 10.10076502 9.51241633 10.0625 13 C10.03736328 14.18722656 10.01222656 15.37445313 9.98632812 16.59765625 C9.88760826 28.64147976 12.58227715 38.50139043 17.5625 49.375 C22.23196456 59.91472988 26.09046449 70.60056097 29.22265625 81.6953125 C33.9548839 98.37078135 41.71904386 110.21245135 54.16235352 122.07275391 C59.12913817 126.88595131 63.19959424 131.98555453 67.1875 137.625 C76.916705 151.08791246 86.18947604 161.57985603 101.1875 169.125 C102.15751953 169.62257813 103.12753906 170.12015625 104.12695312 170.6328125 C106.49711345 171.84708183 108.87132923 173.05251301 111.25 174.25 C109.9579635 178.58024115 108.3059914 182.13177765 105.875 185.9375 C105.28976563 186.86949219 104.70453125 187.80148437 104.1015625 188.76171875 C102.27424302 191.21742024 100.91393749 192.75839455 98.25 194.25 C94.23952392 194.65303176 92.2715145 193.99205322 89.0625 191.609375 C88.28753174 191.03904541 87.51256348 190.46871582 86.71411133 189.88110352 C85.49437622 188.94995728 85.49437622 188.94995728 84.25 188 C82.98675903 187.05241821 82.98675903 187.05241821 81.69799805 186.08569336 C75.45546553 181.33551348 69.61587605 176.28127088 63.96484375 170.84765625 C61.74152004 168.72030335 59.48488116 166.72052451 57.125 164.75 C46.31707057 155.31844572 37.67495647 143.77645144 29.25 132.25 C28.59499512 131.36417236 28.59499512 131.36417236 27.92675781 130.46044922 C14.44838169 112.0385767 4.58716973 90.78195561 -2.75 69.25 C-3.15871338 68.10072021 -3.15871338 68.10072021 -3.57568359 66.92822266 C-10.04287661 48.7180711 -14.52349122 28.81344708 -15.0625 9.4375 C-15.09988281 8.54417969 -15.13726562 7.65085937 -15.17578125 6.73046875 C-14.75 4.25 -14.75 4.25 -13.40234375 1.94140625 C-9.1657696 -0.76026769 -4.90484053 -0.16980806 0 0 Z " fill="#FC9E00" transform="translate(30.75,263.75)"/>
<path d="M0 0 C7.97727398 6.70945722 13.24228493 16.21891829 14.53515625 26.60546875 C14.8589913 36.5880363 11.92714717 44.75526659 6.1875 52.8125 C5.32125 54.111875 5.32125 54.111875 4.4375 55.4375 C-2.72301787 62.99582442 -11.32954573 66.78284756 -21.64208984 67.21508789 C-32.51195741 67.39511929 -40.36691113 64.73690813 -48.7734375 57.80078125 C-56.47400678 50.2919886 -60.82122642 40.39951555 -61.125 29.6875 C-61.00957215 20.14546448 -57.13823312 10.94688354 -50.8125 3.8125 C-35.83291232 -9.28603685 -16.83276125 -12.02340089 0 0 Z " fill="#040301" transform="translate(164.8125,323.1875)"/>
<path d="M0 0 C8.84438991 6.189502 14.98888551 14.59026652 16.91796875 25.29296875 C18.30855589 36.39835218 15.67634053 45.44657293 9.19921875 54.5390625 C8.33296875 55.8384375 8.33296875 55.8384375 7.44921875 57.1640625 C0.28870088 64.72238692 -8.31782698 68.50941006 -18.63037109 68.94165039 C-29.49702348 69.12162853 -37.36295296 66.46800002 -45.76171875 59.5234375 C-53.12809661 52.35462533 -57.8489897 42.23906348 -58.05078125 31.9140625 C-57.89838097 21.52036341 -53.9157435 11.66285888 -46.5390625 4.2734375 C-32.97923896 -7.22154635 -15.5014141 -9.25215292 0 0 Z " fill="#040302" transform="translate(248.80078125,67.4609375)"/>
<path d="M0 0 C8.16498351 5.768066 13.53688445 13.1926846 16.6875 22.64453125 C17.49366693 35.76787165 17.25939003 45.60201693 8.375 55.95703125 C-0.27191258 64.95659116 -7.97117553 68.88724445 -20.625 69.20703125 C-31.41499278 69.19524792 -39.83283524 64.87978913 -47.6328125 57.484375 C-55.12275834 49.28027153 -57.94154567 39.59107968 -57.58984375 28.58984375 C-56.55644945 17.61548736 -51.47592511 8.80529917 -43 1.76953125 C-29.84619187 -7.59757454 -14.08141431 -8.25380197 0 0 Z " fill="#030201" transform="translate(254.3125,368.35546875)"/>
<path d="M0 0 C7.89642298 6.14166232 12.62586794 12.62760383 15.8125 22.1875 C16.83400853 35.59844766 15.50909213 45.91368325 6.625 56.625 C2.21858578 61.19271391 -2.29702994 63.91659488 -8.1875 66.1875 C-9.26 66.620625 -10.3325 67.05375 -11.4375 67.5 C-22.5506599 69.53741265 -31.94484298 68.69324538 -41.5546875 62.71484375 C-49.44656394 57.09487113 -55.38180944 49.43218916 -57.74609375 39.9453125 C-59.6489371 28.05675139 -58.12378978 18.47689402 -51.34375 8.46484375 C-37.80083161 -8.28693776 -18.01541455 -10.24405925 0 0 Z " fill="#030200" transform="translate(420.1875,170.8125)"/>
<path d="M0 0 C9.26037744 5.68946931 15.82360972 13.13793046 19.34375 23.5234375 C21.17769536 34.12171121 20.30922957 44.34850763 14.71484375 53.66796875 C8.14465385 62.85782925 -0.11314218 68.64651316 -11.28515625 70.66796875 C-22.10890552 71.82402648 -30.82427517 70.15773357 -39.8203125 63.90625 C-48.3799875 56.8613088 -53.40694522 48.01229994 -54.7265625 36.9765625 C-55.10125365 24.99853257 -52.30074701 15.81415514 -44.03515625 6.66796875 C-31.94955542 -4.15413745 -14.68598119 -7.19190025 0 0 Z " fill="#030201" transform="translate(183.28515625,166.33203125)"/>
<path d="M0 0 C4.95321872 3.29297319 9.83923222 8.47501077 11.109375 14.40234375 C12.10156234 22.07801526 10.63972939 28.08598427 6.109375 34.40234375 C1.16398842 39.22808388 -4.12977213 42.36609242 -11.078125 42.83984375 C-17.31959671 42.68354646 -22.83850525 40.05382725 -27.52734375 35.98046875 C-32.54715405 30.37275274 -34.51032215 24.27484839 -34.23046875 16.88671875 C-33.24747116 9.70066743 -29.34392519 5.25864886 -23.82421875 0.8125 C-16.65803545 -4.41374681 -7.75505863 -3.86377921 0 0 Z " fill="#050401" transform="translate(267.890625,310.59765625)"/>
<path d="M0 0 C4.83296556 3.46640289 8.84548932 8.80244373 10.265625 14.625 C11.33789512 21.96931586 9.33748153 27.5064998 5.265625 33.625 C1.27209091 38.2219527 -4.0800545 41.13456746 -10.12109375 41.9453125 C-16.17084394 42.22324896 -20.83240849 41.25834164 -25.734375 37.625 C-31.76964954 32.03016956 -34.69257657 27.03544767 -35.109375 18.75 C-34.9407754 12.50244814 -33.15596339 8.18814262 -28.86328125 3.64453125 C-19.99368909 -4.48732546 -10.74910502 -5.9491902 0 0 Z " fill="#040402" transform="translate(107.734375,281.375)"/>
<path d="M0 0 C4.95321872 3.29297319 9.83923222 8.47501077 11.109375 14.40234375 C12.11159511 22.15562987 10.4815631 27.93610767 6.109375 34.40234375 C2.17426091 38.9212385 -3.07900879 41.75522234 -8.984375 42.7578125 C-15.44928127 43.17894196 -20.6426404 41.10889994 -25.890625 37.40234375 C-30.97656574 32.20105178 -33.91052103 26.88057209 -34.265625 19.58984375 C-34.09795108 13.3113868 -32.33510561 8.98971675 -28.01953125 4.421875 C-19.65484591 -3.24707092 -10.46782745 -5.21535375 0 0 Z " fill="#040300" transform="translate(319.890625,71.59765625)"/>
<path d="M0 0 C4.84556267 3.23307609 8.99408962 7.78864788 10.3359375 13.55859375 C11.34796038 21.29433031 9.7457099 27.13229226 5.3359375 33.55859375 C1.00363323 38.43495483 -3.41538306 41.10005162 -9.98046875 41.80859375 C-16.08428032 42.10679523 -20.6898921 41.19562157 -25.6640625 37.55859375 C-31.31618963 32.38068137 -34.70858136 26.43875945 -35.1640625 18.68359375 C-34.953292 12.38922007 -32.4075015 7.65752062 -28.27734375 2.9921875 C-19.8187386 -4.77118983 -9.76956903 -5.30562749 0 0 Z " fill="#040300" transform="translate(268.6640625,154.44140625)"/>
<path d="M0 0 C4.89548212 3.40555278 8.91297866 8.79086874 10.3359375 14.625 C11.40820762 21.96931586 9.40779403 27.5064998 5.3359375 33.625 C1.34240341 38.2219527 -4.009742 41.13456746 -10.05078125 41.9453125 C-16.10053144 42.22324896 -20.76209599 41.25834164 -25.6640625 37.625 C-31.69933704 32.03016956 -34.62226407 27.03544767 -35.0390625 18.75 C-34.88509307 12.71802129 -33.14472023 8.39454446 -29.12109375 3.90234375 C-20.42293182 -4.19869036 -10.44490887 -5.65631988 0 0 Z " fill="#040301" transform="translate(187.6640625,270.375)"/>
<path d="M0 0 C6.8133702 2.56092 10.92066143 7.55263487 14 14 C15.87749119 19.63247357 15.93023685 25.70608472 13.5 31.1875 C10.36946567 36.66038449 5.68944299 40.6838896 0.0625 43.4375 C-7.0257225 44.73941842 -13.62219319 44.66301735 -20 41 C-26.07921171 36.39490576 -29.14214747 31.32061343 -30.34765625 23.84375 C-30.78878948 17.41904043 -28.69649166 12.20508372 -25 7 C-17.3561726 -0.21998228 -10.23467361 -1.07022475 0 0 Z " fill="#040301" transform="translate(149,107)"/>
<path d="M0 0 C5.85506262 2.97534943 9.62548635 8.53269264 12.125 14.5 C13.33802918 22.49322384 11.680104 28.87656794 7.125 35.5 C3.03325232 40.17314883 -1.52572784 42.14993483 -7.640625 42.7890625 C-14.78412506 43.13008386 -19.4605587 42.27226338 -24.875 37.5 C-29.99284212 32.38215788 -32.88613364 26.74822818 -33.3125 19.5 C-33.03751638 13.87933478 -30.83656864 9.5459804 -26.96875 5.51171875 C-18.90849367 -1.75153462 -10.58879068 -4.06293157 0 0 Z " fill="#040300" transform="translate(314.875,394.5)"/>
<path d="M0 0 C5.06630556 4.48048008 7.58588066 8.9892826 8.28515625 15.76171875 C8.63409344 22.89256334 7.78320298 27.6032448 3 33 C-2.10304091 38.22326962 -7.0438799 40.28951612 -14.3125 40.4375 C-21.45599982 40.31642373 -25.53775056 38.471127 -30.5234375 33.47265625 C-35.94920425 27.30986338 -36.51353712 22.56175218 -36.37109375 14.484375 C-35.7321025 8.48458352 -33.42801958 5.1876216 -29.02734375 1.22265625 C-20.28313333 -5.72367913 -9.4946519 -6.19058566 0 0 Z " fill="#030301" transform="translate(104,201)"/>
<path d="M0 0 C4.53943439 3.20430663 8.34155958 6.58922232 10 12 C10.94573659 19.42447413 11.1553827 26.23498949 6.4921875 32.38671875 C2.01572333 37.22645619 -2.3367295 40.55440372 -9.05078125 41.37109375 C-16.41394623 41.5210025 -21.43905081 41.04702261 -27 36 C-31.82148255 31.16615467 -34.28603994 27.05829474 -34.3125 20.1875 C-34.15281144 11.97351961 -31.64494924 6.91375634 -26 1 C-18.15473162 -4.54909227 -8.33347424 -4.64751448 0 0 Z " fill="#040301" transform="translate(338,194)"/>
<path d="M0 0 C14.52 0 29.04 0 44 0 C44 4.95 44 9.9 44 15 C42.659375 15.226875 41.31875 15.45375 39.9375 15.6875 C34.3244377 16.9672076 30.37393331 19.08489648 26.71484375 23.578125 C23.34010405 29.14221197 23.5212241 35.05157773 23.46875 41.4140625 C22.92071536 45.60652749 21.63064895 47.73235472 19 51 C15.10145984 53.3180509 11.46866379 53.47878541 7 53 C3.46553347 50.80077638 1.562639 48.82157165 0 45 C-0.24050903 42.81060791 -0.24050903 42.81060791 -0.22705078 40.41503906 C-0.22689972 39.51440735 -0.22674866 38.61377563 -0.22659302 37.68585205 C-0.21627045 36.72217712 -0.20594788 35.7585022 -0.1953125 34.765625 C-0.1924826 33.77246277 -0.18965271 32.77930054 -0.18673706 31.75604248 C-0.17555143 28.58723856 -0.15044962 25.41871835 -0.125 22.25 C-0.11496812 20.1002645 -0.10584263 17.95052457 -0.09765625 15.80078125 C-0.07731986 10.5336572 -0.03816772 5.2671458 0 0 Z " fill="#FEDF81" transform="translate(365,264)"/>
<path d="M0 0 C5.29963804 3.05037306 10.19480578 8.20575237 12.15625 14.078125 C13.32191194 20.8313621 13.350319 27.34744961 9.84765625 33.375 C6.13479552 38.35088667 1.68686898 41.95010841 -4.484375 43.16015625 C-10.83410371 43.74908556 -16.95214546 43.61923145 -22.484375 40.16015625 C-27.52321023 35.56855492 -31.0163273 31.00800102 -31.85546875 24.109375 C-32.0053775 16.74621002 -31.53139761 11.72110544 -26.484375 6.16015625 C-19.15014948 -1.15531166 -10.07462949 -3.40573167 0 0 Z " fill="#030301" transform="translate(383.484375,114.83984375)"/>
<path d="M0 0 C5.53372281 3.25387183 9.69737666 7.95535364 12.95703125 13.4375 C14.49418326 20.04725366 14.39701738 26.26537886 10.98046875 32.23828125 C7.08174189 37.49829543 2.13997213 41.92048025 -4.41796875 43.125 C-10.48585471 43.73745952 -16.1206853 43.35084064 -21.41796875 40.125 C-27.09185324 35.17882815 -30.56813974 29.56390566 -31.73046875 22.125 C-32.06723343 16.73676506 -30.55246634 12.48717582 -27.41796875 8.125 C-19.76754896 0.14536132 -11.1748386 -4.04388344 0 0 Z " fill="#EC514E" transform="translate(150.41796875,331.875)"/>
<path d="M0 0 C4.59890069 3.37507681 8.39255523 7.54095073 10.5625 12.875 C11.52936863 21.77772545 10.37094784 27.66232824 5.4375 35.0625 C0.8619184 40.14194029 -5.18439941 42.08361184 -11.875 42.5 C-18.12649022 42.23696395 -22.71982863 39.91264667 -27.4375 35.875 C-32.99695427 29.08863168 -34.26604967 22.51558939 -33.4375 13.875 C-31.66820636 7.62918029 -27.75076167 3.44063256 -22.4375 -0.125 C-15.83399782 -3.503536 -6.46030601 -3.81243865 0 0 Z " fill="#EC524F" transform="translate(410.4375,182.125)"/>
<path d="M0 0 C6.21110514 2.73669384 11.16420163 8.01810731 13.6640625 14.3359375 C14.52673493 21.91943004 14.50574625 29.13914693 9.6640625 35.3359375 C5.73871476 39.4070058 1.6710229 43.00937057 -4.10546875 43.63671875 C-12.56273865 43.66928847 -18.4300704 42.77175415 -24.98046875 36.90625 C-29.2619831 31.94610946 -30.99518288 26.00877418 -30.65625 19.53515625 C-29.70832263 13.02682566 -27.48166161 8.56686621 -22.3359375 4.3359375 C-21.50449219 3.63597656 -21.50449219 3.63597656 -20.65625 2.921875 C-14.40059052 -1.7244447 -7.42124324 -2.10971798 0 0 Z " fill="#EC514E" transform="translate(242.3359375,378.6640625)"/>
<path d="M0 0 C5.21275338 3.29087966 9.9487687 7.7613163 11.85546875 13.79296875 C13.38113128 21.79158782 12.68388099 27.90561672 8.11328125 34.734375 C4.16229231 39.35079366 -1.02262978 42.41341686 -7.08984375 43.2109375 C-14.71720467 43.57309996 -19.90755018 41.90646512 -25.7421875 36.90234375 C-27.77384475 34.38028648 -29.33308476 31.81230476 -30.7421875 28.90234375 C-31.0721875 28.24234375 -31.4021875 27.58234375 -31.7421875 26.90234375 C-32.31925801 20.31042297 -32.40276745 13.62879555 -28.7421875 7.90234375 C-20.94819941 -0.47081543 -11.35625102 -4.54573581 0 0 Z " fill="#EC514E" transform="translate(175.7421875,179.09765625)"/>
<path d="M0 0 C6.18069645 2.78012022 11.1683399 8.01835741 13.6484375 14.34765625 C14.51235848 21.73190718 14.77126997 28.62558629 10.140625 34.734375 C5.75530775 39.47556878 1.42520462 42.84654888 -5.1484375 43.71875 C-12.40105267 43.88183791 -17.64109452 43.01666593 -23.3515625 38.34765625 C-25.3746985 36.17080159 -26.91235911 33.94185059 -28.3515625 31.34765625 C-28.7846875 30.58453125 -29.2178125 29.82140625 -29.6640625 29.03515625 C-31.34480847 22.46496746 -31.14118912 16.19153455 -27.7578125 10.234375 C-20.72347336 0.79663665 -11.61529478 -3.2221831 0 0 Z " fill="#EC514E" transform="translate(236.3515625,77.65234375)"/>
<path d="M0 0 C5.53702586 2.8476133 9.66145013 7.19538515 12 13 C12.96686863 21.90272545 11.80844784 27.78732824 6.875 35.1875 C2.2994184 40.26694029 -3.74689941 42.20861184 -10.4375 42.625 C-16.61056284 42.41603878 -21.22690935 39.79097323 -26 36 C-26.33 35.34 -26.66 34.68 -27 34 C-26.34773438 33.82984375 -25.69546875 33.6596875 -25.0234375 33.484375 C-16.42751535 31.10084496 -9.97635891 27.58369062 -5 20 C-1.89066207 13.47532581 -0.47075703 7.17904471 0 0 Z " fill="#D02E2E" transform="translate(409,182)"/>
<path d="M0 0 C5.52468719 3.09532559 9.14653425 6.8828076 12.375 12.3125 C13.91215201 18.92225366 13.81498613 25.14037886 10.3984375 31.11328125 C6.49971064 36.37329543 1.55794088 40.79548025 -5 42 C-11.08326955 42.61401225 -16.62814309 42.10427849 -22 39 C-24.5 36.3125 -24.5 36.3125 -26 34 C-24.865625 33.79375 -23.73125 33.5875 -22.5625 33.375 C-15.47286441 31.59944295 -8.90310435 27.21605508 -5 21 C-1.08666397 14.18685381 -0.26345744 7.78516743 0 0 Z " fill="#D02E2E" transform="translate(151,333)"/>
<path d="M0 0 C5.51826599 2.83796537 9.70213688 7.19433699 12 13 C12.86392098 20.38425093 13.12283247 27.27793004 8.4921875 33.38671875 C4.10687025 38.12791253 -0.22323288 41.49889263 -6.796875 42.37109375 C-14.0032535 42.53314194 -19.26431794 41.56539716 -25 37 C-25.66 36.01 -26.32 35.02 -27 34 C-25.700625 33.79375 -24.40125 33.5875 -23.0625 33.375 C-15.50929772 31.65296489 -9.98031941 27.85865755 -5.5625 21.5 C-1.34445974 14.48546896 -0.54476119 8.05673122 0 0 Z " fill="#D12E2E" transform="translate(238,79)"/>
<path d="M0 0 C5.65530762 3.09695417 9.4608992 7.00007002 12 13 C13.08538672 19.72610863 12.87880739 26.32811069 9.33984375 32.28515625 C6.06529319 36.4761991 1.96761636 40.01838255 -3 42 C-9.90172867 42.74955304 -15.97825323 42.56389095 -22 39 C-24.9375 36.3125 -24.9375 36.3125 -27 34 C-25.700625 33.79375 -24.40125 33.5875 -23.0625 33.375 C-15.54195159 31.66040956 -9.99711782 27.86999039 -5.5625 21.5625 C-1.42309316 14.70160469 -0.59991904 7.84630954 0 0 Z " fill="#D02E2E" transform="translate(244,380)"/>
<path d="M0 0 C5.2969735 3.07963575 9.67674664 6.87755685 11.609375 12.8984375 C13.09776446 20.9059728 12.43219621 26.99411777 7.85546875 33.83203125 C3.90447981 38.44844991 -1.28044228 41.51107311 -7.34765625 42.30859375 C-14.99139719 42.67153397 -20.00191881 40.76390811 -26 36 C-26.33 35.34 -26.66 34.68 -27 34 C-25.845 33.773125 -24.69 33.54625 -23.5 33.3125 C-15.6494173 31.31517861 -9.4380879 26.76907175 -5 20 C-1.58596932 13.52097693 -0.30961339 7.2759147 0 0 Z " fill="#D02E2E" transform="translate(176,180)"/>
<path d="M0 0 C2 1.625 2 1.625 3 4 C2.93439072 7.739729 2.76345433 10.0603639 0.375 13 C-3.11581787 14.46981805 -5.39148956 13.98413921 -9 13 C-11 11.375 -11 11.375 -12 9 C-11.93439072 5.260271 -11.76345433 2.9396361 -9.375 0 C-5.88418213 -1.46981805 -3.60851044 -0.98413921 0 0 Z " fill="#F09700" transform="translate(261,167)"/>
<path d="M0 0 C2.9375 2.0625 2.9375 2.0625 5 5 C5.06700571 8.88633136 4.88788161 11.01698822 2.25 13.9375 C-0.54629833 15.25797421 -1.94511866 15.59607441 -5 15 C-7.875 12.9375 -7.875 12.9375 -10 10 C-10 6.43116591 -9.68455497 4.11690548 -7.8125 1.0625 C-4.99452602 -0.58941578 -3.20595185 -0.5129523 0 0 Z " fill="#F19700" transform="translate(259,323)"/>
<path d="M0 0 C2.875 2.0625 2.875 2.0625 5 5 C5.06641554 8.85210127 4.87229157 10.99848005 2.3125 13.9375 C-0.76819895 15.35295627 -2.64720251 15.55879958 -6 15 C-8.4375 12.9375 -8.4375 12.9375 -10 10 C-10 6.15050705 -9.86589381 3.95866815 -7.25 1.0625 C-4.45370167 -0.25797421 -3.05488134 -0.59607441 0 0 Z " fill="#F19700" transform="translate(98,293)"/>
<path d="M0 0 C2.875 2.0625 2.875 2.0625 5 5 C5.06641554 8.85210127 4.87229157 10.99848005 2.3125 13.9375 C-0.76819895 15.35295627 -2.64720251 15.55879958 -6 15 C-8.4375 12.9375 -8.4375 12.9375 -10 10 C-10 6.15050705 -9.86589381 3.95866815 -7.25 1.0625 C-4.45370167 -0.25797421 -3.05488134 -0.59607441 0 0 Z " fill="#F19700" transform="translate(178,282)"/>
<path d="M0 0 C1.9375 1.1875 1.9375 1.1875 3 3 C3.5 5.875 3.5 5.875 3 9 C0.70985284 12.0099077 -0.79135614 13.69783903 -4.5 14.625 C-8.25999106 13.68500224 -9.7473603 12.11394311 -12 9 C-12.06625411 5.1572617 -11.81899419 3.00799284 -9.375 0 C-5.91616747 -1.45635054 -3.58701629 -0.91305869 0 0 Z " fill="#F19700" transform="translate(313,85)"/>
<path d="M0 0 C2.4375 1.625 2.4375 1.625 4 4 C4.60605429 7.63632575 4.47161336 9.28314769 2.4375 12.375 C-0.95870843 14.63913895 -3.00099302 14.64269755 -7 14 C-9.5 11.875 -9.5 11.875 -11 9 C-10.936318 5.81590023 -10.51040601 3.85067668 -8.875 1.125 C-5.83167192 -0.70099685 -3.45750445 -0.42460581 0 0 Z " fill="#F69A00" transform="translate(308,408)"/>
<path d="M0 0 C2.5 1.5625 2.5 1.5625 4 4 C3.93913078 7.46954545 3.6274029 9.91947278 1.875 12.9375 C-1.22289358 14.69297303 -3.52844534 14.48723574 -7 14 C-9.69500656 11.58140437 -10.80636871 9.99236035 -11.5 6.4375 C-10.19781462 0.08934627 -5.87567428 -0.83938204 0 0 Z " fill="#F69A00" transform="translate(145,122)"/>
<path d="M0 0 C2.375 1.625 2.375 1.625 4 4 C4.48288863 7.31123632 4.29618989 9.296549 3 12.375 C0.28967961 14.57713531 -1.70883166 14.51345108 -5.125 14.3125 C-7 14 -7 14 -9 12.9375 C-10.60856522 9.82090489 -10.42213381 7.43737531 -10 4 C-7.26646839 -0.10029741 -4.80388991 -0.80064832 0 0 Z " fill="#F89B00" transform="translate(93,212)"/>
<path d="M0 0 C2.4375 1.625 2.4375 1.625 4 4 C4.61195145 7.6717087 4.48706506 9.28813568 2.375 12.375 C-0.69477548 14.4753727 -2.34556561 14.53293835 -6 14 C-8.375 13 -8.375 13 -10 11 C-10.66300779 7.42422767 -10.65930485 4.24104443 -8.9375 1 C-5.82090489 -0.60856522 -3.43737531 -0.42213381 0 0 Z " fill="#F89B00" transform="translate(377,129)"/>
<path d="M0 0 C2.375 1.625 2.375 1.625 4 4 C4.48288863 7.31123632 4.29618989 9.296549 3 12.375 C0.29455964 14.5731703 -1.7087924 14.5712063 -5.125 14.3828125 C-7 14 -7 14 -9 12.375 C-10.29618989 9.296549 -10.48288863 7.31123632 -10 4 C-7.21921757 -0.06422047 -4.81255755 -0.80209293 0 0 Z " fill="#F99C00" transform="translate(329,206)"/>
<path d="M0 0 C0.33 0 0.66 0 1 0 C1.67107802 6.93447292 0.61429578 10.98267462 -3.20703125 16.828125 C-5.81979949 19.99304688 -8.26215219 21.34672116 -12 23 C-12.66 23.33 -13.32 23.66 -14 24 C-15.87379605 24.07033769 -17.75001102 24.0843022 -19.625 24.0625 C-20.62789062 24.05347656 -21.63078125 24.04445312 -22.6640625 24.03515625 C-23.43492187 24.02355469 -24.20578125 24.01195312 -25 24 C-22.70257517 22.46838344 -20.7252941 21.37873411 -18.25 20.25 C-9.10881895 15.68779588 -4.41103044 8.9817362 0 0 Z " fill="#F5D577" transform="translate(201,212)"/>
</svg>
